<svg xmlns="http://www.w3.org/2000/svg" xmlns:xlink="http://www.w3.org/1999/xlink" width="733.047" height="229.823" viewBox="0 0 733.047 229.823">
  <defs>
    <linearGradient id="linear-gradient" x1="-3.306" y1="5.069" x2="-2.831" y2="5.069" gradientUnits="objectBoundingBox">
      <stop offset="0" stop-color="#e08051"/>
      <stop offset="0.04" stop-color="#e1874c"/>
      <stop offset="0.21" stop-color="#e49b3d"/>
      <stop offset="0.41" stop-color="#e6aa33"/>
      <stop offset="0.63" stop-color="#e7b22d"/>
      <stop offset="1" stop-color="#e7b52b"/>
    </linearGradient>
    <linearGradient id="linear-gradient-2" x1="-2.778" y1="6.178" x2="-2.303" y2="6.178" gradientUnits="objectBoundingBox">
      <stop offset="0" stop-color="#e08051"/>
      <stop offset="0.16" stop-color="#dc6e52"/>
      <stop offset="0.36" stop-color="#d86052"/>
      <stop offset="0.6" stop-color="#d65853"/>
      <stop offset="1" stop-color="#d55553"/>
    </linearGradient>
  </defs>
  <g id="Grupo_25697" data-name="Grupo 25697" transform="translate(-347 -12274.327)">
    <g id="grafico6-cp2" transform="translate(347 12274.327)">
      <path id="Trazado_64729" data-name="Trazado 64729" d="M252.54,135.172l136.018.421L451.213,25.86,383.556-92.377l-125.49-.4L222.56-30.78a17.69,17.69,0,0,0-15.587,17.5A17.7,17.7,0,0,0,224.618,4.463,17.69,17.69,0,0,0,242.365-13.17a18.1,18.1,0,0,0-.853-5.468L271.072-70.2l99.444.307,54.81,95.761-49.8,87.2-109.9-.341L148.412-93.048,22.092-93.48l-38.654,62.8A17.69,17.69,0,0,0-28.5-14.011,17.69,17.69,0,0,0-10.878,3.7,17.7,17.7,0,0,0,6.846-13.9a17.736,17.736,0,0,0-2.137-8.549L34.6-70.958l100.729.307Z" transform="translate(281.834 94.23)" fill="url(#linear-gradient)"/>
      <path id="Trazado_64730" data-name="Trazado 64730" d="M-52.646-93.719l-136.029-.421L-251.33,15.593l67.657,118.237,125.5.387,35.505-61.983a17.69,17.69,0,0,0,15.575-17.5A17.69,17.69,0,0,0-24.713,36.989,17.69,17.69,0,0,0-37.25,42.13a17.69,17.69,0,0,0-5.221,12.5,17.349,17.349,0,0,0,.853,5.457l-29.559,51.592-99.433-.307-54.832-95.795,49.8-87.2,109.9.341,117.2,205.812,126.354.387,38.654-62.8a17.69,17.69,0,1,0-21.294-8.277L165.3,112.422,64.568,112.1Z" transform="translate(251.33 94.14)" fill="url(#linear-gradient-2)"/>
      <ellipse id="Elipse_998" data-name="Elipse 998" cx="70.669" cy="20.919" rx="70.669" ry="20.919" transform="translate(58.209 118.044)" fill="#94d5f7"/>
      <ellipse id="Elipse_999" data-name="Elipse 999" cx="57.413" cy="14.791" rx="57.413" ry="14.791" transform="translate(71.465 124.172)" fill="#42afe4"/>
      <path id="Trazado_64731" data-name="Trazado 64731" d="M-98.1,29.193c0-5.059-15.917-9.163-35.585-9.163s-35.585,4.1-35.585,9.163,15.917,9.175,35.585,9.175S-98.1,34.264-98.1,29.193Z" transform="translate(262.564 109.769)" fill="#94d5f7"/>
      <path id="Trazado_64732" data-name="Trazado 64732" d="M-120.535,31.524c-16.064-19.032-4.934-53.98-15.337-53.593-10.357-.387.773,34.562-15.314,53.593a19.557,19.557,0,0,1-2.365,2.387c0,2.649,7.958,4.8,17.679,4.8s17.667-2.149,17.667-4.8A19.553,19.553,0,0,1-120.535,31.524Z" transform="translate(264.716 104.006)" fill="#42afe4"/>
      <path id="Trazado_64733" data-name="Trazado 64733" d="M-137.762-18.337c-.318,1.205-1.137,2.024-1.83,1.842s-1-1.3-.694-2.49,1.137-2.024,1.83-1.842S-137.455-19.531-137.762-18.337Z" transform="translate(266.515 104.173)" fill="#fff"/>
      <path id="Trazado_64734" data-name="Trazado 64734" d="M-139.533-14.676c-.193.728-.682,1.228-1.137,1.137s-.614-.784-.421-1.512.694-1.239,1.137-1.137S-139.339-15.4-139.533-14.676Z" transform="translate(266.41 104.809)" fill="#fff"/>
      <path id="Trazado_64735" data-name="Trazado 64735" d="M-141.885-27.386a6.5,6.5,0,0,1-7.833,4.82,6.514,6.514,0,0,1-4.82-7.833,6.514,6.514,0,0,1,7.833-4.82A6.5,6.5,0,0,1-141.885-27.386Z" transform="translate(264.556 102.182)" fill="#42afe4"/>
      <path id="Trazado_64736" data-name="Trazado 64736" d="M-151.178-30.183c-.273,1.137-1.035,1.955-1.705,1.8s-.978-1.216-.7-2.365,1.035-1.955,1.694-1.8S-150.9-31.331-151.178-30.183Z" transform="translate(264.697 102.569)" fill="#fff"/>
      <path id="Trazado_64737" data-name="Trazado 64737" d="M-133.237-37.211a3.627,3.627,0,0,1-1.632,2.249,3.627,3.627,0,0,1-2.745.434,3.627,3.627,0,0,1-2.694-4.366,3.627,3.627,0,0,1,1.629-2.256,3.627,3.627,0,0,1,2.748-.438,3.627,3.627,0,0,1,2.256,1.629,3.627,3.627,0,0,1,.438,2.748Z" transform="translate(266.515 101.32)" fill="#42afe4"/>
      <path id="Trazado_64738" data-name="Trazado 64738" d="M-138.432-38.778c-.148.648-.58,1.137-.944,1s-.546-.671-.4-1.319.58-1.137.944-1S-138.284-39.415-138.432-38.778Z" transform="translate(266.594 101.535)" fill="#fff"/>
      <path id="Trazado_64739" data-name="Trazado 64739" d="M-127.365-26.5a4.548,4.548,0,0,1-5.412,3.331,4.548,4.548,0,0,1-3.32-5.412,4.468,4.468,0,0,1,2.009-2.783A4.468,4.468,0,0,1-130.7-31.9,4.548,4.548,0,0,1-127.365-26.5Z" transform="translate(267.089 102.642)" fill="#42afe4"/>
      <path id="Trazado_64740" data-name="Trazado 64740" d="M-133.8-28.431c-.193.8-.716,1.342-1.137,1.239s-.671-.841-.489-1.637.716-1.342,1.137-1.239S-133.592-29.227-133.8-28.431Z" transform="translate(267.189 102.909)" fill="#fff"/>
      <path id="Trazado_64741" data-name="Trazado 64741" d="M-145-44.233a2.933,2.933,0,0,1-3.536,2.171,2.933,2.933,0,0,1-1.825-1.315,2.933,2.933,0,0,1-.357-2.221,2.945,2.945,0,0,1,3.536-2.183A2.945,2.945,0,0,1-145-44.233Z" transform="translate(265.092 100.476)" fill="#42afe4"/>
      <path id="Trazado_64742" data-name="Trazado 64742" d="M-149.2-45.5c-.125.523-.466.887-.762.807s-.443-.546-.318-1.069.466-.875.762-.807S-149.079-46.023-149.2-45.5Z" transform="translate(265.156 100.651)" fill="#fff"/>
      <path id="Trazado_64743" data-name="Trazado 64743" d="M-125.113-49.41a2.933,2.933,0,0,1-3.536,2.171,2.933,2.933,0,0,1-2.183-3.49A2.933,2.933,0,0,1-127.3-52.9a2.933,2.933,0,0,1,2.183,3.49Z" transform="translate(267.816 99.774)" fill="#42afe4"/>
      <path id="Trazado_64744" data-name="Trazado 64744" d="M-129.315-50.67c-.125.523-.466.887-.762.807s-.443-.546-.318-1.069.466-.875.762-.807S-129.19-51.182-129.315-50.67Z" transform="translate(267.879 99.943)" fill="#fff"/>
      <path id="Trazado_64745" data-name="Trazado 64745" d="M34.4-8S28.711-.781,28.711,4.563A5.457,5.457,0,0,0,34.4,10.247,5.457,5.457,0,0,0,40.08,4.563C40.057-.838,34.4-8,34.4-8Z" transform="translate(289.665 105.932)" fill="#42afe4"/>
      <g id="Grupo_25604" data-name="Grupo 25604" transform="translate(320.286 98.455)" opacity="0.05">
        <path id="Trazado_64746" data-name="Trazado 64746" d="M34.6-7.54C36.12-4.63,37.768-.719,37.768,2.6c0,3.956-2.524,6.458-5.684,6.458A5.559,5.559,0,0,1,30.39,8.8a5.764,5.764,0,0,0,3.774,1.33,5.457,5.457,0,0,0,5.684-5.684C39.826,0,35.915-5.732,34.6-7.54Z" transform="translate(-30.39 7.54)" fill="#010101"/>
      </g>
      <ellipse id="Elipse_1000" data-name="Elipse 1000" cx="1.103" cy="1.967" rx="1.103" ry="1.967" transform="translate(319.217 108.63)" fill="#fff"/>
      <path id="Trazado_64747" data-name="Trazado 64747" d="M52.809-8S47.124-.781,47.124,4.563a5.684,5.684,0,1,0,11.3,0C58.459-.838,52.809-8,52.809-8Z" transform="translate(292.182 105.932)" fill="#42afe4"/>
      <g id="Grupo_25605" data-name="Grupo 25605" transform="translate(341.216 98.455)" opacity="0.05">
        <path id="Trazado_64748" data-name="Trazado 64748" d="M53.007-7.54C54.519-4.63,56.178-.719,56.178,2.6c0,3.956-2.535,6.458-5.684,6.458A5.559,5.559,0,0,1,48.8,8.8a5.764,5.764,0,0,0,3.774,1.33,5.457,5.457,0,0,0,5.684-5.684C58.225,0,54.325-5.732,53.007-7.54Z" transform="translate(-48.8 7.54)" fill="#010101"/>
      </g>
      <ellipse id="Elipse_1001" data-name="Elipse 1001" cx="1.103" cy="1.967" rx="1.103" ry="1.967" transform="translate(340.136 108.63)" fill="#fff"/>
      <path id="Trazado_64749" data-name="Trazado 64749" d="M71.209-8S65.524-.781,65.524,4.563a5.684,5.684,0,1,0,11.3,0C76.859-.838,71.209-8,71.209-8Z" transform="translate(294.701 105.932)" fill="#42afe4"/>
      <g id="Grupo_25606" data-name="Grupo 25606" transform="translate(362.135 98.455)" opacity="0.05">
        <path id="Trazado_64750" data-name="Trazado 64750" d="M71.407-7.54C72.93-4.63,74.578-.719,74.578,2.6c0,3.956-2.535,6.458-5.684,6.458A5.559,5.559,0,0,1,67.2,8.8a5.685,5.685,0,0,0,3.774,1.33,5.446,5.446,0,0,0,5.684-5.684C76.625,0,72.725-5.732,71.407-7.54Z" transform="translate(-67.2 7.54)" fill="#010101"/>
      </g>
      <ellipse id="Elipse_1002" data-name="Elipse 1002" cx="1.103" cy="1.967" rx="1.103" ry="1.967" transform="translate(361.066 108.63)" fill="#fff"/>
      <path id="Trazado_64751" data-name="Trazado 64751" d="M89.6-8S84-.838,84,4.506a5.684,5.684,0,0,0,11.369,0C95.255-.838,89.6-8,89.6-8Z" transform="translate(297.235 105.932)" fill="#42afe4"/>
      <g id="Grupo_25607" data-name="Grupo 25607" transform="translate(383.054 98.455)" opacity="0.05">
        <path id="Trazado_64752" data-name="Trazado 64752" d="M89.818-7.54C91.33-4.63,92.978-.719,92.978,2.6c0,3.956-2.524,6.458-5.684,6.458A5.559,5.559,0,0,1,85.6,8.8a5.764,5.764,0,0,0,3.786,1.33A5.457,5.457,0,0,0,95.07,4.443C95.036,0,91.125-5.732,89.818-7.54Z" transform="translate(-85.6 7.54)" fill="#010101"/>
      </g>
      <ellipse id="Elipse_1003" data-name="Elipse 1003" cx="1.103" cy="1.967" rx="1.103" ry="1.967" transform="translate(381.985 108.63)" fill="#fff"/>
      <path id="Trazado_64753" data-name="Trazado 64753" d="M108.019-8s-5.684,7.219-5.684,12.563a5.684,5.684,0,1,0,11.3,0C113.669-.838,108.019-8,108.019-8Z" transform="translate(299.74 105.932)" fill="#42afe4"/>
      <g id="Grupo_25608" data-name="Grupo 25608" transform="translate(403.972 98.455)" opacity="0.05">
        <path id="Trazado_64754" data-name="Trazado 64754" d="M108.218-7.54C109.73-4.63,111.39-.719,111.39,2.6c0,3.956-2.535,6.458-5.684,6.458A5.686,5.686,0,0,1,104,8.8a5.787,5.787,0,0,0,3.787,1.33,5.446,5.446,0,0,0,5.684-5.684C113.436,0,109.537-5.732,108.218-7.54Z" transform="translate(-103.999 7.54)" fill="#010101"/>
      </g>
      <ellipse id="Elipse_1004" data-name="Elipse 1004" cx="1.103" cy="1.967" rx="1.103" ry="1.967" transform="translate(402.915 108.63)" fill="#fff"/>
      <path id="Trazado_64755" data-name="Trazado 64755" d="M34.4,12.32s-5.684,7.208-5.684,12.563A5.446,5.446,0,0,0,34.4,30.567a5.446,5.446,0,0,0,5.684-5.684C40.057,19.528,34.4,12.32,34.4,12.32Z" transform="translate(289.665 108.714)" fill="#42afe4"/>
      <g id="Grupo_25609" data-name="Grupo 25609" transform="translate(320.286 121.602)" opacity="0.05">
        <path id="Trazado_64756" data-name="Trazado 64756" d="M34.6,12.82c1.523,2.91,3.172,6.821,3.172,10.141,0,3.968-2.524,6.469-5.684,6.469a5.241,5.241,0,0,1-1.694-.273,5.764,5.764,0,0,0,3.74,1.307,5.446,5.446,0,0,0,5.684-5.684C39.826,20.369,35.915,14.628,34.6,12.82Z" transform="translate(-30.39 -12.82)" fill="#010101"/>
      </g>
      <ellipse id="Elipse_1005" data-name="Elipse 1005" cx="1.103" cy="1.967" rx="1.103" ry="1.967" transform="translate(319.217 131.789)" fill="#fff"/>
      <path id="Trazado_64757" data-name="Trazado 64757" d="M52.8,12.32S47.12,19.528,47.12,24.883a5.684,5.684,0,0,0,11.3,0C58.455,19.528,52.8,12.32,52.8,12.32Z" transform="translate(292.186 108.714)" fill="#42afe4"/>
      <g id="Grupo_25610" data-name="Grupo 25610" transform="translate(341.216 121.602)" opacity="0.05">
        <path id="Trazado_64758" data-name="Trazado 64758" d="M53.007,12.82c1.512,2.91,3.172,6.821,3.172,10.141,0,3.968-2.535,6.469-5.684,6.469a5.241,5.241,0,0,1-1.694-.273,5.764,5.764,0,0,0,3.752,1.307,5.446,5.446,0,0,0,5.684-5.684C58.225,20.369,54.325,14.628,53.007,12.82Z" transform="translate(-48.8 -12.82)" fill="#010101"/>
      </g>
      <ellipse id="Elipse_1006" data-name="Elipse 1006" cx="1.103" cy="1.967" rx="1.103" ry="1.967" transform="translate(340.136 131.789)" fill="#fff"/>
      <path id="Trazado_64759" data-name="Trazado 64759" d="M71.209,12.32s-5.684,7.208-5.684,12.563a5.684,5.684,0,1,0,11.3,0C76.859,19.528,71.209,12.32,71.209,12.32Z" transform="translate(294.701 108.714)" fill="#42afe4"/>
      <g id="Grupo_25611" data-name="Grupo 25611" transform="translate(362.135 121.602)" opacity="0.05">
        <path id="Trazado_64760" data-name="Trazado 64760" d="M71.407,12.82c1.523,2.91,3.172,6.821,3.172,10.141,0,3.968-2.535,6.469-5.684,6.469a5.241,5.241,0,0,1-1.694-.273,5.684,5.684,0,0,0,3.74,1.307,5.434,5.434,0,0,0,5.684-5.684C76.625,20.369,72.725,14.628,71.407,12.82Z" transform="translate(-67.2 -12.82)" fill="#010101"/>
      </g>
      <ellipse id="Elipse_1007" data-name="Elipse 1007" cx="1.103" cy="1.967" rx="1.103" ry="1.967" transform="translate(361.066 131.789)" fill="#fff"/>
      <path id="Trazado_64761" data-name="Trazado 64761" d="M89.614,12.32S83.93,19.528,83.93,24.883a5.684,5.684,0,1,0,11.369,0C95.265,19.528,89.614,12.32,89.614,12.32Z" transform="translate(297.225 108.714)" fill="#42afe4"/>
      <g id="Grupo_25612" data-name="Grupo 25612" transform="translate(383.054 121.602)" opacity="0.05">
        <path id="Trazado_64762" data-name="Trazado 64762" d="M89.818,12.82c1.512,2.91,3.161,6.821,3.161,10.141,0,3.968-2.524,6.469-5.684,6.469a5.241,5.241,0,0,1-1.694-.273,5.764,5.764,0,0,0,3.752,1.307,5.446,5.446,0,0,0,5.684-5.684C95.036,20.369,91.125,14.628,89.818,12.82Z" transform="translate(-85.6 -12.82)" fill="#010101"/>
      </g>
      <ellipse id="Elipse_1008" data-name="Elipse 1008" cx="1.103" cy="1.967" rx="1.103" ry="1.967" transform="translate(381.985 131.789)" fill="#fff"/>
      <path id="Trazado_64763" data-name="Trazado 64763" d="M108.014,12.32s-5.684,7.208-5.684,12.563a5.684,5.684,0,0,0,11.3,0C113.665,19.528,108.014,12.32,108.014,12.32Z" transform="translate(299.744 108.714)" fill="#42afe4"/>
      <g id="Grupo_25613" data-name="Grupo 25613" transform="translate(403.973 121.602)" opacity="0.05">
        <path id="Trazado_64764" data-name="Trazado 64764" d="M108.218,12.82c1.512,2.91,3.172,6.821,3.172,10.141,0,3.968-2.535,6.469-5.684,6.469A5.309,5.309,0,0,1,104,29.157a5.787,5.787,0,0,0,3.752,1.307,5.434,5.434,0,0,0,5.684-5.684C113.436,20.369,109.537,14.628,108.218,12.82Z" transform="translate(-104 -12.82)" fill="#010101"/>
      </g>
      <ellipse id="Elipse_1009" data-name="Elipse 1009" cx="1.103" cy="1.967" rx="1.103" ry="1.967" transform="translate(402.915 131.789)" fill="#fff"/>
      <path id="Trazado_64765" data-name="Trazado 64765" d="M34.4,32.68S28.711,39.9,28.711,45.254A5.446,5.446,0,0,0,34.4,50.939a5.457,5.457,0,0,0,5.684-5.684C40.057,39.865,34.4,32.68,34.4,32.68Z" transform="translate(289.665 111.501)" fill="#42afe4"/>
      <g id="Grupo_25614" data-name="Grupo 25614" transform="translate(320.286 144.761)" opacity="0.05">
        <path id="Trazado_64766" data-name="Trazado 64766" d="M34.6,33.19c1.523,2.91,3.172,6.821,3.172,10.141,0,3.956-2.524,6.458-5.684,6.458a5.56,5.56,0,0,1-1.694-.261,5.764,5.764,0,0,0,3.74,1.307,5.457,5.457,0,0,0,5.684-5.684C39.826,40.728,35.915,35,34.6,33.19Z" transform="translate(-30.39 -33.19)" fill="#010101"/>
      </g>
      <ellipse id="Elipse_1010" data-name="Elipse 1010" cx="1.103" cy="1.967" rx="1.103" ry="1.967" transform="translate(319.217 154.936)" fill="#fff"/>
      <path id="Trazado_64767" data-name="Trazado 64767" d="M52.809,32.68S47.124,39.9,47.124,45.254a5.684,5.684,0,1,0,11.3,0C58.459,39.865,52.809,32.68,52.809,32.68Z" transform="translate(292.182 111.501)" fill="#42afe4"/>
      <g id="Grupo_25615" data-name="Grupo 25615" transform="translate(341.216 144.761)" opacity="0.05">
        <path id="Trazado_64768" data-name="Trazado 64768" d="M53.007,33.19c1.512,2.91,3.172,6.821,3.172,10.141,0,3.956-2.535,6.458-5.684,6.458a5.56,5.56,0,0,1-1.694-.261,5.764,5.764,0,0,0,3.752,1.307,5.446,5.446,0,0,0,5.684-5.684C58.225,40.728,54.325,35,53.007,33.19Z" transform="translate(-48.8 -33.19)" fill="#010101"/>
      </g>
      <ellipse id="Elipse_1011" data-name="Elipse 1011" cx="1.103" cy="1.967" rx="1.103" ry="1.967" transform="translate(340.136 154.936)" fill="#fff"/>
      <path id="Trazado_64769" data-name="Trazado 64769" d="M71.2,32.68S65.52,39.9,65.52,45.254a5.684,5.684,0,0,0,11.3,0C76.855,39.865,71.2,32.68,71.2,32.68Z" transform="translate(294.705 111.501)" fill="#42afe4"/>
      <g id="Grupo_25616" data-name="Grupo 25616" transform="translate(362.135 144.761)" opacity="0.05">
        <path id="Trazado_64770" data-name="Trazado 64770" d="M71.407,33.19c1.523,2.91,3.172,6.821,3.172,10.141,0,3.956-2.535,6.458-5.684,6.458a5.56,5.56,0,0,1-1.694-.261,5.684,5.684,0,0,0,3.74,1.307,5.434,5.434,0,0,0,5.684-5.684C76.625,40.728,72.725,35,71.407,33.19Z" transform="translate(-67.2 -33.19)" fill="#010101"/>
      </g>
      <ellipse id="Elipse_1012" data-name="Elipse 1012" cx="1.103" cy="1.967" rx="1.103" ry="1.967" transform="translate(361.066 154.936)" fill="#fff"/>
      <path id="Trazado_64771" data-name="Trazado 64771" d="M89.6,32.68S84,39.865,84,45.254a5.684,5.684,0,1,0,11.369,0C95.255,39.865,89.6,32.68,89.6,32.68Z" transform="translate(297.235 111.501)" fill="#42afe4"/>
      <g id="Grupo_25617" data-name="Grupo 25617" transform="translate(383.054 144.761)" opacity="0.05">
        <path id="Trazado_64772" data-name="Trazado 64772" d="M89.818,33.19c1.512,2.91,3.161,6.821,3.161,10.141,0,3.956-2.524,6.458-5.684,6.458a5.56,5.56,0,0,1-1.694-.261,5.764,5.764,0,0,0,3.752,1.307,5.446,5.446,0,0,0,5.684-5.684C95.036,40.728,91.125,35,89.818,33.19Z" transform="translate(-85.6 -33.19)" fill="#010101"/>
      </g>
      <ellipse id="Elipse_1013" data-name="Elipse 1013" cx="1.103" cy="1.967" rx="1.103" ry="1.967" transform="translate(381.985 154.936)" fill="#fff"/>
      <path id="Trazado_64773" data-name="Trazado 64773" d="M108.014,32.68S102.33,39.9,102.33,45.254a5.684,5.684,0,0,0,11.3,0C113.665,39.865,108.014,32.68,108.014,32.68Z" transform="translate(299.744 111.501)" fill="#42afe4"/>
      <g id="Grupo_25618" data-name="Grupo 25618" transform="translate(403.972 144.761)" opacity="0.05">
        <path id="Trazado_64774" data-name="Trazado 64774" d="M108.218,33.19c1.512,2.91,3.172,6.821,3.172,10.141,0,3.956-2.535,6.458-5.684,6.458A5.686,5.686,0,0,1,104,49.527a5.787,5.787,0,0,0,3.753,1.308,5.446,5.446,0,0,0,5.684-5.684C113.436,40.728,109.537,35,108.218,33.19Z" transform="translate(-103.999 -33.19)" fill="#010101"/>
      </g>
      <ellipse id="Elipse_1014" data-name="Elipse 1014" cx="1.103" cy="1.967" rx="1.103" ry="1.967" transform="translate(402.915 154.936)" fill="#fff"/>
      <path id="Trazado_64775" data-name="Trazado 64775" d="M118.236-27.058a15.916,15.916,0,0,0-3.32.364A27.285,27.285,0,0,0,87.847-50.41a27.285,27.285,0,0,0-24.2,14.655,20.828,20.828,0,0,0-8.379-1.762A20.884,20.884,0,0,0,34.492-18.795a11.551,11.551,0,0,0-2.092-.192A11.63,11.63,0,0,0,20.77-7.356v.307H133.323a15.6,15.6,0,0,0,.625-4.343,15.666,15.666,0,0,0-4.6-11.094,15.666,15.666,0,0,0-11.107-4.572Z" transform="translate(288.579 100.126)" fill="#eeeded"/>
      <path id="Trazado_64776" data-name="Trazado 64776" d="M118.24-28.628a15.916,15.916,0,0,0-3.32.364A27.081,27.081,0,0,0,111.1-38.94C89.5-22.83,57.348-12.564,21.286-12.462a11.676,11.676,0,0,0-.546,3.536v.307H133.293a15.6,15.6,0,0,0,.625-4.343A15.666,15.666,0,0,0,118.24-28.628Z" transform="translate(288.575 101.697)" fill="#1e1e1c" opacity="0.05"/>
      <path id="Trazado_64777" data-name="Trazado 64777" d="M576.221,53.387,555.075,64.551,533.44,53.387V48.93h42.781Z" transform="translate(73.025 6.698)" fill="#b3b2b2"/>
      <circle id="Elipse_1015" data-name="Elipse 1015" cx="8.106" cy="8.106" r="8.106" transform="translate(600.485 49.444)" fill="#dadada"/>
      <circle id="Elipse_1016" data-name="Elipse 1016" cx="8.106" cy="8.106" r="8.106" transform="translate(639.139 49.444)" fill="#dadada"/>
      <rect id="Rect치ngulo_25929" data-name="Rect치ngulo 25929" width="9.675" height="10.164" transform="translate(623.268 67.406)" fill="#727070"/>
      <path id="Trazado_64778" data-name="Trazado 64778" d="M317.559,53.183H288V-21.852a6.64,6.64,0,0,1,6.639-6.628h16.246a6.628,6.628,0,0,1,6.674,6.583Z" transform="translate(325.161 103.128)" fill="#c7c6c6"/>
      <rect id="Rect치ngulo_25930" data-name="Rect치ngulo 25930" width="24.921" height="7.435" transform="translate(551.132 110.745)" fill="#dadada"/>
      <path id="Trazado_64779" data-name="Trazado 64779" d="M292.922,14.635,233.44,5.846V4.914A19.145,19.145,0,0,1,252.6-14.243l40.326-1.307Z" transform="translate(317.692 104.899)" fill="#c7c6c6"/>
      <ellipse id="Elipse_1017" data-name="Elipse 1017" cx="25.205" cy="26.33" rx="25.205" ry="26.33" transform="translate(602.713 78.082)" fill="#eeeded"/>
      <ellipse id="Elipse_1018" data-name="Elipse 1018" cx="12.585" cy="8.436" rx="12.585" ry="8.436" transform="translate(615.333 55.958)" fill="#9e9d9c"/>
      <path id="Trazado_64780" data-name="Trazado 64780" d="M323.117,52.161H283.69V48.432a5.082,5.082,0,0,1,5.082-5.082h29.264a5.082,5.082,0,0,1,5.082,5.082Z" transform="translate(324.571 112.962)" fill="#727070"/>
      <circle id="Elipse_1019" data-name="Elipse 1019" cx="8.106" cy="8.106" r="8.106" transform="translate(619.812 49.444)" fill="#dadada"/>
      <path id="Trazado_64781" data-name="Trazado 64781" d="M322.423-49.9a7.754,7.754,0,0,1,3.3,6.446,7.754,7.754,0,0,1-7.856,7.64,7.7,7.7,0,0,1-6.344-3.479,8.061,8.061,0,0,0,7.231,4.741,8.1,8.1,0,0,0,8.208-7.958,8.1,8.1,0,0,0-4.536-7.39Z" transform="translate(328.381 100.196)" fill="#010101" opacity="0.1"/>
      <path id="Trazado_64782" data-name="Trazado 64782" d="M305.423-49.9a7.754,7.754,0,0,1,3.3,6.446,7.754,7.754,0,0,1-7.856,7.64,7.7,7.7,0,0,1-6.344-3.479,8.061,8.061,0,0,0,7.231,4.741,8.1,8.1,0,0,0,8.208-7.958A8.1,8.1,0,0,0,305.423-49.9Z" transform="translate(326.054 100.196)" fill="#010101" opacity="0.1"/>
      <path id="Trazado_64783" data-name="Trazado 64783" d="M288.423-49.9a7.754,7.754,0,0,1,3.3,6.446,7.754,7.754,0,0,1-7.856,7.64,7.7,7.7,0,0,1-6.344-3.479,8.061,8.061,0,0,0,7.231,4.741,8.1,8.1,0,0,0,8.208-7.958,8.1,8.1,0,0,0-4.536-7.39Z" transform="translate(323.727 100.196)" fill="#010101" opacity="0.1"/>
      <g id="Grupo_25619" data-name="Grupo 25619" transform="translate(608.284 87.495)" opacity="0.1">
        <path id="Trazado_64784" data-name="Trazado 64784" d="M318.147,20.906a41.986,41.986,0,0,0,2.137-38.086,32.735,32.735,0,0,1,.136,3.615A65.019,65.019,0,0,1,288.667,42.8v8.788h.125a5.082,5.082,0,0,0-5.082,5.082v3.774h39.427V56.718a5.082,5.082,0,0,0-5.082-5.082h.091Z" transform="translate(-283.71 17.18)" fill="#010101"/>
      </g>
      <path id="Trazado_64785" data-name="Trazado 64785" d="M256.706,56.752h-21.6c-3.024-15.655,3.013-31.3,0-46.942h21.6C259.674,25.454,253.625,41.1,256.706,56.752Z" transform="translate(317.801 108.37)" fill="#94d5f7"/>
      <path id="Trazado_64786" data-name="Trazado 64786" d="M238.857,9.81h-3.752c3.013,15.644-3.024,31.287,0,46.942h3.786C235.833,41.1,241.927,25.454,238.857,9.81Z" transform="translate(317.801 108.37)" fill="#42afe4"/>
      <path id="Trazado_64787" data-name="Trazado 64787" d="M244.082,9.81h-3.8c3.024,15.644-3.024,31.287,0,46.942h3.8C241.058,41.1,247.106,25.454,244.082,9.81Z" transform="translate(318.51 108.37)" fill="#42afe4"/>
      <path id="Trazado_64788" data-name="Trazado 64788" d="M249.291,9.81h-3.786c3.024,15.644-3.024,31.287,0,46.942h3.786C246.278,41.1,252.315,25.454,249.291,9.81Z" transform="translate(319.225 108.37)" fill="#42afe4"/>
      <path id="Trazado_64789" data-name="Trazado 64789" d="M254.561,9.81h-3.786c3.013,15.644-3.024,31.287,0,46.942h3.786C251.48,41.1,257.528,25.454,254.561,9.81Z" transform="translate(319.946 108.37)" fill="#42afe4"/>
      <path id="Trazado_64790" data-name="Trazado 64790" d="M249.665-9.913c1.262,1.9-.136,5.036-3.115,7.015s-6.412,2.046-7.674.148.136-5.048,3.115-7.026S248.4-11.812,249.665-9.913Z" transform="translate(318.373 105.48)" fill="#fff"/>
    </g>
  </g>
</svg>
