<svg xmlns="http://www.w3.org/2000/svg" xmlns:xlink="http://www.w3.org/1999/xlink" width="970" height="427" viewBox="0 0 970 427">
  <defs>
    <linearGradient id="linear-gradient" x1="0.5" y1="1" x2="0.5" gradientUnits="objectBoundingBox">
      <stop offset="0" stop-color="#2a8bbd"/>
      <stop offset="1" stop-color="#5cacb3"/>
    </linearGradient>
    <linearGradient id="linear-gradient-3" x1="5.119" y1="0.937" x2="5.119" y2="-0.063" xlink:href="#linear-gradient"/>
  </defs>
  <g id="Grupo_25691" data-name="Grupo 25691" transform="translate(-215 -18586.5)">
    <text id="Ejemplo_de_la_aplicación_de_impacto_ambiental_Positivo." data-name="Ejemplo de la aplicación de impacto ambiental Positivo." transform="translate(215 18586.5)" fill="#d45453" font-size="18" font-family="CerebriSans-Bold, Cerebri Sans" font-weight="700"><tspan x="243.411" y="17">Ejemplo de la aplicación de impacto ambiental Positivo.</tspan></text>
    <g id="Capa_2" data-name="Capa 2" transform="translate(373 18681)">
      <g id="Capa_3" data-name="Capa 3">
        <rect id="Rectángulo_25937" data-name="Rectángulo 25937" width="7.54" height="320.55" transform="translate(0.1)" fill="url(#linear-gradient)"/>
        <rect id="Rectángulo_25938" data-name="Rectángulo 25938" width="488.29" height="7.48" transform="translate(0.52 313.87)" fill="url(#linear-gradient)"/>
        <path id="Trazado_64812" data-name="Trazado 64812" d="M7.91,136.19c15.81-.83,33.14-2.44,44.31-13.66,4.41-4.43,7.44-10,10.87-15.2,8.27-12.54,19-23.2,29.69-33.76,9-8.88,18-17.85,28.77-24.51,32.15-20,72.91-16.19,110.39-21.41,20.53-2.85,40.59-8.58,61.18-10.91,34.65-3.92,69.94,1.86,104.47-3,16.88-2.37,33.71-7.27,50.65-5.45,15.2,1.64,29.84,8.67,45.09,7.52" fill="none" stroke="#0edd53" stroke-miterlimit="10" stroke-width="6"/>
        <path id="Trazado_64813" data-name="Trazado 64813" d="M9.41,141.94c18.1,3.47,32.18,17.2,45.79,29.63,20.55,18.79,43.06,36.28,69.27,45.7,12.88,4.63,26.38,7.21,39.82,9.78l80.25,15.33c11.13,2.13,22.49,4.26,33.71,2.71,8.63-1.19,16.81-4.51,25.3-6.41,18.14-4,37-1.44,55.57-2.62,14.33-.92,28.42-4.09,42.7-5.59,26.84-2.82,53.91.28,80.72,3.37" fill="none" stroke="#620b9b" stroke-miterlimit="10" stroke-width="6"/>
        <rect id="Rectángulo_25939" data-name="Rectángulo 25939" width="7.33" height="481.07" transform="translate(481.07 137.01) rotate(90)" fill="url(#linear-gradient-3)"/>
      </g>
    </g>
    <text id="Calidad_ambiental" data-name="Calidad ambiental" transform="translate(256 18680.5)" fill="#00223d" font-size="18" font-family="CerebriSans-Bold, Cerebri Sans" font-weight="700"><tspan x="0" y="17">Calidad </tspan><tspan x="0" y="41">ambiental</tspan></text>
    <text id="Tiempo" transform="translate(875 18988.5)" fill="#00223d" font-size="18" font-family="CerebriSans-Bold, Cerebri Sans" font-weight="700"><tspan x="0" y="17">Tiempo</tspan></text>
    <text id="Reducción_de_las_emisiones_de_gases_Efecto_Invernadero" data-name="Reducción de las emisiones de gases Efecto Invernadero" transform="translate(887 18685.5)" fill="#00223d" font-size="18" font-family="CerebriSans-Bold, Cerebri Sans" font-weight="700"><tspan x="0" y="17">Reducción de las emisiones </tspan><tspan x="0" y="41">de gases Efecto Invernadero</tspan></text>
    <text id="Calidad_inicial_del_ambiente" data-name="Calidad inicial del ambiente" transform="translate(887 18807.5)" fill="#00223d" font-size="18" font-family="CerebriSans-Bold, Cerebri Sans" font-weight="700"><tspan x="0" y="17">Calidad inicial del ambiente</tspan></text>
    <text id="Contaminación_del_agua_por_generación_de_vertimientos" data-name="Contaminación del agua por generación de vertimientos" transform="translate(887 18905.5)" fill="#00223d" font-size="18" font-family="CerebriSans-Bold, Cerebri Sans" font-weight="700"><tspan x="0" y="17">Contaminación del agua por </tspan><tspan x="0" y="41">generación de vertimientos</tspan></text>
  </g>
</svg>
