<svg id="Grupo_24880" data-name="Grupo 24880" xmlns="http://www.w3.org/2000/svg" xmlns:xlink="http://www.w3.org/1999/xlink" width="221.402" height="220.575" viewBox="0 0 221.402 220.575">
  <defs>
    <clipPath id="clip-path">
      <rect id="Rectángulo_25405" data-name="Rectángulo 25405" width="221.402" height="220.575" fill="none"/>
    </clipPath>
    <clipPath id="clip-path-3">
      <rect id="Rectángulo_25400" data-name="Rectángulo 25400" width="116.074" height="207.521" fill="none"/>
    </clipPath>
    <clipPath id="clip-path-4">
      <rect id="Rectángulo_25401" data-name="Rectángulo 25401" width="15.697" height="9.38" fill="none"/>
    </clipPath>
  </defs>
  <g id="Grupo_24879" data-name="Grupo 24879" clip-path="url(#clip-path)">
    <g id="Grupo_24878" data-name="Grupo 24878">
      <g id="Grupo_24877" data-name="Grupo 24877" clip-path="url(#clip-path)">
        <path id="Trazado_60521" data-name="Trazado 60521" d="M295.549,251.775a14.991,14.991,0,1,0-20.105-12.358,12.3,12.3,0,1,0,20.105,12.358" transform="translate(-115.386 -94.701)" fill="#db4226"/>
        <path id="Trazado_60522" data-name="Trazado 60522" d="M294.018,144.286a14.992,14.992,0,1,0-22.227,7.93,12.3,12.3,0,1,0,22.227-7.93" transform="translate(-112.593 -52.958)" fill="#f39a00"/>
        <path id="Trazado_60523" data-name="Trazado 60523" d="M226.543,50.314A14.991,14.991,0,1,0,217.721,72.2a12.3,12.3,0,1,0,8.822-21.889" transform="translate(-84.428 -18.202)" fill="#b5c139"/>
        <path id="Trazado_60524" data-name="Trazado 60524" d="M243.054,11.675a4.58,4.58,0,0,1-1.221,6.361c-3.378,2.567-10.287,8.5-11.324,18.189-1.819-17.579,4.09-24.351,6.184-25.77a4.581,4.581,0,0,1,6.361,1.221" transform="translate(-97.864 -4.109)" fill="#2ba5ab"/>
        <path id="Trazado_60525" data-name="Trazado 60525" d="M249.463,240.48a12.3,12.3,0,0,0-24.482-1.664,12.8,12.8,0,0,0-5.72-3.345c-.89-13.9-7.071-24.664-14.567-24.664-8.108,0-14.681,12.591-14.681,28.123q0,2.129.162,4.177a51.949,51.949,0,0,0-.783,9.056,51.051,51.051,0,0,0,1.138,10.868,14.684,14.684,0,0,0,26.431,12.71,12.783,12.783,0,0,0,17.209-10.514,12.277,12.277,0,0,0,12.975-17.58,12.235,12.235,0,0,0,2.317-7.167" transform="translate(-80.528 -89.633)" fill="#ed8116"/>
        <path id="Trazado_60526" data-name="Trazado 60526" d="M231.19,170.984a12.6,12.6,0,0,0-11.974,16.561c-.367-.121-.743-.221-1.123-.309a12.617,12.617,0,0,0-9.868-11c-3.377-3.8-7.546-6.08-10.947-6.08-6.966,0-8.064,9.563-8.064,22.126a38.217,38.217,0,0,0,1.333,10.175,12.612,12.612,0,0,0,23.327,9.595,12.582,12.582,0,0,0,14.008-12.532,12.561,12.561,0,0,0-.639-3.948,12.611,12.611,0,1,0,3.947-24.588" transform="translate(-80.452 -72.349)" fill="#db4226"/>
        <path id="Trazado_60527" data-name="Trazado 60527" d="M228.914,93.735a20.5,20.5,0,0,0-.744-5.468,20.471,20.471,0,1,0-37.389-.932,25.127,25.127,0,0,0-1.155,7.537c.237,5.852.843,9.974,1.8,12.871A20.378,20.378,0,0,0,189.212,117c0,11.306-.036,25.641,11.27,25.641S230.155,128.3,230.155,117a20.376,20.376,0,0,0-4.283-12.524,20.375,20.375,0,0,0,3.043-10.739" transform="translate(-80.451 -25.085)" fill="#2ba5ab"/>
        <path id="Trazado_60528" data-name="Trazado 60528" d="M262.443,117.376a17.367,17.367,0,0,0-31.571-10,17.376,17.376,0,0,0-13.921,17.026c0,.456.023.907.058,1.354a11.783,11.783,0,1,0-5.046,22.875c.579,4.757,4.832,9.788,9.745,9.788,5.31,0,9.408-5.65,9.408-10.96a9.665,9.665,0,0,0-.228-2.066,9.6,9.6,0,0,0,6.465-3.89c.2-.036.408-.073.61-.117-.009.164-.025.325-.025.489a9.616,9.616,0,1,0,14.005-8.548,17.372,17.372,0,0,0,10.5-15.956" transform="translate(-85.651 -42.522)" fill="#b5c139"/>
        <path id="Trazado_60529" data-name="Trazado 60529" d="M263.881,117.016a17.367,17.367,0,0,0-31.571-10,17.376,17.376,0,0,0-13.921,17.026c0,.456.023.906.058,1.354a11.783,11.783,0,1,0-5.045,22.874c.579,4.757,4.832,9.788,9.745,9.788,5.31,0,9.408-5.65,9.408-10.96a9.623,9.623,0,0,0-.228-2.065,9.6,9.6,0,0,0,6.465-3.891c.2-.036.408-.072.61-.116-.008.163-.025.324-.025.489a9.616,9.616,0,1,0,14.005-8.549,17.371,17.371,0,0,0,10.5-15.955" transform="translate(-86.263 -42.368)" fill="#b5c139"/>
        <path id="Trazado_60530" data-name="Trazado 60530" d="M269.448,194.414c0-10.1-6.546-17.963-16.646-17.963-6.182,0-17.636,8.165-16.492,17.8-8.361,1.684-9.961,7.674-10.287,14.043,0,.48-5.915-1.94-5.878-1.469a6.035,6.035,0,0,0-2.776-.327c-6.855,0-12.247,3.92-12.149,8.492,0,.274.02.54.038.809a13.485,13.485,0,0,0,17.921,19.9,10.105,10.105,0,0,0,13.044-11.785,10.105,10.105,0,0,0,6.807-4.1c.215-.038.431-.078.643-.122-.009.171,4.23.666,4.23.84-3.1,3.593-2.49,17.309,3.1,17.309s12.89-12.043,12.89-17.634c0-3.925.989-8.609-2.276-10.289,6.5-2.8,7.828-7.981,7.828-15.512" transform="translate(-85.85 -75.025)" fill="#f39a00"/>
        <path id="Trazado_60531" data-name="Trazado 60531" d="M300.178,63.222a6.2,6.2,0,0,1-6.2,6.2c-5.738.31-17.99,1.706-26.52,11.787,11.322-21.092,23.094-24.194,26.52-24.194a6.2,6.2,0,0,1,6.2,6.2" transform="translate(-113.719 -24.244)" fill="#b5c139"/>
        <path id="Trazado_60532" data-name="Trazado 60532" d="M338.62,237.776a4.314,4.314,0,0,1-6.027.944c-3.351-2.177-10.806-6.413-19.729-4.244,15-7.212,22.888-4.131,24.812-2.727a4.314,4.314,0,0,1,.944,6.027" transform="translate(-133.026 -97.743)" fill="#f39a00"/>
        <path id="Trazado_60533" data-name="Trazado 60533" d="M279.8,339.071a4.313,4.313,0,0,1-2.6-5.518c1.145-3.828,3.111-12.174-1.482-20.125,11.143,12.365,10.406,20.8,9.6,23.041a4.314,4.314,0,0,1-5.518,2.6" transform="translate(-117.232 -133.266)" fill="#ed8116"/>
        <path id="Trazado_60534" data-name="Trazado 60534" d="M264.946,52.076a2.792,2.792,0,1,1-2.792-2.791,2.792,2.792,0,0,1,2.792,2.791" transform="translate(-110.278 -20.955)" fill="#2ba5ab"/>
        <path id="Trazado_60535" data-name="Trazado 60535" d="M319.805,115.929a2.792,2.792,0,1,1-2.791-2.791,2.791,2.791,0,0,1,2.791,2.791" transform="translate(-133.604 -48.105)" fill="#2ba5ab"/>
        <path id="Trazado_60536" data-name="Trazado 60536" d="M335.15,172.346a.93.93,0,1,1-.931-.93.93.93,0,0,1,.931.93" transform="translate(-141.711 -72.884)" fill="#f39a00"/>
        <path id="Trazado_60537" data-name="Trazado 60537" d="M354.309,214.943a2.676,2.676,0,1,1-2.676-2.675,2.675,2.675,0,0,1,2.676,2.675" transform="translate(-148.373 -90.254)" fill="#db4226"/>
        <path id="Trazado_60538" data-name="Trazado 60538" d="M263.333,329.54a1.435,1.435,0,1,1-1.435-1.435,1.434,1.434,0,0,1,1.435,1.435" transform="translate(-110.747 -139.507)" fill="#2ba5ab"/>
        <path id="Trazado_60539" data-name="Trazado 60539" d="M234.712,337.556a3.925,3.925,0,1,1-3.926-3.925,3.925,3.925,0,0,1,3.926,3.925" transform="translate(-96.459 -141.857)" fill="#b5c139"/>
        <path id="Trazado_60540" data-name="Trazado 60540" d="M309.955,298.349a2.264,2.264,0,1,1-2.264-2.264,2.263,2.263,0,0,1,2.264,2.264" transform="translate(-129.865 -125.892)" fill="#f39a00"/>
        <path id="Trazado_60541" data-name="Trazado 60541" d="M329.472,145.5a1.23,1.23,0,1,1-1.231-1.23,1.23,1.23,0,0,1,1.231,1.23" transform="translate(-139.042 -61.344)" fill="#db4226"/>
        <path id="Trazado_60542" data-name="Trazado 60542" d="M338.465,77.57a2.614,2.614,0,1,1-2.615-2.614,2.614,2.614,0,0,1,2.615,2.614" transform="translate(-141.689 -31.871)" fill="#b5c139"/>
        <path id="Trazado_60543" data-name="Trazado 60543" d="M206.63,33.17a4.032,4.032,0,1,1-4.032-4.032,4.032,4.032,0,0,1,4.032,4.032" transform="translate(-84.428 -12.389)" fill="#2ba5ab"/>
        <g id="Grupo_24867" data-name="Grupo 24867" transform="translate(104.899)" opacity="0.2">
          <g id="Grupo_24866" data-name="Grupo 24866">
            <g id="Grupo_24865" data-name="Grupo 24865" clip-path="url(#clip-path-3)">
              <path id="Trazado_60544" data-name="Trazado 60544" d="M275.033,285.991a1.123,1.123,0,1,1-.066-1.588,1.124,1.124,0,0,1,.066,1.588" transform="translate(-221.012 -120.8)" fill="#db4226"/>
              <path id="Trazado_60545" data-name="Trazado 60545" d="M281.448,291.86a1.739,1.739,0,1,1-.1-2.458,1.74,1.74,0,0,1,.1,2.458" transform="translate(-223.285 -122.856)" fill="#db4226"/>
              <path id="Trazado_60546" data-name="Trazado 60546" d="M290.214,299.875a2.609,2.609,0,1,1-.154-3.687,2.609,2.609,0,0,1,.154,3.687" transform="translate(-226.37 -125.643)" fill="#db4226"/>
              <path id="Trazado_60547" data-name="Trazado 60547" d="M301.335,310.059a3.478,3.478,0,1,1-.2-4.915,3.479,3.479,0,0,1,.2,4.915" transform="translate(-230.457 -129.354)" fill="#db4226"/>
              <path id="Trazado_60548" data-name="Trazado 60548" d="M314.714,322.321a4.347,4.347,0,1,1-.255-6.143,4.348,4.348,0,0,1,.255,6.143" transform="translate(-235.504 -133.948)" fill="#db4226"/>
              <path id="Trazado_60549" data-name="Trazado 60549" d="M352.706,357.48a1.123,1.123,0,1,1,.066,1.587,1.123,1.123,0,0,1-.066-1.587" transform="translate(-254.74 -151.843)" fill="#db4226"/>
              <path id="Trazado_60550" data-name="Trazado 60550" d="M345.381,350.7a1.739,1.739,0,1,1,.1,2.457,1.738,1.738,0,0,1-.1-2.457" transform="translate(-251.557 -148.876)" fill="#db4226"/>
              <path id="Trazado_60551" data-name="Trazado 60551" d="M335.33,341.4a2.608,2.608,0,1,1,.152,3.686,2.607,2.607,0,0,1-.152-3.686" transform="translate(-247.185 -144.801)" fill="#db4226"/>
              <path id="Trazado_60552" data-name="Trazado 60552" d="M322.921,329.927a3.478,3.478,0,1,1,.2,4.915,3.48,3.48,0,0,1-.2-4.915" transform="translate(-241.812 -139.805)" fill="#db4226"/>
              <path id="Trazado_60553" data-name="Trazado 60553" d="M187.705,83.464a.87.87,0,1,1-.87.87.87.87,0,0,1,.87-.87" transform="translate(-184.34 -35.488)" fill="#2ba5ab"/>
              <path id="Trazado_60554" data-name="Trazado 60554" d="M187.353,75.882a1.347,1.347,0,1,1-1.347,1.347,1.347,1.347,0,0,1,1.347-1.347" transform="translate(-183.987 -32.264)" fill="#2ba5ab"/>
              <path id="Trazado_60555" data-name="Trazado 60555" d="M186.855,65.486a2.019,2.019,0,1,1-2.02,2.02,2.02,2.02,0,0,1,2.02-2.02" transform="translate(-183.489 -27.844)" fill="#2ba5ab"/>
              <path id="Trazado_60556" data-name="Trazado 60556" d="M186.357,52.61a2.693,2.693,0,1,1-2.694,2.693,2.693,2.693,0,0,1,2.694-2.693" transform="translate(-182.991 -22.369)" fill="#2ba5ab"/>
              <path id="Trazado_60557" data-name="Trazado 60557" d="M185.86,37.359a3.366,3.366,0,1,1-3.366,3.366,3.366,3.366,0,0,1,3.366-3.366" transform="translate(-182.494 -15.885)" fill="#2ba5ab"/>
              <path id="Trazado_60558" data-name="Trazado 60558" d="M187.7,1.74a.869.869,0,1,1,.87-.869.869.869,0,0,1-.87.869" transform="translate(-184.34 0)" fill="#2ba5ab"/>
              <path id="Trazado_60559" data-name="Trazado 60559" d="M187.352,8.616A1.346,1.346,0,1,1,188.7,7.27a1.346,1.346,0,0,1-1.346,1.346" transform="translate(-183.987 -2.519)" fill="#2ba5ab"/>
              <path id="Trazado_60560" data-name="Trazado 60560" d="M186.854,18.018A2.019,2.019,0,1,1,188.874,16a2.018,2.018,0,0,1-2.02,2.019" transform="translate(-183.489 -5.944)" fill="#2ba5ab"/>
              <path id="Trazado_60561" data-name="Trazado 60561" d="M186.356,29.9a2.692,2.692,0,1,1,2.693-2.693,2.692,2.692,0,0,1-2.693,2.693" transform="translate(-182.991 -10.423)" fill="#2ba5ab"/>
              <path id="Trazado_60562" data-name="Trazado 60562" d="M283.863,219.234a1.123,1.123,0,1,1-1.478-.581,1.122,1.122,0,0,1,1.478.581" transform="translate(-224.679 -92.929)" fill="#f39a00"/>
              <path id="Trazado_60563" data-name="Trazado 60563" d="M291.965,215.042a1.739,1.739,0,1,1-2.289-.9,1.738,1.738,0,0,1,2.289.9" transform="translate(-227.623 -90.99)" fill="#f39a00"/>
              <path id="Trazado_60564" data-name="Trazado 60564" d="M303.041,209.284a2.609,2.609,0,1,1-3.435-1.347,2.609,2.609,0,0,1,3.435,1.347" transform="translate(-231.624 -88.319)" fill="#f39a00"/>
              <path id="Trazado_60565" data-name="Trazado 60565" d="M317.052,202.245a3.478,3.478,0,1,1-4.58-1.8,3.48,3.48,0,0,1,4.58,1.8" transform="translate(-236.872 -85.105)" fill="#f39a00"/>
              <path id="Trazado_60566" data-name="Trazado 60566" d="M333.874,193.98a4.347,4.347,0,1,1-5.723-2.246,4.347,4.347,0,0,1,5.723,2.246" transform="translate(-243.316 -81.369)" fill="#f39a00"/>
              <path id="Trazado_60567" data-name="Trazado 60567" d="M380.613,177.006a1.123,1.123,0,1,1,1.478.58,1.123,1.123,0,0,1-1.478-.58" transform="translate(-266.692 -74.593)" fill="#f39a00"/>
              <path id="Trazado_60568" data-name="Trazado 60568" d="M371.6,180.287a1.739,1.739,0,1,1,2.289.9,1.74,1.74,0,0,1-2.289-.9" transform="translate(-262.838 -75.621)" fill="#f39a00"/>
              <path id="Trazado_60569" data-name="Trazado 60569" d="M359.237,184.757a2.608,2.608,0,1,1,3.434,1.348,2.606,2.606,0,0,1-3.434-1.348" transform="translate(-257.551 -77.004)" fill="#f39a00"/>
              <path id="Trazado_60570" data-name="Trazado 60570" d="M343.94,190.509a3.478,3.478,0,1,1,4.58,1.8,3.479,3.479,0,0,1-4.58-1.8" transform="translate(-251.015 -78.932)" fill="#f39a00"/>
              <path id="Trazado_60571" data-name="Trazado 60571" d="M320.227,135.685a.684.684,0,1,1-.869-.428.685.685,0,0,1,.869.428" transform="translate(-240.49 -57.494)" fill="#2ba5ab"/>
              <path id="Trazado_60572" data-name="Trazado 60572" d="M325.334,133.574a1.059,1.059,0,1,1-1.344-.66,1.06,1.06,0,0,1,1.344.66" transform="translate(-242.351 -56.489)" fill="#2ba5ab"/>
              <path id="Trazado_60573" data-name="Trazado 60573" d="M332.314,130.67a1.589,1.589,0,1,1-2.016-.992,1.59,1.59,0,0,1,2.016.992" transform="translate(-244.881 -55.102)" fill="#2ba5ab"/>
              <path id="Trazado_60574" data-name="Trazado 60574" d="M341.141,127.138a2.118,2.118,0,1,1-2.688-1.323,2.118,2.118,0,0,1,2.688,1.323" transform="translate(-248.196 -53.447)" fill="#2ba5ab"/>
              <path id="Trazado_60575" data-name="Trazado 60575" d="M351.737,123a2.648,2.648,0,1,1-3.361-1.653A2.649,2.649,0,0,1,351.737,123" transform="translate(-252.263 -51.537)" fill="#2ba5ab"/>
              <path id="Trazado_60576" data-name="Trazado 60576" d="M381.1,114.95a.684.684,0,1,1,.868.427.684.684,0,0,1-.868-.427" transform="translate(-266.922 -48.491)" fill="#2ba5ab"/>
              <path id="Trazado_60577" data-name="Trazado 60577" d="M375.433,116.506a1.059,1.059,0,1,1,1.344.66,1.061,1.061,0,0,1-1.344-.66" transform="translate(-264.506 -48.942)" fill="#2ba5ab"/>
              <path id="Trazado_60578" data-name="Trazado 60578" d="M367.669,118.627a1.589,1.589,0,1,1,2.016.992,1.588,1.588,0,0,1-2.016-.992" transform="translate(-261.192 -49.545)" fill="#2ba5ab"/>
              <path id="Trazado_60579" data-name="Trazado 60579" d="M358.058,121.374a2.118,2.118,0,1,1,2.689,1.323,2.119,2.119,0,0,1-2.689-1.323" transform="translate(-257.094 -50.415)" fill="#2ba5ab"/>
              <path id="Trazado_60580" data-name="Trazado 60580" d="M270.577,74.988a.684.684,0,1,1-.918.305.685.685,0,0,1,.918-.305" transform="translate(-219.525 -31.853)" fill="#b5c139"/>
              <path id="Trazado_60581" data-name="Trazado 60581" d="M272.847,69.623a1.059,1.059,0,1,1-1.422.474,1.06,1.06,0,0,1,1.422-.474" transform="translate(-220.259 -29.555)" fill="#b5c139"/>
              <path id="Trazado_60582" data-name="Trazado 60582" d="M275.941,62.266a1.589,1.589,0,1,1-2.133.709,1.588,1.588,0,0,1,2.133-.709" transform="translate(-221.248 -26.403)" fill="#b5c139"/>
              <path id="Trazado_60583" data-name="Trazado 60583" d="M279.909,53.166a2.118,2.118,0,1,1-2.843.946,2.12,2.12,0,0,1,2.843-.946" transform="translate(-222.61 -22.51)" fill="#b5c139"/>
              <path id="Trazado_60584" data-name="Trazado 60584" d="M284.713,42.394a2.648,2.648,0,1,1-3.554,1.182,2.648,2.648,0,0,1,3.554-1.182" transform="translate(-224.326 -17.906)" fill="#b5c139"/>
              <path id="Trazado_60585" data-name="Trazado 60585" d="M299.362,17.485a.684.684,0,1,1,.917-.307.684.684,0,0,1-.917.307" transform="translate(-232.024 -6.883)" fill="#b5c139"/>
              <path id="Trazado_60586" data-name="Trazado 60586" d="M296.538,22.294a1.059,1.059,0,1,1,1.421-.473,1.06,1.06,0,0,1-1.421.473" transform="translate(-230.736 -8.626)" fill="#b5c139"/>
              <path id="Trazado_60587" data-name="Trazado 60587" d="M292.66,28.867a1.589,1.589,0,1,1,2.132-.709,1.586,1.586,0,0,1-2.132.709" transform="translate(-228.962 -10.994)" fill="#b5c139"/>
              <path id="Trazado_60588" data-name="Trazado 60588" d="M287.908,37.185a2.119,2.119,0,1,1,2.843-.947,2.12,2.12,0,0,1-2.843.947" transform="translate(-226.817 -14.104)" fill="#b5c139"/>
            </g>
          </g>
        </g>
        <path id="Trazado_60589" data-name="Trazado 60589" d="M115.606,77.14c9.836,0,17.809,7.695,17.809,17.187V206.04s-1.352,10.025-12.049,10.025a12.81,12.81,0,0,1-11.859-7.647,11.235,11.235,0,0,1-5.526,1.442A10.8,10.8,0,0,1,93,199.271a9.938,9.938,0,0,1-1.881.18,9.483,9.483,0,0,1-9.646-9.309,8.994,8.994,0,0,1,.7-3.484c-5.261-1.714-9.725-8.168-10.742-16.324a25.717,25.717,0,0,1,.33-8.566,16.885,16.885,0,0,1-5.9-12.778,17.243,17.243,0,0,1,11.866-16.2,7.9,7.9,0,0,1-1.434-4.54,8.225,8.225,0,0,1,6.943-8.006,16.752,16.752,0,0,1-.712-12.754c2.233-6.917,7.949-11.558,13.629-11.558a10.214,10.214,0,0,1,1.733.147,16.6,16.6,0,0,1-.092-1.749c0-9.492,7.974-17.187,17.81-17.187m0-1.724c-10.729,0-19.466,8.418-19.534,18.789-6.537.044-12.774,5.275-15.187,12.752a19.031,19.031,0,0,0-.01,12.165,9.85,9.85,0,0,0-6.305,9.125,9.594,9.594,0,0,0,.722,3.659A18.912,18.912,0,0,0,64.138,148.99a18.643,18.643,0,0,0,5.75,13.4,27.522,27.522,0,0,0-.164,8.161c.981,7.868,5.036,14.485,10.32,17.1a10.632,10.632,0,0,0-.3,2.5,11.219,11.219,0,0,0,11.371,11.033c.1,0,.206,0,.31,0a12.615,12.615,0,0,0,12.552,10.414,13.063,13.063,0,0,0,4.726-.885,14.841,14.841,0,0,0,12.66,7.09,13.41,13.41,0,0,0,13.759-11.519,1.7,1.7,0,0,0,.015-.23V94.327c0-10.428-8.762-18.911-19.533-18.911" transform="translate(-27.271 -32.066)" fill="#200809"/>
        <path id="Trazado_60590" data-name="Trazado 60590" d="M208.393,77.14c9.836,0,17.809,7.695,17.809,17.187a16.6,16.6,0,0,1-.091,1.749,10.224,10.224,0,0,1,1.733-.147c5.681,0,11.4,4.642,13.629,11.558a16.752,16.752,0,0,1-.712,12.754,8.226,8.226,0,0,1,6.944,8.006,7.9,7.9,0,0,1-1.435,4.54,17.244,17.244,0,0,1,11.868,16.2,16.885,16.885,0,0,1-5.9,12.778,25.73,25.73,0,0,1,.331,8.566c-1.018,8.156-5.483,14.611-10.743,16.324a8.994,8.994,0,0,1,.7,3.484,9.482,9.482,0,0,1-9.646,9.309,9.923,9.923,0,0,1-1.881-.18,10.8,10.8,0,0,1-10.982,10.589,11.238,11.238,0,0,1-5.526-1.442,12.809,12.809,0,0,1-11.859,7.647c-10.7,0-12.049-10.025-12.049-10.025V94.327c0-9.492,7.973-17.187,17.809-17.187m0-1.724c-10.77,0-19.534,8.484-19.534,18.911V206.04a1.613,1.613,0,0,0,.016.23,13.408,13.408,0,0,0,13.757,11.519,14.84,14.84,0,0,0,12.66-7.09,13.065,13.065,0,0,0,4.726.885,12.616,12.616,0,0,0,12.553-10.414c.1,0,.206,0,.309,0a11.219,11.219,0,0,0,11.37-11.033,10.693,10.693,0,0,0-.3-2.5c5.283-2.611,9.338-9.227,10.32-17.1a27.534,27.534,0,0,0-.164-8.161,18.641,18.641,0,0,0,5.75-13.4,18.913,18.913,0,0,0-11.155-17.084,9.6,9.6,0,0,0,.723-3.659,9.849,9.849,0,0,0-6.306-9.125,19.042,19.042,0,0,0-.009-12.165c-2.413-7.478-8.65-12.709-15.188-12.752-.068-10.372-8.8-18.789-19.533-18.789" transform="translate(-80.301 -32.066)" fill="#200809"/>
        <path id="Trazado_60591" data-name="Trazado 60591" d="M121.54,110.046s-.3,14.263,15.276,14.561" transform="translate(-51.677 -46.79)" fill="none" stroke="#200809" stroke-linecap="round" stroke-linejoin="round" stroke-width="3"/>
        <path id="Trazado_60592" data-name="Trazado 60592" d="M150.332,108.876c0,11.3,20.529,12.572,20.37-1.114" transform="translate(-63.92 -45.819)" fill="none" stroke="#200809" stroke-linecap="round" stroke-linejoin="round" stroke-width="3"/>
        <path id="Trazado_60593" data-name="Trazado 60593" d="M190.474,108.4c0,7.857,14.274,8.741,14.164-.775" transform="translate(-80.988 -45.761)" fill="none" stroke="#200809" stroke-linecap="round" stroke-linejoin="round" stroke-width="3"/>
        <path id="Trazado_60594" data-name="Trazado 60594" d="M151.6,135.771s-.827,19.84-20.125,13.433" transform="translate(-55.903 -57.728)" fill="none" stroke="#200809" stroke-linecap="round" stroke-linejoin="round" stroke-width="3"/>
        <path id="Trazado_60595" data-name="Trazado 60595" d="M137.161,240.925s-19.43,4.095-17.984-16.186" transform="translate(-50.64 -95.557)" fill="none" stroke="#200809" stroke-linecap="round" stroke-linejoin="round" stroke-width="3"/>
        <path id="Trazado_60596" data-name="Trazado 60596" d="M129.5,186.658s-4.612,19.314-22.324,9.329" transform="translate(-45.571 -79.365)" fill="none" stroke="#200809" stroke-linecap="round" stroke-linejoin="round" stroke-width="3"/>
        <path id="Trazado_60597" data-name="Trazado 60597" d="M167.219,165.9s1.431,7.32,10.025,7.32" transform="translate(-71.1 -70.539)" fill="none" stroke="#200809" stroke-linecap="round" stroke-linejoin="round" stroke-width="3"/>
        <path id="Trazado_60598" data-name="Trazado 60598" d="M201.885,193.155s-1.432-7.32-10.026-7.32" transform="translate(-81.577 -79.015)" fill="none" stroke="#200809" stroke-linecap="round" stroke-linejoin="round" stroke-width="3"/>
        <path id="Trazado_60599" data-name="Trazado 60599" d="M106.939,264.811s-6.189-4.163-12.265,1.912" transform="translate(-40.254 -112.003)" fill="none" stroke="#200809" stroke-linecap="round" stroke-linejoin="round" stroke-width="3"/>
        <path id="Trazado_60600" data-name="Trazado 60600" d="M106.453,140.35a8.593,8.593,0,0,1-6.89,15.745" transform="translate(-42.333 -59.675)" fill="none" stroke="#200809" stroke-linecap="round" stroke-linejoin="round" stroke-width="3"/>
        <path id="Trazado_60601" data-name="Trazado 60601" d="M118.747,161.942a8.594,8.594,0,0,1,4.427,11.318" transform="translate(-50.49 -68.856)" fill="none" stroke="#200809" stroke-linecap="round" stroke-linejoin="round" stroke-width="3"/>
        <path id="Trazado_60602" data-name="Trazado 60602" d="M265.756,209.959a8.593,8.593,0,1,1-17.184-.253" transform="translate(-105.69 -89.165)" fill="none" stroke="#200809" stroke-linecap="round" stroke-linejoin="round" stroke-width="3"/>
        <path id="Trazado_60603" data-name="Trazado 60603" d="M235.526,180.06a5.469,5.469,0,0,1-10.129,4.127" transform="translate(-95.837 -76.56)" fill="none" stroke="#200809" stroke-linecap="round" stroke-linejoin="round" stroke-width="3"/>
        <path id="Trazado_60604" data-name="Trazado 60604" d="M254.9,225.147a8.593,8.593,0,0,1-8.72,8.465" transform="translate(-104.672 -95.73)" fill="none" stroke="#200809" stroke-linecap="round" stroke-linejoin="round" stroke-width="3"/>
        <path id="Trazado_60605" data-name="Trazado 60605" d="M129.266,207.623a8.592,8.592,0,0,1,4.427,11.317" transform="translate(-54.963 -88.279)" fill="none" stroke="#200809" stroke-linecap="round" stroke-linejoin="round" stroke-width="3"/>
        <path id="Trazado_60606" data-name="Trazado 60606" d="M226.676,268.606s-4.613,19.313-22.325,9.328" transform="translate(-86.888 -114.209)" fill="none" stroke="#200809" stroke-linecap="round" stroke-linejoin="round" stroke-width="3"/>
        <path id="Trazado_60607" data-name="Trazado 60607" d="M226.439,289.569a8.592,8.592,0,0,1,4.428,11.317" transform="translate(-96.28 -123.122)" fill="none" stroke="#200809" stroke-linecap="round" stroke-linejoin="round" stroke-width="3"/>
        <path id="Trazado_60608" data-name="Trazado 60608" d="M121.389,280.807a8.594,8.594,0,0,1,6.643-10.177" transform="translate(-51.535 -115.069)" fill="none" stroke="#200809" stroke-linecap="round" stroke-linejoin="round" stroke-width="3"/>
        <path id="Trazado_60609" data-name="Trazado 60609" d="M135.634,288.186a8.6,8.6,0,0,1,4.428,11.317" transform="translate(-57.67 -122.534)" fill="none" stroke="#200809" stroke-linecap="round" stroke-linejoin="round" stroke-width="3"/>
        <path id="Trazado_60610" data-name="Trazado 60610" d="M99.634,175.59s-5.57,17.346-21.006,10.981" transform="translate(-33.432 -74.659)" fill="none" stroke="#200809" stroke-linecap="round" stroke-linejoin="round" stroke-width="3"/>
        <path id="Trazado_60611" data-name="Trazado 60611" d="M89.7,197.737s13.845,13.208,3.342,27.053" transform="translate(-38.14 -84.076)" fill="none" stroke="#200809" stroke-linecap="round" stroke-linejoin="round" stroke-width="3"/>
        <path id="Trazado_60612" data-name="Trazado 60612" d="M148.394,205.489s20.21.636,21.642,17.982" transform="translate(-63.096 -87.372)" fill="none" stroke="#200809" stroke-linecap="round" stroke-linejoin="round" stroke-width="3"/>
        <path id="Trazado_60613" data-name="Trazado 60613" d="M167.107,200.938s-2.706-6.525,4.137-12.89" transform="translate(-70.828 -79.956)" fill="none" stroke="#200809" stroke-linecap="round" stroke-linejoin="round" stroke-width="3"/>
        <path id="Trazado_60614" data-name="Trazado 60614" d="M152.823,228.468s9.867,6.525,7.639,24.825c-2.546,17.823,11.3,17.5,11.3,17.5" transform="translate(-64.979 -97.142)" fill="none" stroke="#200809" stroke-linecap="round" stroke-linejoin="round" stroke-width="3"/>
        <path id="Trazado_60615" data-name="Trazado 60615" d="M242.815,142.261a16.073,16.073,0,1,1,0-32.145" transform="translate(-96.408 -46.82)" fill="none" stroke="#200809" stroke-linecap="round" stroke-linejoin="round" stroke-width="3"/>
        <path id="Trazado_60616" data-name="Trazado 60616" d="M269.508,150.469a10.663,10.663,0,0,1-14.839-2.68" transform="translate(-108.283 -62.838)" fill="none" stroke="#200809" stroke-linecap="round" stroke-linejoin="round" stroke-width="3"/>
        <path id="Trazado_60617" data-name="Trazado 60617" d="M277.366,174.483c-.477,0-18.937,1.592-16.709,16.55" transform="translate(-110.749 -74.188)" fill="none" stroke="#200809" stroke-linecap="round" stroke-linejoin="round" stroke-width="3"/>
        <path id="Trazado_60618" data-name="Trazado 60618" d="M228.6,222.955c-7-6.525-25.78,2.069-18.142,16.709" transform="translate(-88.724 -93.857)" fill="none" stroke="#200809" stroke-linecap="round" stroke-linejoin="round" stroke-width="3"/>
        <path id="Trazado_60619" data-name="Trazado 60619" d="M202.562,151.972c-1.91-4.773,1.432-14.481,13.686-12.095" transform="translate(-85.914 -59.316)" fill="none" stroke="#200809" stroke-linecap="round" stroke-linejoin="round" stroke-width="3"/>
        <path id="Trazado_60620" data-name="Trazado 60620" d="M203.763,183.739s1.273-8.593,10.821-7.161" transform="translate(-86.638 -75.011)" fill="none" stroke="#200809" stroke-linecap="round" stroke-linejoin="round" stroke-width="3"/>
        <path id="Trazado_60621" data-name="Trazado 60621" d="M276.731,243.419s-6.525,7,1.91,14.958" transform="translate(-116.64 -103.499)" fill="none" stroke="#200809" stroke-linecap="round" stroke-linejoin="round" stroke-width="3"/>
        <path id="Trazado_60622" data-name="Trazado 60622" d="M332.763,27.43a1.43,1.43,0,0,0-.969.378v0s-.451.321-.758-.048V22.392h-5.388c-.34.307-.03.739-.03.739h0a1.436,1.436,0,1,1-2.114,0h0s.31-.435-.032-.743h-5.383v5.373l-.009-.044c-.308.427-.787.085-.787.085v0a1.437,1.437,0,1,0,0,2.114v0a.559.559,0,0,1,.784.086l.008-.039v5.371h5.375c.36-.308.043-.751.043-.751h0a1.436,1.436,0,1,1,2.113,0h0s-.318.447.044.755h5.37V29.97c.308-.367.755-.047.755-.047v0a1.435,1.435,0,1,0,.972-2.491" transform="translate(-133.886 -9.521)" fill="#b5c139"/>
        <path id="Trazado_60623" data-name="Trazado 60623" d="M362.042,156.1a1.427,1.427,0,0,0-.975-.36v0s-.55-.058-.536-.539l3.558-4.017-4.033-3.572c-.458,0-.512.533-.512.533h0a1.436,1.436,0,1,1-1.585-1.4v0s.521-.12.469-.577L354.4,142.6l-3.563,4.021.022-.039c-.514.116-.646-.458-.646-.458h0a1.436,1.436,0,1,0-1.4,1.584v0s.583.06.53.585l.032-.024-3.562,4.02,4.023,3.564c.474.009.53-.533.53-.533h0a1.437,1.437,0,1,1,1.584,1.4v0s-.534.123-.467.594l4.019,3.561,3.562-4.02c.474-.071.6.465.6.465h0a1.436,1.436,0,1,0,2.38-1.22" transform="translate(-147.035 -60.63)" fill="#2ba5ab"/>
        <path id="Trazado_60624" data-name="Trazado 60624" d="M255.476,365.437a1.427,1.427,0,0,0-.975-.36v0s-.55-.058-.536-.539l3.558-4.017-4.033-3.572c-.458,0-.512.533-.512.533h0a1.436,1.436,0,1,1-1.584-1.4v0s.521-.12.469-.577l-4.029-3.569-3.562,4.021.022-.039c-.514.116-.646-.458-.646-.458h0a1.437,1.437,0,1,0-1.4,1.584v0s.583.06.53.585l.032-.024-3.562,4.02,4.023,3.564c.474.009.53-.533.53-.533h0a1.437,1.437,0,1,1,1.584,1.4l0,0s-.534.123-.467.594l4.02,3.561,3.561-4.02c.474-.071.6.465.6.465h0a1.436,1.436,0,1,0,2.38-1.22" transform="translate(-101.725 -149.639)" fill="#ed8116"/>
        <g id="Grupo_24870" data-name="Grupo 24870" transform="translate(194.63 164.67)" opacity="0.4">
          <g id="Grupo_24869" data-name="Grupo 24869">
            <g id="Grupo_24868" data-name="Grupo 24868" clip-path="url(#clip-path-4)">
              <path id="Trazado_60625" data-name="Trazado 60625" d="M347.426,298.1H347.4l-.023-.319-.016.32-.029,0a8.394,8.394,0,0,1-6.421-2.988.318.318,0,0,1,0-.368,8.226,8.226,0,0,1,6.424-2.99h.028l.045.32-.007-.32h.029a8.232,8.232,0,0,1,6.445,2.991.319.319,0,0,1,0,.368,8.389,8.389,0,0,1-6.421,2.988l-.029,0m-5.85-3.176a7.851,7.851,0,0,0,5.791,2.535h.056a7.85,7.85,0,0,0,5.791-2.535,7.8,7.8,0,0,0-5.79-2.533h-.057a7.8,7.8,0,0,0-5.791,2.533" transform="translate(-339.557 -288.72)" fill="#2ba5ab"/>
              <path id="Trazado_60626" data-name="Trazado 60626" d="M350.222,292.543a2.719,2.719,0,1,0,2.719,2.719,2.72,2.72,0,0,0-2.719-2.719m0,4.154a1.434,1.434,0,1,1,1.435-1.435,1.434,1.434,0,0,1-1.435,1.435" transform="translate(-342.384 -289.057)" fill="#2ba5ab"/>
              <path id="Trazado_60627" data-name="Trazado 60627" d="M352.444,289.816a.093.093,0,0,1-.186,0v-2.967a.093.093,0,0,1,.186,0Z" transform="translate(-344.406 -286.596)" fill="#2ba5ab"/>
              <path id="Trazado_60628" data-name="Trazado 60628" d="M352.233,289.95a.253.253,0,0,1-.253-.252V286.73a.253.253,0,0,1,.505,0V289.7a.253.253,0,0,1-.252.252" transform="translate(-344.288 -286.478)" fill="#2ba5ab"/>
              <path id="Trazado_60629" data-name="Trazado 60629" d="M360.575,292.926a.094.094,0,0,1-.132,0,.093.093,0,0,1,0-.132l2.1-2.1a.093.093,0,0,1,.131.132Z" transform="translate(-347.875 -288.261)" fill="#2ba5ab"/>
              <path id="Trazado_60630" data-name="Trazado 60630" d="M360.391,293a.252.252,0,0,1-.179-.074.254.254,0,0,1,0-.357l2.1-2.1a.259.259,0,0,1,.357,0,.253.253,0,0,1,0,.358l-2.1,2.1a.252.252,0,0,1-.179.074" transform="translate(-347.757 -288.144)" fill="#2ba5ab"/>
              <path id="Trazado_60631" data-name="Trazado 60631" d="M342.5,292.847a.093.093,0,0,0,.132-.131l-2.1-2.1a.094.094,0,0,0-.131,0,.092.092,0,0,0,0,.132Z" transform="translate(-339.352 -288.227)" fill="#2ba5ab"/>
              <path id="Trazado_60632" data-name="Trazado 60632" d="M342.443,292.918a.252.252,0,0,1-.179-.074l-2.1-2.1a.251.251,0,0,1-.074-.179.248.248,0,0,1,.074-.178.259.259,0,0,1,.357,0l2.1,2.1a.253.253,0,0,1-.179.432" transform="translate(-339.234 -288.11)" fill="#2ba5ab"/>
              <path id="Trazado_60633" data-name="Trazado 60633" d="M363.1,296.5a.093.093,0,1,1-.08-.167l1.346-.643a.093.093,0,0,1,.124.043.094.094,0,0,1-.044.124Z" transform="translate(-348.958 -290.392)" fill="#2ba5ab"/>
              <path id="Trazado_60634" data-name="Trazado 60634" d="M362.939,296.556a.253.253,0,0,1-.109-.481l1.346-.643a.259.259,0,0,1,.337.119.252.252,0,0,1-.119.337l-1.346.643a.257.257,0,0,1-.109.025" transform="translate(-348.84 -290.275)" fill="#2ba5ab"/>
              <path id="Trazado_60635" data-name="Trazado 60635" d="M340.274,296.5a.093.093,0,0,0,.081-.167l-1.346-.643a.093.093,0,0,0-.08.167Z" transform="translate(-338.716 -290.392)" fill="#2ba5ab"/>
              <path id="Trazado_60636" data-name="Trazado 60636" d="M340.2,296.555h0a.26.26,0,0,1-.108-.024l-1.347-.644a.253.253,0,0,1-.119-.337.259.259,0,0,1,.337-.119l1.346.643a.253.253,0,0,1-.109.481" transform="translate(-338.598 -290.275)" fill="#2ba5ab"/>
              <path id="Trazado_60637" data-name="Trazado 60637" d="M357.159,291.84a.093.093,0,1,1-.18-.044l.354-1.45a.093.093,0,0,1,.18.044Z" transform="translate(-346.412 -288.093)" fill="#2ba5ab"/>
              <path id="Trazado_60638" data-name="Trazado 60638" d="M356.95,291.953l-.06-.007a.253.253,0,0,1-.186-.306l.353-1.449A.253.253,0,0,1,357.3,290l.061.007a.249.249,0,0,1,.155.115.247.247,0,0,1,.03.191l-.353,1.449a.253.253,0,0,1-.245.193" transform="translate(-346.294 -287.975)" fill="#2ba5ab"/>
              <path id="Trazado_60639" data-name="Trazado 60639" d="M347.124,291.788a.092.092,0,0,0,.112.068.091.091,0,0,0,.068-.112l-.353-1.45a.093.093,0,1,0-.18.044Z" transform="translate(-342.072 -288.071)" fill="#2ba5ab"/>
              <path id="Trazado_60640" data-name="Trazado 60640" d="M347.1,291.9a.253.253,0,0,1-.245-.192l-.353-1.45a.254.254,0,0,1,.185-.306l.06-.006a.252.252,0,0,1,.245.193l.353,1.449a.247.247,0,0,1-.03.191.25.25,0,0,1-.156.114Z" transform="translate(-341.954 -287.953)" fill="#2ba5ab"/>
            </g>
          </g>
        </g>
        <g id="Grupo_24873" data-name="Grupo 24873" transform="translate(205.704 50.416)" opacity="0.4">
          <g id="Grupo_24872" data-name="Grupo 24872">
            <g id="Grupo_24871" data-name="Grupo 24871" clip-path="url(#clip-path-4)">
              <path id="Trazado_60641" data-name="Trazado 60641" d="M366.693,99.33h-.023l-.023-.319-.016.32-.029,0a8.394,8.394,0,0,1-6.421-2.988.318.318,0,0,1,0-.368,8.226,8.226,0,0,1,6.424-2.99h.028l.045.32-.007-.32h.029a8.232,8.232,0,0,1,6.445,2.99.319.319,0,0,1,0,.368,8.389,8.389,0,0,1-6.421,2.988l-.029,0m-5.85-3.176a7.85,7.85,0,0,0,5.791,2.535h.056a7.85,7.85,0,0,0,5.791-2.535,7.8,7.8,0,0,0-5.79-2.533h-.057a7.8,7.8,0,0,0-5.791,2.533" transform="translate(-358.824 -89.951)" fill="#b5c139"/>
              <path id="Trazado_60642" data-name="Trazado 60642" d="M369.489,93.773a2.719,2.719,0,1,0,2.719,2.719,2.72,2.72,0,0,0-2.719-2.719m0,4.154a1.434,1.434,0,1,1,1.435-1.435,1.434,1.434,0,0,1-1.435,1.435" transform="translate(-361.651 -90.287)" fill="#b5c139"/>
              <path id="Trazado_60643" data-name="Trazado 60643" d="M371.71,91.047a.093.093,0,0,1-.186,0V88.08a.093.093,0,0,1,.186,0Z" transform="translate(-363.673 -87.827)" fill="#b5c139"/>
              <path id="Trazado_60644" data-name="Trazado 60644" d="M371.5,91.18a.253.253,0,0,1-.253-.252V87.961a.253.253,0,1,1,.505,0v2.967a.253.253,0,0,1-.252.252" transform="translate(-363.554 -87.709)" fill="#b5c139"/>
              <path id="Trazado_60645" data-name="Trazado 60645" d="M379.842,94.156a.093.093,0,0,1-.132-.131l2.1-2.1a.093.093,0,0,1,.131.131Z" transform="translate(-367.142 -89.491)" fill="#b5c139"/>
              <path id="Trazado_60646" data-name="Trazado 60646" d="M379.657,94.227a.251.251,0,0,1-.252-.252.248.248,0,0,1,.074-.179l2.1-2.1a.259.259,0,0,1,.357,0,.253.253,0,0,1,0,.358l-2.1,2.1a.252.252,0,0,1-.179.074" transform="translate(-367.024 -89.375)" fill="#b5c139"/>
              <path id="Trazado_60647" data-name="Trazado 60647" d="M361.763,94.078a.093.093,0,0,0,.132-.131l-2.1-2.1a.094.094,0,0,0-.131,0,.092.092,0,0,0,0,.132Z" transform="translate(-358.619 -89.458)" fill="#b5c139"/>
              <path id="Trazado_60648" data-name="Trazado 60648" d="M361.71,94.148a.251.251,0,0,1-.179-.074l-2.1-2.1a.252.252,0,0,1,0-.358.259.259,0,0,1,.357,0l2.1,2.1a.252.252,0,0,1-.179.431" transform="translate(-358.501 -89.341)" fill="#b5c139"/>
              <path id="Trazado_60649" data-name="Trazado 60649" d="M382.365,97.735a.093.093,0,1,1-.081-.167l1.346-.643a.092.092,0,0,1,.124.043.094.094,0,0,1-.044.124Z" transform="translate(-368.225 -91.623)" fill="#b5c139"/>
              <path id="Trazado_60650" data-name="Trazado 60650" d="M382.205,97.787a.253.253,0,0,1-.109-.481l1.346-.643a.26.26,0,0,1,.337.119.252.252,0,0,1-.119.337l-1.346.643a.257.257,0,0,1-.109.025" transform="translate(-368.107 -91.506)" fill="#b5c139"/>
              <path id="Trazado_60651" data-name="Trazado 60651" d="M359.541,97.735a.093.093,0,0,0,.08-.167l-1.346-.643a.093.093,0,0,0-.08.167Z" transform="translate(-357.983 -91.623)" fill="#b5c139"/>
              <path id="Trazado_60652" data-name="Trazado 60652" d="M359.463,97.787h0a.26.26,0,0,1-.108-.024l-1.347-.644a.253.253,0,0,1-.119-.337.26.26,0,0,1,.337-.119l1.346.643a.253.253,0,0,1-.109.481" transform="translate(-357.865 -91.506)" fill="#b5c139"/>
              <path id="Trazado_60653" data-name="Trazado 60653" d="M376.425,93.071a.093.093,0,1,1-.18-.044l.354-1.45a.093.093,0,1,1,.18.044Z" transform="translate(-365.679 -89.324)" fill="#b5c139"/>
              <path id="Trazado_60654" data-name="Trazado 60654" d="M376.217,93.183l-.06-.007a.252.252,0,0,1-.186-.305l.353-1.449a.253.253,0,0,1,.245-.193l.061.007a.253.253,0,0,1,.185.305l-.354,1.449a.252.252,0,0,1-.245.193" transform="translate(-365.561 -89.206)" fill="#b5c139"/>
              <path id="Trazado_60655" data-name="Trazado 60655" d="M366.391,93.019a.093.093,0,0,0,.18-.044l-.353-1.449a.093.093,0,1,0-.18.044Z" transform="translate(-361.339 -89.302)" fill="#b5c139"/>
              <path id="Trazado_60656" data-name="Trazado 60656" d="M366.363,93.132a.253.253,0,0,1-.245-.192l-.354-1.45a.253.253,0,0,1,.185-.306l.06-.007a.252.252,0,0,1,.245.193l.354,1.45a.253.253,0,0,1-.186.305Z" transform="translate(-361.22 -89.184)" fill="#b5c139"/>
            </g>
          </g>
        </g>
        <g id="Grupo_24876" data-name="Grupo 24876" transform="translate(151.769 0.813)" opacity="0.4">
          <g id="Grupo_24875" data-name="Grupo 24875">
            <g id="Grupo_24874" data-name="Grupo 24874" clip-path="url(#clip-path-4)">
              <path id="Trazado_60657" data-name="Trazado 60657" d="M272.862,13.036h-.023l-.023-.32-.016.32-.029,0a8.394,8.394,0,0,1-6.421-2.988.319.319,0,0,1,0-.369,8.227,8.227,0,0,1,6.424-2.99h.028l.045.32-.007-.32h.029a8.232,8.232,0,0,1,6.445,2.99.32.32,0,0,1,0,.369,8.392,8.392,0,0,1-6.421,2.988l-.029,0m-5.85-3.176A7.851,7.851,0,0,0,272.8,12.4h.056a7.849,7.849,0,0,0,5.791-2.535,7.8,7.8,0,0,0-5.79-2.533H272.8a7.8,7.8,0,0,0-5.791,2.533" transform="translate(-264.993 -3.656)" fill="#ed8116"/>
              <path id="Trazado_60658" data-name="Trazado 60658" d="M275.658,7.479a2.719,2.719,0,1,0,2.719,2.719,2.72,2.72,0,0,0-2.719-2.719m0,4.154a1.434,1.434,0,1,1,1.435-1.435,1.434,1.434,0,0,1-1.435,1.435" transform="translate(-267.82 -3.993)" fill="#ed8116"/>
              <path id="Trazado_60659" data-name="Trazado 60659" d="M277.879,4.752a.093.093,0,0,1-.186,0V1.785a.093.093,0,0,1,.186,0Z" transform="translate(-269.842 -1.532)" fill="#ed8116"/>
              <path id="Trazado_60660" data-name="Trazado 60660" d="M277.668,4.886a.253.253,0,0,1-.253-.252V1.667a.253.253,0,1,1,.505,0V4.634a.253.253,0,0,1-.252.252" transform="translate(-269.723 -1.414)" fill="#ed8116"/>
              <path id="Trazado_60661" data-name="Trazado 60661" d="M286.011,7.862a.093.093,0,0,1-.132-.131l2.1-2.1a.093.093,0,0,1,.131.131Z" transform="translate(-273.311 -3.197)" fill="#ed8116"/>
              <path id="Trazado_60662" data-name="Trazado 60662" d="M285.826,7.933a.251.251,0,0,1-.252-.252.248.248,0,0,1,.074-.179l2.1-2.1a.259.259,0,0,1,.357,0,.253.253,0,0,1,0,.358l-2.1,2.1a.252.252,0,0,1-.179.074" transform="translate(-273.193 -3.08)" fill="#ed8116"/>
              <path id="Trazado_60663" data-name="Trazado 60663" d="M267.932,7.783a.093.093,0,0,0,.132-.131l-2.1-2.1a.094.094,0,0,0-.131,0,.092.092,0,0,0,0,.132Z" transform="translate(-264.788 -3.163)" fill="#ed8116"/>
              <path id="Trazado_60664" data-name="Trazado 60664" d="M267.879,7.854a.251.251,0,0,1-.179-.074l-2.1-2.1a.253.253,0,0,1,0-.358.259.259,0,0,1,.357,0l2.1,2.1a.252.252,0,0,1-.179.431" transform="translate(-264.67 -3.046)" fill="#ed8116"/>
              <path id="Trazado_60665" data-name="Trazado 60665" d="M288.533,11.44a.094.094,0,0,1-.125-.044.093.093,0,0,1,.044-.124l1.346-.644a.093.093,0,0,1,.08.167Z" transform="translate(-274.394 -5.328)" fill="#ed8116"/>
              <path id="Trazado_60666" data-name="Trazado 60666" d="M288.374,11.493a.253.253,0,0,1-.109-.481l1.346-.644a.26.26,0,0,1,.337.12.252.252,0,0,1-.119.336l-1.346.644a.257.257,0,0,1-.109.025" transform="translate(-274.276 -5.212)" fill="#ed8116"/>
              <path id="Trazado_60667" data-name="Trazado 60667" d="M265.71,11.44a.093.093,0,0,0,.081-.167l-1.346-.644a.093.093,0,0,0-.08.167Z" transform="translate(-264.152 -5.328)" fill="#ed8116"/>
              <path id="Trazado_60668" data-name="Trazado 60668" d="M265.632,11.492h0a.26.26,0,0,1-.108-.024l-1.347-.644a.253.253,0,0,1-.119-.336.259.259,0,0,1,.337-.119l1.346.643a.253.253,0,0,1-.109.481" transform="translate(-264.034 -5.211)" fill="#ed8116"/>
              <path id="Trazado_60669" data-name="Trazado 60669" d="M282.594,6.777a.093.093,0,1,1-.18-.044l.354-1.45a.093.093,0,1,1,.18.044Z" transform="translate(-271.848 -3.029)" fill="#ed8116"/>
              <path id="Trazado_60670" data-name="Trazado 60670" d="M282.386,6.889l-.06-.007a.253.253,0,0,1-.186-.306l.353-1.449a.252.252,0,0,1,.245-.193l.061.007a.254.254,0,0,1,.185.306L282.631,6.7a.253.253,0,0,1-.245.193" transform="translate(-271.73 -2.911)" fill="#ed8116"/>
              <path id="Trazado_60671" data-name="Trazado 60671" d="M272.56,6.725a.093.093,0,1,0,.18-.044l-.353-1.449a.093.093,0,1,0-.18.044Z" transform="translate(-267.508 -3.007)" fill="#ed8116"/>
              <path id="Trazado_60672" data-name="Trazado 60672" d="M272.532,6.837a.253.253,0,0,1-.245-.192l-.353-1.45a.253.253,0,0,1,.185-.306l.06-.007a.252.252,0,0,1,.245.193l.354,1.45a.253.253,0,0,1-.186.305Z" transform="translate(-267.389 -2.889)" fill="#ed8116"/>
            </g>
          </g>
        </g>
        <path id="Trazado_60673" data-name="Trazado 60673" d="M116.445,68.433a.3.3,0,0,1-.3-.3V66.6a.3.3,0,0,1,.6,0v1.532a.3.3,0,0,1-.3.3m0-3.064a.3.3,0,0,1-.3-.3V63.54a.3.3,0,0,1,.6,0v1.532a.3.3,0,0,1-.3.3m0-3.064a.3.3,0,0,1-.3-.3V60.476a.3.3,0,0,1,.6,0v1.532a.3.3,0,0,1-.3.3m0-3.064a.3.3,0,0,1-.3-.3V57.412a.3.3,0,1,1,.6,0v1.532a.3.3,0,0,1-.3.3m0-3.064a.3.3,0,0,1-.3-.3V54.347a.3.3,0,0,1,.6,0V55.88a.3.3,0,0,1-.3.3m0-3.064a.3.3,0,0,1-.3-.3V51.284a.3.3,0,1,1,.6,0v1.532a.3.3,0,0,1-.3.3m11.289-2.5H126.2a.3.3,0,1,1,0-.595h1.532a.3.3,0,0,1,0,.595m-3.064,0h-1.532a.3.3,0,1,1,0-.595h1.532a.3.3,0,0,1,0,.595m-3.064,0h-1.532a.3.3,0,0,1,0-.595h1.532a.3.3,0,0,1,0,.595m-3.065,0h-1.532a.3.3,0,0,1,0-.595h1.532a.3.3,0,1,1,0,.595m9.4-1.325a.3.3,0,0,1-.3-.3V47.46a.3.3,0,1,1,.6,0v1.532a.3.3,0,0,1-.3.3m0-3.064a.3.3,0,0,1-.3-.3V44.4a.3.3,0,1,1,.6,0v1.532a.3.3,0,0,1-.3.3m0-3.064a.3.3,0,0,1-.3-.3V41.331a.3.3,0,0,1,.6,0v1.532a.3.3,0,0,1-.3.3m0-3.064a.3.3,0,0,1-.3-.3V38.268a.3.3,0,1,1,.6,0V39.8a.3.3,0,0,1-.3.3" transform="translate(-49.385 -16.144)" fill="#200809"/>
        <path id="Trazado_60674" data-name="Trazado 60674" d="M135.115,34.5l1.405.913a.321.321,0,0,0,.5-.264.331.331,0,0,0-.026-.134l-1.536-3.524a.321.321,0,0,0-.584-.01l-1.642,3.476a.328.328,0,0,0-.032.132.322.322,0,0,0,.487.279Z" transform="translate(-56.634 -13.308)" fill="#200809"/>
        <path id="Trazado_60675" data-name="Trazado 60675" d="M117.564,93.315a1.532,1.532,0,1,1-1.532-1.533,1.532,1.532,0,0,1,1.532,1.533" transform="translate(-48.684 -39.025)" fill="#200809"/>
        <path id="Trazado_60676" data-name="Trazado 60676" d="M51.524,266.723a.3.3,0,0,1,.21.508l-1.084,1.083a.3.3,0,0,1-.421-.421l1.084-1.084a.3.3,0,0,1,.21-.087m-2.166,2.167a.3.3,0,0,1,.211.508l-1.084,1.083a.3.3,0,0,1-.421-.421l1.084-1.084a.294.294,0,0,1,.21-.087m-2.166,2.166a.3.3,0,0,1,.21.508l-1.084,1.083a.3.3,0,1,1-.421-.421l1.084-1.083a.3.3,0,0,1,.21-.087m-2.167,2.166a.3.3,0,0,1,.211.508l-1.084,1.084a.3.3,0,0,1-.421-.421l1.084-1.083a.3.3,0,0,1,.21-.087m-2.166,2.166a.3.3,0,0,1,.21.508l-1.084,1.083a.3.3,0,1,1-.421-.421l1.084-1.083a.293.293,0,0,1,.21-.087m-2.167,2.167a.3.3,0,0,1,.211.508l-1.084,1.083a.3.3,0,0,1-.421-.421l1.084-1.083a.294.294,0,0,1,.21-.087m-2.166,2.166a.3.3,0,0,1,.21.508l-1.084,1.084a.3.3,0,1,1-.421-.421l1.084-1.083a.3.3,0,0,1,.21-.087m-2.166,2.167a.3.3,0,0,1,.21.508l-1.083,1.083a.3.3,0,0,1-.421-.421l1.084-1.084a.3.3,0,0,1,.21-.087m-2.166,2.166a.3.3,0,0,1,.21.508l-1.084,1.083a.3.3,0,0,1-.421-.421l1.083-1.082a.3.3,0,0,1,.211-.087m-2.167,2.166a.3.3,0,0,1,.21.508l-1.083,1.083a.3.3,0,0,1-.421-.421l1.084-1.084a.3.3,0,0,1,.21-.087m-2.166,2.166a.3.3,0,0,1,.21.508l-1.084,1.084a.3.3,0,0,1-.421-.421l1.083-1.084a.3.3,0,0,1,.211-.087m-2.167,2.167a.3.3,0,0,1,.21.508l-1.083,1.082a.3.3,0,0,1-.421-.421l1.084-1.083a.3.3,0,0,1,.21-.087m-2.166,2.166a.3.3,0,0,1,.21.508l-1.084,1.083a.3.3,0,0,1-.421-.421l1.083-1.084a.3.3,0,0,1,.211-.087m-2.166,2.167a.3.3,0,0,1,.21.508l-.719.719a.3.3,0,0,1-.421-.421l.719-.719a.3.3,0,0,1,.21-.087" transform="translate(-9.5 -113.408)" fill="#200809"/>
        <path id="Trazado_60677" data-name="Trazado 60677" d="M19.355,317.686l-.347-1.639a.321.321,0,0,0-.537-.163A.315.315,0,0,0,18.4,316l-1.407,3.578a.32.32,0,0,0,.406.42l3.62-1.3a.346.346,0,0,0,.116-.071.321.321,0,0,0-.147-.542Z" transform="translate(-7.214 -134.272)" fill="#200809"/>
        <path id="Trazado_60678" data-name="Trazado 60678" d="M72.778,263.939a1.532,1.532,0,1,1,1.532,1.533,1.532,1.532,0,0,1-1.532-1.533" transform="translate(-30.944 -111.573)" fill="#200809"/>
        <path id="Trazado_60679" data-name="Trazado 60679" d="M49.711,145.621H48.179a.3.3,0,1,1,0-.595h1.532a.3.3,0,0,1,0,.595m-3.064,0H45.115a.3.3,0,1,1,0-.595h1.532a.3.3,0,0,1,0,.595m-3.064,0H42.051a.3.3,0,1,1,0-.595h1.532a.3.3,0,0,1,0,.595m-3.064,0H38.987a.3.3,0,1,1,0-.595h1.532a.3.3,0,0,1,0,.595m-3.064,0H35.923a.3.3,0,1,1,0-.595h1.532a.3.3,0,0,1,0,.595m-3.064,0H32.859a.3.3,0,1,1,0-.595h1.532a.3.3,0,0,1,0,.595m-3.064,0H29.8a.3.3,0,0,1,0-.595h1.532a.3.3,0,1,1,0,.595m-3.064,0H26.731a.3.3,0,0,1,0-.595h1.532a.3.3,0,1,1,0,.595m-3.064,0H23.667a.3.3,0,0,1,0-.595H25.2a.3.3,0,1,1,0,.595m-3.064,0H20.6a.3.3,0,0,1,0-.595h1.532a.3.3,0,1,1,0,.595m-3.064,0H17.539a.3.3,0,0,1,0-.595h1.532a.3.3,0,1,1,0,.595m-3.064,0H14.475a.3.3,0,0,1,0-.595h1.532a.3.3,0,1,1,0,.595m-3.064,0H11.411a.3.3,0,1,1,0-.595h1.532a.3.3,0,1,1,0,.595m-3.064,0H8.862a.3.3,0,0,1,0-.595H9.879a.3.3,0,1,1,0,.595" transform="translate(-3.642 -61.664)" fill="#200809"/>
        <path id="Trazado_60680" data-name="Trazado 60680" d="M4.357,144.036l.914-1.4a.322.322,0,0,0-.024-.382.327.327,0,0,0-.24-.114.341.341,0,0,0-.133.026L1.349,143.7a.321.321,0,0,0-.01.584l3.476,1.642a.335.335,0,0,0,.132.031.315.315,0,0,0,.243-.106.32.32,0,0,0,.036-.381Z" transform="translate(-0.491 -60.435)" fill="#200809"/>
        <path id="Trazado_60681" data-name="Trazado 60681" d="M81.113,143.444a1.533,1.533,0,1,1,0,2.168,1.534,1.534,0,0,1,0-2.168" transform="translate(-34.297 -60.8)" fill="#200809"/>
        <path id="Trazado_60682" data-name="Trazado 60682" d="M22.145,154.385v-1.532a.3.3,0,1,1,.595,0v1.532a.3.3,0,0,1-.595,0m0-3.064v-1.532a.3.3,0,1,1,.595,0v1.532a.3.3,0,0,1-.595,0m0-3.064v-1.532a.3.3,0,1,1,.595,0v1.532a.3.3,0,0,1-.595,0m0-3.064v-1.532a.3.3,0,1,1,.595,0v1.532a.3.3,0,0,1-.595,0m0-3.064V140.6a.3.3,0,1,1,.595,0v1.532a.3.3,0,0,1-.595,0m0-3.064v-1.532a.3.3,0,1,1,.595,0v1.532a.3.3,0,0,1-.595,0m0-3.064v-1.532a.3.3,0,0,1,.595,0V136a.3.3,0,1,1-.595,0m0-3.064V131.4a.3.3,0,0,1,.595,0v1.532a.3.3,0,1,1-.595,0m0-3.064v-1.532a.3.3,0,0,1,.595,0v1.532a.3.3,0,1,1-.595,0m0-3.064v-1.532a.3.3,0,0,1,.595,0v1.532a.3.3,0,1,1-.595,0m0-3.064v-1.532a.3.3,0,0,1,.595,0v1.532a.3.3,0,1,1-.595,0m0-3.064v-1.532a.3.3,0,0,1,.595,0v1.532a.3.3,0,1,1-.595,0m0-3.064v-1.532a.3.3,0,1,1,.595,0v1.532a.3.3,0,1,1-.595,0m0-3.064v-1.017a.3.3,0,0,1,.595,0v1.017a.3.3,0,1,1-.595,0" transform="translate(-9.416 -48.148)" fill="#200809"/>
        <path id="Trazado_60683" data-name="Trazado 60683" d="M21.343,109.031l1.4.914a.322.322,0,0,0,.5-.264.331.331,0,0,0-.026-.133l-1.536-3.524a.321.321,0,0,0-.584-.01l-1.642,3.476a.326.326,0,0,0-.032.132.315.315,0,0,0,.107.243.32.32,0,0,0,.38.036Z" transform="translate(-8.259 -44.998)" fill="#200809"/>
        <path id="Trazado_60684" data-name="Trazado 60684" d="M22.494,185.786a1.533,1.533,0,1,1-2.168,0,1.533,1.533,0,0,1,2.168,0" transform="translate(-8.452 -78.803)" fill="#200809"/>
        <path id="Trazado_60685" data-name="Trazado 60685" d="M79.371,307.874c-.007-.056-.021-.111-.03-.166l1.812-.334-.032-.181a8.432,8.432,0,0,0-1.246-3.109l-.1-.154-1.542,1.012a6.671,6.671,0,0,0-1.59-1.6l1.034-1.531-.152-.1a8.431,8.431,0,0,0-3.09-1.29l-.18-.036-.359,1.8a6.655,6.655,0,0,0-1.8-.053L71.86,300.3l-.182.024a8.44,8.44,0,0,0-3.17,1.078l-.159.093.928,1.594a6.686,6.686,0,0,0-1.689,1.5l-1.472-1.111-.11.145a8.453,8.453,0,0,0-1.452,3.017l-.045.178,1.789.456a6.587,6.587,0,0,0-.12,2.258l-1.82.269.026.182a8.444,8.444,0,0,0,1.135,3.151l.095.157,1.579-.958A6.694,6.694,0,0,0,68.72,314l-1.082,1.488.148.108a8.443,8.443,0,0,0,3.042,1.4l.178.043.425-1.8a6.621,6.621,0,0,0,2.209.089c.017,0,.033-.007.051-.009l.3,1.814.182-.03a8.412,8.412,0,0,0,3.13-1.19l.155-.1-.985-1.562a6.651,6.651,0,0,0,1.636-1.558l1.511,1.059.106-.151a8.44,8.44,0,0,0,1.344-3.067l.039-.178-1.8-.393A6.6,6.6,0,0,0,79.371,307.874Zm-2.53.068-1.41.184a2.725,2.725,0,0,0-2.748-2.114L72.5,304.6A4.14,4.14,0,0,1,76.84,307.942Zm-4.859-3.271.185,1.41a2.722,2.722,0,0,0-2.113,2.748l-1.41.185A4.14,4.14,0,0,1,71.981,304.671Zm-3.271,4.86,1.41-.185a2.724,2.724,0,0,0,2.748,2.113l.185,1.409A4.14,4.14,0,0,1,68.71,309.531Zm4.86,3.27-.184-1.41a2.724,2.724,0,0,0,2.112-2.747l1.41-.185A4.14,4.14,0,0,1,73.57,312.8Z" transform="translate(-27.365 -127.684)" fill="none" stroke="#200809" stroke-linecap="round" stroke-linejoin="round" stroke-width="1"/>
        <path id="Trazado_60686" data-name="Trazado 60686" d="M51.3,159.271c-.007-.056-.021-.11-.03-.166l1.813-.334-.033-.181a8.424,8.424,0,0,0-1.246-3.11l-.1-.153-1.542,1.012a6.7,6.7,0,0,0-1.59-1.605l1.034-1.531-.152-.1a8.429,8.429,0,0,0-3.09-1.29l-.18-.036-.359,1.8a6.656,6.656,0,0,0-1.8-.053l-.238-1.828-.182.024a8.448,8.448,0,0,0-3.17,1.078l-.159.093.928,1.594a6.678,6.678,0,0,0-1.689,1.5l-1.472-1.112-.11.146a8.455,8.455,0,0,0-1.452,3.016l-.045.178,1.789.456a6.59,6.59,0,0,0-.119,2.258l-1.82.269.026.182a8.438,8.438,0,0,0,1.135,3.151l.094.157,1.58-.957a6.689,6.689,0,0,0,1.526,1.667l-1.082,1.488.148.108a8.435,8.435,0,0,0,3.042,1.4l.178.042.425-1.8a6.6,6.6,0,0,0,2.208.089c.017,0,.033-.007.051-.009l.3,1.814.181-.03a8.423,8.423,0,0,0,3.131-1.191l.155-.1-.986-1.561a6.656,6.656,0,0,0,1.636-1.558l1.511,1.059.105-.151A8.443,8.443,0,0,0,53,161.936l.039-.179-1.8-.392A6.6,6.6,0,0,0,51.3,159.271Zm-2.53.068-1.41.184a2.725,2.725,0,0,0-2.748-2.113L44.431,156A4.14,4.14,0,0,1,48.773,159.339Zm-4.859-3.271.185,1.411a2.722,2.722,0,0,0-2.113,2.748l-1.409.184A4.141,4.141,0,0,1,43.914,156.068Zm-3.271,4.86,1.41-.185a2.724,2.724,0,0,0,2.748,2.112l.185,1.41A4.14,4.14,0,0,1,40.643,160.928ZM45.5,164.2l-.184-1.409a2.724,2.724,0,0,0,2.112-2.748l1.411-.185A4.14,4.14,0,0,1,45.5,164.2Z" transform="translate(-15.431 -64.5)" fill="none" stroke="#200809" stroke-linecap="round" stroke-linejoin="round" stroke-width="1"/>
        <path id="Trazado_60687" data-name="Trazado 60687" d="M95.058,59.029c-.005-.044-.017-.086-.024-.129l1.411-.26-.026-.14a6.562,6.562,0,0,0-.969-2.419l-.079-.119-1.2.787A5.212,5.212,0,0,0,92.935,55.5l.8-1.19-.118-.08a6.554,6.554,0,0,0-2.4-1l-.14-.028-.28,1.4a5.17,5.17,0,0,0-1.4-.041l-.185-1.422-.143.018a6.572,6.572,0,0,0-2.466.839l-.123.072.722,1.24a5.212,5.212,0,0,0-1.315,1.167l-1.145-.865-.086.113a6.584,6.584,0,0,0-1.13,2.347l-.036.138,1.392.355a5.157,5.157,0,0,0-.093,1.757l-1.416.209.021.141a6.568,6.568,0,0,0,.882,2.452l.074.122,1.228-.745a5.208,5.208,0,0,0,1.188,1.3l-.842,1.157.115.084a6.57,6.57,0,0,0,2.366,1.088l.139.033.331-1.4a5.15,5.15,0,0,0,1.719.069l.039-.007.235,1.412.141-.024a6.563,6.563,0,0,0,2.436-.927l.12-.076L92.8,63.992a5.189,5.189,0,0,0,1.273-1.212l1.175.824.082-.117A6.571,6.571,0,0,0,96.379,61.1l.03-.139-1.4-.305A5.139,5.139,0,0,0,95.058,59.029Zm-1.968.053-1.1.143a2.12,2.12,0,0,0-2.138-1.644l-.143-1.1A3.222,3.222,0,0,1,93.09,59.082Zm-3.781-2.545.143,1.1a2.118,2.118,0,0,0-1.644,2.138l-1.1.144A3.221,3.221,0,0,1,89.309,56.538Zm-2.545,3.781,1.1-.144A2.12,2.12,0,0,0,90,61.819l.143,1.1A3.22,3.22,0,0,1,86.765,60.318Zm3.781,2.544-.143-1.1a2.119,2.119,0,0,0,1.643-2.137l1.1-.144A3.221,3.221,0,0,1,90.545,62.862Z" transform="translate(-35.452 -22.593)" fill="none" stroke="#200809" stroke-linecap="round" stroke-linejoin="round" stroke-width="0.778"/>
        <path id="Trazado_60688" data-name="Trazado 60688" d="M62.1,84.31a13.239,13.239,0,0,0-1.34-5.773l3.039-1.48a16.837,16.837,0,0,0-4.653-5.788l-2.1,2.651A13.257,13.257,0,0,0,51.7,71.364l.74-3.3a16.757,16.757,0,0,0-3.663-.4h0a16.793,16.793,0,0,0-3.76.425l.76,3.3a13.278,13.278,0,0,0-5.333,2.587L38.323,71.33A16.864,16.864,0,0,0,33.7,77.147l3.047,1.461a13.285,13.285,0,0,0-1.3,5.757c0,.009,0,.018,0,.026l-3.38.007a16.559,16.559,0,0,0,1.666,7.244l3.041-1.474a13.368,13.368,0,0,0,3.708,4.625l-2.108,2.646a16.75,16.75,0,0,0,6.7,3.22l.744-3.3a13.274,13.274,0,0,0,5.927-.007l.752,3.3a16.76,16.76,0,0,0,6.7-3.232l-2.112-2.643a13.342,13.342,0,0,0,3.7-4.632l3.044,1.467a16.558,16.558,0,0,0,1.651-7.247V84.31Zm-4.6-1.7H53.041a4.548,4.548,0,0,0-2.718-2.718V75.437A8.868,8.868,0,0,1,57.5,82.61ZM47.226,75.437v4.455a4.547,4.547,0,0,0-2.718,2.718H40.051A8.868,8.868,0,0,1,47.226,75.437ZM40.051,85.707h4.457a4.545,4.545,0,0,0,2.718,2.717v4.456A8.865,8.865,0,0,1,40.051,85.707Zm10.271,7.174V88.425a4.546,4.546,0,0,0,2.718-2.717H57.5A8.865,8.865,0,0,1,50.322,92.881Z" transform="translate(-13.635 -28.768)" fill="none" stroke="#200809" stroke-linecap="round" stroke-linejoin="round" stroke-width="1"/>
        <path id="Trazado_60689" data-name="Trazado 60689" d="M53.172,247.052c-.006-.054-.021-.106-.029-.159l1.726-.317-.032-.172a8.028,8.028,0,0,0-1.186-2.96l-.1-.147-1.467.963a6.35,6.35,0,0,0-1.513-1.527l.983-1.457-.144-.1a8.017,8.017,0,0,0-2.941-1.228l-.171-.034-.342,1.716a6.365,6.365,0,0,0-1.709-.051l-.227-1.739-.173.022a8.042,8.042,0,0,0-3.017,1.026l-.151.089.885,1.517a6.32,6.32,0,0,0-1.608,1.428l-1.4-1.058-.106.14a8.036,8.036,0,0,0-1.381,2.87l-.043.17,1.7.435a6.3,6.3,0,0,0-.113,2.148l-1.732.256.026.172a8.022,8.022,0,0,0,1.079,3l.09.149,1.5-.911a6.375,6.375,0,0,0,1.453,1.586l-1.03,1.416.141.1a8.022,8.022,0,0,0,2.894,1.33l.17.041.4-1.709a6.285,6.285,0,0,0,2.1.085l.048-.009.287,1.727.172-.029A8.005,8.005,0,0,0,51.2,254.7l.147-.093-.938-1.485a6.349,6.349,0,0,0,1.558-1.483l1.438,1.008.1-.143a8.024,8.024,0,0,0,1.28-2.918l.037-.17-1.714-.373A6.27,6.27,0,0,0,53.172,247.052Zm-2.408.064-1.342.176a2.593,2.593,0,0,0-2.615-2.011l-.175-1.342A3.939,3.939,0,0,1,50.763,247.116ZM46.139,244l.176,1.342A2.591,2.591,0,0,0,44.3,247.96l-1.342.175A3.941,3.941,0,0,1,46.139,244Zm-3.113,4.624,1.342-.175a2.593,2.593,0,0,0,2.615,2.011l.176,1.341A3.939,3.939,0,0,1,43.026,248.628Zm4.625,3.113-.176-1.341a2.594,2.594,0,0,0,2.011-2.615l1.342-.175A3.939,3.939,0,0,1,47.651,251.74Z" transform="translate(-16.534 -101.979)" fill="none" stroke="#200809" stroke-linecap="round" stroke-linejoin="round" stroke-width="1"/>
        <path id="Trazado_60690" data-name="Trazado 60690" d="M36.015,206h1.446l2.881,7.49H38.86l-.586-1.542H35.217l-.609,1.542H33.126Zm.732,1.986-1.005,2.572h2Z" transform="translate(-14.085 -87.589)" fill="#200809"/>
        <path id="Trazado_60691" data-name="Trazado 60691" d="M50.224,42.37,54.9,36.518l.92.735a6.122,6.122,0,0,1,1.088,1.039,2.006,2.006,0,0,1,.424,1.186,1.742,1.742,0,0,1-.4,1.139,1.656,1.656,0,0,1-.627.494,1.977,1.977,0,0,1-.867.144,2.342,2.342,0,0,1,.279,1.25,2.021,2.021,0,0,1-.463,1.086,2.118,2.118,0,0,1-.974.695,2.072,2.072,0,0,1-1.142.082,3.223,3.223,0,0,1-1.271-.687ZM53.385,40.7l-1.2,1.5.28.224a2.206,2.206,0,0,0,1.075.573.756.756,0,0,0,.648-.317.914.914,0,0,0,.194-.823,2.009,2.009,0,0,0-.766-.971Zm1.78-2.227L54.18,39.7l.243.194a1.16,1.16,0,0,0,.742.313.742.742,0,0,0,.569-.308.7.7,0,0,0,.161-.585,1.1,1.1,0,0,0-.442-.618Z" transform="translate(-21.355 -15.527)" fill="#200809"/>
        <path id="Trazado_60692" data-name="Trazado 60692" d="M155.885,49.182l.109,1.373a3.086,3.086,0,0,0-2.277,1.1,2.508,2.508,0,0,0,.371,3.578,2.676,2.676,0,0,0,1.238.586,2.333,2.333,0,0,0,1.289-.14,2.676,2.676,0,0,0,1.091-.818,2.744,2.744,0,0,0,.536-1.027,4.074,4.074,0,0,0,.056-1.408l1.393-.115a5.31,5.31,0,0,1-.117,1.926,4.293,4.293,0,0,1-.82,1.506,3.879,3.879,0,0,1-2.663,1.521,3.83,3.83,0,0,1-2.9-.926,3.887,3.887,0,0,1-1.226-1.648,3.759,3.759,0,0,1-.172-2.01,4.088,4.088,0,0,1,.871-1.913,4.313,4.313,0,0,1,3.225-1.585" transform="translate(-64.512 -20.912)" fill="#200809"/>
        <path id="Trazado_60693" data-name="Trazado 60693" d="M55.827,193.2a.3.3,0,1,1-.594,0v-5.154a.3.3,0,0,1,.594,0Z" transform="translate(-23.485 -79.83)" fill="#200809"/>
        <path id="Trazado_60694" data-name="Trazado 60694" d="M51.047,192.827a.3.3,0,1,1,0-.594H56.2a.3.3,0,0,1,0,.594Z" transform="translate(-21.578 -81.736)" fill="#200809"/>
        <path id="Trazado_60695" data-name="Trazado 60695" d="M5.077,161.951a.3.3,0,1,1-.594,0V156.8a.3.3,0,0,1,.594,0Z" transform="translate(-1.906 -66.543)" fill="#200809"/>
        <path id="Trazado_60696" data-name="Trazado 60696" d="M.3,161.577a.3.3,0,1,1,0-.594H5.45a.3.3,0,0,1,0,.594Z" transform="translate(0 -68.448)" fill="#200809"/>
        <path id="Trazado_60697" data-name="Trazado 60697" d="M35.077,274.951a.3.3,0,1,1-.594,0V269.8a.3.3,0,0,1,.594,0Z" transform="translate(-14.662 -114.589)" fill="#200809"/>
        <path id="Trazado_60698" data-name="Trazado 60698" d="M30.3,274.577a.3.3,0,1,1,0-.594H35.45a.3.3,0,0,1,0,.594Z" transform="translate(-12.755 -116.495)" fill="#200809"/>
        <path id="Trazado_60699" data-name="Trazado 60699" d="M92.827,28.2a.3.3,0,0,1-.594,0V23.047a.3.3,0,0,1,.594,0Z" transform="translate(-39.217 -9.673)" fill="#200809"/>
        <path id="Trazado_60700" data-name="Trazado 60700" d="M88.047,27.827a.3.3,0,1,1,0-.594H93.2a.3.3,0,0,1,0,.594Z" transform="translate(-37.31 -11.579)" fill="#200809"/>
        <path id="Trazado_60701" data-name="Trazado 60701" d="M11.047,221.327a.3.3,0,1,1,0-.594H16.2a.3.3,0,0,1,0,.594Z" transform="translate(-4.57 -93.853)" fill="#200809"/>
        <path id="Trazado_60702" data-name="Trazado 60702" d="M15.937,217.344a.719.719,0,1,1-.719-.719.719.719,0,0,1,.719.719" transform="translate(-6.165 -92.107)" fill="#200809"/>
        <path id="Trazado_60703" data-name="Trazado 60703" d="M15.937,224.094a.719.719,0,1,1-.719-.719.719.719,0,0,1,.719.719" transform="translate(-6.165 -94.977)" fill="#200809"/>
        <path id="Trazado_60704" data-name="Trazado 60704" d="M81.547,129.327a.3.3,0,1,1,0-.594H86.7a.3.3,0,0,1,0,.594Z" transform="translate(-34.546 -54.736)" fill="#200809"/>
        <path id="Trazado_60705" data-name="Trazado 60705" d="M86.437,125.344a.719.719,0,1,1-.719-.719.719.719,0,0,1,.719.719" transform="translate(-36.141 -52.989)" fill="#200809"/>
        <path id="Trazado_60706" data-name="Trazado 60706" d="M86.437,132.094a.719.719,0,1,1-.719-.719.719.719,0,0,1,.719.719" transform="translate(-36.141 -55.859)" fill="#200809"/>
        <path id="Trazado_60707" data-name="Trazado 60707" d="M155.8,32.327a.3.3,0,1,1,0-.594h5.154a.3.3,0,0,1,0,.594Z" transform="translate(-66.117 -13.493)" fill="#200809"/>
        <path id="Trazado_60708" data-name="Trazado 60708" d="M160.687,28.344a.719.719,0,1,1-.719-.719.719.719,0,0,1,.719.719" transform="translate(-67.712 -11.746)" fill="#200809"/>
        <path id="Trazado_60709" data-name="Trazado 60709" d="M160.687,35.094a.719.719,0,1,1-.719-.719.719.719,0,0,1,.719.719" transform="translate(-67.712 -14.616)" fill="#200809"/>
        <path id="Trazado_60710" data-name="Trazado 60710" d="M113.3,38.577a.3.3,0,1,1,0-.594h5.154a.3.3,0,0,1,0,.594Z" transform="translate(-48.046 -16.15)" fill="#200809"/>
        <path id="Trazado_60711" data-name="Trazado 60711" d="M20.3,87.327a.3.3,0,1,1,0-.594H25.45a.3.3,0,0,1,0,.594Z" transform="translate(-8.503 -36.878)" fill="#200809"/>
        <path id="Trazado_60712" data-name="Trazado 60712" d="M53.8,228.827a.3.3,0,1,1,0-.594h5.154a.3.3,0,0,1,0,.594Z" transform="translate(-22.747 -97.042)" fill="#200809"/>
        <path id="Trazado_60713" data-name="Trazado 60713" d="M97.047,303.827a.3.3,0,1,1,0-.594H102.2a.3.3,0,0,1,0,.594Z" transform="translate(-41.137 -128.932)" fill="#200809"/>
      </g>
    </g>
  </g>
</svg>
