<svg xmlns="http://www.w3.org/2000/svg" xmlns:xlink="http://www.w3.org/1999/xlink" width="115" height="115.987" viewBox="0 0 115 115.987">
  <defs>
    <filter id="Trazado_1178" x="2.367" y="6" width="109.987" height="109.987" filterUnits="userSpaceOnUse">
      <feOffset dy="3" input="SourceAlpha"/>
      <feGaussianBlur stdDeviation="3" result="blur"/>
      <feFlood flood-opacity="0.161"/>
      <feComposite operator="in" in2="blur"/>
      <feComposite in="SourceGraphic"/>
    </filter>
  </defs>
  <g id="Grupo_25678" data-name="Grupo 25678" transform="translate(-225 -4264)">
    <g id="Grupo_14736" data-name="Grupo 14736" transform="translate(-430 8419)">
      <circle id="Elipse_497" data-name="Elipse 497" cx="57.5" cy="57.5" r="57.5" transform="translate(655 -4155)" fill="#e6b42a" opacity="0.75"/>
      <g transform="matrix(1, 0, 0, 1, 655, -4155)" filter="url(#Trazado_1178)">
        <path id="Trazado_1178-2" data-name="Trazado 1178" d="M45.994,0A45.994,45.994,0,1,1,0,45.994,45.994,45.994,0,0,1,45.994,0Z" transform="translate(11.37 12)" fill="#fff"/>
      </g>
    </g>
    <g id="Page-1" transform="translate(255 4294)">
      <g id="_022---Ideas" data-name="022---Ideas">
        <path id="Shape" d="M31,46h-.11a7,7,0,1,0-9.78,0H21a6.006,6.006,0,0,0-6,6v6a2,2,0,0,0,2,2H35a2,2,0,0,0,2-2V52a6.006,6.006,0,0,0-6-6ZM21,41a5,5,0,1,1,5,5A5,5,0,0,1,21,41ZM35,58H32V55a1,1,0,0,0-2,0v3H22V55a1,1,0,0,0-2,0v3H17V52a4,4,0,0,1,4-4H31a4,4,0,0,1,4,4Z"/>
        <path id="Shape-2" data-name="Shape" d="M35.955,22.814a1,1,0,0,0-.821-.693l-5.709-.776-2.541-4.812a1.04,1.04,0,0,0-1.768,0l-2.541,4.812-5.709.776a1,1,0,0,0-.539,1.73l4.089,3.725-.962,5.243A1,1,0,0,0,20.878,33.9L26,31.381,31.122,33.9a.99.99,0,0,0,.44.1,1,1,0,0,0,.984-1.181l-.962-5.243,4.089-3.725a1,1,0,0,0,.282-1.037Zm-6.128,3.658a1,1,0,0,0-.31.92l.7,3.835L26.441,29.37a1,1,0,0,0-.882,0L21.78,31.227l.7-3.835a1,1,0,0,0-.31-.92l-2.917-2.658,4.1-.556a1,1,0,0,0,.75-.524L26,19.142l1.9,3.592a1,1,0,0,0,.75.524l4.1.556Z"/>
        <path id="Shape-3" data-name="Shape" d="M7,34a4,4,0,0,0,4,4,3.957,3.957,0,0,0,1.38-.26,17.968,17.968,0,0,0,3.12,2.871,1,1,0,0,0,1.169-1.627,15.94,15.94,0,0,1-2.641-2.4A3.979,3.979,0,0,0,11,30a4.043,4.043,0,0,0-.47.047A15.982,15.982,0,0,1,35.486,13.13,3.944,3.944,0,0,0,35,15a4,4,0,0,0,4,4,3.943,3.943,0,0,0,1.27-.226,15.978,15.978,0,0,1-4.933,20.213A1,1,0,1,0,36.5,40.612a17.961,17.961,0,0,0,5.446-22.933,3.986,3.986,0,0,0-5.113-6.033A17.965,17.965,0,0,0,8.659,30.772,3.986,3.986,0,0,0,7,34ZM41,15a2,2,0,1,1-2-2A2,2,0,0,1,41,15ZM13,34a2,2,0,1,1-2-2A2,2,0,0,1,13,34Z"/>
        <path id="Shape-4" data-name="Shape" d="M51.757,29.424A25.981,25.981,0,0,0,8.846,6.473a3.975,3.975,0,0,0-5,5.959A25.8,25.8,0,0,0,0,26,26.1,26.1,0,0,0,12.709,48.34a1.035,1.035,0,0,0,.521.14,1,1,0,0,0,.47-1.88A24.09,24.09,0,0,1,2,26,23.8,23.8,0,0,1,5.429,13.677a3.991,3.991,0,0,0,4.926-5.84A23.928,23.928,0,0,1,49.793,29.021a3.981,3.981,0,0,0-2.1,7.231A24.164,24.164,0,0,1,38.269,46.62a1,1,0,0,0,1.022,1.72A26.172,26.172,0,0,0,49.566,36.956,3.865,3.865,0,0,0,50,37a3.989,3.989,0,0,0,1.757-7.576ZM7,12a2,2,0,1,1,2-2A2,2,0,0,1,7,12ZM50,35a2,2,0,1,1,2-2A2,2,0,0,1,50,35Z"/>
      </g>
    </g>
  </g>
</svg>
