<svg id="Grupo_24827" data-name="Grupo 24827" xmlns="http://www.w3.org/2000/svg" xmlns:xlink="http://www.w3.org/1999/xlink" width="234.213" height="600.947" viewBox="0 0 234.213 600.947">
  <defs>
    <clipPath id="clip-path">
      <rect id="Rectángulo_25398" data-name="Rectángulo 25398" width="234.213" height="600.947" fill="none"/>
    </clipPath>
  </defs>
  <g id="Grupo_24826" data-name="Grupo 24826" clip-path="url(#clip-path)">
    <path id="Trazado_60313" data-name="Trazado 60313" d="M70.2,84.6q0,28.345-.016,56.691c0,2.5-.138,5-.355,7.492a20.049,20.049,0,0,1-.839,3.468c-.119.44-.441.751-.858.633a1.055,1.055,0,0,1-.678-.568,18.783,18.783,0,0,1-.858-3.721c-.216-3.094-.36-6.2-.358-9.3.01-22.7.028-58.439.107-81.134.055-15.1.215-42.209.334-57.309.014-1.466.088,1.464.152,0,.028-.6.076.594.173,0,.135-.832.592.022,1.177,0S69.27.059,69.4.847c.083.507.119-.516.137,0,.1,2.93.256-2.933.275,0,.121,18.2.211,65.543.312,83.749.026,0,.054,0,.081,0" transform="translate(48.394 0)" fill="#361818" fill-rule="evenodd"/>
    <path id="Trazado_60314" data-name="Trazado 60314" d="M58.984,246.608c0-1.206.005-2.414,0-3.617a16.889,16.889,0,0,1,.692-5.133,53.4,53.4,0,0,0,1.481-9.131c.135-1.045.265-2.094.408-3.136a4.376,4.376,0,0,1,.2-.872.921.921,0,0,1,1.092-.571,1.449,1.449,0,0,1,.77.718,3.418,3.418,0,0,1,0,1.333c-.265,2.393-.578,4.787-.81,7.182a8.332,8.332,0,0,0,.066,2.456c1,4.84.926,9.742.879,14.639a9.252,9.252,0,0,1-.246,2.011,2.334,2.334,0,0,1-4.647-.453c.042-1.808.01-3.617.01-5.425Z" transform="translate(43.013 163.729)" fill="#361818" fill-rule="evenodd"/>
    <path id="Trazado_60315" data-name="Trazado 60315" d="M84.788,223.717a13.326,13.326,0,0,1,1.063.877,22.455,22.455,0,0,1,5.391,7.987,55.323,55.323,0,0,0,2.374,5.128,19.59,19.59,0,0,1,1.483,4.73,4.362,4.362,0,0,1-.376,2.857,2.02,2.02,0,0,1-1.732,1.27,1.869,1.869,0,0,1-1.8-1.149,7.462,7.462,0,0,1-.594-1.464,99.948,99.948,0,0,0-5.379-14.861c-.789-1.808-.85-2.547-.431-5.375" transform="translate(61.759 163.448)" fill="#361818" fill-rule="evenodd"/>
    <path id="Trazado_60316" data-name="Trazado 60316" d="M21.518,173.323c-1.045,1.542-2.425,1.6-3.915,1.331-3.4-.625-6.819-1.184-10.166-2.11a17.78,17.78,0,0,0-5.74-1.066,1.7,1.7,0,0,1-1.487-2.589,2.518,2.518,0,0,1,1.84-1.528,7.409,7.409,0,0,1,2.234-.1c1.263.178,2.508.495,3.757.772,2.5.55,5,1.1,7.488,1.677a22.785,22.785,0,0,1,2.812.824,5.256,5.256,0,0,1,3.176,2.785" transform="translate(0 122.169)" fill="#361818" fill-rule="evenodd"/>
    <path id="Trazado_60317" data-name="Trazado 60317" d="M28.1,235.35a1.61,1.61,0,0,1-1.627-1.959,6.061,6.061,0,0,1,.929-1.763,3.186,3.186,0,0,1,.877-.7c4.913-3.363,9.655-6.976,14.734-10.1,1.021-.628,1.919-1.459,2.894-2.167.7-.507,1.286-.483,1.568,0,.246.421.168.884-.491,1.334-2.35,1.6-3.987,3.878-5.787,6a19.6,19.6,0,0,1-3.629,3.38c-2.338,1.654-4.65,3.347-6.985,5a4.077,4.077,0,0,1-2.483.971" transform="translate(19.305 159.483)" fill="#361818" fill-rule="evenodd"/>
    <path id="Trazado_60318" data-name="Trazado 60318" d="M121.121,181.309c.242-.379.322-.668.478-.718a11.319,11.319,0,0,1,1.544-.346,4.223,4.223,0,0,0,2.378-1.21,9.029,9.029,0,0,1,3.894-2.207c2.8-.912,5.559-1.942,8.342-2.9,1.428-.49,2.875-.915,4.306-1.4a3.414,3.414,0,0,1,2.824.419,1.418,1.418,0,0,1,.045,2.563,18.951,18.951,0,0,1-2.849,1.379c-2.537.971-5.085,1.923-7.658,2.79a23,23,0,0,1-8.248,1.2,25.418,25.418,0,0,0-3.141.282c-.576.055-1.154.09-1.914.145" transform="translate(88.491 125.939)" fill="#361818" fill-rule="evenodd"/>
    <path id="Trazado_60319" data-name="Trazado 60319" d="M120.031,199.131a6.011,6.011,0,0,1,1.288-.362,16.221,16.221,0,0,1,2.023.206,26.413,26.413,0,0,0,5.63.353,33.021,33.021,0,0,1,11.791,1.732,16.046,16.046,0,0,1,3.027,1.488,2.215,2.215,0,0,1,1.08,1.649,2.112,2.112,0,0,1-2.643,2.437,2.478,2.478,0,0,1-.642-.213,23.974,23.974,0,0,0-5.993-1.975,24.871,24.871,0,0,1-7.94-3.162,8.174,8.174,0,0,0-3.849-1.172,8.5,8.5,0,0,1-3.771-.983" transform="translate(87.695 145.221)" fill="#361818" fill-rule="evenodd"/>
    <path id="Trazado_60320" data-name="Trazado 60320" d="M128.258,139.77a3.617,3.617,0,0,1-.573,1,6.032,6.032,0,0,1-1.476,1.026c-4.844,2.428-9.7,4.841-14.712,6.907a2.161,2.161,0,0,1-.429.132,1.222,1.222,0,0,1-1.314-.661,1.043,1.043,0,0,1,.126-1.265c1.729-1.762,3.368-3.633,5.69-4.693,2.809-1.282,5.59-2.622,8.381-3.937a4.235,4.235,0,0,1,3.087-.166,1.758,1.758,0,0,1,1.218,1.658" transform="translate(80.074 100.751)" fill="#361818" fill-rule="evenodd"/>
    <path id="Trazado_60321" data-name="Trazado 60321" d="M124.112,228.5a21.43,21.43,0,0,1-2.423-1.187,40.166,40.166,0,0,1-7.16-5.862c-1.751-1.767-3.563-3.475-5.344-5.213a3.276,3.276,0,0,1-.727-.845,1.038,1.038,0,0,1,.106-.8c.062-.114.419-.159.6-.1a1.83,1.83,0,0,1,.758.457,14.235,14.235,0,0,0,5.183,3.136,46.531,46.531,0,0,1,9.044,5.1,5.726,5.726,0,0,1,2.31,3.243c.334,1.246-.592,2.257-2.345,2.072" transform="translate(79.208 156.694)" fill="#361818" fill-rule="evenodd"/>
    <path id="Trazado_60322" data-name="Trazado 60322" d="M9.061,207.4c-1.182,0-1.843-.28-2.2-1.054a1.849,1.849,0,0,1,.566-2.241A10.893,10.893,0,0,1,9.7,202.681c1.7-.793,3.428-1.558,5.192-2.21,2.11-.786,4.266-1.466,6.412-2.146a1.39,1.39,0,0,1,1.7.761,1.346,1.346,0,0,1-.621,1.748c-2.31.986-3.98,2.975-6.282,3.956-1.731.739-3.444,1.511-5.2,2.191a10.256,10.256,0,0,1-1.841.415" transform="translate(4.886 144.848)" fill="#361818" fill-rule="evenodd"/>
    <path id="Trazado_60323" data-name="Trazado 60323" d="M29.852,150.29a3.685,3.685,0,0,1-.971.6,1.741,1.741,0,0,1-.843-.241c-.907-.363-1.788-.812-2.717-1.1a11.442,11.442,0,0,1-5.064-3.286c-1.284-1.378-2.509-2.814-3.75-4.235a4.807,4.807,0,0,1-.654-.917,2,2,0,0,1,.273-2.31,2.022,2.022,0,0,1,2.492-.341,5.716,5.716,0,0,1,1.227.988c.831.877,1.627,1.784,2.416,2.7,1.58,1.824,3.115,3.688,4.735,5.476a23.224,23.224,0,0,0,2.07,1.717,7.82,7.82,0,0,1,.786.947" transform="translate(11.402 100.959)" fill="#361818" fill-rule="evenodd"/>
    <path id="Trazado_60324" data-name="Trazado 60324" d="M171.82,214.376c.183-3.882-.744-7.656-.8-11.5a6.8,6.8,0,0,0-.227-1.108,10.947,10.947,0,0,1-.265-1.556,15.343,15.343,0,0,0-1.684-6.064c-1.056-2.177-2.181-4.318-3.2-6.509-1.857-4-4.873-7.07-8.023-10.008a35.5,35.5,0,0,1-3.451-3.567c-3.749-4.642-7.452-9.318-11.18-13.978a46.1,46.1,0,0,1-6.289-9.916,30.06,30.06,0,0,0-1.455-2.816,50.738,50.738,0,0,1-4.832-10.937,19.824,19.824,0,0,1-1.113-4.832,35.94,35.94,0,0,0-1.585-8.175,2.975,2.975,0,0,0-.827-1.315,13.73,13.73,0,0,0-5.384-3.241c-1.085-.32-2.2-.536-3.3-.8a32.094,32.094,0,0,0-7.189-.716c-4.157-.043-8.312-.012-12.467-.012v.007c-3.4,0-6.8.029-10.2-.01a44.674,44.674,0,0,0-12.1,1.322,14.906,14.906,0,0,0-6.048,3.4,2.98,2.98,0,0,0-.841,1.3,27.008,27.008,0,0,0-1.556,7.937,6.57,6.57,0,0,1-.164,1.346,52.69,52.69,0,0,1-5.119,13.49c-.841,1.6-1.779,3.162-2.546,4.8a43.774,43.774,0,0,1-5.47,8.572q-5.763,7.282-11.592,14.518a15.238,15.238,0,0,1-2.587,2.836,40.483,40.483,0,0,0-5.548,5.64,17.2,17.2,0,0,0-2.49,3.494c-1.558,2.933-3.039,5.91-4.413,8.935a15.462,15.462,0,0,0-1.177,4.112c-.386,2.6-1.128,5.173-.9,7.85a1.942,1.942,0,0,1-.1.672,14.729,14.729,0,0,0-.415,4.494q.044,5.9.112,11.787a7.336,7.336,0,0,0,.135,1.8,31.45,31.45,0,0,1,.806,6.727,9.2,9.2,0,0,0,1.384,4.962,15.831,15.831,0,0,1,2.049,4.737c.474,1.514.955,3.023,1.4,4.543a7.7,7.7,0,0,0,1.89,3.314,7.852,7.852,0,0,1,1.772,2.862,31.759,31.759,0,0,0,2.838,5.408,30.981,30.981,0,0,0,7.016,8.22c3.2,2.535,6.782,4.5,9.948,7.073a7.164,7.164,0,0,0,1.194.64c2.47,1.3,4.988,2.52,7.4,3.923a49.7,49.7,0,0,0,12.3,5.112c1.011.267,2.072.355,3.106.535a46.335,46.335,0,0,0,7.661.524,15.553,15.553,0,0,1,3.806.485,19.365,19.365,0,0,0,4.939.5c1.738.014,3.477-.021,5.214,0a18.857,18.857,0,0,1,2.482.164,54.064,54.064,0,0,0,10.635.2,7.593,7.593,0,0,0,4.259-1.353,3,3,0,0,1,1.679-.561,9,9,0,0,0,1.545-.317,48.274,48.274,0,0,0,12.755-5.19c.517-.31,1.078-.543,1.611-.827q3.793-2.025,7.578-4.065a8.774,8.774,0,0,0,1.113-.777c1.262-.966,2.542-1.907,3.755-2.926a7.412,7.412,0,0,0,1.845-1.952,6.126,6.126,0,0,1,2.4-2.328,15.084,15.084,0,0,0,5.245-5.524,8.32,8.32,0,0,1,1.466-2,13.057,13.057,0,0,0,2.361-3.293,33.173,33.173,0,0,1,2.708-4.16,11.973,11.973,0,0,0,2.316-4.105q1.106-3.686,2.267-7.36a7.089,7.089,0,0,1,.732-1.89,13.213,13.213,0,0,0,2.22-7.016,2.731,2.731,0,0,1,.137-.893,13.438,13.438,0,0,0,.616-5.365c-.047-3.094-.306-6.2-.163-9.281" transform="translate(18.467 85.709)" fill="#fff"/>
    <path id="Trazado_60325" data-name="Trazado 60325" d="M56.008,121.35a26.13,26.13,0,0,1,8.468-1.163q12.569.093,25.144,0a27.868,27.868,0,0,1,10.034,1.272,6.263,6.263,0,0,0,1.653.111,12.3,12.3,0,0,0,.234-1.859c-.035-1.206-.164-2.409-.247-3.613a3.711,3.711,0,0,0-2.779-3.475,34.357,34.357,0,0,0-5.235-1.407c-3.652-.576-7.329-.978-11-1.426a76.188,76.188,0,0,0-12.893-.092,26.949,26.949,0,0,1-4.517-.078,26.393,26.393,0,0,0-5.945.189c-1.267,1.282-2.426,2.466-3.6,3.638a3.653,3.653,0,0,0-1.291,2.319c-.1,1.506-.182,3.013-.208,4.522a5.781,5.781,0,0,0,.35,1.384,12.849,12.849,0,0,0,1.831-.325" transform="translate(39.326 79.98)" fill="#fff"/>
    <path id="Trazado_60326" data-name="Trazado 60326" d="M57.3,114.535c.962-.208,1.765-.376,2.566-.554,2.355-.521,4.688-1.208,7.071-1.535a53.847,53.847,0,0,1,14.9-.061c3.883.55,7.807.834,11.637,1.751a3.14,3.14,0,0,0,.665.005,15.526,15.526,0,0,1,.623-2.869,10.181,10.181,0,0,0,.431-5.128,4.909,4.909,0,0,0-.793-.479c-.919-.344-1.834-.708-2.778-.966a68.51,68.51,0,0,0-17.675-2.412c-1.056-.009-2.118.042-3.17-.042a78.407,78.407,0,0,0-9.5.185c-2.329.1-3.259,1.938-4.752,3.091a.575.575,0,0,0-.157.412,17.146,17.146,0,0,0,.157,4.044,15.321,15.321,0,0,1,.775,4.557" transform="translate(41.152 74.631)" fill="#fff"/>
    <path id="Trazado_60327" data-name="Trazado 60327" d="M58.737,108.441c.3-.078.673-.145,1.025-.267a21.3,21.3,0,0,1,6.481-.943c2.04-.036,4.083-.055,6.121-.138a56.329,56.329,0,0,1,11.505.914c2.156.36,4.285.879,6.713,1.386a13.1,13.1,0,0,1-.282-2.419c.128-1.609-.815-2.328-2.1-2.835a12.568,12.568,0,0,0-1.494-.531,37.061,37.061,0,0,0-9.155-1.409,41.126,41.126,0,0,1-5.886-.218,21.748,21.748,0,0,0-7.416-.2c-.393.076-.888.187-1.153-.334.14-.6.647-.526,1.064-.6,1.71-.284,3.439-.483,5.128-.865a17.32,17.32,0,0,1,3.8-.538c1.21,0,2.419-.036,3.627-.067a34.034,34.034,0,0,1,12.67,2.085,2.9,2.9,0,0,0,.668.069,2.2,2.2,0,0,0-.329-2.193,24.384,24.384,0,0,0-6.222-5.143,3,3,0,0,0-.647-.2c-1.462-.36-2.951-.633-4.378-1.094a10.456,10.456,0,0,0-3.344-.436,14.451,14.451,0,0,0-5.583.626,8.906,8.906,0,0,1-1.12.147c-2.115.543-4.262.992-5.856,2.708a16.84,16.84,0,0,1-2.39,2.085,4.152,4.152,0,0,0-1.765,3.709c.033,1.814-.024,3.629-.029,5.443,0,.414-.2.89.344,1.262" transform="translate(42.635 67.551)" fill="#fff"/>
    <path id="Trazado_60328" data-name="Trazado 60328" d="M69.487,93.233c1.511-.021,3.022-.016,4.532,0a5.936,5.936,0,0,1,1.348.125c1.826.46,3.639.964,5.467,1.433a2.125,2.125,0,0,0,.637-.043,8.013,8.013,0,0,0-2.608-4.924,4.553,4.553,0,0,0-2.811-1.274c-1.348-.125-2.684-.524-4.027-.526A30.243,30.243,0,0,0,68,88.546c-.448.059-.914.019-1.35.116a3.287,3.287,0,0,0-1.249.486,7.891,7.891,0,0,0-3.439,5.778c2.162-.559,4.051-1.068,5.953-1.533a7.088,7.088,0,0,1,1.57-.161" transform="translate(45.271 64.309)" fill="#fff"/>
    <path id="Trazado_60329" data-name="Trazado 60329" d="M167.682,200.967c-1.509-8.091-6.521-13.026-12.222-18.571-7.284-7.089-16.1-14.243-19.653-24.068-3.472-9.594-4.645-19.468-10.337-28.179-5.5-8.423-13.954-10.268-23.372-10.782-4.885-.267-10.877.94-16.074.611-5.652-1.173-10.882-2.2-14.954,3.145-4.981,6.533-6.273,15.072-8.952,22.669-3.783,10.728-11.285,19.339-18.535,27.9-6.093,7.2-8.862,13.26-11.394,22.361-2.636,9.459-4.3,17.675-4.313,27.579-.01,9.5,2.676,16.541,7.111,24.8,4.569,8.509,10.543,14.679,17.969,20.807,7.1,5.858,14.516,11.3,23.974,12.092,10,.843,19.272-.194,29.04-2.248,10.249-2.156,19.449-3.3,28.209-9.551,14.8-10.558,23.552-26.81,30.519-43.2a47.191,47.191,0,0,0,2.984-25.372" transform="translate(20.367 86.971)" fill="#ffe148"/>
    <path id="Trazado_60330" data-name="Trazado 60330" d="M77.778,90.184c-1.378-.138-2.651-.945-3.98-1.307a8.284,8.284,0,0,0-3.617.055,18.637,18.637,0,0,0-7.2,3.018c-2.3,1.616-.107,5.432,2.22,3.8a14.163,14.163,0,0,1,6.389-2.6c2.046-.251,4.119,1.224,6.187,1.431,2.823.282,2.795-4.121,0-4.4" transform="translate(45.302 64.804)" fill="#bfccbf"/>
    <path id="Trazado_60331" data-name="Trazado 60331" d="M88.2,98.969c-2.011-4.5-11.74-4.873-15.825-5.361-3.359-.4-11.444,1.424-13.059,4.738a2.224,2.224,0,0,0,.344,2.665l.156.135a2.337,2.337,0,0,0,3.724-1.075c1.684-1.412,7.109-2.236,8.835-2.065,2.283.228,10.969.817,12.026,3.184,1.156,2.584,4.946.346,3.8-2.222" transform="translate(43.132 68.35)" fill="#bfccbf"/>
    <path id="Trazado_60332" data-name="Trazado 60332" d="M88.4,100.909c-2.426-2.281-7.824-2.054-10.918-2.416a39.42,39.42,0,0,0-18.18,1.63,2.211,2.211,0,0,0-1.615,2.122c.014.121.026.241.036.363a2.363,2.363,0,0,0,4.091,1.326,32.673,32.673,0,0,1,12.742-1.35c2.2.206,8.513.016,10.455,1.236.969,1.293,3.4,1.4,3.916-.628.012-.047.026-.1.038-.142a2.212,2.212,0,0,0-.566-2.141" transform="translate(42.14 71.687)" fill="#bfccbf"/>
    <path id="Trazado_60333" data-name="Trazado 60333" d="M92.591,110.832a2.1,2.1,0,0,0-.239-2.672c-2.656-2.842-7.109-3.382-10.842-3.577a114.452,114.452,0,0,0-20.925.978h-.1l0,.009c-.2.026-.391.043-.587.069a1.794,1.794,0,0,0-1.575,2c-2.111.685-1.886,4.311.694,4.278,5.382-.062,10.751-.426,16.131-.488,5.176-.061,10.128,1.488,15.056,2.854a2.255,2.255,0,0,0,2.38-3.447" transform="translate(41.572 76.312)" fill="#bfccbf"/>
    <path id="Trazado_60334" data-name="Trazado 60334" d="M98.978,117.774c-.277-.256-.6-.466-.9-.7a2.609,2.609,0,0,0-.222-1.3c-3.371-7.443-17.929-5.559-24.384-5.489-2.759.029-18.228-.516-16.33,5.15-.31.166-.613.339-.91.528-1.44.907-1.5,3.731.524,4.018a206.756,206.756,0,0,0,24.215,1.648,44.389,44.389,0,0,0,10.766-.621c.921.048,1.84.069,2.753.031a2.324,2.324,0,0,0,1.13-.343c.076.067.171.118.247.187,2.077,1.926,5.2-1.177,3.11-3.11" transform="translate(40.323 80.384)" fill="#bfccbf"/>
    <path id="Trazado_60335" data-name="Trazado 60335" d="M126.17,139.6c1.269.441,2.425,1.31,3.892,1.5a2.046,2.046,0,0,1,1.357.715c.855,1.391,2.014,2.667,2.075,4.434.019.6.035,1.21.016,1.814a5.167,5.167,0,0,0,.684,3.03,5.182,5.182,0,0,1,.5,1.949,6.141,6.141,0,0,1,.016,1.583c-.3,2.6.734,4.861,1.739,7.135.242.552.438,1.12.67,1.674.53,1.251,1.033,2.513,1.616,3.738a4.466,4.466,0,0,0,1.135,1.673,7.789,7.789,0,0,1,2.452,3.712,10.359,10.359,0,0,0,1.011,1.764,12.257,12.257,0,0,1,.8,1.1,19.273,19.273,0,0,0,4.292,5.223,8.043,8.043,0,0,1,1.232,1.608c.658,1.1,1.217,2.257,1.873,3.357a23.351,23.351,0,0,0,3.885,4.932,118.669,118.669,0,0,1,9.3,9.908,64.154,64.154,0,0,1,5.915,8.836,45.436,45.436,0,0,1,2.655,6.486c.647,1.694,1.2,3.423,1.833,5.117a12.652,12.652,0,0,1,.872,4.652c-.031,2.115-.1,4.23-.1,6.346a42.166,42.166,0,0,0,.171,4.974,61.54,61.54,0,0,1,.1,12.433,46.01,46.01,0,0,1-1.9,9.527,56.827,56.827,0,0,1-3.212,7.971c-1.483,3.138-3.458,6.029-4.609,9.33a1.849,1.849,0,0,1-.192.41q-2.079,3.094-4.166,6.185c-.254.372-.613.678-.834,1.066-2.518,4.415-6.126,7.824-10.055,10.937-1.185.94-2.381,1.864-3.581,2.785a14.246,14.246,0,0,1-1.651,1.191c-2.644,1.457-5.3,2.885-7.966,4.306-1.6.857-3.212,1.68-4.815,2.527a50.778,50.778,0,0,1-10.643,3.806,12.679,12.679,0,0,1-1.568.2,2.478,2.478,0,0,0-.872.177c-2.31,1.36-4.9,1.507-7.443,1.54-6.348.09-12.7.028-19.045.029a12.83,12.83,0,0,1-4.015-.6,16.441,16.441,0,0,0-4.667-.8c-.9-.022-1.8-.19-2.7-.266a11.444,11.444,0,0,0-2.03-.109,12.571,12.571,0,0,1-4.465-.569,52.97,52.97,0,0,1-12.322-5.09c-2.554-1.459-5.178-2.8-7.789-4.153a20.587,20.587,0,0,1-3.785-2.47c-.981-.827-2.011-1.6-3.048-2.359a44.679,44.679,0,0,1-8.376-8.246c-.611-.761-1.1-1.62-1.635-2.442-.123-.19-.171-.443-.327-.592-1.727-1.641-2.641-3.851-4.027-5.728a8.8,8.8,0,0,1-1.213-2.16,37.281,37.281,0,0,0-2.207-4.456c-2.852-5.422-5.519-10.927-6.685-17.017a54.116,54.116,0,0,1-.931-12.175c.076-2.035.355-4.062.5-6.1.081-1.13.125-2.264.111-3.4-.024-2.115-.118-4.231-.154-6.346a15.214,15.214,0,0,1,1.085-5.972c1.146-2.875,2.146-5.806,3.219-8.708a13.217,13.217,0,0,1,.793-1.878,57.585,57.585,0,0,1,6.581-9.75c2.631-3.016,5.464-5.853,8.208-8.769a4.539,4.539,0,0,1,.8-.8,10.907,10.907,0,0,0,3.286-3.965c.824-1.352,1.513-2.785,2.352-4.126a11.3,11.3,0,0,1,1.718-2.08,27.257,27.257,0,0,0,6.22-9.075,3.224,3.224,0,0,1,.865-1.3c1.855-1.405,2.6-3.489,3.446-5.5.786-1.869,1.41-3.809,2.2-5.675a5.787,5.787,0,0,0,.491-2.409c-.01-.983-.052-1.971.031-2.947a4.974,4.974,0,0,1,.493-2.17,4.408,4.408,0,0,0,.6-3.046c-.3-2.2.739-3.947,1.715-5.728a2.285,2.285,0,0,1,1.817-1.224c1.49-.128,2.594-1.144,4.081-1.471a38.032,38.032,0,0,1-.9-7.063,5.73,5.73,0,0,1,1.8-4.908,10.011,10.011,0,0,0,2.3-2.658c-.019-.253.021-.429-.047-.545-1.419-2.511-1.232-5.251-1.1-7.966a3.7,3.7,0,0,1,1.734-3.035c.253-.164.5-.344.742-.519a2.193,2.193,0,0,0,.981-1.931q-.031-1.7-.028-3.4a25.3,25.3,0,0,1,.047-2.945,7.031,7.031,0,0,1,3.375-5.605c1.488-.874,3.016-1.679,4.584-2.546.183-.832.408-1.783.6-2.74a9.8,9.8,0,0,1,5.064-6.6,5.576,5.576,0,0,1,3.234-.808,32.932,32.932,0,0,0,3.627-.007,17.607,17.607,0,0,1,6.23.893,8.245,8.245,0,0,1,5.6,5.737,35.237,35.237,0,0,1,.822,3.563c1.333.722,2.714,1.466,4.091,2.215,2.66,1.45,3.747,3.833,3.911,6.72.066,1.128-.024,2.265-.042,3.4-.007.53.012,1.059-.017,1.587a2.784,2.784,0,0,0,1.464,2.826,3.965,3.965,0,0,1,1.99,3.814c-.021.907-.029,1.814,0,2.721a7.59,7.59,0,0,1-.834,3.944,1.723,1.723,0,0,0,.372,2.25c.639.644,1.25,1.315,1.886,1.961a5.3,5.3,0,0,1,1.547,4.55c-.265,2.314-.479,4.636-.727,7.082m-26.219.376v.007c-3.4,0-6.8.029-10.2-.01a44.661,44.661,0,0,0-12.1,1.32,14.9,14.9,0,0,0-6.05,3.4,2.967,2.967,0,0,0-.839,1.3,27.011,27.011,0,0,0-1.558,7.937,6.551,6.551,0,0,1-.163,1.345,52.855,52.855,0,0,1-5.119,13.492c-.841,1.6-1.783,3.16-2.549,4.8a43.76,43.76,0,0,1-5.467,8.572q-5.766,7.284-11.593,14.52a15.232,15.232,0,0,1-2.587,2.836,40.581,40.581,0,0,0-5.548,5.64,17.177,17.177,0,0,0-2.49,3.494c-1.558,2.933-3.039,5.91-4.413,8.935a15.526,15.526,0,0,0-1.177,4.112c-.386,2.6-1.128,5.171-.905,7.85a1.867,1.867,0,0,1-.093.671,14.783,14.783,0,0,0-.415,4.494q.044,5.9.112,11.787a7.421,7.421,0,0,0,.133,1.8,31.452,31.452,0,0,1,.808,6.727,9.168,9.168,0,0,0,1.384,4.962,15.865,15.865,0,0,1,2.049,4.735c.472,1.516.954,3.023,1.4,4.543a7.7,7.7,0,0,0,1.892,3.314,7.887,7.887,0,0,1,1.77,2.864,31.825,31.825,0,0,0,2.838,5.408,30.95,30.95,0,0,0,7.016,8.22c3.2,2.535,6.784,4.5,9.946,7.073a7.238,7.238,0,0,0,1.2.639c2.471,1.3,4.989,2.52,7.4,3.923a49.654,49.654,0,0,0,12.3,5.114c1.011.267,2.07.355,3.1.535a46.521,46.521,0,0,0,7.661.524,15.552,15.552,0,0,1,3.806.485,19.528,19.528,0,0,0,4.939.5c1.738.014,3.477-.021,5.214,0a19.149,19.149,0,0,1,2.482.163,54.069,54.069,0,0,0,10.635.2,7.6,7.6,0,0,0,4.259-1.355,3.018,3.018,0,0,1,1.679-.559,9,9,0,0,0,1.545-.317,48.309,48.309,0,0,0,12.756-5.19c.516-.312,1.078-.543,1.609-.829q3.8-2.022,7.578-4.063a9.306,9.306,0,0,0,1.115-.777c1.26-.967,2.541-1.907,3.755-2.926a7.448,7.448,0,0,0,1.845-1.954,6.129,6.129,0,0,1,2.4-2.326,15.11,15.11,0,0,0,5.245-5.524,8.324,8.324,0,0,1,1.468-2,13.054,13.054,0,0,0,2.359-3.292,33.173,33.173,0,0,1,2.708-4.16,11.973,11.973,0,0,0,2.316-4.105q1.108-3.689,2.267-7.36a7.123,7.123,0,0,1,.732-1.892,13.194,13.194,0,0,0,2.22-7.016,2.768,2.768,0,0,1,.137-.891,13.416,13.416,0,0,0,.616-5.367c-.047-3.094-.306-6.2-.163-9.279.185-3.882-.744-7.656-.8-11.505a6.784,6.784,0,0,0-.227-1.106,10.989,10.989,0,0,1-.265-1.556,15.386,15.386,0,0,0-1.682-6.066c-1.057-2.175-2.182-4.316-3.2-6.507-1.857-4-4.873-7.069-8.021-10.01a35.32,35.32,0,0,1-3.453-3.565c-3.749-4.641-7.452-9.319-11.178-13.978a46.108,46.108,0,0,1-6.291-9.916A30.3,30.3,0,0,0,136.645,170a50.7,50.7,0,0,1-4.832-10.937,19.806,19.806,0,0,1-1.113-4.832,35.883,35.883,0,0,0-1.585-8.175,2.954,2.954,0,0,0-.827-1.314A13.71,13.71,0,0,0,122.9,141.5c-1.083-.32-2.2-.536-3.3-.8a32.093,32.093,0,0,0-7.189-.716c-4.155-.043-8.312-.012-12.467-.012M81.179,126.731c-1.267,1.282-2.426,2.468-3.6,3.638a3.663,3.663,0,0,0-1.293,2.321c-.1,1.5-.18,3.013-.208,4.52a5.875,5.875,0,0,0,.35,1.386,13.167,13.167,0,0,0,1.833-.325,26.072,26.072,0,0,1,8.466-1.163q12.569.093,25.144,0a27.864,27.864,0,0,1,10.034,1.272,6.345,6.345,0,0,0,1.654.111,12.3,12.3,0,0,0,.234-1.859c-.035-1.206-.166-2.409-.249-3.613a3.711,3.711,0,0,0-2.779-3.475,34.3,34.3,0,0,0-5.235-1.407c-3.65-.576-7.329-.98-11-1.426a76.189,76.189,0,0,0-12.893-.093,26.761,26.761,0,0,1-4.517-.078,26.494,26.494,0,0,0-5.945.189m38.1-9.015a5.145,5.145,0,0,0-.794-.481c-.917-.343-1.833-.706-2.778-.964a68.577,68.577,0,0,0-17.675-2.414c-1.056-.007-2.118.042-3.17-.04a78.019,78.019,0,0,0-9.5.185c-2.331.1-3.26,1.937-4.754,3.089a.575.575,0,0,0-.157.412,17.144,17.144,0,0,0,.159,4.044,15.321,15.321,0,0,1,.774,4.557c.962-.206,1.765-.374,2.566-.552,2.357-.521,4.688-1.21,7.071-1.535a53.78,53.78,0,0,1,14.9-.061c3.883.55,7.808.834,11.638,1.75a3.012,3.012,0,0,0,.663.005,15.478,15.478,0,0,1,.623-2.868,10.2,10.2,0,0,0,.433-5.128m-3.131-3.833a13.1,13.1,0,0,1-.282-2.419c.13-1.609-.815-2.328-2.1-2.835a12.459,12.459,0,0,0-1.494-.531,37.06,37.06,0,0,0-9.155-1.409,41.149,41.149,0,0,1-5.886-.218,21.7,21.7,0,0,0-7.416-.2c-.391.074-.888.185-1.153-.336.14-.6.647-.526,1.064-.6,1.71-.284,3.439-.483,5.128-.865a17.319,17.319,0,0,1,3.8-.538c1.21,0,2.419-.036,3.627-.067a34.063,34.063,0,0,1,12.67,2.085,2.924,2.924,0,0,0,.668.069,2.2,2.2,0,0,0-.329-2.193,24.42,24.42,0,0,0-6.222-5.143,2.9,2.9,0,0,0-.647-.2c-1.462-.36-2.949-.635-4.377-1.1a10.466,10.466,0,0,0-3.345-.436,14.492,14.492,0,0,0-5.583.626,8.9,8.9,0,0,1-1.12.147c-2.115.543-4.262.992-5.856,2.708a16.745,16.745,0,0,1-2.39,2.085,4.151,4.151,0,0,0-1.763,3.709c.033,1.814-.026,3.629-.031,5.443,0,.414-.2.89.344,1.262.3-.078.673-.145,1.026-.267a21.281,21.281,0,0,1,6.479-.943c2.04-.036,4.082-.055,6.121-.138a56.346,56.346,0,0,1,11.507.914c2.155.36,4.283.879,6.711,1.386M90.166,96.176c2.162-.559,4.051-1.066,5.953-1.532a6.988,6.988,0,0,1,1.57-.163c1.509-.019,3.02-.016,4.531,0a5.944,5.944,0,0,1,1.35.126c1.826.46,3.639.964,5.465,1.433a2.13,2.13,0,0,0,.637-.045,8.011,8.011,0,0,0-2.606-4.922,4.539,4.539,0,0,0-2.81-1.274c-1.348-.125-2.686-.526-4.029-.528a30.9,30.9,0,0,0-4.024.524c-.446.061-.912.021-1.35.118A3.316,3.316,0,0,0,93.6,90.4a7.894,7.894,0,0,0-3.439,5.779" transform="translate(17.069 63.059)" fill="#361818" fill-rule="evenodd"/>
    <path id="Trazado_60336" data-name="Trazado 60336" d="M119.963,201.579c-1.817-6.673-7.528-11.041-11.353-16.565-5.571-8.047-7.241-18.391-8.428-27.887-1.089-8.717-4.069-20.144-2.044-28.648.658-2.759-3.584-3.928-4.242-1.172-1.279,5.365-.521,10.442.343,15.813,1.04,6.457,1.362,13.03,2.277,19.509,1.559,11.046,5.076,21.075,12.187,29.732,4.754,5.791,8.257,9.778,6.419,17.694-1.355,5.839-5.713,12.061-12.09,12.6a9.016,9.016,0,0,1-6.516-2.061c3.044-5.014,5-10.917,3.833-16.716-.9-4.479-3.911-9.738-8.909-9.816-11.065-.173-4.551,22.316-.992,26.416.175.2.351.384.528.575-3.863,5.026-8.637,5.325-14.03,2.274a18.924,18.924,0,0,1-5.81-5.334,21.17,21.17,0,0,0,6.048-8.108c1.646-4.456,3.825-13.474.286-17.605-3.385-3.954-7.748-3.183-11.354-.04-5.683,4.956-4.259,14.916-2.258,21.127a21.835,21.835,0,0,0,1.407,3.357c-3.9,2.352-8.759,3.633-12.2.76-2.907-2.43-3.437-7.047-3.691-10.531-.543-7.407.694-15.082,2.541-22.223,1.7-6.583,5.9-12.061,8.85-18.085,4.783-9.755,8.264-23.6,6.088-34.444-.559-2.781-4.8-1.6-4.243,1.168,2.1,10.477-2.047,23.72-6.623,33.053-4.664,9.511-8.857,16.751-10.352,27.534-1.635,11.815-.8,34.6,17.282,28.885a21.117,21.117,0,0,0,4.783-2.295c6.575,8.611,18.592,13.722,26.348,3.641.067-.085.128-.171.192-.258,8.757,6.107,18.96,1.5,23.775-8.9,1.732-3.747,3.067-9.323,1.945-13.445m-52.278-4q2.191-5.553,7.028,1.037a32.449,32.449,0,0,1-.251,3.477,17.77,17.77,0,0,1-4.157,10.46,16.9,16.9,0,0,1-1.5,1.542c-2.521-5.287-3.24-11.538-1.123-16.515m22.4,10.122a23.046,23.046,0,0,1,.166-7.142q3.255-3.229,4.442.744a12.94,12.94,0,0,1,1.62,6.753c.062,3.063-1.222,6.273-2.821,9.11a23.362,23.362,0,0,1-3.408-9.465" transform="translate(32.929 91.862)" fill="#361818"/>
    <path id="Trazado_60337" data-name="Trazado 60337" d="M54.9,279.74a1.632,1.632,0,0,0-.118,1.77,5.108,5.108,0,0,0,3.328,2.7c.976.242,1.969.419,2.921.73a6.963,6.963,0,0,0,4.136.261,5.169,5.169,0,0,1,2.528-.119,5.447,5.447,0,0,0,1.859.045,4.791,4.791,0,0,1,4.086,1.27,25.626,25.626,0,0,1,2.17,2.1,6.42,6.42,0,0,0,3.844,2.428,6.533,6.533,0,0,1,4.842,3.7,6.555,6.555,0,0,0,2.082,2.712,3.917,3.917,0,0,1,.919,1.042,4.651,4.651,0,0,0,1.391,1.533,4.2,4.2,0,0,1,1.05,1.225c.479.684.917,1.391,1.412,2.149l3.674-.594c-.024-2.052.261-3.837-.218-5.609-.286-1.05-.5-2.125-.824-3.164a4.967,4.967,0,0,0-.846-1.885c-1.424-1.547-2.951-3-4.458-4.46-.5-.49-1.13-.855-1.584-1.379a4.135,4.135,0,0,1-.711-1.426.751.751,0,0,1,.831-.876,5.654,5.654,0,0,1,1.48.637,36.777,36.777,0,0,1,6.736,5.77,5.235,5.235,0,0,1,1.224,1.954c.819,2.746,1.982,5.445,1.651,8.425a7.308,7.308,0,0,0,.128,1.334,10.19,10.19,0,0,0,5.136-3.008c-.047-1.67-.157-3.067-.107-4.453a10.318,10.318,0,0,0-3.219-7.99c-1.71-1.708-3.418-3.418-5.095-5.161a11.984,11.984,0,0,1-1.41-1.841.93.93,0,0,1-.04-.855,1.47,1.47,0,0,1,.988-.417,3.616,3.616,0,0,1,2.5,1.106c2.047,2.033,4.19,3.977,6.147,6.088a12.43,12.43,0,0,1,3.425,8.482c.007.511-.2,1.083.253,1.521.166-.012.376.038.448-.038.914-.959,1.86-1.89,2.674-2.926a2.143,2.143,0,0,0,.337-1.521c-.313-1.9-.5-3.873-2.03-5.336a4.051,4.051,0,0,1-.523-1.03q-.607-1.129-1.241-2.25c-.767-1.357-1.583-2.684-2.3-4.063a8.973,8.973,0,0,0-2.12-2.762c-1.656-1.423-3.3-2.864-4.974-4.266a10.891,10.891,0,0,0-3.714-2.139c-2.044,1.243-4.107,2.48-6.154,3.745a8.947,8.947,0,0,0-1.3.983,5,5,0,0,1-3.549,1.52,1.635,1.635,0,0,0-.9.2,3.318,3.318,0,0,1-3.937-.028c-.313-.2-.761-.175-1.108-.343a6.184,6.184,0,0,1-1.374-.824c-1.376-1.177-2.269-2.556-1.767-4.491a6.2,6.2,0,0,0,.05-1.166,6.588,6.588,0,0,1,1.173-3.5,21.775,21.775,0,0,0,1.49-2.376c.543-1.018,1.561-1.76,1.725-2.991q1.467-1.137,2.926-2.276c.339-.268.869-.367.855-1.056-.37-.029-.739-.074-1.111-.083-5.226-.087-5.363-.076-10.621,1.18-2.021.486-3.956,1.371-6.033,1.187a30.854,30.854,0,0,1-1.317,3.125,78.037,78.037,0,0,0-5.11,11.785,27.031,27.031,0,0,1-2.6,5.988" transform="translate(39.875 187.358)" fill="#fff"/>
    <path id="Trazado_60338" data-name="Trazado 60338" d="M57.521,281.466c1.371.2,2.726.7,4.2.421a6.965,6.965,0,0,0,.8-1.123c.824-1.847,1.693-3.685,2.378-5.588a83.427,83.427,0,0,1,5.457-12.644,15.723,15.723,0,0,0,.715-1.8,14.3,14.3,0,0,0-2.729-.9,12.324,12.324,0,0,1-4.366-1.542c-4.5-2.66-9.553-3.6-14.565-4.633a27.065,27.065,0,0,0-1.961,3.458c-1.2,3.039-2.409,6.1-3.3,9.234a61.042,61.042,0,0,1-2.624,7.237c-.427,1-.9,1.985-1.326,2.994a11.911,11.911,0,0,0-.376,1.272,18.811,18.811,0,0,0,5.453,1.72c4.077.652,8.155,1.3,12.242,1.89" transform="translate(29.097 185.325)" fill="#fff"/>
    <path id="Trazado_60339" data-name="Trazado 60339" d="M88.38,266.209c1.315,1.435,2.663,2.842,3.935,4.311a7.654,7.654,0,0,1,1.4,2.13,44.285,44.285,0,0,1,1.587,4.877c.488,1.857.825,3.755,1.255,5.761,6-.843,11.479-3.132,17.117-4.842a7.239,7.239,0,0,0,2.885-1.3c-.076-1.147-.126-2.227-.227-3.3a4.852,4.852,0,0,0-.308-1.585,65.251,65.251,0,0,0-3.816-7.739,18.949,18.949,0,0,1-1.975-4.212,12.246,12.246,0,0,0-3.347-5.157,5.318,5.318,0,0,0-.806.08c-3.217.91-6.44,1.8-9.641,2.762a12.324,12.324,0,0,0-2.778,1.191,18.479,18.479,0,0,1-4.425,2.065,5.381,5.381,0,0,0-1.642.864,1.936,1.936,0,0,0-.455,2.7,14.248,14.248,0,0,0,1.239,1.395" transform="translate(63.404 186.418)" fill="#fff"/>
    <path id="Trazado_60340" data-name="Trazado 60340" d="M70.556,261.33a11.273,11.273,0,0,0-2.056,2.8,18.4,18.4,0,0,0-1.284,5.425,1.863,1.863,0,0,0,1.042,1.921,15.512,15.512,0,0,0,2.795,1.137,1.8,1.8,0,0,0,1.324-.161c1.713-1.064,3.44-2.125,5.043-3.344a37.982,37.982,0,0,1,5.754-3.537,1.751,1.751,0,0,1,1.772-.071c1.762,1,3.582,1.907,5.24,3.049,1.793,1.236,3.434,2.689,5.131,4.06a12.875,12.875,0,0,1,2.968,3.572c1.068,1.81,2.184,3.6,3.392,5.313a7.227,7.227,0,0,0,1.836,2.118c1.175-1.012,2.348-2.028,3.735-3.226a6.82,6.82,0,0,0-.107-1.279c-.325-1.44-.665-2.88-1.087-4.29a15.634,15.634,0,0,0-1.814-4.785c-2.046-2.9-5.045-4.8-7.575-7.191a1.1,1.1,0,0,0-.2-.114c-1.518-.941-3.048-1.871-4.55-2.838a6.442,6.442,0,0,0-2.8-1.085c-2-.22-4.006-.438-6.005-.7a7.95,7.95,0,0,1-2.025-.483,3.558,3.558,0,0,0-2.5-.118c-1.339.4-2.646.95-4.01,1.211a6.954,6.954,0,0,0-4.012,2.61" transform="translate(49.102 188.011)" fill="#fff"/>
    <path id="Trazado_60341" data-name="Trazado 60341" d="M62.337,283.6a2.043,2.043,0,0,0,2.03.858,2.909,2.909,0,0,0,1.873-.834c.8-.845,1.673-1.634,2.4-2.541a8.446,8.446,0,0,0,1.25-2.207,2,2,0,0,0-1.17-2.854c-1.248-.613-2.516-1.18-3.787-1.739a1.659,1.659,0,0,0-2.063.564c-.658,1.232-1.241,2.5-1.814,3.778a1.154,1.154,0,0,0-.059.9c.459.78-.01,1.493-.1,2.179.509.665.986,1.272,1.44,1.9" transform="translate(44.492 200.289)" fill="#fff"/>
    <path id="Trazado_60342" data-name="Trazado 60342" d="M70.017,287.043c.787-.313,1.492-.829,2.276-1.156a3.364,3.364,0,0,0,2.3-3.828,5.21,5.21,0,0,1,0-.929,2.42,2.42,0,0,0-.611-1.708,3.582,3.582,0,0,0-4.088-1.4c-1.2,2.371-2.658,4.434-5.412,5.251.021,1.48.1,1.938.329,2.258a4.587,4.587,0,0,0,5.2,1.516" transform="translate(47.116 202.995)" fill="#fff"/>
    <path id="Trazado_60343" data-name="Trazado 60343" d="M73.848,281.788a22.889,22.889,0,0,1-1.7,2.409,21.3,21.3,0,0,1-2.137,1.81c.69,1.019,1.686.7,2.542.735,1.168.048,2.34.007,3.07-1.151a3.3,3.3,0,0,0-.877-1.838,10.784,10.784,0,0,1-.9-1.966" transform="translate(51.15 205.875)" fill="#fff"/>
    <path id="Trazado_60344" data-name="Trazado 60344" d="M59.482,277.974c.654-.99,1.315-1.988,2.087-3.15a35.017,35.017,0,0,0-3.524-.263c-.344,2.584-.254,2.793,1.436,3.413" transform="translate(42.29 200.595)" fill="#fff"/>
    <path id="Trazado_60345" data-name="Trazado 60345" d="M62.432,275.27a29.892,29.892,0,0,0,1.9-4.15,22.1,22.1,0,0,0,1.779-6.933c.159-2.809-1.855-4.219-4.167-5.062-2.265-1.845-7.634-4.126-10.892-3.143-.848-1.042-3.074-.98-3.364.637-.021.123-.055.241-.078.363a2.618,2.618,0,0,0-.836,3.241c-.779,2.409-1.821,4.731-2.819,7.073a7.58,7.58,0,0,0-2.1,2.672,3.117,3.117,0,0,0-.3,1.807,2.169,2.169,0,0,0-.177,2.793c.13.173.27.312.4.469a2.763,2.763,0,0,0,2.342,3.754c3.992.325,7.31,3.274,11.443,2.335a4.2,4.2,0,0,0,.872-.332,2.536,2.536,0,0,0,3.634-.848c.04-.08.085-.164.123-.242a2.589,2.589,0,0,0,1.5-2.956c.249-.49.495-.979.742-1.478" transform="translate(29.911 186.514)" fill="#4db0b3"/>
    <path id="Trazado_60346" data-name="Trazado 60346" d="M113.572,273.241c-.723-3.979-2.572-8.656-5.666-11.664-.436-.626-.877-1.222-1.312-1.779-3.141-4.011-11.5-1.635-14.591,1.478a2.72,2.72,0,0,0-.22.3,3.15,3.15,0,0,0-1.9.843,2.524,2.524,0,0,0-1.519.592c-1.057.853-.291,2.5.851,2.753-.005.09.057.223.247.429.346.585.7,1.165,1.049,1.753.291.5.552,1.011.815,1.521,1.322,3.011,2.71,5.99,4.136,8.952-2.454,1.063-1.26,5.406,1.388,5.105,2.945-.334,5.99-.678,8.239-2.091,3.124-.741,6.073-1.873,7.052-4.744a3.021,3.021,0,0,0,.362-.6,3.129,3.129,0,0,0,1.07-2.849" transform="translate(64.19 188.263)" fill="#4db0b3"/>
    <path id="Trazado_60347" data-name="Trazado 60347" d="M93.023,271.164a2.271,2.271,0,0,0-1.834-2.118c-5.014-1.234-9.835,1.507-13.277,5.045a2.992,2.992,0,0,0-.315.382,46.652,46.652,0,0,1-4.512-2.03c-.606-.3-1.2-.611-1.788-.94a60.073,60.073,0,0,1,1.665-8.57,2.624,2.624,0,0,0-2.5-3.278c-3.993-.209-9.524,2.052-9.186,7.028l.007.057c-2.3,3.174-4.271,6.64-4.844,10.515a2.436,2.436,0,0,0,1.66,2.921c5.635,1.653,10.884,1.715,15.944,5.09,5.5,3.665,12.99,7.109,13.767,14.615.237,2.276,2.779,3.645,4.6,1.905a7.164,7.164,0,0,0,1-1.2,2.747,2.747,0,0,0,4.112-2.175c.048-.737.121-1.471.2-2.2,1.147,3.292,5.6,1.888,5.124-1.436-.213-1.478-.479-2.939-.768-4.394a2.8,2.8,0,0,0,2.717-3.427c-1.7-5.135-4.711-16.548-11.773-15.794" transform="translate(41.206 189.696)" fill="#ffd6c4"/>
    <path id="Trazado_60348" data-name="Trazado 60348" d="M83.935,258.664a2.575,2.575,0,0,0-2.255.6c-4.571-.872-9.946,1.061-12.452,4.908-.95,1.459.926,2.75,2.117,2.1l.007.028c3.987-2.438,7.935-3.4,12.093-1.668,3.558,3.34,7,6.789,10.29,10.4a2.208,2.208,0,0,0,1.713.78,20.024,20.024,0,0,1,1.822,3.1,2.164,2.164,0,0,0,2.665,1.118l.019.019a2.709,2.709,0,0,0,4.577-1.895c.256-9.721-12.227-17.623-20.6-19.494" transform="translate(50.389 188.938)" fill="#ffd6c4"/>
    <path id="Trazado_60349" data-name="Trazado 60349" d="M61.809,274.985a.862.862,0,0,1,.074-.268.623.623,0,0,0-.846-.848,7.937,7.937,0,0,1-.919.358,3.359,3.359,0,0,0-1.044.836,6.332,6.332,0,0,0-1.511,2.748,1.907,1.907,0,0,0,3.47,1.462c.4-.661,1.542-1.127,1.855-2.084a1.473,1.473,0,0,0-1.08-2.2" transform="translate(42.01 200.022)" fill="#ffd6c4"/>
    <path id="Trazado_60350" data-name="Trazado 60350" d="M69.312,279.777l.036-.048c.022-.023.059-.059.137-.144a2.642,2.642,0,0,0,.793-1.885,2.121,2.121,0,0,0-1.539-2.021,2.674,2.674,0,0,0-2.708.843,1.053,1.053,0,0,0-.569-.509c-2.406-.8-4.081,3.558-4.368,5.308a2.2,2.2,0,0,0,1.494,2.629c1.8.633,3.84-.562,4.991-1.888.505-.582.94-1.222,1.395-1.841l.339-.443" transform="translate(44.604 201.336)" fill="#ffd6c4"/>
    <path id="Trazado_60351" data-name="Trazado 60351" d="M74.137,280.96a1.54,1.54,0,0,0-1.94-1.571,2.129,2.129,0,0,0-.822.175,2.013,2.013,0,0,0-2.421.235c-1.253,1.134-2.688,2.118-3.416,3.7a2.151,2.151,0,0,0,2.4,3.127,8.513,8.513,0,0,0,1.206-.422,3.708,3.708,0,0,0,1.473-.016,1.1,1.1,0,0,0,.817-1.286c.118-.083.239-.159.355-.244,1.134-.853,2.634-2.123,2.347-3.7" transform="translate(47.716 204.026)" fill="#ffd6c4"/>
    <path id="Trazado_60352" data-name="Trazado 60352" d="M73.209,282a9,9,0,0,0-1.6.723c-.1.049-.194.106-.292.158a4.911,4.911,0,0,0-.523.279c-.05.029-.1.066-.147.1a7.5,7.5,0,0,0-.711.511,1.82,1.82,0,0,0-.286,2.213,1.859,1.859,0,0,0,2.063.839,4.772,4.772,0,0,0,2.148-1.18,3.147,3.147,0,0,0,1.05-2.347,1.367,1.367,0,0,0-1.7-1.294" transform="translate(50.707 205.988)" fill="#ffd6c4"/>
    <path id="Trazado_60353" data-name="Trazado 60353" d="M102.161,309.427c-.367.263-.637.422-.865.626a7.962,7.962,0,0,1-6.109,1.793,5.18,5.18,0,0,1-4.209-2.148c-.225-.313-.443-.63-.71-1.012-2.8.787-4.927-.677-7.047-2.1a2.9,2.9,0,0,1-.784-1.142,6.764,6.764,0,0,0-3.221-2.875c-1.168-.618-2.319-1.284-3.532-1.8a2.16,2.16,0,0,1-1.487-2.57,2.245,2.245,0,0,0-.087-.639c-4.282-.268-5.9-2.535-5-6.632A24.694,24.694,0,0,1,64.9,287.4a2.2,2.2,0,0,0-1.492-.53,28.762,28.762,0,0,1-7.776-1.532,4.644,4.644,0,0,0-1.153-.2,59.029,59.029,0,0,1-8.537-1.374,35.324,35.324,0,0,1-7.857-2.8,5.266,5.266,0,0,1,.244-4.337c2.31-5.284,4.422-10.657,6.691-15.961,1.132-2.653,2.414-5.24,3.681-7.829.581-1.185.9-1.165,2.231-.824,2.033.516,4.107.879,6.163,1.312a20.953,20.953,0,0,1,2.279.5q4.218,1.386,8.411,2.852c2.279.8,4.5,1.8,6.813,2.449,1.6.445,3.318.7,4.92-.395a8.038,8.038,0,0,1,2.584-1.05,41.619,41.619,0,0,1,11.858-.954,4.237,4.237,0,0,1,2.9,1.341c.535.545,1.068,1.094,1.682,1.722,1.961-1.341,3.98-.694,5.926-.279a14.005,14.005,0,0,0,3.937.3,8.531,8.531,0,0,1,5.753,1.5c1.142.8,2.425,1.407,3.639,2.1.751-.407,1.5-.793,2.227-1.211.469-.267.924-.562,1.367-.871.32-.223.6-.673.915-.7,1.937-.135,3.312-1.635,5.19-1.988a42.344,42.344,0,0,0,4.616-1.594q4.545-1.43,9.134-2.745a2.832,2.832,0,0,1,2.438.536,10.26,10.26,0,0,1,1.928,1.687,16.689,16.689,0,0,1,3.468,5.777,11.431,11.431,0,0,0,1.208,2.52,70.169,70.169,0,0,1,4.714,9.394,18.239,18.239,0,0,1,.694,2.452,8.871,8.871,0,0,0,.332,1.348,7.853,7.853,0,0,1,.26,3.667,42.575,42.575,0,0,1-4.628,1.933c-5.09,1.473-10.006,3.518-15.229,4.536-1.912.372-3.825.806-5.758,1a4.727,4.727,0,0,0-3.077,1.421c-.267.277-.581.512-.836.734-.183,1.208-.308,2.366-.542,3.494-.5,2.4-2.059,4.205-3.679,5.87a74.959,74.959,0,0,1-6.4,5.823,11.344,11.344,0,0,1-6.647,2.611,13.944,13.944,0,0,0-1.623.2,17.592,17.592,0,0,1-5.72.116m5.176-3.349c-.024-2.053.261-3.837-.218-5.607-.286-1.052-.5-2.127-.824-3.165a4.933,4.933,0,0,0-.846-1.883c-1.423-1.549-2.951-3-4.458-4.461-.5-.49-1.13-.855-1.583-1.378a4.158,4.158,0,0,1-.711-1.428.752.752,0,0,1,.831-.876,5.629,5.629,0,0,1,1.48.637,36.789,36.789,0,0,1,6.737,5.77,5.2,5.2,0,0,1,1.222,1.956c.82,2.745,1.982,5.443,1.651,8.423a7.337,7.337,0,0,0,.13,1.334,10.2,10.2,0,0,0,5.136-3.008c-.047-1.67-.157-3.067-.107-4.453a10.325,10.325,0,0,0-3.219-7.99c-1.71-1.708-3.42-3.418-5.095-5.161a12.055,12.055,0,0,1-1.41-1.84.928.928,0,0,1-.04-.857,1.47,1.47,0,0,1,.988-.417,3.623,3.623,0,0,1,2.5,1.106c2.046,2.034,4.188,3.977,6.145,6.088a12.414,12.414,0,0,1,3.425,8.482c.007.511-.2,1.083.253,1.521.166-.012.376.038.448-.038.914-.957,1.86-1.89,2.676-2.926a2.16,2.16,0,0,0,.337-1.521c-.315-1.9-.5-3.873-2.03-5.335a4,4,0,0,1-.523-1.03q-.607-1.129-1.241-2.25c-.767-1.357-1.583-2.684-2.3-4.064a8.972,8.972,0,0,0-2.12-2.762c-1.656-1.423-3.3-2.864-4.975-4.266a10.876,10.876,0,0,0-3.714-2.139c-2.042,1.243-4.1,2.48-6.154,3.745a9.038,9.038,0,0,0-1.3.983,5,5,0,0,1-3.549,1.52,1.638,1.638,0,0,0-.9.2,3.316,3.316,0,0,1-3.935-.028c-.313-.2-.763-.175-1.108-.341a6.257,6.257,0,0,1-1.374-.825c-1.376-1.177-2.271-2.556-1.767-4.491a6.2,6.2,0,0,0,.048-1.166,6.618,6.618,0,0,1,1.173-3.5,21.8,21.8,0,0,0,1.492-2.376c.543-1.018,1.561-1.76,1.725-2.991q1.464-1.137,2.926-2.276c.339-.268.869-.367.853-1.056-.37-.029-.739-.074-1.111-.083-5.225-.087-5.363-.076-10.619,1.18-2.021.486-3.956,1.371-6.033,1.187a31.289,31.289,0,0,1-1.317,3.127,77.779,77.779,0,0,0-5.112,11.784,26.952,26.952,0,0,1-2.6,5.988,1.635,1.635,0,0,0-.118,1.772,5.113,5.113,0,0,0,3.33,2.695c.976.242,1.969.419,2.92.73a6.963,6.963,0,0,0,4.136.261,5.2,5.2,0,0,1,2.53-.119,5.438,5.438,0,0,0,1.857.045,4.8,4.8,0,0,1,4.088,1.27,25.887,25.887,0,0,1,2.17,2.1,6.411,6.411,0,0,0,3.842,2.428,6.533,6.533,0,0,1,4.844,3.7,6.555,6.555,0,0,0,2.08,2.712,3.918,3.918,0,0,1,.919,1.042A4.656,4.656,0,0,0,101.2,303.3a4.173,4.173,0,0,1,1.049,1.225c.481.684.919,1.391,1.414,2.151,1.2-.2,2.335-.379,3.672-.6M72.6,262.088a14.172,14.172,0,0,0-2.727-.9,12.321,12.321,0,0,1-4.366-1.54c-4.5-2.66-9.553-3.6-14.566-4.635a27.4,27.4,0,0,0-1.961,3.458c-1.2,3.041-2.407,6.1-3.3,9.235a61.185,61.185,0,0,1-2.625,7.239c-.427,1-.9,1.983-1.324,2.992a11.749,11.749,0,0,0-.376,1.272,18.816,18.816,0,0,0,5.453,1.722c4.077.652,8.155,1.3,12.242,1.888,1.371.2,2.726.7,4.2.422a6.882,6.882,0,0,0,.8-1.125c.824-1.845,1.693-3.684,2.376-5.586a83.62,83.62,0,0,1,5.457-12.646,15.074,15.074,0,0,0,.715-1.795M152.4,279.6c-.076-1.147-.126-2.227-.228-3.3a4.9,4.9,0,0,0-.306-1.585,64.865,64.865,0,0,0-3.818-7.739,19.142,19.142,0,0,1-1.975-4.212,12.232,12.232,0,0,0-3.345-5.157,5.369,5.369,0,0,0-.808.08c-3.215.909-6.44,1.8-9.639,2.762a12.323,12.323,0,0,0-2.778,1.191,18.544,18.544,0,0,1-4.425,2.065,5.341,5.341,0,0,0-1.642.864,1.935,1.935,0,0,0-.455,2.7,14.227,14.227,0,0,0,1.237,1.395c1.317,1.435,2.663,2.84,3.937,4.311a7.626,7.626,0,0,1,1.4,2.129,43.953,43.953,0,0,1,1.587,4.879c.488,1.857.826,3.755,1.256,5.761,6-.843,11.479-3.134,17.116-4.842a7.271,7.271,0,0,0,2.887-1.3m-23.616,4.832a7.118,7.118,0,0,0-.107-1.277c-.327-1.44-.666-2.88-1.089-4.292a15.666,15.666,0,0,0-1.812-4.783c-2.046-2.9-5.045-4.8-7.575-7.192a1.15,1.15,0,0,0-.2-.114c-1.519-.941-3.048-1.869-4.55-2.838a6.471,6.471,0,0,0-2.8-1.085c-2-.22-4.008-.438-6.007-.7a8.011,8.011,0,0,1-2.023-.481,3.568,3.568,0,0,0-2.5-.119c-1.339.4-2.648.95-4.012,1.213a6.957,6.957,0,0,0-4.012,2.608,11.274,11.274,0,0,0-2.056,2.8,18.414,18.414,0,0,0-1.282,5.425,1.867,1.867,0,0,0,1.04,1.923,15.879,15.879,0,0,0,2.795,1.137,1.813,1.813,0,0,0,1.324-.163c1.713-1.063,3.442-2.123,5.043-3.343a38.147,38.147,0,0,1,5.754-3.537,1.759,1.759,0,0,1,1.774-.071c1.76,1,3.581,1.907,5.24,3.049,1.791,1.236,3.434,2.689,5.13,4.06a12.816,12.816,0,0,1,2.968,3.572c1.07,1.81,2.184,3.6,3.392,5.315a7.191,7.191,0,0,0,1.838,2.117c1.175-1.012,2.347-2.028,3.735-3.226M77.823,298.023c.509.665.986,1.272,1.44,1.9a2.043,2.043,0,0,0,2.03.858,2.909,2.909,0,0,0,1.873-.834c.8-.843,1.673-1.632,2.4-2.541a8.447,8.447,0,0,0,1.25-2.207,2,2,0,0,0-1.172-2.854c-1.246-.613-2.515-1.179-3.785-1.739a1.659,1.659,0,0,0-2.063.566c-.658,1.23-1.241,2.5-1.814,3.776a1.155,1.155,0,0,0-.059.9c.459.781-.01,1.494-.1,2.179m6.215,4.269c.022,1.48.1,1.938.331,2.258a4.585,4.585,0,0,0,5.2,1.516c.787-.313,1.494-.831,2.276-1.156a3.362,3.362,0,0,0,2.3-3.828,5.375,5.375,0,0,1,0-.929,2.427,2.427,0,0,0-.609-1.708,3.583,3.583,0,0,0-4.088-1.4c-1.2,2.371-2.66,4.434-5.413,5.251m13.395,1.4a22.928,22.928,0,0,1-1.7,2.407,20.853,20.853,0,0,1-2.137,1.81c.691,1.021,1.686.7,2.542.737,1.168.048,2.34.007,3.07-1.151a3.3,3.3,0,0,0-.877-1.838,10.786,10.786,0,0,1-.9-1.966M74.206,294.6c.654-.99,1.315-1.988,2.087-3.15a35.007,35.007,0,0,0-3.524-.263c-.344,2.584-.254,2.793,1.436,3.413" transform="translate(27.565 183.971)" fill="#361818" fill-rule="evenodd"/>
    <path id="Trazado_60354" data-name="Trazado 60354" d="M58.657,322.124a3.983,3.983,0,0,1,1.345.938,45.926,45.926,0,0,1,3.852,4.712c1.9,2.878,4.354,5.213,6.9,8.059.357-2.7.588-27.937.351-32.959-.007-.142-.183-.275-.353-.505-1.111.156-1.547,1.172-2.175,1.9-1.329,1.535-2.48,3.243-3.9,4.685a97.434,97.434,0,0,1-8.113,7.971,11.791,11.791,0,0,0-1.694,1.826c-1.987,2.44-3.932,4.915-5.922,7.346-1.8,2.2-3.764,2.421-6.047.729-.37-.275-.722-.58-1.09-.858-1.166-.881-2.338-1.757-3.615-2.71a5.9,5.9,0,0,1-2.624,3.364c-2.355,1.772-4.936,3.267-6.831,5.609a5.364,5.364,0,0,1-.87.684c-1.6,1.256-3.209,2.511-4.8,3.778-1.578,1.25-3.011,2.7-5.233,3.418.452.443.656.827.914.87a14.545,14.545,0,0,0,2.215.119q17.494.135,34.988.253c3.98.028,7.963.029,11.945.026a3.232,3.232,0,0,0,2.637-.69c-1.959-2.182-3.89-4.278-5.756-6.429-1.211-1.395-2.352-2.859-3.489-4.313-1.191-1.53-2.345-3.089-3.51-4.64a8.262,8.262,0,0,1-.938-1.353,1.281,1.281,0,0,1,.284-1.528,1.309,1.309,0,0,1,1.532-.3" transform="translate(13.031 220.912)" fill="#fff"/>
    <path id="Trazado_60355" data-name="Trazado 60355" d="M18.771,300.456a18.447,18.447,0,0,0,1.3,1.315c5,4.024,9.15,8.888,13.35,13.682a72.667,72.667,0,0,0,9.721,9.056c.491.391,1.045.708,1.677,1.125.521-.632.976-1.2,1.445-1.75,2.207-2.611,4.3-5.332,6.665-7.793,1.978-2.059,4.084-4.013,6.145-5.995,2.887-2.769,5-6.13,7.8-9.032a3.47,3.47,0,0,0-2.684-.786c-2.309-.031-4.619-.016-6.933-.017q-17.759-.021-35.512-.038a8.467,8.467,0,0,0-2.975.232" transform="translate(13.714 219.325)" fill="#fff"/>
    <path id="Trazado_60356" data-name="Trazado 60356" d="M18.639,337.57a6.621,6.621,0,0,0,1.075-.609q4.854-4.351,9.688-8.726c.618-.554,1.255-1.094,1.912-1.6,1.094-.845,2.226-1.642,3.316-2.485.865-.671,1.7-1.386,2.7-2.207-1.68-1.8-3.349-3.53-4.955-5.315-2.665-2.958-5.244-5.991-7.952-8.909-1.573-1.691-3.326-3.217-5.02-4.794a6.252,6.252,0,0,0-1.118-.675c-.263.32-.557.516-.6.749-.355,2.277-1.025,4.5-.967,6.853.09,4.076.035,8.148.048,12.227.007,2.4-.161,4.813.637,7.156a3.5,3.5,0,0,1,.121,1.376c-.183,2.366.829,4.5,1.115,6.961" transform="translate(12.212 220.824)" fill="#fff"/>
    <path id="Trazado_60357" data-name="Trazado 60357" d="M22.143,306.9c.073.023.145.036.218.055a1.757,1.757,0,0,0,1.289.974,15.824,15.824,0,0,1,4.262,1.909c1.134,3.013,4.027,5.652,7.232,7.739,1.6,3.049,2.984,6.332,5.254,8.655a3.16,3.16,0,0,0,3.771.486c3.25-1.715,5.064-5.166,6.876-8.226,2.57-4.337,7.149-7.033,9.837-11.339a3.121,3.121,0,0,0-.49-3.8A9.716,9.716,0,0,0,58.255,302a3.484,3.484,0,0,0-2.388-1.279,36.882,36.882,0,0,0-5.18.1c-1.27.064-2.549.187-3.811.3-4.363.391-8.847.945-13.284.94-3.543-.339-7.083-.985-10.607-1.383-3.669-.414-4.14,5.24-.843,6.228" transform="translate(14.56 219.659)" fill="#e3cf87"/>
    <path id="Trazado_60358" data-name="Trazado 60358" d="M68.564,331.225c-.133-5.955-.093-11.927-.088-17.884a2.747,2.747,0,0,0-1.118-2.155c.114-2.755-4.136-4.481-5.41-1.622-2.864,6.429-7.111,12.609-12.789,16.865a3.053,3.053,0,0,0-1.019,1.317,69.647,69.647,0,0,0-9.87-2.165c-.578-.4-1.158-.794-1.739-1.184a13.155,13.155,0,0,0-2.94-2.6c-5.244-3.653-7.445-9.061-10.415-14.561-1.357-2.515-5.746-1.473-5.521,1.5a14.183,14.183,0,0,0,1.594,5.419c.173,5.9-.736,11.713-1.018,17.656a2.945,2.945,0,0,0,2.175,2.856c.3.066.646.118,1.021.163a2.409,2.409,0,0,0,1.878,1.523c9.453,1.966,18.841.881,28.3.113a2.923,2.923,0,0,0,1.319.49c3.3.344,12.2,3.485,14.764-.6,1.031-1.646.922-3.2.879-5.116" transform="translate(12.892 223.43)" fill="#e3cf87"/>
    <path id="Trazado_60359" data-name="Trazado 60359" d="M45.646,347.847H21.752c-.37,0-.741,0-1.111,0-3.127-.035-3.091-.1-4.155-3.226a9.825,9.825,0,0,1-.538-3.525,8.717,8.717,0,0,0-.59-3.807,1.828,1.828,0,0,1-.161-.531c-.312-2.932-.8-5.86-.884-8.795-.14-5.278-.021-10.56-.035-15.838a35.83,35.83,0,0,1,1.381-8.16,23.633,23.633,0,0,1,1.514-4.089,2.011,2.011,0,0,1,1.158-1.025,11.513,11.513,0,0,1,2.748-.308c5-.08,10-.157,15-.168,9.451-.021,18.895.01,28.34.01a32.84,32.84,0,0,1,9.022,1.331,5.055,5.055,0,0,1,3.793,4.261,11.6,11.6,0,0,1,.151,2.492q.109,17.917.2,35.839c.017,3.278-.76,4.321-3.911,5.031a16.7,16.7,0,0,1-3.575.338c-8.149.028-16.3.014-24.45.014Zm27.729-9.089c.357-2.7.588-27.935.351-32.959-.007-.142-.183-.275-.353-.505-1.111.156-1.547,1.172-2.175,1.9-1.329,1.537-2.48,3.243-3.9,4.685a97.143,97.143,0,0,1-8.111,7.971,11.887,11.887,0,0,0-1.7,1.826c-1.985,2.44-3.93,4.915-5.922,7.346-1.8,2.207-3.762,2.423-6.047.729-.37-.275-.722-.58-1.09-.858-1.165-.881-2.336-1.757-3.614-2.708a5.911,5.911,0,0,1-2.624,3.362c-2.355,1.772-4.937,3.269-6.831,5.609a5.465,5.465,0,0,1-.87.685c-1.6,1.255-3.209,2.509-4.8,3.776-1.577,1.25-3.01,2.7-5.232,3.418.452.445.656.827.914.87a14.545,14.545,0,0,0,2.215.119q17.494.135,34.986.254,5.973.039,11.946.024a3.228,3.228,0,0,0,2.637-.69c-1.959-2.182-3.89-4.278-5.756-6.429-1.211-1.395-2.352-2.857-3.491-4.313-1.189-1.53-2.343-3.087-3.508-4.64a8.26,8.26,0,0,1-.938-1.353,1.281,1.281,0,0,1,.284-1.528,1.312,1.312,0,0,1,1.532-.3,3.983,3.983,0,0,1,1.345.938,45.927,45.927,0,0,1,3.852,4.712c1.893,2.878,4.352,5.214,6.9,8.059m-51.3-36.964c.575.585.905.992,1.3,1.314,5,4.025,9.151,8.89,13.35,13.684a72.889,72.889,0,0,0,9.721,9.056c.493.391,1.047.706,1.677,1.125.523-.633.978-1.2,1.445-1.75,2.208-2.612,4.3-5.332,6.666-7.793,1.976-2.061,4.083-4.013,6.145-5.995,2.885-2.771,5-6.13,7.8-9.034a3.473,3.473,0,0,0-2.682-.784c-2.309-.031-4.619-.017-6.933-.019q-17.759-.018-35.514-.036a8.467,8.467,0,0,0-2.975.232m17.053,22.982c-1.68-1.8-3.349-3.53-4.955-5.313-2.665-2.958-5.244-5.993-7.952-8.911-1.573-1.689-3.326-3.217-5.019-4.792a6.337,6.337,0,0,0-1.12-.677c-.263.322-.557.516-.6.751-.355,2.276-1.023,4.5-.967,6.853.092,4.074.035,8.148.048,12.225.007,2.4-.161,4.813.637,7.156a3.53,3.53,0,0,1,.123,1.376c-.185,2.366.827,4.5,1.113,6.961a6.557,6.557,0,0,0,1.075-.607q4.854-4.353,9.688-8.726c.618-.556,1.255-1.1,1.912-1.6,1.094-.843,2.226-1.641,3.316-2.485.865-.67,1.7-1.385,2.7-2.207" transform="translate(10.406 217.988)" fill="#361818" fill-rule="evenodd"/>
    <path id="Trazado_60360" data-name="Trazado 60360" d="M22.628,109.605c1.937-.536,3.792-1.256,5.652-1.961,3.984-1.5,8-2.965,11.91-4.583,3.889-1.611,8.008-2.854,11.628-5.019a44.278,44.278,0,0,0-3.278-7.3c-2.279-4.347-4.823-8.6-6.663-13.1a40.876,40.876,0,0,0-1.98-3.723,6.21,6.21,0,0,0-3.029,2.757c-3.212,4.8-6.869,9.368-9.51,14.494a6.363,6.363,0,0,1-.571.879c-4.844,6.495-8.9,13.455-13.99,19.8a15.555,15.555,0,0,0-.945,1.6c.76-.234,1.121-.3,1.438-.446a63.941,63.941,0,0,1,9.337-3.411" transform="translate(8.66 54.013)" fill="#fff"/>
    <path id="Trazado_60361" data-name="Trazado 60361" d="M50.279,107.036c3.944-.031,7.954.665,11.891.241.673-.073,1.4.107,2.085.1a9.95,9.95,0,0,0,1.407-.218,3.265,3.265,0,0,0-.22-.874q-3.393-5.493-6.819-10.967a10.094,10.094,0,0,0-.8-.971,10.369,10.369,0,0,0-1.125.218c-.267.09-.49.286-.76.348a4.22,4.22,0,0,1-1.407.192,19.9,19.9,0,0,0-7.819.846c-4.153,1.173-8.25,2.473-12.711,2.81a13.017,13.017,0,0,0-1.992.4q-8.325,1.924-16.647,3.873c-.81.189-1.582.505-2.721.872.71.137,1,.218,1.284.239,7.751.607,15.494.742,23.249,2.052a74.657,74.657,0,0,0,13.108.839" transform="translate(9.233 68.928)" fill="#fff"/>
    <path id="Trazado_60362" data-name="Trazado 60362" d="M27.4,105.549c3.063.966,6.118,1.935,9.191,2.875.665.2,1.378.246,2.051.433a43.876,43.876,0,0,1,6.905,2.056c2.234,1.045,4.553,1.232,7.217,2.134-.592-2.823-1.061-5.316-1.653-8.059-1.054-.1-1.845-.222-2.625-.239-1.687-.028-3.375.1-5.053-.024a153.762,153.762,0,0,1-19.923-2.3,25.3,25.3,0,0,0-6.689-.088,5.353,5.353,0,0,0,1.021.607c2.8.753,5.611,1.48,8.416,2.222.386.1.76.261,1.142.382" transform="translate(12.286 74.637)" fill="#fff"/>
    <path id="Trazado_60363" data-name="Trazado 60363" d="M17.542,101.764c-.163.045-.173.431-.256.654l-.007.014c1.2-.306,2.4-.651,3.626-.914,4.067-.867,8.032-2.047,12.294-2.352a12.81,12.81,0,0,0,2.542-.554c4.055-1.156,8.016-2.549,12.4-2.826a7.506,7.506,0,0,0,1.3-.3,9.7,9.7,0,0,0-1.191-5.429c-2.078.843-4.134,1.722-6.235,2.518-8.142,3.093-15.968,6.761-24.476,9.191" transform="translate(12.624 65.795)" fill="#fff"/>
    <path id="Trazado_60364" data-name="Trazado 60364" d="M16.679,97.241c.007.031.01.061.017.092.337-.045.678-.081,1.021-.123l.007-.009Z" transform="translate(12.186 71.015)" fill="#fff"/>
    <path id="Trazado_60365" data-name="Trazado 60365" d="M59.872,114.7c-1.142-3.546-2.053-11.541-7.841-10.434-3.018.576-6.088.922-9.157,1.286a14.642,14.642,0,0,0,4.7-2.08,2.236,2.236,0,0,0,1.571-2.637,4.087,4.087,0,0,0-.44-1.959,2.959,2.959,0,0,0-.514-.729,2.564,2.564,0,0,0-.118-.647c-1.94-5.486-4.652-10.612-7.146-15.858-.7-1.464-2.887-2.172-3.982-.633C31.544,88.6,24.922,95,18.223,101.352c-.575.2-1.16.381-1.762.531a2.106,2.106,0,0,0-1.48,2.551q-.722.685-1.44,1.371a1.536,1.536,0,0,0-.144,2.331,2.009,2.009,0,0,0,1.748,2.039,36.188,36.188,0,0,0,11.5-.538,2.329,2.329,0,0,0-.4,1.089,21.593,21.593,0,0,0-8.412,1.485,1.092,1.092,0,0,0-.685.829c-.014.168-.031.331-.052.495a.854.854,0,0,0,1.329.824c-.092.048,11.263.772,7.2.519,3.7.232,7.372.751,11.071.992,5.759.376,14.57-.671,19.814,2,2.072,1.057,4-1.2,3.369-3.174" transform="translate(9.449 58.552)" fill="#ffd986"/>
    <path id="Trazado_60366" data-name="Trazado 60366" d="M36.153,105.366c-.723-.187-1.44-.376-2.167-.562-5.117-1.32-10.7-3.968-16.036-2.932a.557.557,0,0,0-.175,1.05c8.6,5.2,19.466,6.241,28.565,10.38,1.916.872,3.48-1.025,2.994-2.826-1.822-6.763-7.246-7.67-13.182-5.11" transform="translate(12.763 74.256)" fill="#ffd986"/>
    <path id="Trazado_60367" data-name="Trazado 60367" d="M61.122,99.214a3.667,3.667,0,0,1-1.452,3.665,39.411,39.411,0,0,0,1.288,4.929c1.04.4,1.494-.107,2.085-.36a1.568,1.568,0,0,1,2.22.737c1.322,2.253,2.62,4.512,3.937,6.765a83.327,83.327,0,0,0,6.007,9.181,5.966,5.966,0,0,1,.606.947,1,1,0,0,1-.751,1.429,4.153,4.153,0,0,1-.869.119q-3.255.086-6.523.144a25.98,25.98,0,0,0-5.706.332c.1.6.159,1.113.28,1.609.469,1.917.964,3.833,1.436,5.753a10.841,10.841,0,0,1,.308,1.573,1.679,1.679,0,0,1-1.776,1.943,6.847,6.847,0,0,1-2.338-.253c-1.812-.507-3.432-1.641-5.408-1.634a1.2,1.2,0,0,1-.542-.244c-2.6-1.625-5.567-2.2-8.5-2.876a15.574,15.574,0,0,1-2.047-.5,79.447,79.447,0,0,0-7.748-2.485c-3.39-.907-6.749-1.933-10.1-2.99a20.781,20.781,0,0,1-4.455-1.764,16.985,16.985,0,0,0-8.926-2.059c-.794-.007-1.577.132-2.369.1a3.158,3.158,0,0,1-2.553-1.269C6.068,120.5,6,120,7.153,118.438q4.421-5.937,8.873-11.849c.422-.564.89-1.1,1.262-1.7A157.02,157.02,0,0,1,29.013,89.547c2.021-2.459,3.8-5.083,5.713-7.616a70.571,70.571,0,0,1,7.9-8.639,4.56,4.56,0,0,1,1.149-.741,1.591,1.591,0,0,1,2.072.575c1.049,1.663,2.1,3.331,3.042,5.041,1.964,3.586,3.866,7.194,5.77,10.8,1.251,2.376,2.489,4.759,3.681,7.158.659,1.32,1.224,2.67,2.781,3.089M25.283,115.344c1.2-.306,2.4-.651,3.627-.912,4.067-.867,8.032-2.049,12.294-2.354a12.647,12.647,0,0,0,2.541-.554c4.057-1.156,8.018-2.549,12.4-2.826a7.277,7.277,0,0,0,1.3-.3,9.683,9.683,0,0,0-1.189-5.427c-2.078.841-4.134,1.72-6.237,2.518-8.142,3.091-15.967,6.76-24.474,9.189-.163.047-.173.431-.258.658l-1.044.042c.007.029.01.061.017.09.337-.043.678-.081,1.019-.121m-9.387-.753c.758-.232,1.12-.3,1.438-.445a63.846,63.846,0,0,1,9.335-3.411c1.937-.536,3.793-1.256,5.652-1.961,3.986-1.5,8-2.965,11.912-4.583,3.887-1.611,8.008-2.854,11.626-5.019a44.216,44.216,0,0,0-3.278-7.3c-2.279-4.346-4.823-8.6-6.663-13.094a40.878,40.878,0,0,0-1.98-3.723,6.215,6.215,0,0,0-3.029,2.755C37.7,82.62,34.042,87.183,31.4,92.308a6.437,6.437,0,0,1-.571.881c-4.844,6.495-8.9,13.455-13.99,19.8a15.06,15.06,0,0,0-.945,1.6m46.538-4.2a9.952,9.952,0,0,0-1.125.218c-.267.088-.49.286-.761.348a4.253,4.253,0,0,1-1.405.19,19.932,19.932,0,0,0-7.819.846c-4.153,1.175-8.25,2.475-12.711,2.812a13.017,13.017,0,0,0-1.992.4q-8.325,1.924-16.647,3.873c-.812.189-1.582.5-2.721.872.71.135,1,.218,1.284.239,7.751.606,15.494.742,23.249,2.051a74.661,74.661,0,0,0,13.108.841c3.944-.031,7.954.665,11.891.239.673-.073,1.4.109,2.085.1a9.928,9.928,0,0,0,1.405-.218,3.19,3.19,0,0,0-.218-.874q-3.393-5.493-6.819-10.969a10.1,10.1,0,0,0-.8-.969m-3.66,16.349c-1.054-.1-1.845-.222-2.627-.239-1.686-.028-3.373.1-5.052-.023a154.067,154.067,0,0,1-19.923-2.3,25.22,25.22,0,0,0-6.689-.09,5.411,5.411,0,0,0,1.019.607c2.8.753,5.612,1.48,8.418,2.222.384.1.76.261,1.142.382,3.061.966,6.118,1.935,9.19,2.875.666.2,1.379.246,2.052.433a44.058,44.058,0,0,1,6.905,2.056c2.234,1.045,4.553,1.232,7.217,2.134-.592-2.823-1.061-5.316-1.653-8.059" transform="translate(4.618 52.883)" fill="#361818" fill-rule="evenodd"/>
    <path id="Trazado_60368" data-name="Trazado 60368" d="M69.206,81.344c-6.156.5-11.688,2.2-17.526,4.153-3.366,1.132-7.327,1.651-9.252,4.913-.486.827.67,1.609,1.365,1.116,3.1-2.2,7.269-2.736,10.851-3.894,4.951-1.6,9.975-3.12,15-4.465,1.061-.282.592-1.905-.436-1.824" transform="translate(30.913 59.428)" fill="#361818" fill-rule="evenodd"/>
    <path id="Trazado_60369" data-name="Trazado 60369" d="M66.279,85.9c-6.384.024-12.365,2.136-18.242,4.515a1.016,1.016,0,0,0,.734,1.893c5.927-1.786,12.009-2.971,17.837-5.02.819-.286.441-1.391-.329-1.388" transform="translate(34.633 62.759)" fill="#361818" fill-rule="evenodd"/>
    <path id="Trazado_60370" data-name="Trazado 60370" d="M65.866,91.451c-7.121.713-14.93,2.189-21.25,5.657-.872.481-.067,1.924.834,1.526,6.6-2.913,14.348-2.577,20.693-6.024.561-.3.45-1.232-.277-1.16" transform="translate(32.323 66.811)" fill="#361818" fill-rule="evenodd"/>
    <path id="Trazado_60371" data-name="Trazado 60371" d="M87.668,363.747c4.268.014,8.537-.01,12.8.036,1.748.021,3.5.17,5.244.287,1.139.074,2.274.275,3.413.294,2.971.071,5.945.088,8.916.109.521,0,1.042-.1,1.651-.149a14.112,14.112,0,0,0,.182-1.623q.078-14.971.113-29.946a8.461,8.461,0,0,0-.183-1.272,17.816,17.816,0,0,0-6.867.187,5.715,5.715,0,0,1-1.58.145,1.366,1.366,0,0,1-1.367-1.288,8.239,8.239,0,0,1,.045-2.5c.559-2.4.452-4.847.72-7.265a7.554,7.554,0,0,0-.059-1.166c-.969-.021-1.8-.049-2.627-.061-3.122-.047-6.265.106-9.363-.194-3.577-.346-7.149-.389-10.725-.422a6.46,6.46,0,0,0-1.206.2c-.746,14.883-1.736,29.609-1.409,44.535.813.038,1.556.1,2.3.1" transform="translate(62.323 233.002)" fill="#fff"/>
    <path id="Trazado_60372" data-name="Trazado 60372" d="M105.558,327.4c.633-.031,1.336.182,2.008-.429-.289-.426-.505-.808-.784-1.139q-2.181-2.609-4.4-5.19a2.7,2.7,0,0,0-.722-.419c-.121,2.494-.235,4.808-.355,7.329.853-.057,1.53-.121,2.208-.142s1.364.026,2.042-.01" transform="translate(74.016 233.959)" fill="#fff"/>
    <path id="Trazado_60373" data-name="Trazado 60373" d="M106.166,323.728a1.255,1.255,0,0,0-.723-1.082,1.737,1.737,0,0,0-.784-.261,1.107,1.107,0,0,0-1.329.137,1.211,1.211,0,0,0-.132.144c-.092.036-.178.074-.267.116a2.009,2.009,0,0,0-.95,2.8,1.984,1.984,0,0,0,3.38,0c.166-.218.441-.441.626-.684a1.68,1.68,0,0,0,.228-.848c-.055-.49-.073-.6-.05-.32" transform="translate(74.324 235.418)" fill="#c7e3d8"/>
    <path id="Trazado_60374" data-name="Trazado 60374" d="M111.422,332.373c-.647-.09-1.364-.173-2.091-.206.112-3.044.125-6.2-.907-8.788a4.91,4.91,0,0,0-4.34-2.845c-4.626-.036-8.949.3-13.616-.107a1.152,1.152,0,0,0-.981,1.744c-4.823,4.927-3.072,20.044-3.034,25.049.031,4.089-2.17,11.59,3.371,13.227a52.134,52.134,0,0,0,24.815.845,3.079,3.079,0,0,0,2.234-2.933A134.841,134.841,0,0,0,117.1,339.2c-.275-3.9-1.808-6.286-5.678-6.826" transform="translate(62.867 234.102)" fill="#c7e3d8"/>
    <path id="Trazado_60375" data-name="Trazado 60375" d="M113.711,317.941a23.266,23.266,0,0,1,4.474,4.5c.959,1.275,2.153,2.371,3.157,3.612,1.049,1.3,2.047,2.656,2.963,4.06a3.319,3.319,0,0,1,.363,1.731c0,1.365-.166,2.734-.163,4.1q.013,14.3.066,28.6c0,.613.028,1.22-.01,1.829-.1,1.791-.9,2.589-2.714,2.741-.3.028-.609.014-.914.014-3.127.017-6.254.1-9.38.017-2.054-.048-4.1-.339-6.154-.467-1.826-.114-3.657-.2-5.484-.213-3.889-.024-7.779.014-11.669.024-.459,0-.917.014-1.371,0-2.013-.071-2.12-.294-2.641-2.336a28.985,28.985,0,0,1-.684-6.8c-.1-6.254-.132-12.51.327-18.756.469-6.389.841-12.781,1.237-19.173a12.014,12.014,0,0,1,.521-2.175,2.4,2.4,0,0,1,2.646-1.966,94.339,94.339,0,0,1,11.427.308c2.125.17,4.257.291,6.389.339,2.589.057,5.181.012,7.613.012m7.308,47.623a14.106,14.106,0,0,0,.183-1.622q.075-14.973.111-29.948a8.408,8.408,0,0,0-.182-1.27,17.792,17.792,0,0,0-6.869.185,5.576,5.576,0,0,1-1.578.145,1.361,1.361,0,0,1-1.367-1.288,8.285,8.285,0,0,1,.043-2.5c.559-2.4.452-4.849.72-7.265a7.127,7.127,0,0,0-.059-1.167c-.969-.022-1.8-.05-2.627-.061-3.12-.048-6.265.1-9.363-.2-3.577-.346-7.149-.388-10.725-.422a6.443,6.443,0,0,0-1.2.2c-.748,14.883-1.736,29.611-1.41,44.537.813.036,1.558.093,2.3.1,4.268.014,8.537-.009,12.8.038,1.748.021,3.5.17,5.242.287,1.139.074,2.274.273,3.414.294,2.97.071,5.943.088,8.914.107.521,0,1.044-.093,1.651-.149m-6.694-35.811c.853-.057,1.53-.121,2.208-.142s1.364.028,2.042-.01c.633-.029,1.338.184,2.008-.429-.289-.426-.505-.808-.784-1.139q-2.181-2.609-4.4-5.19a2.7,2.7,0,0,0-.722-.419c-.121,2.494-.235,4.808-.355,7.329" transform="translate(60.999 231.763)" fill="#361818" fill-rule="evenodd"/>
    <path id="Trazado_60376" data-name="Trazado 60376" d="M99.354,333.875c1.86,0,4.37-.007,6.879,0a7.339,7.339,0,0,1,1.814.1,16.6,16.6,0,0,0,4.245.689,1.409,1.409,0,0,1,1.395,1.49,1.449,1.449,0,0,1-1.412,1.241,10.425,10.425,0,0,1-3.84-.234,8.208,8.208,0,0,0-2.236-.313c-1.6-.049-3.2.007-4.79-.031q-5.586-.138-11.168-.324a3.58,3.58,0,0,1-1.331-.223,1.405,1.405,0,0,1-.665-.832.89.89,0,0,1,.692-1.028,4.714,4.714,0,0,1,1.338-.225c2.809-.109,5.619-.2,9.079-.315" transform="translate(64.453 243.928)" fill="#361818" fill-rule="evenodd"/>
    <path id="Trazado_60377" data-name="Trazado 60377" d="M100.526,342.415c-3.264-.092-6.53-.17-9.794-.277a6.122,6.122,0,0,1-1.786-.267,1.353,1.353,0,0,1-.654-.832.909.909,0,0,1,.6-1.1,6.219,6.219,0,0,1,1.783-.291c2.5-.086,5.01-.182,7.516-.2,3.724-.031,7.445,0,11.168.024a19.116,19.116,0,0,1,2.492.206,1.139,1.139,0,0,1,1.009,1.071,1.182,1.182,0,0,1-.962,1.348,9.957,9.957,0,0,1-2.025.209c-3.115.021-6.23.01-9.344.01,0,.031,0,.061,0,.092" transform="translate(64.48 247.996)" fill="#361818" fill-rule="evenodd"/>
    <path id="Trazado_60378" data-name="Trazado 60378" d="M113.166,330.878a1.634,1.634,0,0,1-1.66,1.142c-2.8-.061-5.628.294-8.409-.382a8.494,8.494,0,0,0-1.362-.142c-3.787-.284-7.573-.571-11.363-.831a2.93,2.93,0,0,1-1.7-.531.9.9,0,0,1-.031-1.526,3.815,3.815,0,0,1,1.673-.578,20.46,20.46,0,0,1,3.639.175,47.2,47.2,0,0,0,6.587.545c1.211.005,2.418.256,3.629.344,1.59.118,3.183.185,4.776.26a17.293,17.293,0,0,0,1.822.014,2.257,2.257,0,0,1,2.4,1.511" transform="translate(64.458 239.649)" fill="#361818" fill-rule="evenodd"/>
    <path id="Trazado_60379" data-name="Trazado 60379" d="M92.644,323.69c.557.081,1.6.237,2.653.376a7.978,7.978,0,0,0,2.027.2c2.108-.273,4.013.588,6.01.936a1.124,1.124,0,0,1,.971,1.1,1.18,1.18,0,0,1-1.111,1.206,4.856,4.856,0,0,1-2.689-.111,3.368,3.368,0,0,0-1.293-.351c-2.828.125-5.557-.727-8.362-.815a4.233,4.233,0,0,1-1.7-.511.8.8,0,0,1-.054-1.454,6.069,6.069,0,0,1,1.684-.554,11.9,11.9,0,0,1,1.862-.017" transform="translate(64.77 236.47)" fill="#361818" fill-rule="evenodd"/>
  </g>
</svg>
