<svg xmlns="http://www.w3.org/2000/svg" xmlns:xlink="http://www.w3.org/1999/xlink" width="1032" height="458.024" viewBox="0 0 1032 458.024">
  <defs>
    <clipPath id="clip-path">
      <rect id="Rectángulo_25940" data-name="Rectángulo 25940" width="23.259" height="21.536" fill="none"/>
    </clipPath>
    <clipPath id="clip-path-2">
      <rect id="Rectángulo_25941" data-name="Rectángulo 25941" width="24.982" height="24.982" fill="none"/>
    </clipPath>
  </defs>
  <g id="Grupo_25676" data-name="Grupo 25676" transform="translate(-239 -1599)">
    <g id="Capa_2" data-name="Capa 2" transform="translate(456.5 1696.87)">
      <g id="Capa_3" data-name="Capa 3" transform="translate(31.8 -55.87)">
        <path id="Trazado_64814" data-name="Trazado 64814" d="M389.682,203.839l-.353-.861c1.223-2.782,1.146-2.86.9-3.1l-1.568-1.533-.155-.56h-.172c-.095.422-.379.422-2.765,1.508l-.861-.353c-1.137-2.817-1.249-2.817-1.585-2.877h-2.214c-.336.06-.465.06-1.516,2.886l-.861.353a14.827,14.827,0,0,0-2.808-1.025h-.215l-1.723,1.654c-.258.241-.345.327.956,3.067l-.362.861c-2.877,1.111-2.584,1.559-2.584,1.559v2.179s-.258.457,2.627,1.49l.362.861c-1.232,2.782-1.146,2.869-.861,3.1l1.568,1.542.155.448h.181c.095-.319.379-.319,2.774-1.4l.861.362c1.137,2.808,1.258,2.808,1.594,2.765h2.111c.336.043.457.043,1.516-2.774l.861-.362a15.214,15.214,0,0,0,2.808,1.034h.215l1.723-1.671c.241-.241.327-.327-.965-3.049l.353-.861c2.886-1.111,2.731-1.559,2.731-1.559v-2.171s.155-.465-2.739-1.49Zm-7.65,6.237a3.618,3.618,0,1,1,3.678-3.618A3.618,3.618,0,0,1,382.033,210.076Z" transform="translate(-78.909 20.963)" fill="#4f4f4f"/>
        <path id="Trazado_64815" data-name="Trazado 64815" d="M385.712,142.848l-.129-.3c.439-.982.4-1.016.319-1.1l-.551-.543h-.121c0-.069-.138-.069-.982.31l-.31-.121c-.4-1-.448-1-.56-1.051h-.793c-.112.052-.164.052-.534,1.051l-.31.129a4.971,4.971,0,0,0-1-.362h-.052l-.6.586c-.086.086-.121.112.336,1.085l-.121.3c-1.025.4-1.542.551-1.542.551v.767s.517.164,1.542.534l.129.3c-.439.982-.4,1.016-.327,1.094l.56.551.052.3h.069c0-.258.138-.258.982-.646l.31.129c.4,1,.448,1,.56,1.378h.784c.121-.379.164-.379.543-1.378l.31-.129a4.97,4.97,0,0,0,1,.362h.069l.6-.586c.086-.095.121-.121-.336-1.085l.121-.3c1.025-.4.784-.551.784-.551v-.775s.241-.164-.784-.525ZM383,145.062a1.284,1.284,0,1,1,1.309-1.284A1.3,1.3,0,0,1,383,145.062Z" transform="translate(-79.875 28.725)" fill="#4f4f4f"/>
        <path id="Trazado_64816" data-name="Trazado 64816" d="M396.535,188.663l-.129-.3c.439-.982.4-1.016.327-1.1l-.56-.543-.052.207h-.069c0-.25-.138-.25-.982.129l-.31-.121c-.4-1-.439-1-.56-.861h-.793c-.121-.129-.164-.129-.543.861l-.31.129a5.616,5.616,0,0,0-.991-.37h-.078l-.6.586c-.086.086-.121.112.345,1.085l-.129.3c-1.016.388-1.37.551-1.37.551v.767s.353.164,1.37.534l.129.3c-.439.982-.4,1.008-.319,1.094l.551.543.06-.37h.06c0,.422.138.422.982,0l.31.129c.4,1,.448,1,.56.7h.836c.121.3.164.3.534-.7l.31-.129a4.971,4.971,0,0,0,1,.362h.069l.612-.594c.078-.086.112-.112-.345-1.077l.121-.3c1.025-.4.956-.551.956-.551v-.775s.069-.164-.956-.525Zm-2.714,2.205a1.284,1.284,0,1,1,1.309-1.275,1.284,1.284,0,0,1-1.309,1.275Z" transform="translate(-81.395 22.356)" fill="#4f4f4f"/>
        <path id="Trazado_64817" data-name="Trazado 64817" d="M388,226.425l-.129-.3c.439-.982.4-1.016.319-1.1l-.551-.543-.06-.422h-.06c0,.379-.138.379-.982.758l-.31-.121c-.4-1-.448-1-.569.224h-.784c-.112-1.223-.164-1.223-.534-.224l-.31.129a4.97,4.97,0,0,0-1-.362h-.069l-.6.586c-.095.086-.121.112.336,1.085l-.121.3c-1.025.4-.793.551-.793.551v.767s-.233.164.793.534l.129.3c-.439.982-.414,1.008-.327,1.094l.56.551.052-.146h.069c0,.19.129.19.982-.2l.31.129c.4,1,.439,1,.56.93h.784c.121.069.164.069.543-.93l.31-.129a5.169,5.169,0,0,0,.991.362h.078l.6-.594c.086-.086.121-.112-.345-1.077L388,228.3c1.025-.4,1.533-.551,1.533-.551v-.775s-.508-.164-1.533-.525Zm-2.714,2.214a1.284,1.284,0,1,1,1.3-1.284,1.3,1.3,0,0,1-1.3,1.284Z" transform="translate(-80.289 17.096)" fill="#4f4f4f"/>
        <path id="Trazado_64818" data-name="Trazado 64818" d="M375.995,250.571l-.129-.3c.431-.982.4-1.016.319-1.1l-.551-.543-.06.25h-.06c0-.293-.138-.293-.982.086l-.258-.112c-.4-1-.448-1-.569-.861h-.784c-.112-.172-.164-.172-.534.861l-.31.129a5.325,5.325,0,0,0-1-.37h-.069l-.6.586c-.095.086-.121.112.336,1.085l-.121.3c-1.025.388-.861.551-.861.551v.767s-.181.164.861.534l.129.3c-.439.982-.414,1.008-.327,1.094l.56.543.052-.327h.069c0,.379.129.379.982,0l.31.129c.4,1,.439,1,.56.741h.784c.121.258.164.258.543-.741l.31-.129a5.167,5.167,0,0,0,.991.362h.078l.6-.594c.086-.086.121-.112-.345-1.077l.129-.3c1.025-.4,1.482-.551,1.482-.551V251.1Zm-2.714,2.205a1.284,1.284,0,1,1,1.3-1.275A1.284,1.284,0,0,1,373.281,252.776Z" transform="translate(-78.626 13.78)" fill="#4f4f4f"/>
        <path id="Trazado_64819" data-name="Trazado 64819" d="M352.816,216.883l-1.482-3.506c5.082-11.474,4.738-11.819,3.756-12.818l-6.487-6.323-.646-.551h-.749c-.4,0-1.576,0-11.431,4.471l-3.618-1.456c-4.695-11.629-5.169-11.629-6.547-11.629h-9.14c-1.378,0-1.9,0-6.254,11.664l-3.609,1.473c-6.659-2.817-10.57-4.238-11.621-4.238h-.861l-6.969,6.831c-1.06,1-1.43,1.352,3.937,12.646l-1.482,3.506c-11.862,4.583-11.862,5.031-11.862,6.435v8.141c0,1.413,0,1.912,11.914,6.185l1.473,3.5c-5.074,11.474-4.738,11.819-3.747,12.8l6.478,6.357.646.551h.749c.4,0,1.559,0,11.431-4.488l3.618,1.473c4.695,11.629,5.169,11.629,6.547,11.629h9.148c1.4,0,1.9,0,6.254-11.664L335.9,256.4c6.642,2.817,10.544,4.247,11.586,4.247h.861l7.021-6.892c1-1.008,1.352-1.352-3.98-12.611l1.464-3.506c11.888-4.6,11.888-5.091,11.888-6.452v-8.072c0-1.413,0-1.9-11.931-6.159Zm-31.779,25.4a14.843,14.843,0,1,1,15.118-14.851,15.006,15.006,0,0,1-15.118,14.851Z" transform="translate(-65.879 22.485)" fill="#6caed0"/>
        <path id="Trazado_64820" data-name="Trazado 64820" d="M331.816,113.883l-1.482-3.506c5.083-11.474,4.738-11.819,3.756-12.818L327.6,91.236l-.646-.551h-.749c-.4,0-1.576,0-11.431,4.471L311.159,93.7c-4.695-11.629-5.169-11.629-6.547-11.629h-9.14c-1.378,0-1.9,0-6.254,11.664l-3.609,1.473c-6.659-2.817-10.57-4.238-11.621-4.238h-.861L266.157,97.8c-1.06,1-1.43,1.352,3.937,12.646l-1.482,3.506c-11.862,4.583-11.862,5.031-11.862,6.435v8.141c0,1.413,0,1.912,11.914,6.185l1.473,3.5c-5.074,11.474-4.738,11.819-3.747,12.8l6.478,6.357.646.551h.749c.4,0,1.559,0,11.431-4.488l3.618,1.473c4.695,11.629,5.169,11.629,6.547,11.629h9.148c1.4,0,1.9,0,6.254-11.664L314.9,153.4c6.642,2.817,10.544,4.247,11.586,4.247h.861l7.021-6.892c1-1.008,1.352-1.352-3.98-12.611l1.464-3.506c11.888-4.6,11.888-5.091,11.888-6.452v-8.072c0-1.413,0-1.9-11.931-6.159Zm-31.873,25.059a14.843,14.843,0,1,1,15.127-14.851A15.006,15.006,0,0,1,299.943,138.942Z" transform="translate(-62.969 36.757)" fill="#f68839"/>
        <path id="Trazado_64821" data-name="Trazado 64821" d="M254.134,185.7l-1.352-3.153c4.626-10.337,4.307-10.639,3.446-11.535l-5.909-5.7-.586-.491h-.689c-.353,0-1.43,0-10.406,4.023l-3.3-1.309c-4.307-10.467-4.712-10.467-5.961-10.467h-8.33c-1.249,0-1.723,0-5.694,10.5l-3.291,1.318c-6.03-2.524-9.622-3.816-10.578-3.816h-.793l-6.349,6.151c-.965.861-1.3,1.215,3.584,11.371l-1.344,3.161c-10.811,4.126-10.811,4.523-10.811,5.789v8.821c0,1.266,0,1.723,10.846,5.556l1.344,3.153c-4.617,10.337-4.307,10.639-3.446,11.517l5.9,5.72.594.5h.681c.353,0,1.421,0,10.415-4.04l3.291,1.327c4.307,10.466,4.712,10.466,5.97,10.466h8.33c1.275,0,1.723,0,5.694-10.492l3.308-1.335c6.03,2.541,9.605,3.825,10.561,3.825h.793l6.4-6.2c.913-.9,1.232-1.223-3.627-11.354l1.335-3.153c10.828-4.144,10.828-4.583,10.828-5.815v-8.787c0-1.275,0-1.723-10.863-5.548Zm-28.54,23.853A13.55,13.55,0,1,1,239.377,196a13.706,13.706,0,0,1-13.783,13.559Z" transform="translate(-53.134 26.365)" fill="#bad345"/>
        <path id="Trazado_64822" data-name="Trazado 64822" d="M270.1,274.162l-.861-2.1c2.869-6.892,2.679-7.09,2.119-7.693l-3.661-3.8-.362-.327h-.422c-.224,0-.861,0-6.452,2.688l-2.042-.861c-2.653-6.978-2.92-6.978-3.7-6.978h-5.169c-.775,0-1.077,0-3.523,7l-2.042.861c-3.756-1.723-5.961-2.584-6.556-2.584h-.491l-3.937,4.1c-.594.594-.8.81,2.223,7.581l-.861,2.111c-6.693,2.748-6.693,3.015-6.693,3.859v3.291c0,.861,0,1.146,6.719,3.713l.861,2.093c-2.869,6.892-2.679,7.1-2.119,7.684l3.661,3.816.362.327h.422c.224,0,.861,0,6.452-2.688l2.042.861c2.645,6.978,2.92,6.978,3.7,6.978h5.169c.793,0,1.068,0,3.532-6.995l2.05-.861c3.756,1.723,5.953,2.584,6.538,2.584h.5l3.963-4.135c.56-.6.758-.81-2.248-7.563l.861-2.1c6.711-2.765,6.711-3.058,6.711-3.876v-3.291c0-.861,0-1.137-6.737-3.7Zm-17.453,13.886a8.494,8.494,0,1,1,8.614-8.494,8.614,8.614,0,0,1-8.614,8.494Z" transform="translate(-58.94 12.784)" fill="#4f4f4f"/>
        <path id="Trazado_64823" data-name="Trazado 64823" d="M382.933,161.986l-.672-1.723c2.309-5.737,2.154-5.909,1.723-6.409l-2.955-3.161-.293-.276H380.4c-.181,0-.724,0-5.212,2.24l-1.645-.732c-2.136-5.815-2.36-5.815-2.981-5.815h-4.169c-.62,0-.861,0-2.843,5.832l-1.645.732c-3.032-1.4-4.815-2.119-5.289-2.119h-.4L353.041,154c-.482.5-.646.672,1.792,6.323l-.672,1.723c-5.4,2.291-5.4,2.515-5.4,3.222v1.421c0,.706,0,.956,5.427,3.093l.663,1.723c-2.309,5.737-2.154,5.909-1.723,6.4l2.955,3.179.293.276h.345c.181,0,.706,0,5.169-2.24l1.645.732c2.136,5.815,2.36,5.815,2.989,5.815h4.161c.637,0,.861,0,2.851-5.832l1.654-.732c3.024,1.4,4.807,2.119,5.281,2.119h.4l3.2-3.446c.457-.508.62-.681-1.809-6.306l.663-1.723c5.418-2.3,5.418-2.541,5.418-3.222V165.07c0-.706,0-.948-5.436-3.075Zm-14.644,10.785a6.805,6.805,0,1,1,6.935-6.814A6.891,6.891,0,0,1,368.289,172.772Z" transform="translate(-75.718 27.884)" fill="#4f4f4f"/>
        <path id="Trazado_64824" data-name="Trazado 64824" d="M241.45,121.8l-.646-1.4c2.205-4.591,2.059-4.729,1.637-5.169l-2.826-2.533-.284-.224H239c-.172,0-.689,0-4.979,1.792l-1.576-.586c-2.05-4.652-2.257-4.652-2.851-4.652h-3.988c-.594,0-.861,0-2.722,4.669l-1.576.586a28.565,28.565,0,0,0-5.057-1.723h-.379l-3.032,2.731c-.465.4-.629.543,1.723,5.057l-.646,1.4c-5.169,1.835-5.169,2.016-5.169,2.584v6.5c0,.56,0,.758,5.169,2.472l.646,1.4c-2.214,4.591-2.067,4.729-1.637,5.169l2.826,2.541.284.215h.327c.164,0,.672,0,4.979-1.792l1.576.586c2.042,4.652,2.248,4.652,2.851,4.652h3.98c.612,0,.861,0,2.731-4.66l1.576-.594a28.43,28.43,0,0,0,5.048,1.723h.388l3.058-2.757c.431-.4.586-.543-1.723-5.039l.646-1.4c5.169-1.843,5.169-2.033,5.169-2.584v-6.5c0-.569,0-.767-5.169-2.464ZM227.28,134.381a6.547,6.547,0,1,1,6.668-6.547A6.625,6.625,0,0,1,227.28,134.381Z" transform="translate(-56.318 33.023)" fill="#d35367"/>
        <path id="Trazado_64825" data-name="Trazado 64825" d="M327.823,307.162l-.913-2.1c3.118-6.892,2.912-7.09,2.309-7.693l-3.98-3.8-.4-.327h-.465c-.241,0-.965,0-7.021,2.688l-2.223-.861c-2.877-6.978-3.17-6.978-4.014-6.978h-5.608c-.861,0-1.172,0-3.842,7l-2.214.861c-4.092-1.723-6.487-2.584-7.133-2.584h-.534l-4.307,4.1c-.646.594-.861.81,2.421,7.581l-.913,2.111c-7.279,2.748-7.279,3.015-7.279,3.859v6.736c0,.861,0,1.146,7.314,3.713l.861,2.093c-3.118,6.892-2.912,7.1-2.3,7.684l3.971,3.816.4.327h.465c.241,0,.956,0,7.021-2.688l2.214.861c2.886,6.978,3.179,6.978,4.023,6.978h5.617c.861,0,1.163,0,3.833-6.995l2.231-.861c4.083,1.723,6.478,2.584,7.115,2.584h.543l4.307-4.135c.612-.6.861-.81-2.446-7.563l.861-2.1c7.3-2.765,7.3-3.058,7.3-3.876v-6.736c0-.861,0-1.137-7.322-3.7ZM308.329,323.53a9.14,9.14,0,1,1,9.312-9.14A9.235,9.235,0,0,1,308.329,323.53Z" transform="translate(-66.427 8.211)" fill="#4f4f4f"/>
        <path id="Trazado_64826" data-name="Trazado 64826" d="M264.037,330.615l-.439-1.051c1.508-3.446,1.413-3.541,1.12-3.842l-1.93-1.9-.19-.164h-.224c-.121,0-.465,0-3.394,1.344l-1.077-.439c-1.4-3.489-1.533-3.489-1.947-3.489h-2.714c-.4,0-.569,0-1.852,3.506l-1.077.439a17.971,17.971,0,0,0-3.446-1.275h-.25l-2.067,2.059c-.31.3-.422.4,1.172,3.79l-.439,1.06c-3.523,1.37-3.523,1.508-3.523,1.93v2.076c0,.422,0,.569,3.532,1.852l.439,1.051c-1.508,3.446-1.4,3.541-1.111,3.842l1.93,1.9.19.164h.224c.112,0,.457,0,3.394-1.344l1.085.422c1.387,3.489,1.533,3.489,1.938,3.489H256.1c.414,0,.56,0,1.852-3.5l1.085-.439a18.036,18.036,0,0,0,3.446,1.275h.258l2.093-2.067c.293-.3.4-.4-1.189-3.782l.439-1.051c3.532-1.387,3.532-1.533,3.532-1.938v-2.067c0-.422,0-.569-3.549-1.852Zm-9.433,7.262a4.428,4.428,0,1,1,4.514-4.436,4.488,4.488,0,0,1-4.514,4.436Z" transform="translate(-60.892 3.641)" fill="#4f4f4f"/>
        <path id="Trazado_64827" data-name="Trazado 64827" d="M269.27,88.314l-.2-.457c.663-1.482.62-1.525.491-1.654l-.861-.861-.078-.431h-.043c-.052.362-.2.362-1.482.939l-.465-.19c-.612-1.5-.672-1.5-.861-1.611h-1.189c-.181.112-.25.112-.81,1.62l-.465.19a8.106,8.106,0,0,0-1.508-.551h-.112l-.9.861c-.138.129-.181.172.508,1.637l-.19.448c-1.533.594-1.335.861-1.335.861v1.163s-.2.25,1.344.8l.19.448c-.655,1.49-.612,1.533-.482,1.663l.861.861.086.37h.095c.052-.3.2-.3,1.482-.861l.465.19c.612,1.508.672,1.508.861,1.551h1.18c.181,0,.25,0,.81-1.551l.474-.2a7.677,7.677,0,0,0,1.5.551h.121l.9-.861c.129-.129.172-.172-.517-1.628l.19-.457C270.873,90.562,271,90.3,271,90.3V89.1s-.129-.25-1.671-.8Zm-4.092,3.334a1.938,1.938,0,1,1,1.964-1.93A1.938,1.938,0,0,1,265.178,91.648Z" transform="translate(-63.386 36.483)" fill="#4f4f4f"/>
        <path id="Trazado_64828" data-name="Trazado 64828" d="M311.994,187.893l-.2-.457c.663-1.482.62-1.533.491-1.654l-.861-.861-.086-.052h-.095a5.638,5.638,0,0,0-1.482.56l-.465-.19c-.612-1.5-.672-1.5-.861-1.232h-1.18c-.181-.267-.25-.267-.81,1.24l-.465.19a8.348,8.348,0,0,0-1.508-.551h-.112l-.9.861c-.138.129-.19.172.508,1.637l-.19.448c-1.542.594-1.077.861-1.077.861v1.163s-.465.25,1.085.8l.19.448c-.663,1.49-.612,1.533-.491,1.663l.861.818.086-.112h.095c.052.181.2.181,1.482-.4l.465.19c.612,1.508.672,1.508.861,1.068h1.18c.181.439.25.439.81-1.068l.474-.2a7.675,7.675,0,0,0,1.5.551h.112l.913-.861c.129-.129.172-.172-.517-1.628l.19-.457a14.331,14.331,0,0,0,1.93-.861V188.66a11.644,11.644,0,0,0-1.93-.8Zm-4.092,3.334a1.938,1.938,0,1,1,1.964-1.93,1.938,1.938,0,0,1-1.964,1.93Z" transform="translate(-69.327 22.651)" fill="#4f4f4f"/>
        <path id="Trazado_64829" data-name="Trazado 64829" d="M342.63,176.673l-.19-.457c.655-1.482.612-1.525.482-1.654l-.861-.861-.086.146h-.095c-.052-.215-.207-.215-1.482.362l-.474-.181c-.6-1.508-.663-1.508-.861-1.042h-1.18c-.181-.465-.25-.465-.81,1.042l-.474.19a8.39,8.39,0,0,0-1.5-.551h-.112l-.9.861c-.138.129-.19.172.508,1.637l-.19.448c-1.542.594-1.723.861-1.723.861v1.163s.172.25,1.723.8l.19.448c-.655,1.49-.612,1.533-.482,1.663l.861.818.078.086h.1a6.7,6.7,0,0,0,1.473-.594l.474.189c.6,1.508.672,1.508.861,1.266h1.189c.181.241.241.241.81-1.266l.474-.19a7.752,7.752,0,0,0,1.5.543h.112l.913-.861c.129-.129.172-.172-.517-1.628l.19-.457c1.542-.594,1.292-.861,1.292-.861V177.44s.25-.25-1.3-.8Zm-4.092,3.334a1.947,1.947,0,1,1,1.387-.555,1.93,1.93,0,0,1-1.387.555Z" transform="translate(-73.49 24.198)" fill="#4f4f4f"/>
        <path id="Trazado_64830" data-name="Trazado 64830" d="M258.268,152.04l-.25-.612c.861-1.99.818-2.05.646-2.231l-1.128-1.094-.112-.31h-.129c-.069.215-.276.215-1.981.991l-.637-.25a13.062,13.062,0,0,0-1.137-2.464h-1.585a11.49,11.49,0,0,0-1.085,2.464l-.629.258a10.562,10.562,0,0,0-2.016-.741h-.155l-1.215,1.189c-.181.172-.241.233.689,2.2l-.258.612a17.411,17.411,0,0,0-2.584,1.111v1.559a14.037,14.037,0,0,0,2.584,1.077l.258.6c-.861,2-.861,2.059-.655,2.222l1.128,1.1.112.121h.129a9.793,9.793,0,0,0,1.99-.8l.629.258c.81,2.016.861,2.016,1.137,2.266h1.559c.25-.25.336-.25,1.085-2.274l.637-.258a10.56,10.56,0,0,0,2.016.741h.146l1.284-1.189c.172-.181.233-.241-.689-2.2l.25-.6c2.067-.8,1.964-1.12,1.964-1.12v-1.559s.1-.327-1.973-1.068Zm-5.487,4.471a2.584,2.584,0,1,1,1.867-.735,2.584,2.584,0,0,1-1.867.735Z" transform="translate(-61.299 27.889)" fill="#4f4f4f"/>
        <path id="Trazado_64831" data-name="Trazado 64831" d="M290.88,184.482l-.258-.612c.861-2,.861-2.059.655-2.231l-1.128-1.094-.112.241h-.129c-.069-.336-.276-.336-1.99.439l-.629-.258c-.81-2.016-.861-2.016-1.137-1.9h-1.585c-.241-.112-.336-.112-1.085,1.912l-.629.258a10.338,10.338,0,0,0-2.024-.741h-.146l-1.215,1.189c-.181.172-.25.233.689,2.2l-.258.6c-2.067.8-2.2,1.12-2.2,1.12v1.559s.129.336,2.205,1.077l.25.6c-.861,1.99-.818,2.05-.646,2.223l1.128,1.1.112-.19h.129c.069.293.267.293,1.981-.491l.629.258c.861,2.016.9,2.016,1.146,1.955h1.585c.241.06.327.06,1.085-1.964l.637-.258a10.6,10.6,0,0,0,2.007.741h.155l1.223-1.189c.172-.181.233-.241-.7-2.2l.258-.6a7.329,7.329,0,0,0,2.317-1.12V185.55s-.25-.336-2.326-1.068Zm-5.487,4.471a2.584,2.584,0,1,1,1.867-.735A2.584,2.584,0,0,1,285.393,188.953Z" transform="translate(-65.872 23.323)" fill="#4f4f4f"/>
        <path id="Trazado_64832" data-name="Trazado 64832" d="M272.929,244.677l-.258-.612c.861-1.99.818-2.05.655-2.223l-1.128-1.111-.112.052h-.129c-.069-.146-.276-.146-1.99.629l-.629-.25c-.818-2.024-.861-2.024-1.137-2.1h-1.594c-.233.078-.327.078-1.085,2.111l-.629.25a10.888,10.888,0,0,0-2.016-.732h-.155l-1.206,1.189c-.19.172-.25.241.681,2.2l-.258.612c-2.059.8-2.2,1.12-2.2,1.12v1.559s.138.327,2.205,1.068l.258.612c-.861,1.99-.861,2.05-.655,2.223l1.129,1.1.112-.388h.129c.069.482.276.482,1.99-.293l.629.25c.818,2.024.861,2.024,1.137,1.723h1.594c.241.258.327.258,1.085-1.723l.629-.258a10.561,10.561,0,0,0,2.016.741h.155l1.215-1.2c.172-.172.241-.233-.689-2.188l.258-.612a7.03,7.03,0,0,0,2.309-1.12v-1.559s-.25-.327-2.317-1.068Zm-5.487,4.479a2.584,2.584,0,1,1,1.861-.738,2.584,2.584,0,0,1-1.861.738Z" transform="translate(-63.383 15.005)" fill="#4f4f4f"/>
        <path id="Trazado_64833" data-name="Trazado 64833" d="M302.336,280.436l-.258-.612c.861-1.99.818-2.05.655-2.223l-1.128-1.1-.112.284h-.138c-.06-.379-.267-.379-1.981.4l-.629-.25c-.861-2.024-.9-2.024-1.137-1.869h-1.594c-.233-.155-.327-.155-1.085,1.878l-.629.25a10.89,10.89,0,0,0-2.016-.732h-.155l-1.206,1.189c-.19.172-.25.233.681,2.2l-.258.612a20.507,20.507,0,0,0-2.584,1.12v1.559a17.982,17.982,0,0,0,2.584,1.068l.258.612c-.861,1.99-.861,2.05-.655,2.223l1.128,1.1.112-.155h.129c.069.25.276.25,1.99-.525l.629.25c.81,2.024.861,2.024,1.137,2h1.585c.25,0,.336,0,1.094-2l.629-.258a10.2,10.2,0,0,0,2.016.732h.155l1.215-1.2c.172-.172.241-.233-.689-2.188l.25-.612c2.067-.8,1.912-1.12,1.912-1.12V281.5s.155-.327-1.912-1.068Zm-5.5,4.471a2.584,2.584,0,1,1,1.867-.735A2.584,2.584,0,0,1,296.84,284.907Z" transform="translate(-67.404 10.025)" fill="#4f4f4f"/>
        <path id="Trazado_64834" data-name="Trazado 64834" d="M350.23,288.962l-.258-.612c.861-1.99.818-2.05.655-2.223l-1.128-1.1-.112-.233h-.129c-.069.138-.276.138-1.99.913l-.629-.25a9.1,9.1,0,0,0-1.137-2.386h-1.594a8.289,8.289,0,0,0-1.085,2.395l-.629.25a10.89,10.89,0,0,0-2.016-.732h-.155l-1.206,1.189c-.19.172-.25.241.681,2.2l-.258.612a14.313,14.313,0,0,0-2.5,1.12v1.525a12.258,12.258,0,0,0,2.507,1.068l.258.612c-.861,1.99-.861,2.05-.655,2.223l1.128,1.1.112.19h.129c.069-.095.276-.095,1.99-.861l.629.25c.818,2.024.861,2.024,1.137,2.343h1.6c.241-.319.327-.319,1.085-2.343l.629-.258a10.561,10.561,0,0,0,2.016.741h.155l1.215-1.2c.172-.172.241-.233-.689-2.188l.258-.612c2.059-.793,2.007-1.12,2.007-1.12v-1.559s.052-.327-2.016-1.068Zm-5.487,4.48a2.584,2.584,0,1,1,1.86-.738A2.584,2.584,0,0,1,344.743,293.442Z" transform="translate(-74.052 8.907)" fill="#4f4f4f"/>
        <path id="Trazado_64835" data-name="Trazado 64835" d="M275.983,311.889l-.25-.612c.861-1.99.818-2.05.646-2.231l-1.128-1.094-.112-.155h-.112c-.069.06-.276.06-1.981.861l-.637-.25c-.81-2.024-.861-2.024-1.137-2.309h-1.585c-.241.284-.327.284-1.085,2.309l-.629.258a10.563,10.563,0,0,0-2.016-.741H265.8l-1.215,1.189c-.181.172-.241.233.689,2.2l-.258.612c-2.059.793-2.257,1.111-2.257,1.111v1.559s.2.336,2.266,1.077l.258.6c-.861,2-.861,2.059-.655,2.223l1.128,1.1.112.276H266c.069-.172.267-.172,1.99-.956l.629.258a10.871,10.871,0,0,0,1.137,2.421h1.585a9,9,0,0,0,1.085-2.429l.637-.258a10.56,10.56,0,0,0,2.016.741h.146l1.223-1.2c.172-.181.233-.241-.689-2.2l.25-.6c2.067-.8,2.257-1.12,2.257-1.12v-1.559s-.19-.327-2.266-1.068Zm-5.487,4.462a2.584,2.584,0,1,1,1.867-.735A2.584,2.584,0,0,1,270.5,316.351Z" transform="translate(-63.802 5.716)" fill="#4f4f4f"/>
        <path id="Trazado_64836" data-name="Trazado 64836" d="M373.859,127.428l-.276-.7c.956-2.3.861-2.369.706-2.584l-1.223-1.266-.121-.112h-.138a7.459,7.459,0,0,0-2.154.861l-.681-.293c-.861-2.326-.973-2.326-1.232-2.326h-1.723c-.258,0-.353,0-1.172,2.335l-.681.293a10.941,10.941,0,0,0-2.188-.861h-.164l-1.309,1.361c-.2.2-.267.276.741,2.533l-.276.7c-2.231.922-2.231,1.008-2.231,1.292v1.094c0,.284,0,.379,2.24,1.232l.276.706c-.956,2.291-.861,2.36-.706,2.584l1.223,1.275.121.1h.138a7.589,7.589,0,0,0,2.154-.861l.681.293c.861,2.326.973,2.326,1.232,2.326h1.723c.267,0,.362,0,1.18-2.326l.681-.3a10.881,10.881,0,0,0,2.188.861h.164l1.318-1.378c.19-.2.258-.267-.749-2.515l.276-.706c2.24-.922,2.24-1.016,2.24-1.292V128.66c0-.284,0-.379-2.248-1.232Zm-5.789,4.859a2.817,2.817,0,1,1,2.005-.8A2.791,2.791,0,0,1,368.07,132.286Z" transform="translate(-77.239 31.362)" fill="#4f4f4f"/>
        <path id="Trazado_64837" data-name="Trazado 64837" d="M354.888,102.619l-.129-.3c.439-.991.4-1.017.319-1.1l-.551-.543-.06.241h-.06c0-.293-.138-.293-.982.095l-.31-.129c-.4-.991-.448-.991-.56-.861h-.793c-.112-.164-.164-.164-.534.861l-.31.121a4.972,4.972,0,0,0-1-.362h-.1l-.6.594c-.086.086-.121.112.336,1.085l-.121.3c-1.025.388-.732.551-.732.551v.767s-.293.164.732.534l.129.293c-.439.991-.4,1.017-.327,1.1l.56.543.06-.336h.06c0,.388.138.388.982,0l.31.129c.4.991.448.991.56.732h.784c.121.258.164.258.543-.741l.31-.121a4.972,4.972,0,0,0,1,.362h.069l.6-.594c.086-.086.121-.112-.336-1.085l.121-.293c1.025-.4,1.594-.56,1.594-.56v-.767s-.569-.164-1.594-.525Zm-2.714,2.205a1.284,1.284,0,1,1,1.309-1.284A1.3,1.3,0,0,1,352.174,104.824Z" transform="translate(-75.703 34.281)" fill="#4f4f4f"/>
        <path id="Trazado_64838" data-name="Trazado 64838" d="M279.987,216.025l-.129-.3c.439-.982.414-1.016.327-1.1l-.56-.543-.052-.146H279.5c0,.1-.129.1-.982.482l-.31-.121a7.433,7.433,0,0,0-.56-1.223h-.784a5.816,5.816,0,0,0-.534,1.223l-.319.129a5.168,5.168,0,0,0-.991-.362h-.078l-.594.586c-.095.086-.129.121.336,1.085l-.129.3c-1.017.4-.861.551-.861.551v.775s-.155.164.861.525l.129.3c-.431.982-.4,1.016-.319,1.094l.551.551.06.129h.06c0-.086.138-.086.982-.465l.31.121a5.728,5.728,0,0,0,.569,1.206h.784a4.91,4.91,0,0,0,.534-1.206l.31-.129a5.4,5.4,0,0,0,1,.362h.078l.6-.586c.086-.086.112-.121-.345-1.085l.129-.3c1.016-.4,1.456-.551,1.456-.551v-.775l-1.464-.525Zm-2.714,2.214a1.292,1.292,0,1,1,.922-.369A1.284,1.284,0,0,1,277.274,218.239Z" transform="translate(-65.316 18.606)" fill="#4f4f4f"/>
        <path id="Trazado_64839" data-name="Trazado 64839" d="M284.321,256.008l-.129-.3c.439-.982.4-1.008.319-1.094l-.551-.543-.06-.138h-.06c0,.086-.138.086-.982.474l-.31-.129a6.721,6.721,0,0,0-.56-1.206h-.793a5.325,5.325,0,0,0-.534,1.215l-.31.121a4.972,4.972,0,0,0-1-.362h-.069l-.6.586c-.086.086-.121.121.336,1.085l-.121.3a3.841,3.841,0,0,0-1.154.551v.775a3.36,3.36,0,0,0,1.154.525l.129.3c-.439.982-.4,1.017-.327,1.1l.56.543.06.146h.06c0-.095.138-.095.982-.482l.31.129a8.611,8.611,0,0,0,.56,1.215h.784a6.032,6.032,0,0,0,.543-1.223l.31-.129a4.7,4.7,0,0,0,1,.37h.069l.6-.594c.086-.086.121-.121-.336-1.085l.121-.3a3.946,3.946,0,0,0,1.172-.551v-.767a3.8,3.8,0,0,0-1.172-.534Zm-2.714,2.214a1.284,1.284,0,1,1,1.309-1.284A1.3,1.3,0,0,1,281.608,258.221Z" transform="translate(-65.877 13.063)" fill="#4f4f4f"/>
        <path id="Trazado_64840" data-name="Trazado 64840" d="M251.675,244.577l-.129-.3c.439-.982.4-1.016.327-1.1l-.56-.543-.052.293h-.069c0-.336-.138-.336-.982.043l-.31-.121c-.4-1-.448-1-.56-.784h-.784c-.121-.215-.164-.215-.543.784l-.31.129a4.971,4.971,0,0,0-1-.362h-.069l-.6.586c-.086.086-.121.112.345,1.085l-.129.3c-1.016.4-1.508.551-1.508.551v.767s.491.164,1.508.534l.129.3c-.439.982-.4,1.016-.319,1.094l.551.551.06-.293h.06c0,.336.138.336.982-.052l.31.129c.4,1,.448,1,.56.784h.793c.121.215.164.215.534-.784l.31-.129a4.97,4.97,0,0,0,1,.362h.069l.6-.594c.086-.086.121-.112-.336-1.077l.121-.3c1.025-.4.861-.551.861-.551V245.1s.207-.164-.861-.525Zm-2.714,2.214a1.292,1.292,0,1,1,.922-.369,1.284,1.284,0,0,1-.922.369Z" transform="translate(-61.305 14.605)" fill="#4f4f4f"/>
        <path id="Trazado_64841" data-name="Trazado 64841" d="M348.14,190.163l-.121-.3c.431-.991.4-1.016.319-1.1l-.56-.543-.052-.284h-.069c0,.233-.129.233-.982.62l-.31-.129c-.4-1-.439-1-.56-1.352h-.784c-.121.353-.164.353-.534,1.361l-.31.121a5.4,5.4,0,0,0-1-.362H343.1l-.594.586c-.095.086-.129.121.336,1.085l-.129.3c-1.017.4-.973.56-.973.56v.767s-.043.164.982.534l.121.293c-.431.991-.4,1.016-.319,1.1l.56.543h.121c0,.052.129.052.982-.336l.31.129c.4.991.439.991.56,1.068h.784c.121-.078.164-.078.534-1.077l.319-.121a5.168,5.168,0,0,0,.991.362h.077l.6-.594c.086-.086.112-.112-.345-1.085l.129-.293c1.016-.4,1.344-.56,1.344-.56v-.767a14.131,14.131,0,0,0-1.353-.525Zm-2.731,2.205a1.284,1.284,0,1,1,1.3-1.284,1.3,1.3,0,0,1-1.3,1.284Z" transform="translate(-74.745 22.208)" fill="#4f4f4f"/>
        <path id="Trazado_64842" data-name="Trazado 64842" d="M327.3,174.982l-.129-.3c.439-.982.414-1.008.327-1.094l-.56-.543-.052-.112h-.069c0,.06-.129.06-.982.448l-.31-.129a4.6,4.6,0,0,0-.56-1.18h-.784a3.9,3.9,0,0,0-.534,1.18l-.319.129a5.166,5.166,0,0,0-.991-.362h-.078l-.594.586c-.095.086-.129.121.336,1.085l-.129.3c-1.016.4-1.128.551-1.128.551v.775s.112.164,1.128.525l.129.3c-.431.982-.4,1.016-.319,1.1l.551.543.06.172h.06c0-.129.138-.129.982-.508l.31.121a9.83,9.83,0,0,0,.569,1.249H325a7.705,7.705,0,0,0,.534-1.249l.31-.129a5.831,5.831,0,0,0,1,.37h.078l.6-.586c.086-.086.112-.121-.345-1.085l.129-.3a5.169,5.169,0,0,0,1.189-.551v-.767a4.463,4.463,0,0,0-1.2-.534Zm-2.714,2.2a1.292,1.292,0,1,1,.922-.369,1.284,1.284,0,0,1-.922.369Z" transform="translate(-71.835 24.287)" fill="#4f4f4f"/>
        <path id="Trazado_64843" data-name="Trazado 64843" d="M357,277.631l-.129-.3c.439-.982.414-1.008.327-1.094l-.56-.543-.052.224h-.069c0-.276-.129-.276-.982.112l-.31-.129c-.4-1-.439-1-.56-.861h-.784c-.121-.155-.164-.155-.543.861l-.31.121a5.171,5.171,0,0,0-.991-.362h-.078l-.6.586c-.086.086-.121.121.345,1.085l-.129.3c-1.017.4-.784.551-.784.551v.775s-.233.164.784.525l.129.3c-.431.982-.4,1.017-.319,1.1l.551.543.06-.353h.06c0,.4.138.4.982,0l.31.121c.4,1,.448,1,.569.724h.784c.121.276.164.276.534-.724l.31-.129a5.564,5.564,0,0,0,1,.37h.078l.6-.594c.086-.086.112-.121-.345-1.085l.129-.3c1.016-.388,1.533-.551,1.533-.551v-.767s-.517-.164-1.542-.534Zm-2.714,2.214a1.292,1.292,0,1,1,.922-.369,1.284,1.284,0,0,1-.922.369Z" transform="translate(-75.995 10.03)" fill="#4f4f4f"/>
        <path id="Trazado_64844" data-name="Trazado 64844" d="M345.588,304.868l-.129-.3c.439-.982.4-1.016.327-1.1l-.56-.543h-.121c0-.052-.138-.052-.982.327l-.31-.121c-.4-1-.448-1-.56-1.068h-.784c-.121.069-.164.069-.543,1.068l-.31.129a4.972,4.972,0,0,0-1-.362h-.069l-.6.586c-.086.086-.121.121.345,1.085l-.129.3-1.421.551v.775s.4.164,1.421.525l.129.3c-.439.982-.4,1.016-.319,1.094l.551.551.06.284h.1c0-.241.138-.241.982-.629l.31.129c.4,1,.448,1,.56,1.361h.732c.121-.362.155-.362.534-1.361l.31-.129a4.972,4.972,0,0,0,1,.362h.069l.6-.586c.086-.086.121-.121-.336-1.085l.121-.3c1.025-.4.9-.551.9-.551v-.775s.121-.164-.9-.525Zm-2.714,2.214a1.284,1.284,0,1,1,1.309-1.284A1.3,1.3,0,0,1,342.875,307.082Z" transform="translate(-74.329 6.275)" fill="#4f4f4f"/>
        <path id="Trazado_64845" data-name="Trazado 64845" d="M327.3,288.756l-.129-.3c.439-.982.414-1.008.327-1.094l-.56-.543-.052.112h-.069c0-.164-.129-.164-.982.224l-.31-.129c-.4-1-.439-1-.56-.956h-.784c-.121-.043-.164-.043-.534.965l-.319.121a5.164,5.164,0,0,0-.991-.362h-.078l-.594.586c-.095.086-.129.121.336,1.085l-.129.3c-1.016.4-1.128.551-1.128.551v.775s.112.164,1.128.525l.129.3c-.431.982-.4,1.017-.319,1.1l.551.543.06.4h.06c0-.353.138-.353.982-.732l.31.121a10.1,10.1,0,0,1,.569,1.473H325a13.582,13.582,0,0,1,.534-1.473l.31-.129a5.828,5.828,0,0,0,1,.37h.078l.6-.594c.086-.086.112-.121-.345-1.085l.129-.3a4.66,4.66,0,0,0,1.189-.551v-.767a4.462,4.462,0,0,0-1.2-.534Zm-2.714,2.214a1.292,1.292,0,1,1,.922-.369,1.284,1.284,0,0,1-.922.369Z" transform="translate(-71.835 8.493)" fill="#4f4f4f"/>
        <path id="Trazado_64846" data-name="Trazado 64846" d="M282.566,329.683l-.129-.3c.439-.982.4-1.016.319-1.1l-.551-.543-.06.19h-.06c0-.233-.138-.233-.982.146l-.31-.121c-.4-1-.448-1-.56-.861H279.4c-.112-.112-.164-.112-.534.861l-.31.129a5.325,5.325,0,0,0-1-.37h-.069l-.6.586c-.086.086-.121.112.336,1.085l-.121.3c-1.025.388-1.4.551-1.4.551V331s.379.164,1.4.534l.129.3c-.439.982-.4,1.008-.327,1.094l.56.543.052-.388h.069c0,.439.138.439.982.052l.31.129c.4,1,.448,1,.56.681h.827c.121.319.164.319.543-.681l.31-.129a4.97,4.97,0,0,0,1,.362h.069l.6-.594c.086-.086.121-.112-.336-1.077l.121-.3c1.025-.4.922-.551.922-.551V330.2s.1-.164-.922-.525Zm-2.714,2.205a1.284,1.284,0,1,1,1.309-1.275,1.284,1.284,0,0,1-1.309,1.275Z" transform="translate(-65.595 2.816)" fill="#4f4f4f"/>
        <path id="Trazado_64847" data-name="Trazado 64847" d="M245.067,314.918l-.129-.3c.439-.982.4-1.016.327-1.094l-.56-.551h-.121a4.24,4.24,0,0,0-.982.379l-.31-.129c-.4-1-.448-1-.56-1.111h-.784c-.121.112-.164.112-.543,1.111l-.31.129a4.974,4.974,0,0,0-1-.362h-.069l-.6.586c-.086.086-.121.121.345,1.085l-.129.3c-1.025.4-.861.551-.861.551v.775s-.129.164.861.525l.129.3c-.439.982-.4,1.017-.319,1.1l.551.543.06.241h.06c0-.2.138-.2.982-.577l.31.121c.4,1,.448,1,.56,1.318h.793c.121-.319.155-.319.534-1.318l.31-.129a5.323,5.323,0,0,0,1,.37h.069l.6-.586c.086-.086.121-.121-.336-1.085l.121-.3,1.43-.551v-.8s-.4-.164-1.43-.534Zm-2.714,2.214a1.292,1.292,0,1,1,.922-.369,1.284,1.284,0,0,1-.922.369Z" transform="translate(-60.477 4.883)" fill="#4f4f4f"/>
        <path id="Trazado_64848" data-name="Trazado 64848" d="M242.057,253.518l-.121-.293c.431-.991.4-1.016.319-1.1l-.56-.543-.052.327h-.069c0-.379-.129-.379-.982,0l-.31-.129c-.4-1-.439-1-.56-.741h-.784c-.121-.258-.164-.258-.534.749l-.31.121a5.4,5.4,0,0,0-1-.362h-.078l-.594.586c-.095.086-.129.121.336,1.085l-.129.3c-1.017.4-.861.56-.861.56v.767s-.129.164.861.525l.121.3c-.431.991-.4,1.016-.319,1.1l.56.543.052-.25h.069c0,.3.129.3.973-.086l.31.129c.4.991.448.991.569.818h.784c.121.172.164.172.534-.861l.319-.121a5.168,5.168,0,0,0,.991.362h.078l.6-.594c.086-.086.112-.121-.345-1.085l.129-.3,1.43-.551v-.767s-.413-.164-1.439-.534Zm-2.714,2.214a1.292,1.292,0,1,1,.922-.369,1.284,1.284,0,0,1-.922.369Z" transform="translate(-60.061 13.365)" fill="#4f4f4f"/>
        <path id="Trazado_64849" data-name="Trazado 64849" d="M211.278,249.2l-.129-.3c.439-.991.4-1.016.319-1.1l-.551-.543-.06-.319h-.06c0,.267-.138.267-.982.655l-.31-.129c-.4-1-.448-1-.56-1.387h-.793c-.112.388-.164.388-.534,1.4l-.31.121a4.972,4.972,0,0,0-1-.362h-.069l-.6.586c-.086.086-.121.121.336,1.085l-.121.3c-1.025.4-1.111.56-1.111.56v.767s.086.164,1.111.525l.129.3c-.439.991-.4,1.016-.327,1.1l.56.543h.121c0,.086.129.086.982-.3l.31.129c.4.991.448.991.56,1.034h.784c.121,0,.164,0,.543-1.042l.31-.121a4.971,4.971,0,0,0,1,.362h.069l.6-.594c.086-.086.121-.112-.336-1.085l.121-.3a5.247,5.247,0,0,0,1.215-.551v-.767a4.876,4.876,0,0,0-1.215-.525Zm-2.714,2.205a1.292,1.292,0,1,1,1.292-1.292A1.292,1.292,0,0,1,208.565,251.4Z" transform="translate(-55.762 14.033)" fill="#4f4f4f"/>
        <path id="Trazado_64850" data-name="Trazado 64850" d="M217.235,240.231l-.121-.3c.431-.982.4-1.016.319-1.1l-.56-.543-.052-.353h-.069c0,.31-.129.31-.982.689l-.31-.121a14.42,14.42,0,0,1-.56-1.43h-.784c-.121.431-.164.431-.534,1.43l-.31.129a5.4,5.4,0,0,0-1-.362H212.2l-.594.586c-.095.086-.129.112.336,1.085l-.129.3c-1.016.4-1.068.551-1.068.551v.767s.052.164,1.077.534l.121.3c-.431.982-.4,1.016-.319,1.094l.56.551.052-.078h.069c0,.121.129.121.973-.267l.319.129c.4,1,.439,1,.56,1h.784c.121,0,.164,0,.534-1l.319-.129a5.165,5.165,0,0,0,.991.362h.078l.6-.586c.086-.095.112-.121-.345-1.085l.129-.3a8.339,8.339,0,0,0,1.249-.551v-.775a6.519,6.519,0,0,0-1.258-.525Zm-2.7,2.214a1.284,1.284,0,1,1,1.3-1.284A1.3,1.3,0,0,1,214.53,242.445Z" transform="translate(-56.594 15.28)" fill="#4f4f4f"/>
        <path id="Trazado_64851" data-name="Trazado 64851" d="M189.416,178.568l-.129-.3c.439-.982.413-1.016.327-1.1l-.56-.543-.052.258h-.069c0-.3-.138-.3-.982.078l-.31-.121c-.4-1-.439-1-.56-.861H186.3c-.121-.181-.164-.181-.543.861l-.31.129a5.168,5.168,0,0,0-.991-.362h-.078l-.6.586c-.086.086-.121.112.345,1.085l-.129.3a8.34,8.34,0,0,0-1.249.551v.767a6.738,6.738,0,0,0,1.249.534l.129.3c-.439.982-.4,1.017-.319,1.094l.551.551.06-.327h.06c0,.37.138.37.982,0l.31.129c.4,1,.448,1,.569.749h.784c.121.25.164.25.534-.749l.31-.129a5.169,5.169,0,0,0,1,.362h.078l.6-.594c.086-.086.112-.112-.345-1.077l.121-.3c1.025-.4,1.077-.551,1.077-.551v-.775s-.052-.164-1.077-.525Zm-2.714,2.214a1.292,1.292,0,1,1,.922-.369A1.284,1.284,0,0,1,186.7,180.782Z" transform="translate(-52.714 23.758)" fill="#4f4f4f"/>
        <path id="Trazado_64852" data-name="Trazado 64852" d="M192.521,166.576l-.121-.3c.431-.982.4-1.008.319-1.094l-.56-.543-.052.319h-.06c0-.37-.138-.37-.982,0l-.319-.129c-.4-1-.439-1-.56-.749h-.775c-.121-.25-.164-.25-.534.758l-.31.121a5.4,5.4,0,0,0-1-.362h-.078l-.594.586c-.095.086-.121.121.336,1.085l-.129.3c-1.016.4-1.352.551-1.352.551v.775s.336.164,1.361.525l.121.3c-.431.982-.4,1.016-.319,1.1l.56.543.052-.258h.069c0,.3.129.3.982-.078l.31.121c.4,1,.439,1,.56.818h.784c.121.181.164.181.534-.818l.319-.129a5.615,5.615,0,0,0,.991.37h.078l.6-.586c.086-.086.112-.121-.345-1.085l.129-.3c1.016-.4.965-.551.965-.551V167.1s.052-.164-.973-.534Zm-2.7,2.214a1.284,1.284,0,1,1,1.318-1.352,1.3,1.3,0,0,1-1.3,1.284Z" transform="translate(-53.131 25.413)" fill="#4f4f4f"/>
        <path id="Trazado_64853" data-name="Trazado 64853" d="M203.244,134.283l-.129-.3c.431-.982.4-1.016.319-1.1l-.551-.543-.06-1.266h-.06c0,1.223-.138,1.223-.982,1.6l-.31-.121c-.4-1-.448-1-.569-.62h-.784c-.121-.379-.164-.379-.534.62l-.31.129a5.4,5.4,0,0,0-1-.362H198.2l-.594.586c-.095.086-.121.121.336,1.085l-.129.3c-1.017.4-1.068.551-1.068.551v.775s.052.164,1.077.525l.129.3c-.439.982-.413,1.016-.327,1.094l.56.551.052-.129h.069c0,.172.129.172.982-.207l.31.121c.4,1,.439,1,.56.948h.784c.121.052.164.052.534-.948l.319-.129a5.169,5.169,0,0,0,.991.362h.078l.6-.586c.086-.086.112-.121-.345-1.085l.129-.3a8.34,8.34,0,0,0,1.249-.551v-.775a6.529,6.529,0,0,0-1.249-.525ZM200.53,136.5a1.284,1.284,0,1,1,1.3-1.284,1.3,1.3,0,0,1-1.3,1.284Z" transform="translate(-54.654 29.968)" fill="#4f4f4f"/>
        <path id="Trazado_64854" data-name="Trazado 64854" d="M234.132,101.2l-.129-.3c.439-.991.4-1.017.327-1.1l-.56-.543-.052-.319h-.069c0,.276-.138.276-.982.655l-.31-.121a14.179,14.179,0,0,1-.56-1.4h-.784c-.121.4-.164.4-.543,1.4l-.31.129a5.326,5.326,0,0,0-1-.37h-.069l-.6.586c-.086.086-.121.112.345,1.085l-.129.3c-1.016.388-.965.551-.965.551v.767s-.052.164.965.534l.129.3c-.439.982-.4,1.008-.319,1.094l.551.543h.121c0,.086.138.086.982-.3l.31.129c.4,1,.448,1,.56,1.034h.793c.121,0,.155,0,.534-1.034l.31-.129a4.971,4.971,0,0,0,1,.362h.069l.6-.594c.086-.086.121-.112-.336-1.077l.121-.3c1.025-.4,1.361-.56,1.361-.56v-.767s-.336-.164-1.361-.525ZM231.41,103.4a1.284,1.284,0,1,1,1.309-1.275,1.284,1.284,0,0,1-1.309,1.275Z" transform="translate(-58.949 34.54)" fill="#4f4f4f"/>
        <path id="Trazado_64855" data-name="Trazado 64855" d="M284.321,82.693l-.129-.3c.439-.991.4-1.016.319-1.1l-.551-.543-.06.181h-.06c0-.224-.138-.224-.982.155l-.31-.121c-.4-1-.448-1-.56-.861h-.793c-.112-.1-.164-.1-.534.861l-.31.129a5.325,5.325,0,0,0-1-.37h-.069l-.6.586c-.086.086-.121.112.336,1.085l-.121.3a3.54,3.54,0,0,0-1.154.551v.767a3.446,3.446,0,0,0,1.154.534l.129.3c-.439.982-.4,1.008-.327,1.094l.56.543.06-.4h.06c0,.448.138.448.982.06l.31.129c.4,1,.448,1,.56.672h.784c.121.327.164.327.543-.681l.31-.121a4.97,4.97,0,0,0,1,.362h.069l.6-.594c.086-.086.121-.112-.336-1.077l.121-.3a4.023,4.023,0,0,0,1.172-.56v-.767a3.721,3.721,0,0,0-1.172-.525ZM281.608,84.9a1.284,1.284,0,1,1,1.309-1.275,1.284,1.284,0,0,1-1.309,1.275Z" transform="translate(-65.877 37.039)" fill="#4f4f4f"/>
        <path id="Trazado_64856" data-name="Trazado 64856" d="M280.771,342.615l-.181-.414c.6-1.361.56-1.4.448-1.516l-.767-.749h-.164c-.052-.043-.19-.043-1.352.482l-.431-.172c-.551-1.378-.612-1.378-.775-1.172h-1.077c-.164-.207-.224-.207-.741,1.172l-.431.181a7.25,7.25,0,0,0-1.37-.508h-.1l-.861.81c-.121.112-.164.155.474,1.49l-.181.414c-1.4.543-1.559.758-1.559.758v1.068s.155.224,1.568.724l.172.413c-.6,1.361-.56,1.4-.439,1.516l.767.749.069-.181h.095c.043.241.181.241,1.352-.284l.422.172c.56,1.378.612,1.378.775.973h1.085c.164.4.224.4.741-.973l.422-.181a7.494,7.494,0,0,0,1.37.508h.1l.861-.81c.121-.121.155-.164-.474-1.49l.172-.414c1.4-.543,1.3-.767,1.3-.767V343.3s.1-.224-1.3-.724Zm-3.739,3.041a1.723,1.723,0,1,1,1.8-1.766A1.783,1.783,0,0,1,277.032,345.655Z" transform="translate(-65.04 1.161)" fill="#4f4f4f"/>
        <path id="Trazado_64857" data-name="Trazado 64857" d="M254.859,96.428l-.276-.7c.956-2.3.861-2.369.706-2.584l-1.223-1.266-.121-.112h-.138a7.46,7.46,0,0,0-2.154.861l-.681-.293c-.861-2.326-.973-2.326-1.232-2.326h-1.723c-.258,0-.353,0-1.172,2.335l-.681.293a10.941,10.941,0,0,0-2.188-.861h-.164l-1.309,1.361c-.2.2-.267.276.741,2.533l-.276.7c-2.231.922-2.231,1.008-2.231,1.292v1.094c0,.284,0,.379,2.24,1.232l.276.706c-.956,2.291-.861,2.36-.706,2.584l1.223,1.275.121.1h.138a7.589,7.589,0,0,0,2.154-.861l.681.293c.861,2.326.973,2.326,1.232,2.326h1.723c.267,0,.362,0,1.18-2.326l.681-.3a10.88,10.88,0,0,0,2.188.861h.164l1.318-1.378c.19-.2.258-.267-.749-2.515l.276-.706c2.24-.922,2.24-1.016,2.24-1.292V97.66c0-.284,0-.379-2.248-1.232Zm-6.314,4.876a2.8,2.8,0,1,1,2.843-2.8A2.8,2.8,0,0,1,248.545,101.3Z" transform="translate(-60.751 35.657)" fill="#4f4f4f"/>
        <path id="Trazado_64858" data-name="Trazado 64858" d="M228.859,257.428l-.276-.7c.956-2.3.861-2.369.706-2.584l-1.223-1.266-.121-.112h-.138a7.46,7.46,0,0,0-2.154.861l-.681-.293c-.861-2.326-.973-2.326-1.232-2.326h-1.723c-.258,0-.353,0-1.172,2.335l-.681.293a10.942,10.942,0,0,0-2.188-.861h-.164l-1.309,1.361c-.2.2-.267.276.741,2.533l-.276.7c-2.231.922-2.231,1.008-2.231,1.292v.233c0,.284,0,.379,2.24,1.232l.276.706c-.956,2.291-.861,2.36-.706,2.584l1.223,1.275.121.1h.138a7.591,7.591,0,0,0,2.154-.861l.681.293c.861,2.326.973,2.326,1.232,2.326h1.723c.267,0,.362,0,1.18-2.326l.681-.3a10.882,10.882,0,0,0,2.188.861h.164l1.318-1.378c.19-.2.258-.267-.749-2.515l.276-.706c2.24-.922,2.24-1.017,2.24-1.292v-.233c0-.284,0-.379-2.248-1.232Zm-5.634,4.161a2.817,2.817,0,1,0,0-.034Z" transform="translate(-57.148 13.349)" fill="#4f4f4f"/>
        <path id="Trazado_64859" data-name="Trazado 64859" d="M205.859,149.428l-.276-.7c.956-2.3.861-2.369.706-2.584l-1.223-1.266-.121-.112h-.138a7.459,7.459,0,0,0-2.154.861l-.681-.293c-.861-2.326-.973-2.326-1.232-2.326h-1.723c-.258,0-.353,0-1.172,2.335l-.681.293a10.941,10.941,0,0,0-2.188-.861h-.164l-1.309,1.361c-.2.2-.267.276.741,2.533l-.276.7c-2.231.922-2.231,1.008-2.231,1.292v1.094c0,.284,0,.379,2.24,1.232l.276.706c-.956,2.291-.861,2.36-.706,2.584l1.223,1.275.121.1h.138a7.589,7.589,0,0,0,2.154-.861l.681.293c.861,2.326.973,2.326,1.232,2.326h1.723c.267,0,.362,0,1.18-2.326l.681-.3a10.879,10.879,0,0,0,2.188.861h.164l1.318-1.378c.19-.2.258-.267-.749-2.524l.276-.7c2.24-.922,2.24-1.016,2.24-1.292V150.66c0-.284,0-.379-2.248-1.232Zm-6.03,4.617a2.791,2.791,0,1,1,2.843-2.791,2.791,2.791,0,0,1-2.843,2.791Z" transform="translate(-53.961 28.313)" fill="#4f4f4f"/>
        <path id="Trazado_64860" data-name="Trazado 64860" d="M322.231,377.329a4.738,4.738,0,1,0,.078-9.476h-.224v-3.446h.474a4.747,4.747,0,0,0,4.2-2.412,5.22,5.22,0,0,0-4.436-7.925h-4.471a13.478,13.478,0,0,1-1.783.861H254.626a13.477,13.477,0,0,1-1.783-.861h-4.4a4.833,4.833,0,0,0-4.307,2.472,5.212,5.212,0,0,0,4.462,7.865h.25v3.446H248.7a4.738,4.738,0,1,0-.086,9.476h.233v3.446H248.7a4.738,4.738,0,1,0-.086,9.476h.233v3.816a5.823,5.823,0,0,0,5.849,5.772s18.995,17.117,25.99,17.117h9.536c7,0,25.99-17.117,25.99-17.117a5.832,5.832,0,0,0,5.858-5.772V390.25h.146a4.738,4.738,0,0,0,.078-9.476h-.224v-3.446Z" transform="translate(-61.12 -0.931)" fill="#4f4f4f"/>
        <path id="Trazado_64868" data-name="Trazado 64868" d="M568.363,145.938l-.81.818-4.884-4.884.818-.81a2.3,2.3,0,0,1,3.248,0l1.628,1.628A2.3,2.3,0,0,1,568.363,145.938Zm-11.388,9.76a.573.573,0,1,0,.81.81l8.942-8.942-.81-.81Zm-4.066-4.066a.573.573,0,1,0,.81.81l8.95-8.942-.81-.81Zm10.57-7.322-8.942,8.95a1.146,1.146,0,1,0,1.62,1.62l8.95-8.942Zm-7.322,13.008a1.723,1.723,0,0,1-.457-.982,2.283,2.283,0,0,1-2.653-2.266,2.008,2.008,0,0,1,0-.327,1.723,1.723,0,0,1-.991-.482.524.524,0,0,1-.052-.095l-1.4,5.617,5.6-1.4-.078-.06Z" transform="translate(-103.685 28.676)" fill="#4f4f4f"/>
        <circle id="Elipse_1025" data-name="Elipse 1025" cx="17.229" cy="17.229" r="17.229" transform="translate(438.93 161.029)" fill="none" stroke="#6caed0" stroke-miterlimit="10" stroke-width="1"/>
        <path id="Trazado_64869" data-name="Trazado 64869" d="M55.25,28.07H46.282a1.542,1.542,0,0,0-1.542,1.542V48.064a1.542,1.542,0,0,0,1.542,1.542H55.3a1.542,1.542,0,0,0,1.542-1.542V29.638a1.568,1.568,0,0,0-1.551-1.568Zm-6.633.861h4.4c.112-.043.207.121.207.327a.93.93,0,0,1-.207.534h-4.4a.922.922,0,0,1-.2-.534c0-.207.086-.37.2-.37Zm2.205,18.685a.991.991,0,1,1,.973-.982.991.991,0,0,1-.973.982Zm5.117-3.179H46.463V30.654h9.476Z" transform="translate(-33.593 80.42)" fill="#4f4f4f"/>
        <circle id="Elipse_1026" data-name="Elipse 1026" cx="17.229" cy="17.229" r="17.229" transform="translate(0 100.013)" fill="none" stroke="#bad345" stroke-miterlimit="10" stroke-width="1"/>
        <line id="Línea_363" data-name="Línea 363" x1="118.879" y1="82.698" transform="translate(33.768 117.587)" fill="none" stroke="#bad345" stroke-miterlimit="10" stroke-width="1"/>
        <line id="Línea_366" data-name="Línea 366" x2="66.951" y2="25.137" transform="translate(373.426 146.445)" fill="none" stroke="#6caed0" stroke-miterlimit="10" stroke-width="1"/>
        <path id="Trazado_64879" data-name="Trazado 64879" d="M0,0" transform="translate(340.329 48.241)" fill="none" stroke="#f68839" stroke-width="1"/>
        <path id="Trazado_64880" data-name="Trazado 64880" d="M37.5,19.358-29.464,76.5" transform="translate(312.108 152.871)" fill="none" stroke="#6caed0" stroke-width="1"/>
        <circle id="Elipse_1028" data-name="Elipse 1028" cx="21.536" cy="21.536" r="21.536" transform="translate(64.427 125.581)" fill="#4f4f4f"/>
        <g id="Grupo_25639" data-name="Grupo 25639" transform="translate(74.032 136.056)" clip-path="url(#clip-path)">
          <path id="Trazado_64871" data-name="Trazado 64871" d="M130.986,90.24a10.337,10.337,0,0,0-8.494,4.419,5.083,5.083,0,0,1,1.128,1.051,8.881,8.881,0,0,1,6.3-3.885l1.068,1.8,1.06-1.8a8.873,8.873,0,0,1,7.753,7.753l-1.8,1.068,1.8,1.06a8.864,8.864,0,0,1-4.057,6.409,2.817,2.817,0,0,1,.233.982,2.671,2.671,0,0,1-.069.7,10.337,10.337,0,0,0-4.893-19.529Zm2.645,17.091c-2.395-1.921-3.058-.973-4.144.112-.758.758-2.679-.861-4.307-2.481s-3.239-3.575-2.481-4.307c1.085-1.085,2.024-1.723.1-4.152s-3.2-.551-4.256.5c-1.215,1.215-.06,5.737,4.411,10.208s8.993,5.617,10.208,4.4c1.051-1.051,2.886-2.334.491-4.256Zm-7.288-5.091c0-2.128,2.49-2.507,2.49-3.334a.56.56,0,0,0-.62-.569c-.543,0-.861.612-.861.612l-1.042-.706A2.205,2.205,0,0,1,128.35,97a1.792,1.792,0,0,1,1.964,1.723c0,1.8-2.317,2.145-2.36,3.385h2.765v.861h-4.307a7.28,7.28,0,0,1-.069-.775Zm4.368-1.783,2.421-3.446h1.887v3.446h.861v.861h-.861v1.723H133.3v-1.723h-2.584Zm2.584,0V99.035c.25-.31.293-.646.293-.3h0c0-.345-.121,0-.276.25l-.861,1.327v.146h.861Z" transform="translate(-117.789 -90.094)" fill="#f5f4f0"/>
        </g>
        <circle id="Elipse_1029" data-name="Elipse 1029" cx="21.536" cy="21.536" r="21.536" transform="translate(346.925 133.244)" fill="#4f4f4f"/>
        <g id="Grupo_25640" data-name="Grupo 25640" transform="translate(356.832 141.996)" clip-path="url(#clip-path-2)">
          <path id="Trazado_64872" data-name="Trazado 64872" d="M448.437,113.228a11.371,11.371,0,0,0,10.044-16.721h-.439L456.6,96.4l-1.042,1.042a8.408,8.408,0,1,1-2.714-2.7l.948-.948-.129-1.654a3.044,3.044,0,0,1,0-.4,11.38,11.38,0,1,0-5.22,21.484Z" transform="translate(-436.782 -88.401)" fill="#f5f4f0"/>
          <path id="Trazado_64873" data-name="Trazado 64873" d="M449.367,99.849h.224l2.128-2.093h0a5.6,5.6,0,1,0,2.705,2.7h-.043l-2.1,2.1a2.016,2.016,0,0,1,0,.224,2.938,2.938,0,1,1-2.938-2.938Z" transform="translate(-437.711 -89.339)" fill="#f5f4f0"/>
          <path id="Trazado_64874" data-name="Trazado 64874" d="M462,91.76l.681-.681a.792.792,0,0,0,0-1.111l-.474-.474a.793.793,0,0,0-1.1,0l-.775.775-.164-2.059a.262.262,0,0,0-.448-.164l-3.041,3.041a1.344,1.344,0,0,0-.388,1.042v.121l.146,1.9-1.1,1.094-1.973,1.981h-.052l-1.9,1.964-.861.861a.655.655,0,0,0-.19.422l-.052.663a.663.663,0,0,0,.663.715h.7a.663.663,0,0,0,.439-.19l5.978-5.978,1.723.129h.172a1.327,1.327,0,0,0,.939-.388l3.041-3.032a.267.267,0,0,0-.164-.457Z" transform="translate(-438.619 -88.056)" fill="#f5f4f0"/>
        </g>
        <circle id="Elipse_1030" data-name="Elipse 1030" cx="21.536" cy="21.536" r="21.536" transform="translate(209.485)" fill="#4f4f4f"/>
        <g id="Grupo_25641" data-name="Grupo 25641" transform="translate(219.616 9.398)">
          <path id="Trazado_64875" data-name="Trazado 64875" d="M448,350.033a1.3,1.3,0,0,0-1.292-1.292H427.324V329.332a1.292,1.292,0,0,0-2.584,0v19.6a2.4,2.4,0,0,0,2.395,2.395h19.572A1.292,1.292,0,0,0,448,350.033Z" transform="translate(-424.74 -328.04)" fill="#f5f4f0"/>
          <path id="Trazado_64876" data-name="Trazado 64876" d="M432.895,339.847l-4.307,5.565a.594.594,0,0,0,.1.861l.948.732a.594.594,0,0,0,.861-.1l3.687-4.747a1.172,1.172,0,0,1,.861-.457l4.083-.4a1.258,1.258,0,0,0,.81-.431l4.178-5.083,1.008.861a.594.594,0,0,0,.973-.439l.146-4.092a.6.6,0,0,0-.715-.612l-4.083.861a.6.6,0,0,0-.267,1.051l1.094.9-3.558,4.307a1.18,1.18,0,0,1-.81.431l-4.118.4a1.2,1.2,0,0,0-.861.457Z" transform="translate(-425.254 -328.519)" fill="#f5f4f0"/>
        </g>
        <line id="Línea_379" data-name="Línea 379" y1="26.705" transform="translate(229.315 45.226)" fill="none" stroke="#d35367" stroke-miterlimit="10" stroke-width="1"/>
      </g>
    </g>
    <text id="Novedosa_para:_Empresa_Mercado_nacional_Mercado_internacional_" data-name="Novedosa para:
●	Empresa
●	Mercado nacional
●	Mercado internacional
" transform="translate(971 1771)" fill="#6caed0" font-size="24" font-family="Arial-BoldMT, Arial" font-weight="700"><tspan x="0" y="22">Novedosa para:</tspan><tspan font-size="20"><tspan x="0" y="46">●	Empresa</tspan><tspan x="0" y="69">●	Mercado nacional</tspan><tspan x="0" y="92">●	Mercado internacional</tspan></tspan><tspan font-size="20" font-family="HelveticaNeue-Bold, Helvetica Neue"><tspan x="0" y="115"></tspan></tspan></text>
    <text id="Tipos_de_innovación._Radical_Incremental_" data-name="Tipos de innovación.
●	Radical 
●	Incremental
" transform="translate(239 1764)" fill="#bad345" font-size="24" font-family="Arial-BoldMT, Arial" font-weight="700"><tspan x="0" y="22">Tipos de innovación.</tspan><tspan font-size="20" font-family="ArialMT, Arial" font-weight="400"><tspan x="0" y="46">●	Radical </tspan><tspan x="0" y="69">●	Incremental</tspan></tspan><tspan font-size="20" font-family="HelveticaNeue, Helvetica Neue" font-weight="400"><tspan x="0" y="92"></tspan></tspan></text>
    <text id="Gestión_de_la_Innovación" data-name="Gestión de la Innovación" transform="translate(636 1700)" fill="#6200d5" font-size="24" font-family="Arial-BoldMT, Arial" font-weight="700"><tspan x="1.148" y="22">Gestión de la </tspan><tspan x="13.16" y="50">Innovación</tspan></text>
    <text id="Magnitud" transform="translate(660 1599)" fill="#f68839" font-size="24" font-family="Arial-BoldMT, Arial" font-weight="700"><tspan x="0" y="22">Magnitud</tspan></text>
  </g>
</svg>
