<svg id="Grupo_25603" data-name="Grupo 25603" xmlns="http://www.w3.org/2000/svg" xmlns:xlink="http://www.w3.org/1999/xlink" width="465.901" height="479.861" viewBox="0 0 465.901 479.861">
  <defs>
    <clipPath id="clip-path">
      <rect id="Rectángulo_25928" data-name="Rectángulo 25928" width="465.901" height="479.861" fill="none"/>
    </clipPath>
    <clipPath id="clip-path-3">
      <rect id="Rectángulo_25875" data-name="Rectángulo 25875" width="340.834" height="201.179" fill="none"/>
    </clipPath>
    <clipPath id="clip-path-4">
      <rect id="Rectángulo_25893" data-name="Rectángulo 25893" width="33.339" height="140.591" fill="none"/>
    </clipPath>
    <clipPath id="clip-path-5">
      <rect id="Rectángulo_25911" data-name="Rectángulo 25911" width="33.338" height="140.591" fill="none"/>
    </clipPath>
    <clipPath id="clip-path-6">
      <rect id="Rectángulo_25913" data-name="Rectángulo 25913" width="64.546" height="52.469" fill="none"/>
    </clipPath>
    <clipPath id="clip-path-7">
      <rect id="Rectángulo_25914" data-name="Rectángulo 25914" width="64.546" height="52.468" fill="none"/>
    </clipPath>
    <clipPath id="clip-path-8">
      <rect id="Rectángulo_25924" data-name="Rectángulo 25924" width="112.39" height="110.563" fill="none"/>
    </clipPath>
    <clipPath id="clip-path-9">
      <rect id="Rectángulo_25925" data-name="Rectángulo 25925" width="101.142" height="141.21" fill="none"/>
    </clipPath>
    <clipPath id="clip-path-10">
      <rect id="Rectángulo_25926" data-name="Rectángulo 25926" width="67.43" height="184.735" fill="none"/>
    </clipPath>
  </defs>
  <g id="Grupo_25602" data-name="Grupo 25602" clip-path="url(#clip-path)">
    <g id="Grupo_25601" data-name="Grupo 25601">
      <g id="Grupo_25600" data-name="Grupo 25600" clip-path="url(#clip-path)">
        <path id="Trazado_64700" data-name="Trazado 64700" d="M308.67,393.133c74.439-25.669,112.391-96.333,112.391-179.491,0-104.835-84.985-189.821-189.821-189.821S41.42,108.806,41.42,213.642c0,83.233,25.006,153.88,99.55,179.491Z" transform="translate(7.712 4.436)" fill="#e9eae9"/>
        <g id="Grupo_25578" data-name="Grupo 25578" transform="translate(76.029 196.114)" opacity="0.54">
          <g id="Grupo_25577" data-name="Grupo 25577">
            <g id="Grupo_25576" data-name="Grupo 25576" clip-path="url(#clip-path-3)">
              <path id="Trazado_64701" data-name="Trazado 64701" d="M64.094,304.573V263.825h40.548V226.546h34.77V192.127h33.476v81.854h34.235V165.329H243.64V273.981h17.5V183.771h34.236v90.211h18.258V192.8h26.628v42.154h21.3v48.433h19.781v21.189h23.584v61.935H64.094Z" transform="translate(-64.095 -165.329)" fill="#a2aba9"/>
            </g>
          </g>
        </g>
        <rect id="Rectángulo_25876" data-name="Rectángulo 25876" width="33.337" height="140.59" transform="translate(181.463 256.984)" fill="#6e7373"/>
        <rect id="Rectángulo_25877" data-name="Rectángulo 25877" width="9.459" height="10.633" transform="translate(187.157 276.359)" fill="#c9c9c9"/>
        <rect id="Rectángulo_25878" data-name="Rectángulo 25878" width="9.459" height="10.633" transform="translate(199.695 276.253)" fill="#c9c9c9"/>
        <rect id="Rectángulo_25879" data-name="Rectángulo 25879" width="9.459" height="10.633" transform="translate(187.157 290.425)" fill="#c9c9c9"/>
        <rect id="Rectángulo_25880" data-name="Rectángulo 25880" width="9.459" height="10.633" transform="translate(199.695 290.319)" fill="#c9c9c9"/>
        <rect id="Rectángulo_25881" data-name="Rectángulo 25881" width="9.459" height="10.632" transform="translate(187.507 304.861)" fill="#c9c9c9"/>
        <rect id="Rectángulo_25882" data-name="Rectángulo 25882" width="9.459" height="10.633" transform="translate(200.047 304.757)" fill="#c9c9c9"/>
        <rect id="Rectángulo_25883" data-name="Rectángulo 25883" width="9.459" height="10.633" transform="translate(187.507 318.926)" fill="#c9c9c9"/>
        <rect id="Rectángulo_25884" data-name="Rectángulo 25884" width="9.459" height="10.632" transform="translate(200.047 318.822)" fill="#c9c9c9"/>
        <rect id="Rectángulo_25885" data-name="Rectángulo 25885" width="9.459" height="10.633" transform="translate(187.438 333.027)" fill="#c9c9c9"/>
        <rect id="Rectángulo_25886" data-name="Rectángulo 25886" width="9.459" height="10.633" transform="translate(199.977 332.922)" fill="#c9c9c9"/>
        <rect id="Rectángulo_25887" data-name="Rectángulo 25887" width="9.459" height="10.632" transform="translate(187.438 347.092)" fill="#c9c9c9"/>
        <rect id="Rectángulo_25888" data-name="Rectángulo 25888" width="9.459" height="10.633" transform="translate(199.977 346.987)" fill="#c9c9c9"/>
        <rect id="Rectángulo_25889" data-name="Rectángulo 25889" width="9.459" height="10.632" transform="translate(187.79 361.53)" fill="#c9c9c9"/>
        <rect id="Rectángulo_25890" data-name="Rectángulo 25890" width="9.459" height="10.633" transform="translate(200.328 361.424)" fill="#c9c9c9"/>
        <rect id="Rectángulo_25891" data-name="Rectángulo 25891" width="9.459" height="10.633" transform="translate(187.79 375.593)" fill="#c9c9c9"/>
        <rect id="Rectángulo_25892" data-name="Rectángulo 25892" width="9.459" height="10.632" transform="translate(200.328 375.49)" fill="#c9c9c9"/>
        <g id="Grupo_25581" data-name="Grupo 25581" transform="translate(181.46 256.982)" opacity="0.55" style="mix-blend-mode: multiply;isolation: isolate">
          <g id="Grupo_25580" data-name="Grupo 25580">
            <g id="Grupo_25579" data-name="Grupo 25579" clip-path="url(#clip-path-4)">
              <path id="Trazado_64702" data-name="Trazado 64702" d="M152.976,357.234h33.338V216.644H174.065s-5.58,110.095-21.085,125.836" transform="translate(-152.976 -216.643)" fill="#6e7373"/>
            </g>
          </g>
        </g>
        <rect id="Rectángulo_25894" data-name="Rectángulo 25894" width="33.337" height="140.59" transform="translate(140.532 256.702)" fill="#6e7373"/>
        <rect id="Rectángulo_25895" data-name="Rectángulo 25895" width="9.459" height="10.633" transform="translate(146.226 276.079)" fill="#c9c9c9"/>
        <rect id="Rectángulo_25896" data-name="Rectángulo 25896" width="9.459" height="10.633" transform="translate(158.764 275.973)" fill="#c9c9c9"/>
        <rect id="Rectángulo_25897" data-name="Rectángulo 25897" width="9.459" height="10.633" transform="translate(146.226 290.144)" fill="#c9c9c9"/>
        <rect id="Rectángulo_25898" data-name="Rectángulo 25898" width="9.459" height="10.633" transform="translate(158.764 290.038)" fill="#c9c9c9"/>
        <rect id="Rectángulo_25899" data-name="Rectángulo 25899" width="9.459" height="10.633" transform="translate(146.577 304.581)" fill="#c9c9c9"/>
        <rect id="Rectángulo_25900" data-name="Rectángulo 25900" width="9.459" height="10.633" transform="translate(159.116 304.476)" fill="#c9c9c9"/>
        <rect id="Rectángulo_25901" data-name="Rectángulo 25901" width="9.459" height="10.633" transform="translate(146.577 318.646)" fill="#c9c9c9"/>
        <rect id="Rectángulo_25902" data-name="Rectángulo 25902" width="9.459" height="10.632" transform="translate(159.116 318.542)" fill="#c9c9c9"/>
        <rect id="Rectángulo_25903" data-name="Rectángulo 25903" width="9.459" height="10.633" transform="translate(146.507 332.746)" fill="#c9c9c9"/>
        <rect id="Rectángulo_25904" data-name="Rectángulo 25904" width="9.459" height="10.633" transform="translate(159.046 332.641)" fill="#c9c9c9"/>
        <rect id="Rectángulo_25905" data-name="Rectángulo 25905" width="9.459" height="10.632" transform="translate(146.507 346.812)" fill="#c9c9c9"/>
        <rect id="Rectángulo_25906" data-name="Rectángulo 25906" width="9.459" height="10.633" transform="translate(159.046 346.707)" fill="#c9c9c9"/>
        <rect id="Rectángulo_25907" data-name="Rectángulo 25907" width="9.459" height="10.632" transform="translate(146.859 361.25)" fill="#c9c9c9"/>
        <rect id="Rectángulo_25908" data-name="Rectángulo 25908" width="9.46" height="10.633" transform="translate(159.397 361.144)" fill="#c9c9c9"/>
        <rect id="Rectángulo_25909" data-name="Rectángulo 25909" width="9.459" height="10.633" transform="translate(146.859 375.313)" fill="#c9c9c9"/>
        <rect id="Rectángulo_25910" data-name="Rectángulo 25910" width="9.46" height="10.632" transform="translate(159.397 375.209)" fill="#c9c9c9"/>
        <g id="Grupo_25584" data-name="Grupo 25584" transform="translate(140.531 256.702)" opacity="0.55" style="mix-blend-mode: multiply;isolation: isolate">
          <g id="Grupo_25583" data-name="Grupo 25583">
            <g id="Grupo_25582" data-name="Grupo 25582" clip-path="url(#clip-path-5)">
              <path id="Trazado_64703" data-name="Trazado 64703" d="M118.47,357h33.338V216.408H139.559S133.98,326.5,118.475,342.244" transform="translate(-118.471 -216.407)" fill="#6e7373"/>
            </g>
          </g>
        </g>
        <path id="Trazado_64704" data-name="Trazado 64704" d="M401.672,377.9l-26.3-3.287-13.15-21.136H309.146l-15.97,23.25L275.8,379.775v23.014H401.672Z" transform="translate(51.354 65.818)" fill="#b9bfbd"/>
        <path id="Trazado_64705" data-name="Trazado 64705" d="M355,373.835h-27.4V357.422h19.969Z" transform="translate(61.001 66.553)" fill="#e9eae9"/>
        <path id="Trazado_64706" data-name="Trazado 64706" d="M327.392,357.423v16.412H301.584l7-16.412Z" transform="translate(56.156 66.553)" fill="#e9eae9"/>
        <rect id="Rectángulo_25912" data-name="Rectángulo 25912" width="128.902" height="4.72" transform="translate(325.914 464.691)" fill="#525859"/>
        <path id="Trazado_64707" data-name="Trazado 64707" d="M364.275,396.808a11.214,11.214,0,1,1-11.214-11.213,11.214,11.214,0,0,1,11.214,11.213" transform="translate(63.652 71.799)" fill="#343538"/>
        <path id="Trazado_64708" data-name="Trazado 64708" d="M355.877,395.669a3.957,3.957,0,1,1-3.956-3.956,3.956,3.956,0,0,1,3.956,3.956" transform="translate(64.792 72.938)" fill="#a2aba9"/>
        <path id="Trazado_64709" data-name="Trazado 64709" d="M321.057,396.842a11.214,11.214,0,1,1-11.214-11.213,11.214,11.214,0,0,1,11.214,11.213" transform="translate(55.605 71.805)" fill="#343538"/>
        <path id="Trazado_64710" data-name="Trazado 64710" d="M312.659,395.7a3.957,3.957,0,1,1-3.956-3.956,3.956,3.956,0,0,1,3.956,3.956" transform="translate(56.744 72.944)" fill="#a2aba9"/>
        <path id="Trazado_64711" data-name="Trazado 64711" d="M277.778,393.862a18.211,18.211,0,0,0-3.68-8.593,3.922,3.922,0,0,0-6.1-.153,5.071,5.071,0,0,0-7.929-3.933c.5-1.428-1.052-2.8-2.54-3.065a4.732,4.732,0,0,0-4.612,1.676,3.534,3.534,0,0,0,.445,4.667,3.6,3.6,0,1,0,3.523,6.268c-.517,1.477-.973,3.3.087,4.452a3.279,3.279,0,0,0,2.331.894,6.505,6.505,0,0,0,4.58-1.681,3.1,3.1,0,0,0,5.94,1.771c1.543,2.082,8.525.858,7.951-2.3" transform="translate(46.839 70.392)" fill="#6e7373"/>
        <path id="Trazado_64712" data-name="Trazado 64712" d="M168.068,16.419c6.559-2.378,14.739-.88,19.016,4.63s3.031,14.87-3.172,18.066c5.656,6.668,5.11,17.714-1.176,23.79s-17.346,6.249-23.818.372c-4.46,7.343-11.876,13.485-20.452,13.97s-17.607-6.394-17.332-14.981C112.261,65.358,101.369,59.8,98.668,50.8S102,31.159,111.108,28.853A17.8,17.8,0,0,1,117.5,9.1a17.8,17.8,0,0,1,20.759.629,17.945,17.945,0,0,1,33.834,6.531" transform="translate(18.251 0)" fill="#6e7373"/>
        <path id="Trazado_64713" data-name="Trazado 64713" d="M336.791,204.442c-4.632-4.2-5.961-11.437-4.107-17.41A17.982,17.982,0,0,1,345.93,175.01c-1.363-8.37-1.581-17.565,3.085-24.646s15.79-10.255,21.819-4.294c1.337-8.569,12.1-14.132,19.864-10.265s9.811,15.809,3.777,22.038c5.853.308,9.442,6.906,9.619,12.766a23.573,23.573,0,0,1-30.483,23.251,14.913,14.913,0,0,1-24.277,12.185,11.821,11.821,0,0,1-9.775,5.275s1.16-3.317-2.767-6.878" transform="translate(61.796 25.054)" fill="#a2aba9"/>
        <g id="Grupo_25587" data-name="Grupo 25587" transform="translate(401.355 183.904)" opacity="0.36" style="mix-blend-mode: multiply;isolation: isolate">
          <g id="Grupo_25586" data-name="Grupo 25586">
            <g id="Grupo_25585" data-name="Grupo 25585" clip-path="url(#clip-path-6)">
              <path id="Trazado_64714" data-name="Trazado 64714" d="M338.353,207.5a11.821,11.821,0,0,0,9.775-5.275,14.913,14.913,0,0,0,24.277-12.185,23.573,23.573,0,0,0,30.483-23.251c-.139-4.594-2.376-9.644-6.156-11.758,1.556,8.248-.871,17.244-7.129,22.837a24.975,24.975,0,0,1-23.531,5.141c-.932,3.871.65,8.125-.772,11.844-1.368,3.574-5.338,5.689-9.165,5.713s-7.47-1.706-10.569-3.949a19.336,19.336,0,0,1-7.213,10.882" transform="translate(-338.353 -155.036)" fill="#a2aba9"/>
            </g>
          </g>
        </g>
        <path id="Trazado_64715" data-name="Trazado 64715" d="M300.25,205.13c-4.632-4.2-5.961-11.437-4.107-17.41A17.982,17.982,0,0,1,309.389,175.7c-1.363-8.37-1.581-17.565,3.085-24.646s15.79-10.255,21.819-4.294c1.337-8.569,12.1-14.132,19.864-10.265s9.811,15.809,3.777,22.038c5.853.308,9.442,6.906,9.619,12.766a23.573,23.573,0,0,1-30.483,23.251,14.913,14.913,0,0,1-24.277,12.185,11.824,11.824,0,0,1-9.775,5.275s1.16-3.317-2.767-6.878" transform="translate(54.992 25.182)" fill="#b9bfbd"/>
        <g id="Grupo_25590" data-name="Grupo 25590" transform="translate(358.01 184.721)" opacity="0.36" style="mix-blend-mode: multiply;isolation: isolate">
          <g id="Grupo_25589" data-name="Grupo 25589">
            <g id="Grupo_25588" data-name="Grupo 25588" clip-path="url(#clip-path-7)">
              <path id="Trazado_64716" data-name="Trazado 64716" d="M301.812,208.193a11.824,11.824,0,0,0,9.775-5.275,14.913,14.913,0,0,0,24.277-12.185,23.573,23.573,0,0,0,30.483-23.251c-.139-4.594-2.376-9.644-6.158-11.758,1.557,8.248-.869,17.244-7.128,22.837a24.975,24.975,0,0,1-23.531,5.141c-.932,3.871.65,8.127-.772,11.844-1.368,3.573-5.338,5.689-9.165,5.713s-7.471-1.706-10.569-3.949a19.336,19.336,0,0,1-7.213,10.882" transform="translate(-301.812 -155.725)" fill="#b9bfbd"/>
            </g>
          </g>
        </g>
        <rect id="Rectángulo_25915" data-name="Rectángulo 25915" width="9.766" height="88.412" transform="translate(393.109 240.183)" fill="#525859"/>
        <rect id="Rectángulo_25916" data-name="Rectángulo 25916" width="9.766" height="88.411" transform="translate(354.556 241.041)" fill="#525859"/>
        <path id="Trazado_64717" data-name="Trazado 64717" d="M374.7,350.312V239.749l-35.636,24.671V239.749l-36.549,27.412V239.749L262.311,269.9v80.41Z" transform="translate(48.843 44.642)" fill="#6e7373"/>
        <rect id="Rectángulo_25917" data-name="Rectángulo 25917" width="7.739" height="45.663" transform="translate(399.005 327.208)" fill="#b9bfbd"/>
        <rect id="Rectángulo_25918" data-name="Rectángulo 25918" width="7.739" height="45.663" transform="translate(376.034 327.208)" fill="#b9bfbd"/>
        <rect id="Rectángulo_25919" data-name="Rectángulo 25919" width="7.739" height="45.663" transform="translate(352.922 327.208)" fill="#b9bfbd"/>
        <rect id="Rectángulo_25920" data-name="Rectángulo 25920" width="7.739" height="45.663" transform="translate(329.502 327.208)" fill="#b9bfbd"/>
        <rect id="Rectángulo_25921" data-name="Rectángulo 25921" width="9.766" height="1.46" transform="translate(393.109 247.097)" fill="#b9bfbd"/>
        <rect id="Rectángulo_25922" data-name="Rectángulo 25922" width="9.766" height="1.46" transform="translate(354.556 247.826)" fill="#b9bfbd"/>
        <rect id="Rectángulo_25923" data-name="Rectángulo 25923" width="150.232" height="3.155" transform="translate(293.163 394.954)" fill="#525859"/>
        <g id="Grupo_25593" data-name="Grupo 25593" transform="translate(311.155 284.391)" opacity="0.26" style="mix-blend-mode: multiply;isolation: isolate">
          <g id="Grupo_25592" data-name="Grupo 25592">
            <g id="Grupo_25591" data-name="Grupo 25591" clip-path="url(#clip-path-8)">
              <path id="Trazado_64718" data-name="Trazado 64718" d="M262.311,342.475v7.836H374.7V239.748s-30.949,87.866-43.643,91.765-68.749,10.963-68.749,10.963" transform="translate(-262.312 -239.749)" fill="#6e7373"/>
            </g>
          </g>
        </g>
        <path id="Trazado_64719" data-name="Trazado 64719" d="M0,411.841c40.1-46.02,56.539-184.736,56.539-184.736h56.444s16.436,138.716,56.538,184.736Z" transform="translate(0 42.287)" fill="#525859"/>
        <path id="Trazado_64720" data-name="Trazado 64720" d="M31.653,318.163c4.676-17.575,8.427-35.107,11.319-50.408h71.79c2.44,12.635,7.944,37.088,11.551,51.281Z" transform="translate(5.894 49.857)" fill="#b9bfbd"/>
        <path id="Trazado_64721" data-name="Trazado 64721" d="M79.657,275.9s9.236,4.709,8.33,15.03l-14.046.192a1.808,1.808,0,0,0-1.345-2.546Z" transform="translate(13.518 51.374)" fill="#6e7373"/>
        <path id="Trazado_64722" data-name="Trazado 64722" d="M65.874,275.9s-9.235,4.709-8.33,15.03l14.046.192a1.808,1.808,0,0,1,1.346-2.546Z" transform="translate(10.703 51.374)" fill="#6e7373"/>
        <path id="Trazado_64723" data-name="Trazado 64723" d="M74.387,290.655l6.791,12.428s-10.458,4.55-16.5,0l6.384-12.428s1.868,1.607,3.327,0" transform="translate(12.043 54.121)" fill="#6e7373"/>
        <path id="Trazado_64724" data-name="Trazado 64724" d="M73.285,289.206a1.585,1.585,0,1,1-1.585-1.585,1.585,1.585,0,0,1,1.585,1.585" transform="translate(13.056 53.556)" fill="#6e7373"/>
        <path id="Trazado_64725" data-name="Trazado 64725" d="M52.226,254.4c-2.444-6.222-.053-19.353,6.134-21.883-11.931-11.346-13.314-32.027-3-44.86a26.3,26.3,0,0,1-17.73-44.974c-5.491-12.64-.572-28.911,11-36.391s28.429-5.287,37.7,4.909C90.21,100.583,97.1,90.735,106.916,85.123s22.742-6.35,32.261-.249,14.2,19.524,9.012,29.571a15.193,15.193,0,0,1,20.455,19.673c16.351-2.7,31.464,14.976,28.894,31.347s-19.109,28.284-35.675,28.761c9.408,5.575,6.165,21.4-3.162,27.1s-21.159,4.411-31.994,2.922c-1.58,15.257-14.773,28.506-30.023,30.152Z" transform="translate(5.572 15.008)" fill="#a2aba9"/>
        <g id="Grupo_25596" data-name="Grupo 25596" transform="translate(102.254 128.201)" opacity="0.41" style="mix-blend-mode: multiply;isolation: isolate">
          <g id="Grupo_25595" data-name="Grupo 25595">
            <g id="Grupo_25594" data-name="Grupo 25594" clip-path="url(#clip-path-9)">
              <path id="Trazado_64726" data-name="Trazado 64726" d="M86.2,249.287c15.25-1.646,28.444-14.9,30.024-30.152,10.834,1.49,22.666,2.788,31.993-2.922s12.571-21.53,3.162-27.1c16.566-.477,33.1-12.389,35.675-28.761S174.515,126.3,158.164,129a15.586,15.586,0,0,0-3.458-16.874,15.307,15.307,0,0,0-8.695-4.051,23.041,23.041,0,0,1,3.536,18.26,23.36,23.36,0,0,1-11.114,15.084,24.837,24.837,0,0,1-4.949,47.079c-1.16.24-2.629.7-2.693,1.881a2.737,2.737,0,0,0,.433,1.353c2.375,4.613,2.969,10.577-.072,14.779-1.848,2.555-4.767,4.12-7.727,5.2a36,36,0,0,1-19.584,1.436c1.594,13.968-5.228,29.529-17.639,36.134" transform="translate(-86.203 -108.077)" fill="#a2aba9"/>
            </g>
          </g>
        </g>
        <path id="Trazado_64727" data-name="Trazado 64727" d="M129.625,109.348a15.153,15.153,0,0,1,8.3-1.251" transform="translate(24.136 20.105)" fill="#b9bfbd"/>
        <g id="Grupo_25599" data-name="Grupo 25599" transform="translate(102.091 269.392)" opacity="0.44" style="mix-blend-mode: multiply;isolation: isolate">
          <g id="Grupo_25598" data-name="Grupo 25598">
            <g id="Grupo_25597" data-name="Grupo 25597" clip-path="url(#clip-path-10)">
              <path id="Trazado_64728" data-name="Trazado 64728" d="M114.7,411.841H153.5c-40.1-46.02-56.538-184.736-56.538-184.736l-10.729.019S82.152,311.668,114.7,411.841" transform="translate(-86.065 -227.105)" fill="#525859"/>
            </g>
          </g>
        </g>
      </g>
    </g>
  </g>
</svg>
