<svg xmlns="http://www.w3.org/2000/svg" xmlns:xlink="http://www.w3.org/1999/xlink" width="726" height="408.5" viewBox="0 0 726 408.5">
  <defs>
    <clipPath id="clip-path">
      <rect id="Rectángulo_25934" data-name="Rectángulo 25934" width="85.694" height="115.673" fill="none"/>
    </clipPath>
    <clipPath id="clip-path-2">
      <rect id="Rectángulo_25935" data-name="Rectángulo 25935" width="143" height="143" fill="none"/>
    </clipPath>
    <clipPath id="clip-path-3">
      <rect id="Rectángulo_25936" data-name="Rectángulo 25936" width="94.239" height="147.447" fill="none"/>
    </clipPath>
    <clipPath id="clip-path-4">
      <rect id="Rectángulo_25936-2" data-name="Rectángulo 25936" width="77.604" height="128.84" fill="none"/>
    </clipPath>
  </defs>
  <g id="Grupo_25674" data-name="Grupo 25674" transform="translate(-344 -15806)">
    <g id="Grupo_25629" data-name="Grupo 25629" transform="translate(657.36 16098.827)">
      <path id="Trazado_64794" data-name="Trazado 64794" d="M40.979,25.335l1.292,79.745-13.386-.461,6.753-79.243Z" transform="translate(10.286 9.022)" fill="#44a06b"/>
      <g id="Grupo_25628" data-name="Grupo 25628" transform="translate(0 0)">
        <g id="Grupo_25627" data-name="Grupo 25627" clip-path="url(#clip-path)">
          <path id="Trazado_64795" data-name="Trazado 64795" d="M64.7,14.844c-6.189,5.731-24.851,15.647-25.834,15.713a.065.065,0,0,1-.068-.077c.194-1.028,11.618-18.971,17.647-24.552C63.007-.15,71.881,0,71.881,0s-.62,8.766-7.186,14.844" transform="translate(13.815 0)" fill="#44a06b"/>
          <path id="Trazado_64796" data-name="Trazado 64796" d="M44.39,57c-2.3-8.115-2.684-29.243-2.3-30.149a.063.063,0,0,1,.1-.026c.829.637,11.646,18.954,13.888,26.858,2.442,8.609-1.714,16.451-1.714,16.451S46.832,65.609,44.39,57" transform="translate(14.943 9.548)" fill="#44a06b"/>
          <path id="Trazado_64797" data-name="Trazado 64797" d="M37.063,25.38a.064.064,0,0,1,.1-.026c.829.639,11.645,18.954,13.887,26.859" transform="translate(13.199 9.024)" fill="none" stroke="#184e63" stroke-miterlimit="10" stroke-width="2.117"/>
          <path id="Trazado_64798" data-name="Trazado 64798" d="M18.3,14.644c8.31,1.448,27.51,10.274,28.16,11.016a.065.065,0,0,1-.02.1c-.934.469-22.13,2.265-30.225.854C7.4,25.08,2.141,17.931,2.141,17.931S9.488,13.109,18.3,14.644" transform="translate(0.762 5.107)" fill="#44a06b"/>
          <path id="Trazado_64799" data-name="Trazado 64799" d="M15.8,26.455C6.956,25.137,1.521,18.12,1.521,18.12s7.225-5,16.075-3.683a70.36,70.36,0,0,1,11.519,3.275" transform="translate(0.542 5.062)" fill="none" stroke="#184e63" stroke-miterlimit="10" stroke-width="2.117"/>
          <path id="Trazado_64800" data-name="Trazado 64800" d="M42.04,27.558a5.062,5.062,0,1,1-1.3-7.041,5.063,5.063,0,0,1,1.3,7.041" transform="translate(11.684 6.988)" fill="#9dd12c"/>
          <line id="Línea_357" data-name="Línea 357" x2="21.588" y2="0.743" transform="translate(34.935 113.494)" fill="none" stroke="#184e63" stroke-linecap="round" stroke-miterlimit="10" stroke-width="2.117"/>
        </g>
      </g>
    </g>
    <g id="Grupo_25634" data-name="Grupo 25634" transform="translate(-3 -30)">
      <g id="Grupo_25631" data-name="Grupo 25631" transform="translate(879 15849)">
        <g id="Grupo_25630" data-name="Grupo 25630" transform="translate(0 0)" clip-path="url(#clip-path-2)">
          <path id="Trazado_64801" data-name="Trazado 64801" d="M142.339,24.154,123.9,41.909l-17.567-5.065-4.4-17.744L120.371,1.344A27.754,27.754,0,0,0,88.632,37.53L38.841,86.183a28.792,28.792,0,1,0,17.051,16.305l49.094-47.975a27.754,27.754,0,0,0,37.353-30.36M28.846,126.529a13.2,13.2,0,1,1,13.2-13.2,13.2,13.2,0,0,1-13.2,13.2" transform="translate(0.733 1.359)" fill="#44a06b"/>
          <path id="Trazado_64802" data-name="Trazado 64802" d="M48.346,64.921,65.16,47.894l-9.272-9.487A28.884,28.884,0,1,0,39.22,55.582ZM28.74,41.611a13.2,13.2,0,1,1,13.2-13.2,13.2,13.2,0,0,1-13.2,13.2" transform="translate(0 0)" fill="#44a06b"/>
        </g>
      </g>
      <path id="Trazado_64806" data-name="Trazado 64806" d="M17.247,0,0,17.068l9.511,9.51a28.237,28.237,0,0,0-1.724,9.648c0,15.935,13.219,28.854,29.526,28.854S66.84,52.161,66.84,36.225,53.621,7.369,37.312,7.369a29.953,29.953,0,0,0-10.7,1.993ZM37.359,23.367A13.236,13.236,0,1,1,23.82,36.6,13.389,13.389,0,0,1,37.359,23.367" transform="translate(955.16 15926.921)" fill="#44a06b"/>
    </g>
    <g id="grafico7-cp2" transform="translate(557.001 15806)">
      <path id="Trazado_64807" data-name="Trazado 64807" d="M172.38-94.73A142.38,142.38,0,0,0,71.92-136.81l16.62,28L76.93-83.35A90.09,90.09,0,0,1,154.17,41l16,22.43L202.78,63A143.079,143.079,0,0,0,214.27,6.7,142.37,142.37,0,0,0,172.38-94.73Z" transform="translate(72.42 136.81)" fill="#43a06b"/>
      <path id="Trazado_64808" data-name="Trazado 64808" d="M-30.33-94.92A142.37,142.37,0,0,0-72.42,6.4a142.52,142.52,0,0,0,18.68,71l16-28.44L-9.9,46.27a90.06,90.06,0,0,1,69-129l11.41-25.09-16.62-28a142.16,142.16,0,0,0-84.22,40.9Z" transform="translate(72.42 136.81)" fill="#43a06b"/>
      <path id="Trazado_64809" data-name="Trazado 64809" d="M162,79.47,145.7,56.64A89.9,89.9,0,0,1-.45,61.41l-27.49,2.66-15.9,28.38A144.71,144.71,0,0,0-30.52,107.8,142.35,142.35,0,0,0,70.79,149.87,142.37,142.37,0,0,0,172.19,108a144.18,144.18,0,0,0,22.45-28.92Z" transform="translate(72.42 136.81)" fill="#43a06b"/>
    </g>
    <g id="Grupo_25638" data-name="Grupo 25638" transform="translate(87 0.319)">
      <g id="Grupo_25636" data-name="Grupo 25636" transform="translate(272 15818.681)">
        <g id="Grupo_25635" data-name="Grupo 25635" transform="translate(0 0)" clip-path="url(#clip-path-3)">
          <path id="Trazado_64810" data-name="Trazado 64810" d="M88.878,76.761c0,20.641-19.9,37.372-44.439,37.372S0,97.4,0,76.761,44.438.05,44.438.048c0-1.966,44.439,56.072,44.439,76.713" transform="translate(0.001 0)" fill="#44a06b"/>
          <path id="Trazado_64811" data-name="Trazado 64811" d="M90.606,82.377c0,20.641-19.9,37.372-44.439,37.372S1.729,103.018,1.729,82.377,46.166,5.67,46.166,5.666C46.166,3.7,90.606,61.738,90.606,82.377Z" transform="translate(1.598 5.192)" fill="none" stroke="#184e63" stroke-miterlimit="10" stroke-width="2.117"/>
          <line id="Línea_358" data-name="Línea 358" y2="134.083" transform="translate(47.027 13.363)" fill="none" stroke="#184e63" stroke-miterlimit="10" stroke-width="2.117"/>
          <line id="Línea_359" data-name="Línea 359" y1="9.978" x2="17.461" transform="translate(47.254 34.466)" fill="none" stroke="#184e63" stroke-miterlimit="10" stroke-width="2.117"/>
          <line id="Línea_360" data-name="Línea 360" y1="23.558" x2="36.582" transform="translate(47.652 63.706)" fill="none" stroke="#184e63" stroke-miterlimit="10" stroke-width="2.117"/>
          <line id="Línea_361" data-name="Línea 361" x2="24.824" y2="16.268" transform="translate(22.638 48.34)" fill="none" stroke="#184e63" stroke-miterlimit="10" stroke-width="2.117"/>
          <line id="Línea_362" data-name="Línea 362" x2="42.288" y2="24.949" transform="translate(4.967 83.308)" fill="none" stroke="#184e63" stroke-miterlimit="10" stroke-width="2.117"/>
        </g>
      </g>
      <g id="Grupo_25637" data-name="Grupo 25637" transform="matrix(0.839, 0.545, -0.545, 0.839, 371.19, 15833.986)">
        <g id="Grupo_25635-2" data-name="Grupo 25635" transform="translate(0 0)" clip-path="url(#clip-path-4)">
          <path id="Trazado_64810-2" data-name="Trazado 64810" d="M73.188,67.074c0,18.036-16.384,32.656-36.6,32.656S0,85.111,0,67.075,36.594.044,36.594.043c0-1.718,36.595,49,36.595,67.032" transform="translate(0.001 0)" fill="#44a06b"/>
          <path id="Trazado_64811-2" data-name="Trazado 64811" d="M73.188,67.073c0,18.036-16.384,32.656-36.6,32.656S0,85.109,0,67.073,36.594.046,36.594.043C36.594-1.677,73.188,49.038,73.188,67.073Z" transform="translate(2.739 9.445)" fill="none" stroke="#184e63" stroke-miterlimit="10" stroke-width="2.117"/>
          <line id="Línea_358-2" data-name="Línea 358" y2="117.162" transform="translate(38.725 11.677)" fill="none" stroke="#184e63" stroke-miterlimit="10" stroke-width="2.117"/>
          <line id="Línea_359-2" data-name="Línea 359" y1="8.719" x2="14.378" transform="translate(38.913 30.116)" fill="none" stroke="#184e63" stroke-miterlimit="10" stroke-width="2.117"/>
          <line id="Línea_360-2" data-name="Línea 360" y1="20.585" x2="30.124" transform="translate(39.241 55.666)" fill="none" stroke="#184e63" stroke-miterlimit="10" stroke-width="2.117"/>
          <line id="Línea_361-2" data-name="Línea 361" x2="20.442" y2="14.215" transform="translate(18.642 42.239)" fill="none" stroke="#184e63" stroke-miterlimit="10" stroke-width="2.117"/>
          <line id="Línea_362-2" data-name="Línea 362" x2="34.824" y2="21.8" transform="translate(4.09 72.795)" fill="none" stroke="#184e63" stroke-miterlimit="10" stroke-width="2.117"/>
        </g>
      </g>
    </g>
    <text id="Estamos_cambiando_a_un_sistema_donde_" data-name="Estamos cambiando a un sistema donde " transform="translate(648 15901.5)" fill="#00223d" font-size="18" font-family="CerebriSans-Bold, Cerebri Sans" font-weight="700"><tspan x="0" y="17">Estamos </tspan><tspan x="0" y="41">cambiando a </tspan><tspan x="0" y="65">un sistema </tspan><tspan x="0" y="89">donde </tspan></text>
    <text id="Diseñar_los_residuos_y_la_contaminación_" data-name="Diseñar los residuos y la contaminación " transform="translate(876 15974.5)" fill="#00223d" font-size="18" font-family="CerebriSans-Bold, Cerebri Sans" font-weight="700"><tspan x="0" y="17">Diseñar los residuos y </tspan><tspan x="0" y="41">la contaminación </tspan></text>
    <text id="Regenerar_los_sistemas_naturales" data-name="Regenerar los sistemas naturales" transform="translate(344 15978.5)" fill="#00223d" font-size="18" font-family="CerebriSans-Bold, Cerebri Sans" font-weight="700"><tspan x="0" y="17">Regenerar los </tspan><tspan x="0" y="41">sistemas naturales</tspan></text>
    <text id="Mantener_los_productos_y_materiales_en_uso_" data-name="Mantener los productos y materiales en uso " transform="translate(771 16130.5)" fill="#00223d" font-size="18" font-family="CerebriSans-Bold, Cerebri Sans" font-weight="700"><tspan x="0" y="17">Mantener los </tspan><tspan x="0" y="41">productos y </tspan><tspan x="0" y="65">materiales en uso </tspan></text>
  </g>
</svg>
