<svg xmlns="http://www.w3.org/2000/svg" xmlns:xlink="http://www.w3.org/1999/xlink" width="115" height="115.987" viewBox="0 0 115 115.987">
  <defs>
    <filter id="Trazado_1178" x="2.367" y="6" width="109.987" height="109.987" filterUnits="userSpaceOnUse">
      <feOffset dy="3" input="SourceAlpha"/>
      <feGaussianBlur stdDeviation="3" result="blur"/>
      <feFlood flood-opacity="0.161"/>
      <feComposite operator="in" in2="blur"/>
      <feComposite in="SourceGraphic"/>
    </filter>
  </defs>
  <g id="Grupo_25677" data-name="Grupo 25677" transform="translate(-225 -4118)">
    <g id="Grupo_14735" data-name="Grupo 14735" transform="translate(-430 8273)">
      <circle id="Elipse_497" data-name="Elipse 497" cx="57.5" cy="57.5" r="57.5" transform="translate(655 -4155)" fill="#de7f50" opacity="0.75"/>
      <g transform="matrix(1, 0, 0, 1, 655, -4155)" filter="url(#Trazado_1178)">
        <path id="Trazado_1178-2" data-name="Trazado 1178" d="M45.994,0A45.994,45.994,0,1,1,0,45.994,45.994,45.994,0,0,1,45.994,0Z" transform="translate(11.37 12)" fill="#fff"/>
      </g>
    </g>
    <g id="Grupo_24863" data-name="Grupo 24863" transform="translate(217 -248)">
      <g id="_x31_3_idea_2_" transform="translate(39 4389)">
        <path id="Trazado_60509" data-name="Trazado 60509" d="M247.6,6.54a1.008,1.008,0,0,0,1.008-1.008V1.008a1.008,1.008,0,0,0-2.016,0V5.532A1.008,1.008,0,0,0,247.6,6.54Z" transform="translate(-220.749)"/>
        <path id="Trazado_60510" data-name="Trazado 60510" d="M362.236,56.61l-3.2,3.2a1.008,1.008,0,0,0,1.426,1.425l3.2-3.2a1.008,1.008,0,0,0-1.426-1.425Z" transform="translate(-317.827 -48.746)"/>
        <path id="Trazado_60511" data-name="Trazado 60511" d="M114.129,304.717l-3.2,3.2a1.008,1.008,0,1,0,1.425,1.425l3.2-3.2a1.008,1.008,0,1,0-1.425-1.425Z" transform="translate(-103.066 -263.507)"/>
        <path id="Trazado_60512" data-name="Trazado 60512" d="M114.129,61.234a1.008,1.008,0,1,0,1.425-1.425l-3.2-3.2a1.008,1.008,0,0,0-1.425,1.425Z" transform="translate(-103.066 -48.746)"/>
        <path id="Trazado_60513" data-name="Trazado 60513" d="M360.463,304.717a1.008,1.008,0,0,0-1.426,1.425l3.2,3.2a1.008,1.008,0,0,0,1.426-1.425Z" transform="translate(-317.828 -263.507)"/>
        <path id="Trazado_60514" data-name="Trazado 60514" d="M59.852,192.269H55.328a1.008,1.008,0,0,0,0,2.016h4.524a1.008,1.008,0,0,0,0-2.016Z" transform="translate(-54.32 -166.428)"/>
        <path id="Trazado_60515" data-name="Trazado 60515" d="M410.729,192.269h-4.524a1.008,1.008,0,0,0,0,2.016h4.524a1.008,1.008,0,1,0,0-2.016Z" transform="translate(-358.039 -166.428)"/>
        <path id="Trazado_60516" data-name="Trazado 60516" d="M144.049,233.177a1.008,1.008,0,0,0,0-2.016h-.364v-3.407l.019-.115a14.288,14.288,0,0,1,1.1-3.579,1.008,1.008,0,0,0-1.834-.838,16.342,16.342,0,0,0-1.13,3.44H130.021a16.334,16.334,0,0,0-5.041-8.859,16.387,16.387,0,0,1-5.368-10.437,1.008,1.008,0,1,0-2,.218,18.4,18.4,0,0,0,6.026,11.72,14.339,14.339,0,0,1,4.514,8.3l.025.151v3.407h-.331a1.008,1.008,0,1,0,0,2.016h.331v2.483h-.331a1.008,1.008,0,1,0,0,2.016h.331V239.4a2.773,2.773,0,0,0,1.819,2.6,5.918,5.918,0,0,0,3.292,4.91,1.008,1.008,0,1,0,.9-1.806,3.914,3.914,0,0,1-2.142-2.932h7.781a3.913,3.913,0,0,1-2.142,2.932,1.008,1.008,0,1,0,.9,1.805A5.918,5.918,0,0,0,141.866,242a2.772,2.772,0,0,0,1.819-2.6v-1.728h.364a1.008,1.008,0,1,0,0-2.016h-.364v-2.483Zm-13.861-4.5h11.48v2.483h-11.48Zm11.48,10.726a.755.755,0,0,1-.754.754h-9.971a.755.755,0,0,1-.754-.754v-1.728h11.48Zm0-3.744h-11.48v-2.483h11.48Z" transform="translate(-109.096 -178.717)"/>
        <path id="Trazado_60517" data-name="Trazado 60517" d="M220.791,171.641a5.17,5.17,0,1,0-5.17-5.17A5.176,5.176,0,0,0,220.791,171.641Zm0-8.325a3.154,3.154,0,1,1-3.154,3.154A3.158,3.158,0,0,1,220.791,163.316Z" transform="translate(-193.942 -139.621)"/>
        <path id="Trazado_60518" data-name="Trazado 60518" d="M160.621,114.265a1.682,1.682,0,0,0-1.68,1.68v2.927a1.682,1.682,0,0,0,1.68,1.68h2.012a9.575,9.575,0,0,0,.442,1.065l-1.423,1.423a1.682,1.682,0,0,0,0,2.376l2.07,2.07a1.682,1.682,0,0,0,2.376,0l1.423-1.423a9.575,9.575,0,0,0,1.065.442v2.012a1.682,1.682,0,0,0,1.68,1.68h2.927a1.682,1.682,0,0,0,1.68-1.68v-2.012a9.577,9.577,0,0,0,1.065-.442l1.423,1.423a1.68,1.68,0,0,0,2.376,0l2.07-2.07a1.682,1.682,0,0,0,0-2.376l-1.423-1.423a9.524,9.524,0,0,0,.442-1.065h2.012a1.682,1.682,0,0,0,1.68-1.68v-2.927a1.682,1.682,0,0,0-1.68-1.68h-2.012a9.561,9.561,0,0,0-.442-1.065l1.423-1.423a1.682,1.682,0,0,0,0-2.376l-2.07-2.07a1.68,1.68,0,0,0-2.376,0l-1.423,1.423a9.55,9.55,0,0,0-1.065-.442V106.3a1.682,1.682,0,0,0-1.68-1.68h-2.927a1.682,1.682,0,0,0-1.68,1.68v2.012a9.55,9.55,0,0,0-1.065.442l-1.423-1.423a1.682,1.682,0,0,0-2.376,0l-2.07,2.07a1.682,1.682,0,0,0,0,2.376l1.423,1.423a9.573,9.573,0,0,0-.442,1.065h-2.012Zm4.409-1.96-1.716-1.716,1.595-1.595,1.716,1.716a1.008,1.008,0,0,0,1.227.154,7.555,7.555,0,0,1,1.99-.825,1.008,1.008,0,0,0,.759-.977v-2.425h2.255v2.425a1.008,1.008,0,0,0,.759.977,7.552,7.552,0,0,1,1.99.825,1.008,1.008,0,0,0,1.227-.154l1.716-1.716,1.595,1.595-1.716,1.716a1.008,1.008,0,0,0-.154,1.227,7.552,7.552,0,0,1,.825,1.99,1.008,1.008,0,0,0,.977.759H182.5v2.255h-2.425a1.008,1.008,0,0,0-.977.759,7.55,7.55,0,0,1-.825,1.99,1.008,1.008,0,0,0,.154,1.227l1.716,1.716-1.595,1.595-1.716-1.716a1.008,1.008,0,0,0-1.227-.154,7.555,7.555,0,0,1-1.99.825,1.008,1.008,0,0,0-.759.977v2.425H170.6v-2.425a1.008,1.008,0,0,0-.759-.977,7.562,7.562,0,0,1-1.99-.825,1.008,1.008,0,0,0-1.227.154l-1.716,1.716-1.595-1.595,1.716-1.716a1.008,1.008,0,0,0,.154-1.227,7.557,7.557,0,0,1-.826-1.99,1.008,1.008,0,0,0-.977-.759h-2.425v-2.255h2.425a1.008,1.008,0,0,0,.977-.759,7.557,7.557,0,0,1,.826-1.99,1.008,1.008,0,0,0-.154-1.227Z" transform="translate(-144.88 -90.56)"/>
        <path id="Trazado_60519" data-name="Trazado 60519" d="M149.308,67.993a18.492,18.492,0,0,0-31.42,10.642,1.008,1.008,0,0,0,2,.258,16.43,16.43,0,1,1,27.351,14.226,17.357,17.357,0,0,0-1.488,1.532,1.008,1.008,0,1,0,1.53,1.313,15.337,15.337,0,0,1,1.315-1.353,18.446,18.446,0,0,0,.713-26.617Z" transform="translate(-109.337 -54.111)"/>
      </g>
    </g>
  </g>
</svg>
