<svg xmlns="http://www.w3.org/2000/svg" xmlns:xlink="http://www.w3.org/1999/xlink" width="261.3" height="258.757" viewBox="0 0 261.3 258.757">
  <defs>
    <clipPath id="clip-path">
      <path id="SVGID" d="M209.191,146.558l13.952,16.058s10.864-4.135,13.258-13.121c4.885-18.335,20.6-12.777,27.533-11.434,10.453,2.026,20.547-.748,15.563-12.75s17.565-15.181,33.974-9.477c16.058,5.582,35.247-19.742,1.6-35.014-20.094-9.121-34.09,7.2-43.118,13.767s-20.569-5.317-27.111,7.865c-5.588,11.259-5.95,23.743-16.569,23.683S210.426,131.394,209.191,146.558Z" transform="translate(-209.191 -78.114)" fill="none"/>
    </clipPath>
    <linearGradient id="linear-gradient" x1="0.087" y1="0.911" x2="1.098" y2="-0.173" gradientUnits="objectBoundingBox">
      <stop offset="0.004" stop-color="#e38ddd"/>
      <stop offset="1" stop-color="#9571f6"/>
    </linearGradient>
    <linearGradient id="linear-gradient-2" x1="-42.214" y1="5.878" x2="-41.42" y2="7.083" gradientUnits="objectBoundingBox">
      <stop offset="0" stop-color="#aa80f9"/>
      <stop offset="0.996" stop-color="#6165d7"/>
    </linearGradient>
    <clipPath id="clip-path-2">
      <path id="SVGID-2" data-name="SVGID" d="M213.317,152.016l-21.406-4.7s-6.123-14.657,1.527-18.727,4.011-18.184,3-25.9c-2.73-20.934,21.717-19.456,20.517-46.567-.32-7.211-3.521-20.919,2.756-26.776,7.151-6.674,12.878-.351,17.418-5.907,7.1-8.683,19.1-11.964,26.741-3.291,7.538,8.561-.36,26-21.313,40.28-13.744,11.852-13.809,15.329-12.3,23.767,1.055,5.91,7.83,21.236-.537,27.55s-14.674,13.089-11.04,19.721C224.211,141.559,213.317,152.016,213.317,152.016Z" transform="translate(-189.592 -15.057)" fill="none"/>
    </clipPath>
    <linearGradient id="linear-gradient-3" x1="7.708" y1="3.501" x2="8.382" y2="4.378" gradientUnits="objectBoundingBox">
      <stop offset="0" stop-color="#ff9085"/>
      <stop offset="1" stop-color="#fb6fbb"/>
    </linearGradient>
    <clipPath id="clip-path-3">
      <path id="SVGID-3" data-name="SVGID" d="M240.919,153.439l-30.238.8c-1.923-4-4.471-11.4,1.782-13.4,8.693-2.79,8.2-17.441,5.533-22.54-3.3-6.31-10.667-21.151,2.7-25.664,11.126-3.757,19.142-4.027,19.269-17.786s7.647-22.6,20.869-22.228c13.914.388,24.447-17.444,36.095-12,20.3,9.495,3.816,40.367-19.845,49.953s-9.449,17.315-8.257,28.531c1.629,15.312-20.485,12.78-25.994,19C238.514,142.992,239.673,149.483,240.919,153.439Z" transform="translate(-208.499 -39.588)" fill="none"/>
    </clipPath>
    <linearGradient id="linear-gradient-4" x1="0.668" y1="0.163" x2="0.269" y2="1.049" gradientUnits="objectBoundingBox">
      <stop offset="0" stop-color="#444b8c"/>
      <stop offset="0.996" stop-color="#26264f"/>
    </linearGradient>
    <linearGradient id="linear-gradient-5" x1="0.628" y1="1.352" x2="-0.36" y2="-3.144" xlink:href="#linear-gradient-4"/>
    <linearGradient id="linear-gradient-6" x1="-0.037" y1="0.974" x2="1.005" y2="-0.023" xlink:href="#linear-gradient-4"/>
    <linearGradient id="linear-gradient-7" x1="0.844" y1="0.034" x2="-0.153" y2="1.267" xlink:href="#linear-gradient-4"/>
    <linearGradient id="linear-gradient-8" x1="0.928" y1="-0.324" x2="-0.448" y2="2.202" xlink:href="#linear-gradient"/>
    <linearGradient id="linear-gradient-9" x1="0.453" y1="1.209" x2="0.493" y2="0.605" gradientUnits="objectBoundingBox">
      <stop offset="0.004" stop-color="#26264f"/>
      <stop offset="1" stop-color="#444b8c"/>
    </linearGradient>
    <linearGradient id="linear-gradient-10" x1="0.341" y1="0.938" x2="0.642" y2="-0.276" xlink:href="#linear-gradient-9"/>
    <linearGradient id="linear-gradient-11" x1="0" y1="0.5" x2="1" y2="0.5" xlink:href="#linear-gradient-9"/>
    <linearGradient id="linear-gradient-12" x1="0.384" y1="1.047" x2="0.649" y2="-0.416" xlink:href="#linear-gradient-9"/>
    <linearGradient id="linear-gradient-15" x1="0.475" y1="1.004" x2="0.575" y2="-0.995" xlink:href="#linear-gradient-9"/>
    <linearGradient id="linear-gradient-16" x1="0.429" y1="0.313" x2="1.075" y2="1.164" gradientUnits="objectBoundingBox">
      <stop offset="0" stop-color="#fcb148"/>
      <stop offset="0.052" stop-color="#fdb946"/>
      <stop offset="0.142" stop-color="#fec144"/>
      <stop offset="0.318" stop-color="#ffc444"/>
      <stop offset="0.485" stop-color="#fdb946"/>
      <stop offset="0.775" stop-color="#f99c4c"/>
      <stop offset="0.866" stop-color="#f8924f"/>
      <stop offset="1" stop-color="#f8924f"/>
    </linearGradient>
    <linearGradient id="linear-gradient-17" x1="-0.641" y1="0.986" x2="0.67" y2="0.427" gradientUnits="objectBoundingBox">
      <stop offset="0.494" stop-color="#ebeff2"/>
      <stop offset="1" stop-color="#fff"/>
    </linearGradient>
    <linearGradient id="linear-gradient-18" x1="-0.788" y1="1.049" x2="0.523" y2="0.49" xlink:href="#linear-gradient-17"/>
    <linearGradient id="linear-gradient-19" x1="-0.573" y1="10.265" x2="0.045" y2="4.833" xlink:href="#linear-gradient-17"/>
    <linearGradient id="linear-gradient-20" x1="0.546" y1="0.061" x2="0.39" y2="1.002" xlink:href="#linear-gradient-16"/>
    <linearGradient id="linear-gradient-21" x1="-0.446" y1="0.126" x2="3.174" y2="1.732" gradientUnits="objectBoundingBox">
      <stop offset="0" stop-color="#ffc444"/>
      <stop offset="0.996" stop-color="#f36f56"/>
    </linearGradient>
    <linearGradient id="linear-gradient-22" x1="-251.848" y1="2.813" x2="-250.58" y2="13.283" gradientUnits="objectBoundingBox">
      <stop offset="0" stop-color="#311944"/>
      <stop offset="1" stop-color="#893976"/>
    </linearGradient>
    <linearGradient id="linear-gradient-23" x1="-847.209" y1="13.144" x2="-847.147" y2="8.848" xlink:href="#linear-gradient-21"/>
    <linearGradient id="linear-gradient-24" x1="-252.014" y1="0.882" x2="-250.746" y2="11.351" xlink:href="#linear-gradient-22"/>
    <linearGradient id="linear-gradient-25" x1="-846.883" y1="12.081" x2="-846.821" y2="7.784" xlink:href="#linear-gradient-21"/>
    <linearGradient id="linear-gradient-26" x1="0.228" y1="0.162" x2="0.85" y2="0.831" xlink:href="#linear-gradient-22"/>
    <linearGradient id="linear-gradient-27" x1="-157.992" y1="0.957" x2="-156.962" y2="0.957" xlink:href="#linear-gradient-22"/>
    <linearGradient id="linear-gradient-28" x1="-122.184" y1="0.932" x2="-120.975" y2="0.932" xlink:href="#linear-gradient-22"/>
    <linearGradient id="linear-gradient-29" x1="0.486" y1="0.282" x2="0.972" y2="3.745" xlink:href="#linear-gradient-21"/>
    <linearGradient id="linear-gradient-30" x1="-53.637" y1="2.728" x2="-53.239" y2="4.551" xlink:href="#linear-gradient-21"/>
    <linearGradient id="linear-gradient-31" x1="-58.682" y1="2.263" x2="-60.01" y2="0.802" xlink:href="#linear-gradient-21"/>
    <linearGradient id="linear-gradient-32" x1="1.427" y1="-2.638" x2="0.272" y2="1.127" xlink:href="#linear-gradient-21"/>
    <linearGradient id="linear-gradient-33" x1="-98.153" y1="3.212" x2="-97.429" y2="5.421" xlink:href="#linear-gradient-21"/>
    <linearGradient id="linear-gradient-34" x1="-227.108" y1="146.875" x2="-227.108" y2="145.479" xlink:href="#linear-gradient-21"/>
    <linearGradient id="linear-gradient-35" x1="-271.23" y1="5.279" x2="-271.947" y2="3.693" gradientUnits="objectBoundingBox">
      <stop offset="0" stop-color="#444b8c"/>
      <stop offset="0.996" stop-color="#3e4177"/>
    </linearGradient>
    <linearGradient id="linear-gradient-36" x1="-572.984" y1="274.575" x2="-571.857" y2="272.199" xlink:href="#linear-gradient-21"/>
    <linearGradient id="linear-gradient-37" x1="0.739" y1="-0.598" x2="-0.341" y2="4.867" xlink:href="#linear-gradient-3"/>
    <linearGradient id="linear-gradient-38" x1="-71.386" y1="2.604" x2="-70.39" y2="2.604" xlink:href="#linear-gradient-4"/>
    <linearGradient id="linear-gradient-39" x1="-31.984" y1="14.911" x2="-31.021" y2="14.911" xlink:href="#linear-gradient-4"/>
    <linearGradient id="linear-gradient-40" x1="1.099" y1="0.836" x2="0.299" y2="0.171" xlink:href="#linear-gradient-2"/>
    <linearGradient id="linear-gradient-41" x1="-8.877" y1="1.374" x2="-10.01" y2="0.725" xlink:href="#linear-gradient-2"/>
    <linearGradient id="linear-gradient-42" x1="0.828" y1="-0.249" x2="0.19" y2="1.807" xlink:href="#linear-gradient-3"/>
    <linearGradient id="linear-gradient-43" x1="0.292" y1="1.627" x2="0.545" y2="0.675" xlink:href="#linear-gradient-3"/>
    <linearGradient id="linear-gradient-44" x1="0.807" y1="-0.53" x2="-0.019" y2="2.631" xlink:href="#linear-gradient-3"/>
    <linearGradient id="linear-gradient-45" x1="0.647" y1="3.338" x2="0.526" y2="0.667" xlink:href="#linear-gradient-22"/>
    <linearGradient id="linear-gradient-46" x1="0.444" y1="-0.345" x2="0.57" y2="1.229" xlink:href="#linear-gradient-22"/>
    <linearGradient id="linear-gradient-47" x1="0.583" y1="0.691" x2="0.394" y2="0.249" xlink:href="#linear-gradient-4"/>
    <linearGradient id="linear-gradient-48" x1="0.206" y1="1.422" x2="0.626" y2="0.015" xlink:href="#linear-gradient-22"/>
    <linearGradient id="linear-gradient-49" x1="0" y1="0.5" x2="1" y2="0.5" xlink:href="#linear-gradient-22"/>
    <linearGradient id="linear-gradient-50" x1="-78.352" y1="-8.641" x2="-79.03" y2="-10.183" gradientUnits="objectBoundingBox">
      <stop offset="0" stop-color="#311944"/>
      <stop offset="1" stop-color="#6b3976"/>
    </linearGradient>
    <linearGradient id="linear-gradient-51" x1="-91.086" y1="-12.776" x2="-91.871" y2="-14.966" xlink:href="#linear-gradient-50"/>
  </defs>
  <g id="Grupo_24862" data-name="Grupo 24862" transform="translate(0)">
    <path id="Trazado_60380" data-name="Trazado 60380" d="M131.514,3.891c-27.621,10.983-30.266,39.057-55.136,41.466-21.67,2.1-29.907-18.223-45.112-14.582C8.1,36.323-6.458,91.543,2.845,136.948,12.45,183.831,52.807,246.157,119.667,250.41,194.731,255.186,251.528,183.475,255,120.544c.375-6.806,2.59-63.829-41.005-97.514C211.813,21.347,168.854-10.955,131.514,3.891Z" transform="translate(0 0)" fill="#f4f7fa"/>
    <g id="Grupo_24839" data-name="Grupo 24839" transform="translate(122.994 9.781)">
      <g id="Grupo_24830" data-name="Grupo 24830" transform="translate(12.903 40.964)">
        <g id="Grupo_24829" data-name="Grupo 24829" clip-path="url(#clip-path)">
          <path id="Trazado_60381" data-name="Trazado 60381" d="M209.191,146.558l13.952,16.058s10.864-4.135,13.258-13.121c4.885-18.335,20.6-12.777,27.533-11.434,10.453,2.026,19.276-.746,16.814-11.965-2.785-12.693,16.313-15.966,32.723-10.262,16.058,5.582,35.247-19.742,1.6-35.014-20.094-9.121-34.09,7.2-43.118,13.767s-20.569-5.317-27.111,7.865c-5.588,11.259-5.95,23.743-16.569,23.683S210.426,131.394,209.191,146.558Z" transform="translate(-209.191 -78.114)" fill="url(#linear-gradient)"/>
          <g id="Grupo_24828" data-name="Grupo 24828" transform="translate(4.548 1.39)" opacity="0.5" style="mix-blend-mode: soft-light;isolation: isolate">
            <path id="Trazado_60382" data-name="Trazado 60382" d="M216.192,165.683l.351.28c.174-.217,17.636-21.91,41.431-38.2,21.922-15,53.861-28.354,81.529-6.752l.276-.353c-12.316-9.616-26.487-13.226-42.12-10.729-12.488,2-25.927,7.872-39.946,17.468C233.864,143.725,216.366,165.465,216.192,165.683Z" transform="translate(-216.192 -90.384)" fill="#beb8f2"/>
            <path id="Trazado_60383" data-name="Trazado 60383" d="M331.612,101.129l.334.3c9.985-11.122,29.6-20.676,29.793-20.771l-.2-.4C361.346,80.349,341.656,89.942,331.612,101.129Z" transform="translate(-256.632 -80.254)" fill="#beb8f2"/>
            <path id="Trazado_60384" data-name="Trazado 60384" d="M347.716,110.034c17.025,5.234,22.877,18.86,22.934,19l.414-.173c-.058-.139-5.983-13.955-23.217-19.254Z" transform="translate(-262.274 -90.538)" fill="#beb8f2"/>
            <path id="Trazado_60385" data-name="Trazado 60385" d="M257.343,153.628c19.276-10.1,42.084,8.235,42.291,8.432l.329-.3c-.185-.213-23.381-18.713-42.829-8.526Z" transform="translate(-230.537 -104.751)" fill="#beb8f2"/>
            <path id="Trazado_60386" data-name="Trazado 60386" d="M267.74,131.054l.358.272c8.408-11.051,5.8-28.318,5.769-28.491l-.444.07C273.451,103.077,276.031,120.157,267.74,131.054Z" transform="translate(-234.253 -88.166)" fill="#beb8f2"/>
            <path id="Trazado_60387" data-name="Trazado 60387" d="M220.934,189.953c6.646-4.916,19.288-.314,19.415-.268l.156-.421c-.527-.2-13-4.734-19.838.327Z" transform="translate(-217.76 -117.727)" fill="#beb8f2"/>
            <path id="Trazado_60388" data-name="Trazado 60388" d="M227.337,171.585l.348.285c4.142-5.056,3.172-17.114,2.854-21.077-.045-.56-.084-1.043-.074-1.131l-.446-.057a10.541,10.541,0,0,0,.072,1.224C230.406,154.746,231.364,166.669,227.337,171.585Z" transform="translate(-220.097 -104.552)" fill="#beb8f2"/>
          </g>
        </g>
      </g>
      <g id="Grupo_24834" data-name="Grupo 24834">
        <path id="Trazado_60389" data-name="Trazado 60389" d="M218.59,131.467c3.179,5.8.667,11.7-1.82,15.691a6.725,6.725,0,0,0-1.633.342c-5.737,1.414-8.485.794-14.36,1.294a30.847,30.847,0,0,1-6.606-1.137l-2.848-.851s-5.626-14.148,2.024-18.218,4.011-18.184,3-25.9c-.618-4.738.617-7.1.67-8.88.555-18.813-5.27-24.21-1.331-30.217,4.348-6.631,12.691-1.952,17.8-8.916,5.771-7.864-.993-19.109,6.132-25.33a12.386,12.386,0,0,1,4.562-2.8c5.078-1.651,9.326,1.211,12.857-3.109,7.1-8.683,19.1-11.964,26.74-3.291,7.538,8.561-.36,26-21.313,40.28C228.726,72.28,228.66,75.758,230.167,84.2c1.054,5.91,7.83,21.236-.537,27.55S214.956,124.835,218.59,131.467Z" transform="translate(-189.329 -15.057)" fill="url(#linear-gradient-2)"/>
        <g id="Grupo_24833" data-name="Grupo 24833" transform="translate(0.17)">
          <g id="Grupo_24832" data-name="Grupo 24832" clip-path="url(#clip-path-2)">
            <g id="Grupo_24831" data-name="Grupo 24831" transform="translate(1.328 -2.439)" opacity="0.5" style="mix-blend-mode: soft-light;isolation: isolate">
              <path id="Trazado_60390" data-name="Trazado 60390" d="M211.457,147.646l-.433-.043c.212-2.389.457-4.8.729-7.152a233.742,233.742,0,0,1,11-49.361,190.858,190.858,0,0,1,16.859-36.3,164.228,164.228,0,0,1,18.113-24.631,135.994,135.994,0,0,1,14.466-14.015c.861-.714,1.786-1.4,2.681-2.061,1.191-.882,2.424-1.794,3.515-2.783l.307.292c-1.106,1-2.347,1.921-3.547,2.809-.89.659-1.81,1.34-2.663,2.046a135.57,135.57,0,0,0-14.422,13.974A163.864,163.864,0,0,0,239.988,55a190.474,190.474,0,0,0-16.824,36.225A233.333,233.333,0,0,0,212.184,140.5C211.913,142.856,211.668,145.259,211.457,147.646Z" transform="translate(-198.429 -11.303)" fill="#fcfdfe"/>
              <path id="Trazado_60391" data-name="Trazado 60391" d="M243.151,75.52l-.4-.164c7.194-15.805-1.057-44.628-1.141-44.917l.419-.1C242.112,30.633,250.4,59.589,243.151,75.52Z" transform="translate(-209.145 -17.974)" fill="#fcfdfe"/>
              <path id="Trazado_60392" data-name="Trazado 60392" d="M219.262,159.51l-.417-.121c3.524-11.3,25.74-20.369,25.964-20.459l.181.371C244.766,139.39,222.73,148.384,219.262,159.51Z" transform="translate(-201.169 -56.02)" fill="#fcfdfe"/>
              <path id="Trazado_60393" data-name="Trazado 60393" d="M211.966,163.66l-.431-.051c.85-7.67-2.412-18.646-9.186-30.908-.34-.616-.34-.616-.333-.692l.432.045-.216-.023.207-.054c.018.044.146.277.3.546C209.547,144.856,212.825,155.914,211.966,163.66Z" transform="translate(-195.272 -53.584)" fill="#fcfdfe"/>
              <path id="Trazado_60394" data-name="Trazado 60394" d="M212.17,208.4l-.4-.162c3.505-7.79,16.543-11.069,16.675-11.1l.12.39C228.434,197.562,215.595,200.792,212.17,208.4Z" transform="translate(-198.69 -76.415)" fill="#fcfdfe"/>
              <path id="Trazado_60395" data-name="Trazado 60395" d="M204.009,210.531c-1.937-6.667-5.984-13.078-12.373-19.6l.318-.268c6.438,6.573,10.518,13.041,12.474,19.771Z" transform="translate(-191.636 -74.146)" fill="#fcfdfe"/>
              <path id="Trazado_60396" data-name="Trazado 60396" d="M277.331,35l-.39-.184c4.532-8.569,7.131-18.594,7.985-21.888.207-.8.281-1.078.325-1.171l.4.17c-.032.071-.151.527-.3,1.1C284.492,16.34,281.884,26.4,277.331,35Z" transform="translate(-221.524 -11.463)" fill="#fcfdfe"/>
              <path id="Trazado_60397" data-name="Trazado 60397" d="M262.573,63.642l-.317-.282c6.638-6.461,26.078-6.6,26.9-6.6l.012.4C288.97,57.161,269.087,57.3,262.573,63.642Z" transform="translate(-216.379 -27.229)" fill="#fcfdfe"/>
            </g>
          </g>
        </g>
      </g>
      <g id="Grupo_24838" data-name="Grupo 24838" transform="translate(12.119 15.936)">
        <path id="Trazado_60398" data-name="Trazado 60398" d="M237.058,157.222c-1.3-.12-6.141,11.671-10.2,3.242-1.015-2.106-2.34-9.465-11.949-9.477l-5.6-.007c-1.746-4.13-2.627-8.346,2.971-10.143,8.693-2.79,8.2-17.442,5.533-22.54-3.3-6.31-10.667-21.151,2.7-25.664,11.127-3.757,19.143-4.027,19.269-17.786s7.647-22.6,20.869-22.228c13.914.388,24.447-17.444,36.095-12,20.3,9.495,3.816,40.367-19.845,49.953s-9.449,17.315-8.256,28.531a19.456,19.456,0,0,1-.314,4.6c-2.25,11.828-14.433,14.27-22.868,24.181C233.96,161.4,239.25,157.424,237.058,157.222Z" transform="translate(-207.985 -39.588)" fill="url(#linear-gradient-3)"/>
        <g id="Grupo_24837" data-name="Grupo 24837" transform="translate(0.334)">
          <g id="Grupo_24836" data-name="Grupo 24836" clip-path="url(#clip-path-3)">
            <g id="Grupo_24835" data-name="Grupo 24835" transform="translate(5.939 3.178)" opacity="0.5" style="mix-blend-mode: soft-light;isolation: isolate">
              <path id="Trazado_60399" data-name="Trazado 60399" d="M235.862,151.037l-.648-.1c7.477-44.647,37.9-85.438,79.394-106.456l.314.546C273.6,65.954,243.308,106.576,235.862,151.037Z" transform="translate(-223.798 -44.479)" fill="#fcfdfe"/>
              <path id="Trazado_60400" data-name="Trazado 60400" d="M235.992,154.461l-.655.02c-.794-17.782-17.528-31.148-17.7-31.281l.417-.474C218.229,122.86,235.186,136.4,235.992,154.461Z" transform="translate(-217.641 -71.895)" fill="#fcfdfe"/>
              <path id="Trazado_60401" data-name="Trazado 60401" d="M238.376,185.264l-.59-.276c8.353-16.145,42.926-19.455,43.275-19.486l.069.617C280.785,166.15,246.57,169.427,238.376,185.264Z" transform="translate(-224.699 -86.882)" fill="#fcfdfe"/>
              <path id="Trazado_60402" data-name="Trazado 60402" d="M276.232,92.9l-.612-.227c5.439-13.306-4.528-33.216-4.629-33.416l.591-.264C271.685,59.191,281.772,79.344,276.232,92.9Z" transform="translate(-236.333 -49.563)" fill="#fcfdfe"/>
              <path id="Trazado_60403" data-name="Trazado 60403" d="M309.594,74.613l-.366-.516c14.315-8.984,37.287-4.97,37.518-4.928l-.117.609C346.4,69.736,323.687,65.768,309.594,74.613Z" transform="translate(-249.73 -52.804)" fill="#fcfdfe"/>
            </g>
          </g>
        </g>
      </g>
    </g>
    <g id="Grupo_24850" data-name="Grupo 24850" transform="translate(8.142 54.234)">
      <g id="Grupo_24840" data-name="Grupo 24840" transform="translate(97.541 150.261)">
        <path id="Trazado_60404" data-name="Trazado 60404" d="M227.251,351.533A10.941,10.941,0,0,1,220,343.3l-5.392-26.686-46.123,1.638-5.676,27.8c-.8,3.894,2.387,7.8,6.053,9.234l19.3,7.55a25.084,25.084,0,0,0,11.282,1.636l40.781-3.488a2.531,2.531,0,0,0,2.287-2.242c.139-1.2.974-2.552-.163-2.929Z" transform="translate(-162.683 -315.426)" fill="url(#linear-gradient-4)"/>
        <path id="Trazado_60405" data-name="Trazado 60405" d="M228.546,349.272a10.845,10.845,0,0,1-7.247-8.133l-5.386-26.35-45,1.619-5.671,27.451a8.031,8.031,0,0,0,4.968,9.116l19.278,7.455a25.319,25.319,0,0,0,11.27,1.615L241.5,358.6a2.513,2.513,0,0,0,.571-4.893Z" transform="translate(-163.522 -314.788)" fill="url(#linear-gradient-5)"/>
      </g>
      <g id="Grupo_24842" data-name="Grupo 24842">
        <g id="Grupo_24841" data-name="Grupo 24841">
          <path id="Trazado_60406" data-name="Trazado 60406" d="M21.627,252.666c-5,.3-9.093-2.947-9.093-7.234V90.878c0-4.288,4.092-7.6,9.093-7.383L252.939,93.517a6.992,6.992,0,0,1,6.646,6.9V231.866a7.134,7.134,0,0,1-6.646,7.01Z" transform="translate(-12.534 -83.485)" fill="#97a6b7"/>
          <path id="Trazado_60407" data-name="Trazado 60407" d="M24.827,252.666c-5,.3-9.093-2.947-9.093-7.234V90.878c0-4.288,4.092-7.6,9.093-7.383L256.139,93.517a6.992,6.992,0,0,1,6.646,6.9V231.866a7.134,7.134,0,0,1-6.646,7.01Z" transform="translate(-13.655 -83.485)" fill="url(#linear-gradient-6)"/>
          <path id="Trazado_60408" data-name="Trazado 60408" d="M258.429,98.555,27.118,89.039c-2.674-.11-4.848,1.657-4.848,3.947V247.143c0,2.289,2.174,4.021,4.848,3.867l231.311-13.283a3.807,3.807,0,0,0,3.56-3.747V102.245A3.733,3.733,0,0,0,258.429,98.555Z" transform="translate(-15.945 -85.429)" fill="url(#linear-gradient-7)"/>
          <path id="Trazado_60409" data-name="Trazado 60409" d="M28.713,239.242a1.67,1.67,0,0,1-1.888-1.522V94.462a1.69,1.69,0,0,1,1.888-1.541l231.311,9.161a1.459,1.459,0,0,1,1.391,1.44V226.353a1.476,1.476,0,0,1-1.391,1.454Z" transform="translate(-17.541 -86.79)" fill="url(#linear-gradient-8)"/>
        </g>
        <path id="Trazado_60410" data-name="Trazado 60410" d="M231.991,229.31c-19.46-12.038-5.868-46.263-27.722-63.46-22.033-17.337-53.036,3.926-68.47-14.028-11.491-13.369,1.955-29.511-9.018-42.084-17.208-19.717-61.258,7.4-81.5-12.024-2.873-2.758-5.773-6.942-7.423-13.655l-13.033-.565c-5-.216-9.093,3.095-9.093,7.383V245.432c0,4.288,4.092,7.532,9.093,7.234l231.311-13.79a7.134,7.134,0,0,0,6.646-7.01V229.53C247.425,234.741,238.036,233.049,231.991,229.31Z" transform="translate(-13.655 -83.485)" fill="#fff" opacity="0.5" style="mix-blend-mode: soft-light;isolation: isolate"/>
      </g>
      <g id="Grupo_24849" data-name="Grupo 24849" transform="translate(24.015 20.103)">
        <path id="Trazado_60411" data-name="Trazado 60411" d="M49.5,283.179l55.675-2.323V251.667L49.5,253.017Z" transform="translate(-49.502 -162.514)" fill="#f4f7fa" style="mix-blend-mode: soft-light;isolation: isolate"/>
        <g id="Grupo_24844" data-name="Grupo 24844" transform="translate(0.233)" opacity="0.8">
          <g id="Grupo_24843" data-name="Grupo 24843" opacity="0.7">
            <path id="Trazado_60412" data-name="Trazado 60412" d="M279.092,189.273l8.458-.117V127.314l-8.458-.217Z" transform="translate(-130.177 -118.869)" fill="#f4f7fa"/>
            <path id="Trazado_60413" data-name="Trazado 60413" d="M255.595,206.2l8.623-.119V174.864l-8.623-.051Z" transform="translate(-121.944 -135.587)" fill="#f4f7fa"/>
            <path id="Trazado_60414" data-name="Trazado 60414" d="M231.638,186.033l8.791-.121V116.894l-8.791-.258Z" transform="translate(-113.55 -115.203)" fill="#f4f7fa"/>
            <path id="Trazado_60415" data-name="Trazado 60415" d="M207.208,191.608l8.965-.124V132.127l-8.965-.206Z" transform="translate(-104.991 -120.559)" fill="#f4f7fa"/>
            <path id="Trazado_60416" data-name="Trazado 60416" d="M182.291,215.406l9.145-.126V199.206l-9.145.036Z" transform="translate(-96.26 -144.133)" fill="#f4f7fa"/>
            <path id="Trazado_60417" data-name="Trazado 60417" d="M156.872,203.8l9.329-.129V165.51l-9.329-.087Z" transform="translate(-87.354 -132.296)" fill="#f4f7fa"/>
            <path id="Trazado_60418" data-name="Trazado 60418" d="M130.935,194.719l9.519-.131V139.035l-9.519-.187Z" transform="translate(-78.267 -122.986)" fill="#f4f7fa"/>
            <path id="Trazado_60419" data-name="Trazado 60419" d="M104.466,203.016l9.715-.134V161.956l-9.715-.1Z" transform="translate(-68.993 -131.046)" fill="#f4f7fa"/>
            <path id="Trazado_60420" data-name="Trazado 60420" d="M77.447,190.8l9.918-.137V126.521l-9.918-.238Z" transform="translate(-59.526 -118.583)" fill="#f4f7fa"/>
            <path id="Trazado_60421" data-name="Trazado 60421" d="M49.861,186.89l10.126-.14V114.716l-10.126-.285Z" transform="translate(-49.861 -114.43)" fill="#f4f7fa"/>
          </g>
        </g>
        <path id="Trazado_60422" data-name="Trazado 60422" d="M304.07,286.345l41.608-1.736V280.4l-41.608,1.621Z" transform="translate(-138.695 -172.581)" fill="#f4f7fa" style="mix-blend-mode: soft-light;isolation: isolate"/>
        <path id="Trazado_60423" data-name="Trazado 60423" d="M304.07,201.184l41.608-.247v-4.211l-41.608.132Z" transform="translate(-138.695 -143.264)" fill="#f4f7fa" style="mix-blend-mode: soft-light;isolation: isolate"/>
        <path id="Trazado_60424" data-name="Trazado 60424" d="M304.07,189.855l41.608-.05V185.6l-41.608-.066Z" transform="translate(-138.695 -139.341)" fill="#f4f7fa" style="mix-blend-mode: soft-light;isolation: isolate"/>
        <path id="Trazado_60425" data-name="Trazado 60425" d="M304.07,276.63l6.781-.257v-6.635l-6.781.228Z" transform="translate(-138.695 -168.846)" fill="#f4f7fa" style="mix-blend-mode: soft-light;isolation: isolate"/>
        <g id="Grupo_24846" data-name="Grupo 24846" transform="translate(170.397 69.768)">
          <path id="Trazado_60426" data-name="Trazado 60426" d="M311.8,237.981a15.381,15.381,0,0,0,16.063,15.383A16.31,16.31,0,0,0,343.6,237.219a15.39,15.39,0,0,0-15.734-15.391A16.294,16.294,0,0,0,311.8,237.981Z" transform="translate(-311.801 -221.827)" fill="#d8dee8"/>
          <path id="Trazado_60427" data-name="Trazado 60427" d="M313.229,237.969a15.384,15.384,0,0,1,15.131-14.763,14.516,14.516,0,0,1,14.85,14.518,15.383,15.383,0,0,1-14.85,15.229,14.509,14.509,0,0,1-15.143-14.511C313.217,238.283,313.224,238.126,313.229,237.969Z" transform="translate(-312.297 -222.309)" fill="#fff" opacity="0.35" style="mix-blend-mode: soft-light;isolation: isolate"/>
          <path id="Trazado_60428" data-name="Trazado 60428" d="M313.229,237.969a15.384,15.384,0,0,1,15.131-14.763,14.516,14.516,0,0,1,14.85,14.518,15.383,15.383,0,0,1-14.85,15.229,14.509,14.509,0,0,1-15.143-14.511C313.217,238.283,313.224,238.126,313.229,237.969Z" transform="translate(-312.297 -222.309)" fill="#f4f7fa" style="mix-blend-mode: soft-light;isolation: isolate"/>
          <g id="Grupo_24845" data-name="Grupo 24845" transform="translate(0.932 1.82)">
            <path id="Trazado_60429" data-name="Trazado 60429" d="M313.236,238.468a15.345,15.345,0,0,1,10.116-13.84l5.014,13.95Z" transform="translate(-313.236 -224.628)" fill="#fff"/>
          </g>
        </g>
        <g id="Grupo_24847" data-name="Grupo 24847" transform="translate(0 96.792)" opacity="0.8">
          <path id="Trazado_60430" data-name="Trazado 60430" d="M64.792,268.926c3.537.133,4.062-1.914,7.544-2.113,5.906-.337,7.352,5.411,13.043,5.324,4.646-.071,5.815-3.952,10.414-3.522,3.419.32,4.092,2.6,7.425,2.922a8.041,8.041,0,0,0,1.959-.053v13.492L49.5,287.3V263.427A20.1,20.1,0,0,1,56.225,265C59.979,266.647,61.224,268.792,64.792,268.926Z" transform="translate(-49.502 -263.427)" fill="#f4f7fa"/>
        </g>
        <path id="Trazado_60431" data-name="Trazado 60431" d="M301.492,156.268l43.282.222V119.985l-43.282-1.222Z" transform="translate(-137.792 -115.948)" fill="#f4f7fa" style="mix-blend-mode: soft-light;isolation: isolate"/>
        <path id="Trazado_60432" data-name="Trazado 60432" d="M49.861,243.194l157.374-3.515v-6.6L49.861,235.935Z" transform="translate(-49.628 -156.003)" fill="#f4f7fa" style="mix-blend-mode: soft-light;isolation: isolate"/>
        <path id="Trazado_60433" data-name="Trazado 60433" d="M145.589,279l95.186-3.972V247.166l-95.186,2.281Z" transform="translate(-83.168 -160.937)" fill="#f4f7fa" style="mix-blend-mode: soft-light;isolation: isolate"/>
        <path id="Trazado_60434" data-name="Trazado 60434" d="M343.169,134.175h-.017l-37.849-.952a.656.656,0,1,1,.033-1.312l37.849.951a.656.656,0,0,1-.016,1.312Z" transform="translate(-138.903 -120.555)" fill="#fff"/>
        <g id="Grupo_24848" data-name="Grupo 24848" transform="translate(165.979 16.24)">
          <path id="Trazado_60435" data-name="Trazado 60435" d="M328.194,142.823l-4.7-.137v-3.257l4.7.168Z" transform="translate(-311.482 -139.429)" fill="#fff"/>
          <path id="Trazado_60436" data-name="Trazado 60436" d="M337.015,143.1l-4.587-.134v-3.22l4.587.164Z" transform="translate(-314.61 -139.541)" fill="#fff"/>
          <path id="Trazado_60437" data-name="Trazado 60437" d="M345.634,143.373l-4.483-.131v-3.183l4.483.16Z" transform="translate(-317.666 -139.65)" fill="#fff"/>
          <path id="Trazado_60438" data-name="Trazado 60438" d="M354.06,143.638l-4.383-.128v-3.147l4.383.156Z" transform="translate(-320.654 -139.756)" fill="#fff"/>
          <path id="Trazado_60439" data-name="Trazado 60439" d="M362.3,143.9l-4.286-.125v-3.112l4.286.153Z" transform="translate(-323.574 -139.861)" fill="#fff"/>
          <path id="Trazado_60440" data-name="Trazado 60440" d="M309.922,149.883l-4.922-.1v-3.336l4.922.128Z" transform="translate(-305 -141.889)" fill="#fff"/>
          <path id="Trazado_60441" data-name="Trazado 60441" d="M319.166,150.084l-4.806-.094v-3.3l4.806.125Z" transform="translate(-308.279 -141.975)" fill="#fff"/>
          <path id="Trazado_60442" data-name="Trazado 60442" d="M328.194,150.281l-4.7-.091v-3.257l4.7.122Z" transform="translate(-311.482 -142.058)" fill="#fff"/>
          <path id="Trazado_60443" data-name="Trazado 60443" d="M337.015,150.473l-4.587-.089v-3.22l4.587.119Z" transform="translate(-314.61 -142.139)" fill="#fff"/>
          <path id="Trazado_60444" data-name="Trazado 60444" d="M345.634,150.66l-4.483-.087V147.39l4.483.116Z" transform="translate(-317.666 -142.218)" fill="#fff"/>
          <path id="Trazado_60445" data-name="Trazado 60445" d="M354.06,150.844l-4.383-.085v-3.147l4.383.114Z" transform="translate(-320.654 -142.296)" fill="#fff"/>
          <path id="Trazado_60446" data-name="Trazado 60446" d="M362.3,151.023l-4.286-.083v-3.112l4.286.111Z" transform="translate(-323.574 -142.372)" fill="#fff"/>
          <path id="Trazado_60447" data-name="Trazado 60447" d="M309.922,157.518,305,157.47v-3.336l4.922.08Z" transform="translate(-305 -144.581)" fill="#fff"/>
          <path id="Trazado_60448" data-name="Trazado 60448" d="M319.166,157.629l-4.806-.047v-3.3l4.806.078Z" transform="translate(-308.279 -144.635)" fill="#fff"/>
          <path id="Trazado_60449" data-name="Trazado 60449" d="M328.194,157.738l-4.7-.046v-3.257l4.7.076Z" transform="translate(-311.482 -144.687)" fill="#fff"/>
          <path id="Trazado_60450" data-name="Trazado 60450" d="M337.015,157.844l-4.587-.045v-3.22l4.587.074Z" transform="translate(-314.61 -144.737)" fill="#fff"/>
          <path id="Trazado_60451" data-name="Trazado 60451" d="M345.634,157.948l-4.483-.044v-3.183l4.483.073Z" transform="translate(-317.666 -144.787)" fill="#fff"/>
          <path id="Trazado_60452" data-name="Trazado 60452" d="M354.06,158.049l-4.383-.043V154.86l4.383.071Z" transform="translate(-320.654 -144.835)" fill="#fff"/>
          <path id="Trazado_60453" data-name="Trazado 60453" d="M362.3,158.148l-4.286-.042V155l4.286.07Z" transform="translate(-323.574 -144.883)" fill="#fff"/>
          <path id="Trazado_60454" data-name="Trazado 60454" d="M309.922,165.153H305v-3.336l4.922.032Z" transform="translate(-305 -147.273)" fill="#fff"/>
          <path id="Trazado_60455" data-name="Trazado 60455" d="M319.166,165.174h-4.806v-3.3l4.806.031Z" transform="translate(-308.279 -147.295)" fill="#fff"/>
          <path id="Trazado_60456" data-name="Trazado 60456" d="M328.194,165.2h-4.7v-3.257l4.7.031Z" transform="translate(-311.482 -147.315)" fill="#fff"/>
          <path id="Trazado_60457" data-name="Trazado 60457" d="M337.015,165.215h-4.587V162l4.587.03Z" transform="translate(-314.61 -147.336)" fill="#fff"/>
          <path id="Trazado_60458" data-name="Trazado 60458" d="M345.634,165.235h-4.483v-3.183l4.483.029Z" transform="translate(-317.666 -147.356)" fill="#fff"/>
        </g>
      </g>
    </g>
    <g id="Grupo_24852" data-name="Grupo 24852" transform="translate(34.194 42.66)">
      <path id="Trazado_60459" data-name="Trazado 60459" d="M95.436,86.044c0-11.254-9.581-20.376-21.4-20.376s-21.4,9.123-21.4,20.376a20.073,20.073,0,0,0,8.945,16.571,8.4,8.4,0,0,1,3.691,6.935v1.56a6.135,6.135,0,0,0,6.135,6.134h5.257a6.135,6.135,0,0,0,6.134-6.134v-1.56a8.4,8.4,0,0,1,3.691-6.935A20.074,20.074,0,0,0,95.436,86.044Z" transform="translate(-52.637 -65.668)" fill="#f4f7fa" opacity="0.75"/>
      <ellipse id="Elipse_940" data-name="Elipse 940" cx="4.747" cy="2.513" rx="4.747" ry="2.513" transform="translate(16.652 58.149)" fill="url(#linear-gradient-9)"/>
      <path id="Trazado_60460" data-name="Trazado 60460" d="M75.869,152.137V154.7a2.254,2.254,0,0,0,1.278,2.037,12.019,12.019,0,0,0,5.526,1.021,12.4,12.4,0,0,0,4.408-.769,2.291,2.291,0,0,0,1.4-2.122v-1.42Z" transform="translate(-60.777 -95.964)" fill="url(#linear-gradient-10)"/>
      <path id="Trazado_60461" data-name="Trazado 60461" d="M75.869,154.385a2.5,2.5,0,0,0,.665.465c1.221.582,9.216,1.883,11.145,1.158a2.578,2.578,0,0,0,.674-.372,2.34,2.34,0,0,0,.131-.765v-1.42l-12.614-1.314Z" transform="translate(-60.777 -95.964)" opacity="0.3" fill="url(#linear-gradient-11)" style="mix-blend-mode: multiply;isolation: isolate"/>
      <path id="Trazado_60462" data-name="Trazado 60462" d="M76.014,149.445a1.2,1.2,0,0,0-1.328,1.2v.073A2.528,2.528,0,0,0,76.12,153c1.221.582,9.216,1.883,11.145,1.158a2.33,2.33,0,0,0,1.573-2.235v-.059a1.2,1.2,0,0,0-1.079-1.2Z" transform="translate(-60.362 -95.019)" fill="url(#linear-gradient-12)"/>
      <path id="Trazado_60463" data-name="Trazado 60463" d="M87.868,150.668l-11.744-1.223a1.2,1.2,0,0,0-1.125.53,2.519,2.519,0,0,0,1.23,1.29c1.221.582,9.557,2.052,11.145,1.3a2.752,2.752,0,0,0,1.363-1.381A1.2,1.2,0,0,0,87.868,150.668Z" transform="translate(-60.472 -95.019)" opacity="0.3" fill="url(#linear-gradient-11)" style="mix-blend-mode: multiply;isolation: isolate"/>
      <path id="Trazado_60464" data-name="Trazado 60464" d="M75.555,143.048a.869.869,0,0,0-.869.869v2.01a2.528,2.528,0,0,0,1.434,2.286c1.221.582,9.557,2.053,11.145,1.3a2.652,2.652,0,0,0,1.573-2.382v-3.219a.869.869,0,0,0-.869-.869Z" transform="translate(-60.362 -92.78)" fill="url(#linear-gradient-11)"/>
      <path id="Trazado_60465" data-name="Trazado 60465" d="M88.757,143.131c0,.9-3.09,1.632-6.9,1.632s-6.9-.731-6.9-1.632,3.089-1.631,6.9-1.631S88.757,142.23,88.757,143.131Z" transform="translate(-60.457 -92.237)" fill="url(#linear-gradient-15)"/>
      <path id="Trazado_60466" data-name="Trazado 60466" d="M95.436,86.044c0-11.254-9.581-20.376-21.4-20.376s-21.4,9.123-21.4,20.376a20.073,20.073,0,0,0,8.945,16.571,8.4,8.4,0,0,1,3.691,6.935v1.56a6.135,6.135,0,0,0,6.135,6.134h5.257a6.135,6.135,0,0,0,6.134-6.134v-1.56a8.4,8.4,0,0,1,3.691-6.935A20.074,20.074,0,0,0,95.436,86.044Z" transform="translate(-52.637 -65.668)" fill="url(#linear-gradient-16)"/>
      <ellipse id="Elipse_941" data-name="Elipse 941" cx="5.049" cy="1.194" rx="5.049" ry="1.194" transform="translate(16.35 48.414)" fill="#f4f7fa" opacity="0.5" style="mix-blend-mode: soft-light;isolation: isolate"/>
      <g id="Grupo_24851" data-name="Grupo 24851" transform="translate(16.077 18.139)">
        <path id="Trazado_60467" data-name="Trazado 60467" d="M81.392,127.258A.292.292,0,0,1,81.1,127L77.388,98.115a.292.292,0,0,1,.579-.075l3.715,28.888a.292.292,0,0,1-.253.327A.237.237,0,0,1,81.392,127.258Z" transform="translate(-77.385 -95.06)" fill="url(#linear-gradient-17)"/>
        <path id="Trazado_60468" data-name="Trazado 60468" d="M86.946,127.258a.251.251,0,0,1-.038,0,.292.292,0,0,1-.252-.327l3.715-28.888a.292.292,0,0,1,.579.075L87.236,127A.292.292,0,0,1,86.946,127.258Z" transform="translate(-80.633 -95.06)" fill="url(#linear-gradient-18)"/>
        <path id="Trazado_60469" data-name="Trazado 60469" d="M87,96.622a.291.291,0,0,1-.244-.131l-1.025-1.555a.046.046,0,0,0-.042-.023.047.047,0,0,0-.04.025L84.97,96.07A.63.63,0,0,1,83.9,96.1l-.93-1.393a.048.048,0,0,0-.04-.023.049.049,0,0,0-.038.021l-.817,1.18a.633.633,0,0,1-.517.273h0a.632.632,0,0,1-.518-.272L79.863,94.2a.055.055,0,0,0-.042-.022.047.047,0,0,0-.04.025l-1.074,1.855a.292.292,0,0,1-.505-.293l1.074-1.855a.629.629,0,0,1,1.064-.044l1.177,1.686a.049.049,0,0,0,.04.022.048.048,0,0,0,.038-.021l.817-1.18a.63.63,0,0,1,1.045.01l.929,1.393c.01.016.027.029.042.023a.046.046,0,0,0,.04-.025l.677-1.134a.631.631,0,0,1,1.07-.023L87.24,96.17a.292.292,0,0,1-.244.452Z" transform="translate(-77.658 -93.59)" fill="url(#linear-gradient-19)"/>
      </g>
      <path id="Trazado_60470" data-name="Trazado 60470" d="M74.425,103.9c.459-7.854,13.7-9.692,13.642-16.706-.035-4.32-5.3-7.528-6.42-8.17-8.278-4.734-18.468.733-20.572-3.137a3.614,3.614,0,0,1-.138-2.61,5.59,5.59,0,0,1,1.4-2.512,19.84,19.84,0,0,0-.756,33.634,8.4,8.4,0,0,1,3.691,6.935v1.56a6.135,6.135,0,0,0,6.135,6.134h5.257A6.135,6.135,0,0,0,82.8,112.9v-1.247a4.026,4.026,0,0,1-2.466.934C77.172,112.559,74.2,107.812,74.425,103.9Z" transform="translate(-52.637 -67.455)" opacity="0.3" fill="url(#linear-gradient-20)" style="mix-blend-mode: multiply;isolation: isolate"/>
      <ellipse id="Elipse_942" data-name="Elipse 942" cx="18.415" cy="17.759" rx="18.415" ry="17.759" transform="translate(3.327 3.412)" fill="#f4f7fa" opacity="0.44" style="mix-blend-mode: soft-light;isolation: isolate"/>
    </g>
    <g id="Grupo_24854" data-name="Grupo 24854" transform="translate(192.616 124.322)">
      <path id="Trazado_60471" data-name="Trazado 60471" d="M300.078,220.734s.925-3.209.269-4.122-1.9-4.123-2.024-3.348a8.008,8.008,0,0,0,.62,2.656s-2.324.8-1.577,2.13,1.083,1.964.956,2.352S299.912,221.011,300.078,220.734Z" transform="translate(-296.753 -199.002)" fill="url(#linear-gradient-21)"/>
      <path id="Trazado_60472" data-name="Trazado 60472" d="M337.444,381.893a21.16,21.16,0,0,1,.292,2.785c-.042.731-8.154,1.1-8.236.557s1.341-1.418,2.342-1.725,3.932-1.128,3.932-1.128Z" transform="translate(-308.062 -258.126)" fill="url(#linear-gradient-22)"/>
      <path id="Trazado_60473" data-name="Trazado 60473" d="M338.7,378.7l.259,2.554a1.843,1.843,0,0,0,1.772.142l.416-2.78Z" transform="translate(-311.287 -256.976)" fill="url(#linear-gradient-23)"/>
      <path id="Trazado_60474" data-name="Trazado 60474" d="M359.722,387.018a21.153,21.153,0,0,1,.293,2.785c-.042.731-8.154,1.105-8.236.557s1.341-1.419,2.342-1.726,3.932-1.128,3.932-1.128Z" transform="translate(-315.868 -259.922)" fill="url(#linear-gradient-24)"/>
      <path id="Trazado_60475" data-name="Trazado 60475" d="M360.977,383.821l.259,2.554a1.844,1.844,0,0,0,1.772.142l.416-2.78Z" transform="translate(-319.092 -258.772)" fill="url(#linear-gradient-25)"/>
      <path id="Trazado_60476" data-name="Trazado 60476" d="M338.93,275.52l-2.814,5.7c-.754,10.848-1.128,22.645-.888,35.26.179,9.386.681,18.277,1.4,26.623l3.814-.175a38.037,38.037,0,0,0,4.208-16c.209-7.117-1.95-8.063-1.812-14.877.177-8.832,3.881-11.189,5.854-21.813a56.92,56.92,0,0,0,.659-15.808Z" transform="translate(-310.045 -220.475)" fill="url(#linear-gradient-26)"/>
      <path id="Trazado_60477" data-name="Trazado 60477" d="M350.056,274.433l-5.629.587c-3.377,5.878-4.321,12-3.728,14.7.838,3.829,3.056,5.055,2.934,8.9-.121,3.8-2.361,4.789-3.783,9.272-.984,3.1-.724,5.958-.164,11.539,1.127,11.241,3.842,14.679,1.568,18.365a8.3,8.3,0,0,1-4.091,3.246c.056.689.111,1.381.17,2.063l3.814-.175a38.043,38.043,0,0,0,4.208-16c.209-7.117-1.95-8.063-1.812-14.877.177-8.832,3.881-11.189,5.854-21.813A56.919,56.919,0,0,0,350.056,274.433Z" transform="translate(-310.748 -220.475)" opacity="0.3" fill="url(#linear-gradient-27)" style="mix-blend-mode: multiply;isolation: isolate"/>
      <path id="Trazado_60478" data-name="Trazado 60478" d="M348.73,279.925c1.76,9.6,3.314,19.87,4.527,30.764,1.465,13.153,2.246,25.554,2.554,37.067l4.186.118c5.5-10.877,5.834-18.252,5.042-23.053a69.4,69.4,0,0,1-1.325-10.9,76.731,76.731,0,0,1,.41-10.113c.661-7.581,1.462-9.236,1.577-15.035.108-5.443.131-8.2-1.423-9.8C360.186,274.734,349.537,279.55,348.73,279.925Z" transform="translate(-314.801 -221.458)" fill="url(#linear-gradient-28)"/>
      <path id="Trazado_60479" data-name="Trazado 60479" d="M300.252,220.087l-2.784-.194c-2.189,8.847-.619,17.428,4.322,20.584,7.72,4.931,22.066-4.359,25.175-14.474,1.365-4.44,1.054-10.847-1.673-12.092-.757-.346-1.931-.4-4.477,1.03-7.6,4.267-7.8,12.333-11.665,13.016C307.432,228.26,304.658,227.164,300.252,220.087Z" transform="translate(-296.502 -199.198)" fill="url(#linear-gradient-29)"/>
      <path id="Trazado_60480" data-name="Trazado 60480" d="M332.778,261.388c-1.337-2.218.342-4.358.724-8.561.433-4.763-1.4-5.556-3.217-13.451-1.206-5.25-2.365-10.29-.982-16.19.663-2.827,1.786-7.623,5.756-9.939,2.048-1.2,4.845-1.076,10.354-.788,6.813.357,10.219.535,12.76,1.872.372.2,8.1,4.4,8.632,11.252.542,6.974-7.054,7.912-8.067,17.213-.455,4.175.356,10.6.882,14.761.5,4,.852,5.024.063,6.234-1.9,2.919-7.725,2.087-19.373.424C335.741,263.563,333.775,263.043,332.778,261.388Z" transform="translate(-307.774 -198.694)" fill="url(#linear-gradient-30)"/>
      <path id="Trazado_60481" data-name="Trazado 60481" d="M352.439,245.8c.493,1.812,2.264,3.166,3.5,7.576.266.952,2.162,7.731-.3,9.4-1.421.963-2.7-.863-6.144-1.1-5.975-.413-8.821,4.608-12.723,3.237A5.346,5.346,0,0,1,334.308,263a3.944,3.944,0,0,0,.41,2.886c1,1.655,2.964,2.176,7.532,2.828,11.647,1.663,17.47,2.5,19.373-.424.789-1.21.442-2.235-.063-6.234-.526-4.165-1.336-10.586-.882-14.762,1.013-9.3,8.609-10.239,8.067-17.213a10.82,10.82,0,0,0-1.748-4.97C357.363,229.015,350.891,240.106,352.439,245.8Z" transform="translate(-309.714 -203.196)" opacity="0.3" fill="url(#linear-gradient-31)" style="mix-blend-mode: multiply;isolation: isolate"/>
      <path id="Trazado_60482" data-name="Trazado 60482" d="M377.016,277.887l-1.927,1.231a4.517,4.517,0,0,0-2.4-1.482c-1.41-.309-3.028.135-3.066.585-.03.361.956.724,1.108.78,1.23.454,2.142.077,2.64.572a3.743,3.743,0,0,0,.9.8,2.746,2.746,0,0,0,.344.178c.821.319,2.23-1.11,2.35-1.235Z" transform="translate(-322.122 -221.562)" fill="url(#linear-gradient-32)"/>
      <path id="Trazado_60483" data-name="Trazado 60483" d="M371.449,230.5c-1.395-3.34-2.361-8.454-.158-16.048,14.513,5.719,21.915,19.276,19.025,30.023-2.382,8.86-11.05,13.176-12.984,14.083l-1.349-3.072c2.241-2.5,4.766-6.184,4.408-10.4C379.9,239.256,374.272,237.264,371.449,230.5Z" transform="translate(-322.25 -199.46)" fill="url(#linear-gradient-33)"/>
      <path id="Trazado_60484" data-name="Trazado 60484" d="M351,201.986a15.533,15.533,0,0,0,.9,4.44c.713,1.718,4.458,2.8,5.218,3.183s-1.423,1.5-3.614,1.725-8.449-.277-9.577-1.108.906-.768,2.471-1.343,2.468-3.633,2.192-5.021S351,201.986,351,201.986Z" transform="translate(-313.005 -195.092)" fill="url(#linear-gradient-34)"/>
      <path id="Trazado_60485" data-name="Trazado 60485" d="M348.828,197.347c-1.137-1.117-1.3-1.247-1.419-1.633a3.721,3.721,0,0,1,2.281-4.2c.082-.027,1.139-.365,1.543.094.343.389-.161.928.079,1.678.224.7.833.755,1.963,1.677.93.759,1.508,1.231,1.642,1.895a3.238,3.238,0,0,1-2.849,3.3C351.541,200.141,351.4,199.872,348.828,197.347Z" transform="translate(-314.299 -191.374)" fill="url(#linear-gradient-35)"/>
      <g id="Grupo_24853" data-name="Grupo 24853" transform="translate(33.49 4.985)">
        <path id="Trazado_60486" data-name="Trazado 60486" d="M352.19,203.06a3.228,3.228,0,0,1-3.049.916c-1.648-.4-1.228-4.188-.021-4.792a2.137,2.137,0,0,1,1.684.08c.325.157.415.319.95.565.494.227.651.195.784.355.166.2.238.628-.283,1.664a.921.921,0,0,1,1.027-.146.575.575,0,0,1,.184.256C353.623,202.426,353.136,202.9,352.19,203.06Z" transform="translate(-348.055 -199.047)" fill="url(#linear-gradient-36)"/>
      </g>
    </g>
    <g id="Grupo_24861" data-name="Grupo 24861" transform="translate(18.143 117.446)">
      <path id="Trazado_60487" data-name="Trazado 60487" d="M110.211,225.506c2.43-2.595-4.3-12.342-7.9-16.613-3.146-3.731-6.379-7.567-10.349-7.081a8.845,8.845,0,0,0-7.081,7.625C84.336,218.916,106.756,229.195,110.211,225.506Z" transform="translate(-47.88 -188.14)" fill="url(#linear-gradient-37)"/>
      <path id="Trazado_60488" data-name="Trazado 60488" d="M78.628,392.424c-.457.372-.542,1.3-.6,1.907a1.5,1.5,0,0,0-.007.5c.222.7,1.576.772,3.7.989,3.357.343,4.356.607,4.62.108.246-.468-.35-1.235-.417-1.319a3.078,3.078,0,0,0-1.659-.9c-1.584-.521-2.654-.807-2.979-.893C79.266,392.276,78.928,392.179,78.628,392.424Z" transform="translate(-45.474 -254.895)" fill="url(#linear-gradient-38)"/>
      <path id="Trazado_60489" data-name="Trazado 60489" d="M80.6,387.771l.336,3.826a2.078,2.078,0,0,1-2.135.264l-.863-3.761Z" transform="translate(-45.45 -253.31)" fill="#d8dee8"/>
      <path id="Trazado_60490" data-name="Trazado 60490" d="M119.683,391.432a1.89,1.89,0,0,0-.2,2.27c.468.54,1.173.134,3.171.194,2.141.064,2.7.57,4.154.168.588-.162,1.625-.556,1.606-.976-.014-.3-.542-.448-2.307-1.039a23.011,23.011,0,0,0-3.026-.973C121.749,390.855,120.407,390.632,119.683,391.432Z" transform="translate(-59.904 -254.395)" fill="url(#linear-gradient-39)"/>
      <path id="Trazado_60491" data-name="Trazado 60491" d="M120.64,386.36l1.074,3.572a2.077,2.077,0,0,1-2.109.426l-1.595-3.466Z" transform="translate(-59.49 -252.815)" fill="#d8dee8"/>
      <path id="Trazado_60492" data-name="Trazado 60492" d="M97.108,265.951a334.588,334.588,0,0,0,10.572,79.261l-4.11,1.106A34.853,34.853,0,0,1,93.6,330.767c-1.313-4.475-.876-6.774-1.709-12.277-1.326-8.762-4.012-13.353-6.788-20.419a116.254,116.254,0,0,1-7.025-28.124Z" transform="translate(-45.498 -210.627)" fill="url(#linear-gradient-40)"/>
      <path id="Trazado_60493" data-name="Trazado 60493" d="M77.062,264.158q-1.258,22.9-2.051,46.641-.589,17.814-.872,35.17l-4.2.518a48.867,48.867,0,0,1-4.378-11.3c-1.494-5.992-1.149-9.549-1.8-15.759-.735-6.964-1.8-8.482-3.694-17.267-3.84-17.83-5.76-26.745-1.477-32.29C59.979,268.072,64.338,263.556,77.062,264.158Z" transform="translate(-37.817 -209.98)" fill="url(#linear-gradient-41)"/>
      <path id="Trazado_60494" data-name="Trazado 60494" d="M52.263,203.693a65.208,65.208,0,0,1,13.961-2.332c8.389-.474,12.584-.711,15.556,1.287,6.865,4.614,1.55,15.263,4.36,41.662.4,3.77.492,7.567.782,11.347.481,6.259.591,6.6.155,7.232-2.731,3.977-12.919-2.022-27.853.349-8.356,1.327-12.145,4.384-14.434,2.179-2.67-2.571-.38-9.487,1.592-15.439,2.263-6.833,3.66-6.921,4.944-12.067,1.343-5.379.531-8.148.322-16.63A150.222,150.222,0,0,1,52.263,203.693Z" transform="translate(-33.411 -187.882)" fill="url(#linear-gradient-42)"/>
      <g id="Grupo_24855" data-name="Grupo 24855" transform="translate(10.167 25.435)" opacity="0.3" style="mix-blend-mode: multiply;isolation: isolate">
        <path id="Trazado_60495" data-name="Trazado 60495" d="M72.57,259.879c-3.9-.306-6.435,1.9-9.8.181-4.62-2.358-6.1-9.7-5.81-14.888.448-7.89,4.953-9.97,4.176-15.069-.42-2.758-2.389-6.42-9.459-10.161-.094,3.148-.077,5.832-.024,7.964.209,8.482,1.021,11.252-.322,16.63-1.284,5.146-2.682,5.234-4.944,12.068-1.972,5.953-4.262,12.868-1.592,15.439,2.289,2.2,6.079-.852,14.434-2.179,12.867-2.043,22.207,2.123,26.293.772C80.58,262.476,76.1,260.155,72.57,259.879Z" transform="translate(-43.578 -219.942)" fill="url(#linear-gradient-43)"/>
      </g>
      <path id="Trazado_60496" data-name="Trazado 60496" d="M52.1,205.462c-2.788-2.291-8.393.3-9.891,1-8.355,3.865-15.857,14.28-14,25.286.279,1.651,1.571,9.372,8.109,13.112,5.9,3.376,13.864,2.508,20.246-2.273l2.617-2.322,2.574-2.782A20.662,20.662,0,0,0,54.9,233.7c-4.243-1.369-7.332,1.088-9.3-.78-1.359-1.289-1.362-3.566-1.026-4.946.676-2.781,3.128-3.563,5.174-5.537C54.555,217.8,55.441,208.205,52.1,205.462Z" transform="translate(-27.928 -189.109)" fill="url(#linear-gradient-44)"/>
      <g id="Grupo_24856" data-name="Grupo 24856" transform="translate(25.552 51.685)">
        <path id="Trazado_60497" data-name="Trazado 60497" d="M106.656,260.971l-37.364-.558,9.936,4.8,27.524-1.8Z" transform="translate(-67.973 -260.372)" fill="url(#linear-gradient-45)"/>
        <path id="Trazado_60498" data-name="Trazado 60498" d="M67.262,261.384a1.664,1.664,0,0,0,1.095,1.563l11.94,4.68.054-3.245-11.769-3.991A1.034,1.034,0,0,0,67.262,261.384Z" transform="translate(-67.262 -260.35)" fill="url(#linear-gradient-46)"/>
      </g>
      <path id="Trazado_60499" data-name="Trazado 60499" d="M76.105,257.217c-.229-.051,1.117-2.734,2.174-2.424s6.227,3.306,6.7,4.54l.47,1.234a11.575,11.575,0,0,1-3.654-.294C80.393,259.8,77.97,257.633,76.105,257.217Z" transform="translate(-44.799 -206.709)" fill="#fff"/>
      <g id="Grupo_24858" data-name="Grupo 24858" transform="translate(36.993 30.605)">
        <g id="Grupo_24857" data-name="Grupo 24857">
          <path id="Trazado_60500" data-name="Trazado 60500" d="M87.512,230.246l-2.634,23.98a2.263,2.263,0,0,0,1.9,2.021l38.637-2.372a1.355,1.355,0,0,0,1.271-1.124l4.849-23.161c.145-.843-1.37-1.714-2.225-1.69L88.82,229.04A1.354,1.354,0,0,0,87.512,230.246Z" transform="translate(-84.873 -227.9)" fill="url(#linear-gradient-47)"/>
          <path id="Trazado_60501" data-name="Trazado 60501" d="M88.87,231.322,86.236,255.3a1.355,1.355,0,0,0,1.41,1.5l39.125-1.852a1.355,1.355,0,0,0,1.271-1.124l4-23.266a1.355,1.355,0,0,0-1.373-1.583l-40.489,1.138A1.354,1.354,0,0,0,88.87,231.322Z" transform="translate(-85.348 -228.278)" fill="url(#linear-gradient-48)"/>
        </g>
        <path id="Trazado_60502" data-name="Trazado 60502" d="M111.844,249.9c-3.416-1.448-2.211-4.209-6.245-7.649-5.322-4.539-10.747-2.571-12.646-6.089-.591-1.1-.874-2.8.157-5.56l-2.932.082a1.354,1.354,0,0,0-1.308,1.206l-2.634,23.98a1.355,1.355,0,0,0,1.41,1.5l39.125-1.852a1.355,1.355,0,0,0,1.271-1.124l.552-3.21a14.783,14.783,0,0,0-4.261-1.6C118.593,248.425,115.777,251.568,111.844,249.9Z" transform="translate(-85.348 -228.847)" opacity="0.3" fill="url(#linear-gradient-49)" style="mix-blend-mode: multiply;isolation: isolate"/>
      </g>
      <path id="Trazado_60503" data-name="Trazado 60503" d="M149.033,263.571a.305.305,0,0,0-.274-.4,7.731,7.731,0,0,0-3.8.589c-1.375.843-3.154,2.38-1.656,3.155l1.4.725a.3.3,0,0,0,.2.028c.5-.109,2.589-.573,2.817-.689A21.069,21.069,0,0,0,149.033,263.571Z" transform="translate(-68.151 -209.646)" fill="#d8dee8"/>
      <g id="Grupo_24860" data-name="Grupo 24860" transform="translate(25.277)">
        <path id="Trazado_60504" data-name="Trazado 60504" d="M75,187.43a29.022,29.022,0,0,1-.519,5.81,4.493,4.493,0,0,1-.794,2.272c-.416.488-1.047.9-4.61,1.781-1.94.481-2.189.468-2.232.661-.209.939,5.079,4.138,10.543,3.367,3.344-.472,6.386-2.38,6.2-3.381s-3.527-.467-4.523-2.291c-.692-1.269.084-3.07,1-4.562C79.176,189.422,75.889,189.1,75,187.43Z" transform="translate(-66.839 -183.116)" fill="#fff"/>
        <g id="Grupo_24859" data-name="Grupo 24859" transform="translate(5.631)">
          <path id="Trazado_60505" data-name="Trazado 60505" d="M84.244,186.087a3.518,3.518,0,0,0-.071-4.035,3.829,3.829,0,0,0-2.751-1.223c-2.136-.247-4.831.645-5.769,2.611-.555,1.165.646,3.586.835,4.021.213.492.6.661.957,1.033.5.516,1.271,1.337,2.536,2.709a8.809,8.809,0,0,1,.485-1.449,7.776,7.776,0,0,1,1.015-1.7C82.593,186.693,83.5,187.08,84.244,186.087Z" transform="translate(-75.506 -180.789)" fill="url(#linear-gradient-50)"/>
          <path id="Trazado_60506" data-name="Trazado 60506" d="M78.713,192.2a4.774,4.774,0,0,0,4.2,2.122c2.5-.162,2.87-5.777,1.271-6.968a3.158,3.158,0,0,0-2.471-.319c-.513.144-.687.357-1.529.576-.778.2-1,.116-1.232.312-.294.248-.509.853-.018,2.495a1.361,1.361,0,0,0-1.457-.477.852.852,0,0,0-.333.325C76.793,190.9,77.379,191.721,78.713,192.2Z" transform="translate(-76.045 -182.936)" fill="#fff"/>
          <path id="Trazado_60507" data-name="Trazado 60507" d="M78.9,187.937c.121.09-.248.54-.276,1.178a3.065,3.065,0,0,0,2.477,2.849c.756.075.963-.381,2.212-.513a5.717,5.717,0,0,1,1.822.105,3.01,3.01,0,0,1-.883,3.338,3.134,3.134,0,0,1-2.746.095,3.585,3.585,0,0,1-2.052-1.506c-.609-1.068-.011-1.712-.71-2.435-.352-.365-.815-.523-1.265-1.228a3.5,3.5,0,0,1-.254-.476C77.873,188.66,78.728,187.806,78.9,187.937Z" transform="translate(-76.109 -183.289)" fill="url(#linear-gradient-51)"/>
          <path id="Trazado_60508" data-name="Trazado 60508" d="M87.155,194.283a3.049,3.049,0,0,1-1.475.23c-.045,0-.1.011-.1.034a1.149,1.149,0,0,0,1.13.331c.392-.11.7-.481.644-.576C87.331,194.262,87.242,194.267,87.155,194.283Z" transform="translate(-79.035 -185.513)" fill="#fff"/>
        </g>
      </g>
    </g>
  </g>
</svg>
