<svg xmlns="http://www.w3.org/2000/svg" xmlns:xlink="http://www.w3.org/1999/xlink" width="970" height="426.939" viewBox="0 0 970 426.939">
  <defs>
    <clipPath id="clip-path">
      <path id="Trazado_60902" data-name="Trazado 60902" d="M54.881,0V15.9H0V41.946H54.881v15.9L90.495,28.921Z" transform="translate(0 0)" fill="#e7b42c"/>
    </clipPath>
    <linearGradient id="linear-gradient" x1="0.006" y1="0.743" x2="0.937" y2="0.374" gradientUnits="objectBoundingBox">
      <stop offset="0" stop-color="#e08051"/>
      <stop offset="0.04" stop-color="#e1874c"/>
      <stop offset="0.21" stop-color="#e49b3d"/>
      <stop offset="0.41" stop-color="#e6aa33"/>
      <stop offset="0.63" stop-color="#e7b22d"/>
      <stop offset="1" stop-color="#e7b52b"/>
    </linearGradient>
    <linearGradient id="linear-gradient-2" x1="0.682" y1="0.942" x2="0.219" y2="0.09" gradientUnits="objectBoundingBox">
      <stop offset="0" stop-color="#2d8bbd"/>
      <stop offset="1" stop-color="#5eacb3"/>
    </linearGradient>
    <linearGradient id="linear-gradient-3" x1="0.15" y1="0.868" x2="0.836" y2="0.145" gradientUnits="objectBoundingBox">
      <stop offset="0" stop-color="#e08051"/>
      <stop offset="0.08" stop-color="#dc775f"/>
      <stop offset="0.24" stop-color="#d76a73"/>
      <stop offset="0.41" stop-color="#d46181"/>
      <stop offset="0.63" stop-color="#d25c8a"/>
      <stop offset="0.99" stop-color="#d15a8c"/>
      <stop offset="1" stop-color="#d15a8c"/>
    </linearGradient>
    <clipPath id="clip-path-2">
      <path id="Trazado_60902-2" data-name="Trazado 60902" d="M17.739,0V7.281H0V19.212H17.739v7.281L29.251,13.247Z" transform="translate(0 0)" fill="#d25b8b"/>
    </clipPath>
  </defs>
  <g id="Grupo_25673" data-name="Grupo 25673" transform="translate(-215 -2556.5)">
    <text id="_Quiénes_hicieron_parte_de_su_construcción_" data-name="¿Quiénes hicieron parte de su construcción?" transform="translate(215 2556.5)" fill="#00223d" font-size="18" font-family="CerebriSans-Bold, Cerebri Sans" font-weight="700"><tspan x="291.219" y="17">¿Quiénes hicieron parte de su construcción?</tspan></text>
    <text id="Contexto_Internacional" data-name="Contexto
Internacional" transform="translate(447 2699.5)" fill="#00223d" font-size="18" font-family="CerebriSans-Bold, Cerebri Sans" font-weight="700"><tspan x="15.67" y="17">Contexto</tspan><tspan x="1.647" y="41">Internaciona</tspan></text>
    <text id="Contexto_Nacional" data-name="Contexto
Nacional" transform="translate(365 2851.5)" fill="#00223d" font-size="18" font-family="CerebriSans-Bold, Cerebri Sans" font-weight="700"><tspan x="15.67" y="17">Contexto</tspan><tspan x="18.026" y="41">Nacional</tspan></text>
    <g id="Grupo_24910" data-name="Grupo 24910" transform="translate(582 2677)">
      <g id="Grupo_24908" data-name="Grupo 24908" transform="translate(0 0)" clip-path="url(#clip-path)">
        <rect id="Rectángulo_25468" data-name="Rectángulo 25468" width="90.495" height="57.844" transform="translate(0 0)" fill="#e7b42c"/>
      </g>
    </g>
    <text id="Estrategia_Nacional_de_Economía_Circular" data-name="Estrategia Nacional de Economía Circular" transform="translate(529 2827.5)" fill="#00223d" font-size="16" font-family="CerebriSans-Bold, Cerebri Sans" font-weight="700"><tspan x="18.262" y="16">Estrategia </tspan><tspan x="10.453" y="40">Nacional de </tspan><tspan x="18.703" y="64">Economía </tspan><tspan x="25.77" y="88">Circular</tspan></text>
    <text id="Actores" transform="translate(852 2606.5)" fill="#00223d" font-size="18" font-family="CerebriSans-Bold, Cerebri Sans" font-weight="700"><tspan x="22.829" y="17">Actores</tspan></text>
    <g id="Grupo_24911" data-name="Grupo 24911" transform="translate(-143 19)">
      <rect id="Rectángulo_25470" data-name="Rectángulo 25470" width="330" height="201" rx="8" transform="translate(886 2617)" fill="#e7b42b" opacity="0.359"/>
      <text id="Organización_de_las_Naciones_Unidas_para_el_Desarrollo_Industrial_ONUDI_._Programa_de_las_Naciones_Unidas_para_el_Medio_Ambiente_PNUMA_._Alianza_del_Pacífico" data-name="Organización de las Naciones Unidas para el Desarrollo Industrial (ONUDI).
Programa de las Naciones Unidas para el Medio Ambiente
(PNUMA).
Alianza del Pacífico" transform="translate(918 2632.5)" fill="#00223d" font-size="18" font-family="CerebriSans-Bold, Cerebri Sans" font-weight="700"><tspan x="0" y="17">Organización de las Naciones </tspan><tspan x="0" y="41">Unidas para el Desarrollo </tspan><tspan x="0" y="65">Industrial (ONUDI).</tspan><tspan x="0" y="89">Programa de las Naciones Unidas </tspan><tspan x="0" y="113">para el Medio Ambiente</tspan><tspan x="0" y="137">(PNUMA).</tspan><tspan x="0" y="161">Alianza del Pacífico</tspan></text>
      <circle id="Elipse_954" data-name="Elipse 954" cx="4.353" cy="4.353" r="4.353" transform="translate(898.647 2638.647)" fill="#e4986f"/>
      <circle id="Elipse_955" data-name="Elipse 955" cx="4.353" cy="4.353" r="4.353" transform="translate(898.647 2713.647)" fill="#e4986f"/>
      <circle id="Elipse_956" data-name="Elipse 956" cx="4.353" cy="4.353" r="4.353" transform="translate(898.647 2783.647)" fill="#e4986f"/>
    </g>
    <g id="grafico2-cp2" transform="translate(310.97 2622)">
      <path id="Trazado_60903" data-name="Trazado 60903" d="M-43.94,34.69A108.9,108.9,0,0,1,6.34,46.87a55.575,55.575,0,1,1,64.48,0A108.9,108.9,0,0,1,121.1,34.69a110.671,110.671,0,0,1,21.21,2A109.79,109.79,0,0,0,148,1.63a108.77,108.77,0,0,0-32-77.4,108.77,108.77,0,0,0-77.4-32.06A108.75,108.75,0,0,0-38.8-75.77,108.73,108.73,0,0,0-70.88,1.63a109.51,109.51,0,0,0,5.73,35.1,110.6,110.6,0,0,1,21.21-2.04Z" transform="translate(153.4 107.83)" fill="url(#linear-gradient)"/>
      <path id="Trazado_60904" data-name="Trazado 60904" d="M198.5,66.75A109.61,109.61,0,0,0,69,47.83L96,94.59a55.57,55.57,0,1,1-30.44,49.56,108.69,108.69,0,0,1-26.94,71.92c1.64,1.87,3.34,3.7,5.12,5.48A109.453,109.453,0,1,0,198.51,66.74Z" transform="translate(153.4 107.83)" fill="url(#linear-gradient-2)"/>
      <path id="Trazado_60905" data-name="Trazado 60905" d="M11.63,144.09v.06a55.64,55.64,0,0,1-55.58,55.57,55.64,55.64,0,0,1-55.58-55.57A55.64,55.64,0,0,1-43.94,88.57a55.16,55.16,0,0,1,25.13,6l27-46.76a108.93,108.93,0,0,0-52.1-13.14,108.71,108.71,0,0,0-77.4,32.06,108.71,108.71,0,0,0-32.06,77.4,108.73,108.73,0,0,0,32.06,77.4,108.75,108.75,0,0,0,77.4,32.06,108.77,108.77,0,0,0,77.4-32.06,108.77,108.77,0,0,0,32.06-77.4v-.06Z" transform="translate(153.4 107.83)" fill="url(#linear-gradient-3)"/>
    </g>
    <g id="Grupo_24912" data-name="Grupo 24912" transform="translate(-6 15)">
      <rect id="Rectángulo_25471" data-name="Rectángulo 25471" width="330" height="113" rx="8" transform="translate(749 2840)" fill="#d15b8b" opacity="0.359"/>
      <text id="Sector_público_Sector_privado_Academia_Sociedad_civl" data-name="Sector público
Sector privado
Academia
Sociedad civl" transform="translate(782 2845.5)" fill="#00223d" font-size="18" font-family="CerebriSans-Bold, Cerebri Sans" font-weight="700"><tspan x="0" y="17">Sector público</tspan><tspan x="0" y="41">Sector privado</tspan><tspan x="0" y="65">Academia</tspan><tspan x="0" y="89">Sociedad civl</tspan></text>
      <circle id="Elipse_957" data-name="Elipse 957" cx="4.353" cy="4.353" r="4.353" transform="translate(761.647 2852.647)" fill="#e4986f"/>
      <circle id="Elipse_958" data-name="Elipse 958" cx="4.353" cy="4.353" r="4.353" transform="translate(761.647 2877.647)" fill="#e4986f"/>
      <circle id="Elipse_959" data-name="Elipse 959" cx="4.353" cy="4.353" r="4.353" transform="translate(761.647 2901.647)" fill="#e4986f"/>
      <circle id="Elipse_960" data-name="Elipse 960" cx="4.353" cy="4.353" r="4.353" transform="translate(761.647 2926.647)" fill="#e4986f"/>
    </g>
    <g id="Grupo_24913" data-name="Grupo 24913" transform="matrix(0.017, 1, -1, 0.017, 926.215, 2825.654)">
      <g id="Grupo_24908-2" data-name="Grupo 24908" transform="translate(0 0)" clip-path="url(#clip-path-2)">
        <rect id="Rectángulo_25468-2" data-name="Rectángulo 25468" width="29.251" height="26.494" transform="translate(0 0)" fill="#d25b8b"/>
      </g>
    </g>
  </g>
</svg>
