<svg xmlns="http://www.w3.org/2000/svg" xmlns:xlink="http://www.w3.org/1999/xlink" width="1119" height="548" viewBox="0 0 1119 548">
  <defs>
    <clipPath id="clip-path">
      <rect id="Rect치ngulo_25386" data-name="Rect치ngulo 25386" width="1119" height="548" transform="translate(141 2523)" fill="#eef0f2" opacity="0.51"/>
    </clipPath>
    <clipPath id="clip-path-2">
      <path id="Trazado_60902" data-name="Trazado 60902" d="M67.712,0V19.617H0V51.753H67.712V71.37l43.94-35.688Z" fill="#e7b42c"/>
    </clipPath>
    <linearGradient id="linear-gradient" x1="0.006" y1="0.743" x2="0.937" y2="0.374" gradientUnits="objectBoundingBox">
      <stop offset="0" stop-color="#e08051"/>
      <stop offset="0.04" stop-color="#e1874c"/>
      <stop offset="0.21" stop-color="#e49b3d"/>
      <stop offset="0.41" stop-color="#e6aa33"/>
      <stop offset="0.63" stop-color="#e7b22d"/>
      <stop offset="1" stop-color="#e7b52b"/>
    </linearGradient>
    <linearGradient id="linear-gradient-2" x1="0.682" y1="0.942" x2="0.219" y2="0.09" gradientUnits="objectBoundingBox">
      <stop offset="0" stop-color="#2d8bbd"/>
      <stop offset="1" stop-color="#5eacb3"/>
    </linearGradient>
    <linearGradient id="linear-gradient-3" x1="0.15" y1="0.868" x2="0.836" y2="0.145" gradientUnits="objectBoundingBox">
      <stop offset="0" stop-color="#e08051"/>
      <stop offset="0.08" stop-color="#dc775f"/>
      <stop offset="0.24" stop-color="#d76a73"/>
      <stop offset="0.41" stop-color="#d46181"/>
      <stop offset="0.63" stop-color="#d25c8a"/>
      <stop offset="0.99" stop-color="#d15a8c"/>
      <stop offset="1" stop-color="#d15a8c"/>
    </linearGradient>
    <clipPath id="clip-path-3">
      <path id="Trazado_60902-2" data-name="Trazado 60902" d="M21.889,0V8.985H0V23.707H21.889v8.985L36.1,16.346Z" fill="#d25b8b"/>
    </clipPath>
  </defs>
  <g id="Enmascarar_grupo_1" data-name="Enmascarar grupo 1" transform="translate(-141 -2523)" clip-path="url(#clip-path)">
    <g id="Grupo_25673" data-name="Grupo 25673" transform="translate(-78.026 -620.712)">
      <path id="Trazado_64900" data-name="Trazado 64900" d="M363.7,10.131a1.787,1.787,0,0,1,2.522,0,1.774,1.774,0,0,1,0,2.521,1.741,1.741,0,0,1-1.263.514,1.768,1.768,0,0,1-1.768-1.778,1.727,1.727,0,0,1,.51-1.257Zm2.559,4.533v1.171a2.591,2.591,0,0,1-.265,1.214,2.428,2.428,0,0,1-.688.829,7.606,7.606,0,0,1-1.16.688,2.344,2.344,0,0,0-1.345,2.278,2.1,2.1,0,0,0,2.244,2.3,2.221,2.221,0,0,0,1.637-.617,2.167,2.167,0,0,0,.617-1.61,4.26,4.26,0,0,0-.13-.954l2.8.358a7.157,7.157,0,0,1,.054.813,4.327,4.327,0,0,1-1.366,3.308,5.008,5.008,0,0,1-3.572,1.284,5.156,5.156,0,0,1-3.632-1.307,4.522,4.522,0,0,1-1.42-3.5,5.162,5.162,0,0,1,.238-1.616,3.663,3.663,0,0,1,.65-1.22,4.456,4.456,0,0,1,.874-.813,4.645,4.645,0,0,1,1-.526,1.691,1.691,0,0,0,.716-.482,1.178,1.178,0,0,0,.228-.754v-.846Zm22.186,6.962-2.714,1.03L383.721,20.4a8.883,8.883,0,0,1-3.774.792,8.69,8.69,0,0,1-4.159-.987,7.184,7.184,0,0,1-2.9-2.825,8.39,8.39,0,0,1-1.057-4.25,8.39,8.39,0,0,1,1.057-4.257,7.166,7.166,0,0,1,2.89-2.814,9.377,9.377,0,0,1,8.328,0,7.166,7.166,0,0,1,2.9,2.824,8.389,8.389,0,0,1,1.057,4.257,7.889,7.889,0,0,1-2.081,5.65Zm-13.36-8.491a5.24,5.24,0,0,0,1.366,3.833,5.1,5.1,0,0,0,7.006,0,5.24,5.24,0,0,0,1.366-3.833,4.96,4.96,0,0,0-1.377-3.687,5.145,5.145,0,0,0-6.983,0,4.96,4.96,0,0,0-1.376,3.687ZM398.19,9.827h3.123V20.975h-2.961l-.077-1.345a4.257,4.257,0,0,1-3.546,1.562,4.345,4.345,0,0,1-3.084-1,3.719,3.719,0,0,1-1.073-2.857v-7.5H393.7v6.829a1.927,1.927,0,0,0,.559,1.529,2.119,2.119,0,0,0,1.447.494,2.514,2.514,0,0,0,1.773-.634,2.725,2.725,0,0,0,.7-2.065Zm7.948-1.671a1.753,1.753,0,0,1-1.279-.526,1.727,1.727,0,0,1-.532-1.275,1.705,1.705,0,0,1,.537-1.263,1.758,1.758,0,0,1,1.274-.526,1.795,1.795,0,0,1,0,3.589Zm-1.592,12.818V9.827h3.145V20.975ZM419.4,5.36l-2.468,2.906h-1.92l2.838-3.99Zm2.006,9.879-.032.748H413.11a2.886,2.886,0,0,0,.89,2.038,2.838,2.838,0,0,0,1.963.7,2.74,2.74,0,0,0,1.469-.385,2.367,2.367,0,0,0,.938-1.123l2.862.423a4.867,4.867,0,0,1-1.952,2.613,5.8,5.8,0,0,1-3.3.933,6.035,6.035,0,0,1-4.343-1.535,5.6,5.6,0,0,1-1.61-4.257,5.633,5.633,0,0,1,1.616-4.257,5.856,5.856,0,0,1,4.241-1.556,5.6,5.6,0,0,1,4,1.42,5.573,5.573,0,0,1,1.52,4.232Zm-5.5-3.439a2.468,2.468,0,0,0-2.714,2.147h5.118a2.344,2.344,0,0,0-.77-1.594,2.44,2.44,0,0,0-1.634-.553Zm14.455-2.19a4.345,4.345,0,0,1,3.085,1,3.718,3.718,0,0,1,1.073,2.857v7.5h-3.134V14.143a1.942,1.942,0,0,0-.559-1.54,2.1,2.1,0,0,0-1.437-.494,2.935,2.935,0,0,0-.933.141,2.4,2.4,0,0,0-.781.439,1.941,1.941,0,0,0-.559.84,3.887,3.887,0,0,0-.211,1.291v6.154H423.79V9.827h3.123v1.234a4.3,4.3,0,0,1,3.452-1.451Zm17.664,5.629-.032.748h-8.266a2.886,2.886,0,0,0,.89,2.038,2.838,2.838,0,0,0,1.963.7,2.74,2.74,0,0,0,1.469-.385,2.366,2.366,0,0,0,.938-1.123l2.862.423a4.867,4.867,0,0,1-1.952,2.613,5.8,5.8,0,0,1-3.3.933,6.035,6.035,0,0,1-4.343-1.535,5.6,5.6,0,0,1-1.61-4.257,5.632,5.632,0,0,1,1.616-4.257,5.855,5.855,0,0,1,4.241-1.556,5.6,5.6,0,0,1,4,1.423,5.573,5.573,0,0,1,1.519,4.229Zm-5.5-3.437a2.468,2.468,0,0,0-2.714,2.147h5.118a2.344,2.344,0,0,0-.771-1.594,2.44,2.44,0,0,0-1.635-.554Zm11.8,9.39a6.229,6.229,0,0,1-3.253-.781,3.3,3.3,0,0,1-1.594-2.321l2.613-.74a2.1,2.1,0,0,0,2.234,1.659,2.307,2.307,0,0,0,1.139-.255.887.887,0,0,0,.444-.864.912.912,0,0,0-.184-.575,1.46,1.46,0,0,0-.569-.412,7.1,7.1,0,0,0-.759-.292q-.37-.123-.987-.287t-1.03-.32a6.9,6.9,0,0,1-.987-.417,4.186,4.186,0,0,1-.813-.575,2.318,2.318,0,0,1-.607-.874,3.149,3.149,0,0,1-.211-1.193,2.848,2.848,0,0,1,1.209-2.493,5.4,5.4,0,0,1,3.161-.846,5.539,5.539,0,0,1,2.917.716,3.239,3.239,0,0,1,1.5,2.234l-2.418.542a1.894,1.894,0,0,0-1.984-1.41,2.173,2.173,0,0,0-1.1.247.8.8,0,0,0-.434.74.845.845,0,0,0,.065.336.665.665,0,0,0,.228.271,3.325,3.325,0,0,0,.315.206,2.372,2.372,0,0,0,.444.179q.292.093.494.141l.569.147.58.152q.6.163,1.046.326a6.128,6.128,0,0,1,.96.455,3.444,3.444,0,0,1,.84.656,2.927,2.927,0,0,1,.548.922,3.4,3.4,0,0,1,.217,1.241,3.353,3.353,0,0,1-.37,1.616,2.809,2.809,0,0,1-1.025,1.089,4.988,4.988,0,0,1-1.447.586,7.51,7.51,0,0,1-1.755.195ZM473.679,9.61a3.957,3.957,0,0,1,2.944,1.057,4.254,4.254,0,0,1,1.046,3.118v7.189h-3.134v-6.68a2.184,2.184,0,0,0-.553-1.664,2.078,2.078,0,0,0-1.481-.515,2.849,2.849,0,0,0-.874.13,2.5,2.5,0,0,0-.775.417,1.888,1.888,0,0,0-.58.84,3.861,3.861,0,0,0-.222,1.323v6.149h-3.121V4.318h3.123v6.843a4.412,4.412,0,0,1,3.622-1.551Zm8.588-1.453a1.753,1.753,0,0,1-1.279-.526,1.727,1.727,0,0,1-.532-1.274,1.705,1.705,0,0,1,.537-1.263,1.758,1.758,0,0,1,1.275-.526,1.795,1.795,0,0,1,0,3.589Zm-1.6,12.818V9.827h3.145V20.975Zm11.419.206a5.956,5.956,0,0,1-4.3-1.6,5.544,5.544,0,0,1-1.668-4.186,5.531,5.531,0,0,1,1.664-4.186,6.618,6.618,0,0,1,7.921-.521,4.793,4.793,0,0,1,1.865,3.025l-2.885.315a2.467,2.467,0,0,0-.933-1.465,2.838,2.838,0,0,0-1.692-.494,2.556,2.556,0,0,0-2.038.911,3.571,3.571,0,0,0-.781,2.407,3.578,3.578,0,0,0,.781,2.4,2.55,2.55,0,0,0,2.038.917,2.811,2.811,0,0,0,1.687-.494,2.529,2.529,0,0,0,.938-1.465l2.885.315a4.812,4.812,0,0,1-1.882,3.025,5.922,5.922,0,0,1-3.6,1.1Zm9.293-13.024a1.753,1.753,0,0,1-1.279-.526,1.727,1.727,0,0,1-.532-1.275,1.7,1.7,0,0,1,.537-1.263,1.758,1.758,0,0,1,1.274-.526,1.795,1.795,0,0,1,0,3.589Zm-1.594,12.818V9.827h3.145V20.975Zm16.862-5.736-.032.748h-8.266a2.886,2.886,0,0,0,.89,2.038,2.838,2.838,0,0,0,1.963.7,2.74,2.74,0,0,0,1.469-.385,2.367,2.367,0,0,0,.938-1.123l2.862.423a4.867,4.867,0,0,1-1.952,2.613,5.8,5.8,0,0,1-3.3.933,6.034,6.034,0,0,1-4.343-1.535,5.6,5.6,0,0,1-1.61-4.257,5.633,5.633,0,0,1,1.616-4.257,5.856,5.856,0,0,1,4.241-1.556,5.6,5.6,0,0,1,4,1.42,5.573,5.573,0,0,1,1.52,4.232Zm-5.5-3.437a2.468,2.468,0,0,0-2.714,2.147h5.118a2.344,2.344,0,0,0-.77-1.594,2.441,2.441,0,0,0-1.634-.554Zm10.867-.2a3.619,3.619,0,0,1,1.465-1.339,4.466,4.466,0,0,1,2.18-.559v2.787A4.223,4.223,0,0,0,523,13.16a2.935,2.935,0,0,0-.824,2.386v5.429h-3.145V9.827h2.992Zm10.611,9.6a7.009,7.009,0,0,1-3.156-.684,5.106,5.106,0,0,1-2.17-2,5.979,5.979,0,0,1-.786-3.112,5.453,5.453,0,0,1,1.692-4.229,7.071,7.071,0,0,1,8.838,0,5.454,5.454,0,0,1,1.692,4.229,5.483,5.483,0,0,1-1.692,4.246,6.278,6.278,0,0,1-4.424,1.551Zm-.032-2.484a2.861,2.861,0,0,0,2.207-.911,3.41,3.41,0,0,0,.84-2.407,3.41,3.41,0,0,0-.84-2.407,2.861,2.861,0,0,0-2.207-.911,2.756,2.756,0,0,0-2.142.917,3.441,3.441,0,0,0-.829,2.4,3.441,3.441,0,0,0,.829,2.4,2.756,2.756,0,0,0,2.135.912Zm15.052-9.1a4.345,4.345,0,0,1,3.084,1,3.719,3.719,0,0,1,1.073,2.857v7.5h-3.134V14.143a1.942,1.942,0,0,0-.559-1.54,2.1,2.1,0,0,0-1.437-.494,2.935,2.935,0,0,0-.933.141,2.4,2.4,0,0,0-.781.439,1.942,1.942,0,0,0-.559.84,3.889,3.889,0,0,0-.211,1.291v6.154h-3.123V9.827h3.123v1.234a4.3,4.3,0,0,1,3.447-1.451Zm19.487,0a5.422,5.422,0,0,1,2.083.4,5.21,5.21,0,0,1,1.708,1.128,5.1,5.1,0,0,1,1.155,1.838,6.824,6.824,0,0,1,.423,2.445,6.824,6.824,0,0,1-.423,2.445,5.1,5.1,0,0,1-1.155,1.838,5.21,5.21,0,0,1-1.708,1.128,5.421,5.421,0,0,1-2.081.4,4.838,4.838,0,0,1-2.017-.412,3.161,3.161,0,0,1-1.4-1.171V26.4H560.6V9.827h2.961l.086,1.5a3.054,3.054,0,0,1,1.393-1.263,4.788,4.788,0,0,1,2.089-.45Zm-.7,9.033a2.806,2.806,0,0,0,2.1-.878,3.243,3.243,0,0,0,.84-2.344,3.242,3.242,0,0,0-.84-2.344,2.985,2.985,0,0,0-4.234.016,3.243,3.243,0,0,0-.846,2.332,3.243,3.243,0,0,0,.846,2.332,2.81,2.81,0,0,0,2.125.885ZM584,17.952a10.43,10.43,0,0,0,.271,2.722v.3h-2.917l-.247-1.214a3.624,3.624,0,0,1-1.562,1.073,5.755,5.755,0,0,1-2.017.358,5.305,5.305,0,0,1-1.041-.1,3.538,3.538,0,0,1-.938-.331,2.846,2.846,0,0,1-.775-.58,2.544,2.544,0,0,1-.521-.883,3.522,3.522,0,0,1-.195-1.209,3.353,3.353,0,0,1,.206-1.209,2.838,2.838,0,0,1,.542-.906,3.29,3.29,0,0,1,.878-.661,6.722,6.722,0,0,1,1.11-.477,13.222,13.222,0,0,1,1.323-.347l1.832-.412a2.02,2.02,0,0,0,.829-.353.7.7,0,0,0,.247-.559,1.15,1.15,0,0,0-.548-1.073,2.556,2.556,0,0,0-1.329-.326,1.911,1.911,0,0,0-2.18,1.7l-2.765-.494a3.743,3.743,0,0,1,1.616-2.543,6.416,6.416,0,0,1,3.5-.819q4.688,0,4.688,4.023Zm-5.5,1.128a2.512,2.512,0,0,0,1.93-.808,3.4,3.4,0,0,0,.748-2.391l-2.646.748a3.126,3.126,0,0,0-1.11.455.935.935,0,0,0-.385.8,1.039,1.039,0,0,0,.412.883,1.705,1.705,0,0,0,1.044.308ZM590.02,11.6a3.619,3.619,0,0,1,1.462-1.342,4.466,4.466,0,0,1,2.18-.559v2.787a4.223,4.223,0,0,0-2.667.672,2.935,2.935,0,0,0-.824,2.386v5.432h-3.145V9.827h2.993Zm10.269,9.377a3.367,3.367,0,0,1-2.516-.906,3.521,3.521,0,0,1-.89-2.575V12.223H594.69v-2.4h.7a1.839,1.839,0,0,0,1.388-.466,2.4,2.4,0,0,0,.444-1.659V6.221h2.819V9.827h2.3v2.4h-2.3v4.935q0,1.442,1.291,1.442h1.008v2.374Zm14.922-5.736-.032.748h-8.266a2.886,2.886,0,0,0,.89,2.038,2.838,2.838,0,0,0,1.963.7,2.741,2.741,0,0,0,1.469-.385,2.367,2.367,0,0,0,.938-1.123l2.862.423a4.867,4.867,0,0,1-1.952,2.613,5.8,5.8,0,0,1-3.3.933,6.034,6.034,0,0,1-4.343-1.535,5.6,5.6,0,0,1-1.61-4.257,5.633,5.633,0,0,1,1.616-4.257,5.855,5.855,0,0,1,4.241-1.556,5.6,5.6,0,0,1,4,1.423A5.573,5.573,0,0,1,615.211,15.239Zm-5.5-3.437A2.468,2.468,0,0,0,607,13.948h5.118a2.344,2.344,0,0,0-.77-1.594,2.44,2.44,0,0,0-1.633-.554ZM631.26,4.318h3.123V20.975h-2.961l-.076-1.453a3.183,3.183,0,0,1-1.415,1.263,4.764,4.764,0,0,1-2.088.45,5.421,5.421,0,0,1-2.081-.4,5.014,5.014,0,0,1-2.862-2.971,6.786,6.786,0,0,1-.423-2.44,6.338,6.338,0,0,1,.74-3.107,5.059,5.059,0,0,1,1.949-2.022,5.361,5.361,0,0,1,2.684-.684,4.882,4.882,0,0,1,2.022.407,3.157,3.157,0,0,1,1.393,1.155Zm-2.7,14.324a2.78,2.78,0,0,0,2.109-.89,3.255,3.255,0,0,0,.84-2.332,3.262,3.262,0,0,0-.846-2.337,2.777,2.777,0,0,0-2.1-.895,2.809,2.809,0,0,0-2.12.878,3.262,3.262,0,0,0-.84,2.353,3.246,3.246,0,0,0,.84,2.344,2.809,2.809,0,0,0,2.12.877ZM648.1,15.237l-.032.748H639.8a2.886,2.886,0,0,0,.89,2.038,2.838,2.838,0,0,0,1.963.7,2.74,2.74,0,0,0,1.469-.385,2.366,2.366,0,0,0,.938-1.123l2.862.423a4.867,4.867,0,0,1-1.952,2.613,5.8,5.8,0,0,1-3.3.933,6.034,6.034,0,0,1-4.343-1.535,5.6,5.6,0,0,1-1.61-4.257,5.632,5.632,0,0,1,1.616-4.257,5.856,5.856,0,0,1,4.241-1.556,5.6,5.6,0,0,1,4,1.42,5.573,5.573,0,0,1,1.519,4.233ZM642.6,11.8a2.468,2.468,0,0,0-2.714,2.147h5.118a2.344,2.344,0,0,0-.77-1.594A2.441,2.441,0,0,0,642.6,11.8Zm17.567,9.39a6.229,6.229,0,0,1-3.254-.781,3.3,3.3,0,0,1-1.594-2.321l2.613-.74a2.1,2.1,0,0,0,2.234,1.659,2.307,2.307,0,0,0,1.139-.255.887.887,0,0,0,.444-.864.911.911,0,0,0-.184-.575A1.46,1.46,0,0,0,661,16.9a7.082,7.082,0,0,0-.759-.292q-.37-.123-.987-.287t-1.03-.32a6.9,6.9,0,0,1-.987-.417,4.186,4.186,0,0,1-.813-.575,2.316,2.316,0,0,1-.607-.874,3.149,3.149,0,0,1-.211-1.193,2.848,2.848,0,0,1,1.209-2.494,5.4,5.4,0,0,1,3.161-.846,5.539,5.539,0,0,1,2.917.716,3.239,3.239,0,0,1,1.5,2.234l-2.418.542a1.894,1.894,0,0,0-1.984-1.41,2.173,2.173,0,0,0-1.1.247.8.8,0,0,0-.434.74.845.845,0,0,0,.065.336.664.664,0,0,0,.228.271,3.316,3.316,0,0,0,.315.206,2.37,2.37,0,0,0,.444.179q.292.093.494.141l.569.147.58.152q.6.163,1.046.326a6.134,6.134,0,0,1,.96.455,3.444,3.444,0,0,1,.84.656,2.926,2.926,0,0,1,.548.922,3.407,3.407,0,0,1,.217,1.241,3.354,3.354,0,0,1-.37,1.616,2.809,2.809,0,0,1-1.025,1.089,4.987,4.987,0,0,1-1.447.586,7.51,7.51,0,0,1-1.752.2ZM674.386,9.826h3.123V20.975h-2.961l-.076-1.345a4.257,4.257,0,0,1-3.546,1.562,4.346,4.346,0,0,1-3.085-1,3.719,3.719,0,0,1-1.073-2.858v-7.5H669.9v6.829a1.927,1.927,0,0,0,.559,1.529,2.119,2.119,0,0,0,1.447.494,2.514,2.514,0,0,0,1.773-.634,2.725,2.725,0,0,0,.7-2.065Zm17.166,11.351a5.955,5.955,0,0,1-4.3-1.6,5.543,5.543,0,0,1-1.671-4.186,5.531,5.531,0,0,1,1.664-4.186,6.618,6.618,0,0,1,7.921-.521,4.794,4.794,0,0,1,1.865,3.025l-2.884.315a2.468,2.468,0,0,0-.933-1.465,2.838,2.838,0,0,0-1.691-.494,2.556,2.556,0,0,0-2.038.911,3.571,3.571,0,0,0-.781,2.407,3.577,3.577,0,0,0,.781,2.4,2.551,2.551,0,0,0,2.038.917,2.811,2.811,0,0,0,1.687-.494,2.529,2.529,0,0,0,.938-1.465l2.885.315a4.812,4.812,0,0,1-1.882,3.025,5.922,5.922,0,0,1-3.594,1.1Zm12.893.011a7.009,7.009,0,0,1-3.156-.684,5.105,5.105,0,0,1-2.163-2,5.978,5.978,0,0,1-.786-3.112,5.454,5.454,0,0,1,1.691-4.229,7.071,7.071,0,0,1,8.838,0,5.453,5.453,0,0,1,1.692,4.229,5.484,5.484,0,0,1-1.692,4.245,6.277,6.277,0,0,1-4.424,1.551Zm-.032-2.484a2.861,2.861,0,0,0,2.207-.911,3.411,3.411,0,0,0,.84-2.407,3.411,3.411,0,0,0-.84-2.407,2.861,2.861,0,0,0-2.207-.911,2.756,2.756,0,0,0-2.142.917,3.442,3.442,0,0,0-.829,2.4,3.441,3.441,0,0,0,.829,2.4,2.756,2.756,0,0,0,2.142.918Zm15.052-9.1a4.345,4.345,0,0,1,3.084,1,3.718,3.718,0,0,1,1.073,2.857v7.508H720.49V14.143a1.942,1.942,0,0,0-.559-1.54,2.1,2.1,0,0,0-1.437-.493,2.935,2.935,0,0,0-.933.141,2.4,2.4,0,0,0-.781.439,1.941,1.941,0,0,0-.559.84,3.884,3.884,0,0,0-.211,1.291v6.154h-3.123V9.827h3.123v1.234a4.3,4.3,0,0,1,3.454-1.451Zm11.1,11.582a6.229,6.229,0,0,1-3.254-.781,3.3,3.3,0,0,1-1.594-2.321l2.613-.74a2.1,2.1,0,0,0,2.234,1.659,2.307,2.307,0,0,0,1.139-.255.887.887,0,0,0,.444-.864.911.911,0,0,0-.184-.575,1.46,1.46,0,0,0-.569-.412,7.093,7.093,0,0,0-.759-.292q-.37-.123-.987-.287t-1.03-.32a6.908,6.908,0,0,1-.987-.417,4.192,4.192,0,0,1-.813-.575,2.317,2.317,0,0,1-.607-.873,3.149,3.149,0,0,1-.211-1.193,2.848,2.848,0,0,1,1.209-2.494,5.4,5.4,0,0,1,3.161-.846,5.539,5.539,0,0,1,2.917.716,3.239,3.239,0,0,1,1.5,2.234l-2.418.542a1.894,1.894,0,0,0-1.984-1.41,2.173,2.173,0,0,0-1.1.247.8.8,0,0,0-.434.74.844.844,0,0,0,.065.336.664.664,0,0,0,.228.271,3.333,3.333,0,0,0,.315.206,2.372,2.372,0,0,0,.444.179q.293.093.494.141l.569.147.58.152q.6.163,1.046.326a6.129,6.129,0,0,1,.96.455,3.443,3.443,0,0,1,.84.656,2.929,2.929,0,0,1,.548.922,3.405,3.405,0,0,1,.217,1.241,3.354,3.354,0,0,1-.37,1.616,2.807,2.807,0,0,1-1.025,1.089,4.99,4.99,0,0,1-1.447.586,7.511,7.511,0,0,1-1.752.2Zm10.981-.217a3.367,3.367,0,0,1-2.516-.906,3.521,3.521,0,0,1-.89-2.575V12.223H735.96v-2.4h.7a1.84,1.84,0,0,0,1.388-.466A2.4,2.4,0,0,0,738.5,7.7V6.221h2.819V9.827h2.294v2.4h-2.295v4.935q0,1.442,1.291,1.442h1.008v2.374Zm7.472-9.377a3.619,3.619,0,0,1,1.465-1.339,4.466,4.466,0,0,1,2.18-.559v2.787a4.224,4.224,0,0,0-2.668.672,2.935,2.935,0,0,0-.824,2.386v5.432h-3.145V9.827h2.993Zm12.861-1.768h3.123V20.975h-2.961l-.077-1.345a4.256,4.256,0,0,1-3.546,1.562,4.346,4.346,0,0,1-3.084-1,3.719,3.719,0,0,1-1.073-2.858v-7.5H757.4v6.829a1.927,1.927,0,0,0,.559,1.529,2.12,2.12,0,0,0,1.447.494,2.515,2.515,0,0,0,1.773-.634,2.726,2.726,0,0,0,.7-2.065Zm11.4,11.351a5.956,5.956,0,0,1-4.3-1.6,5.544,5.544,0,0,1-1.671-4.186,5.531,5.531,0,0,1,1.664-4.186,6.618,6.618,0,0,1,7.921-.521,4.794,4.794,0,0,1,1.865,3.025l-2.884.315a2.468,2.468,0,0,0-.933-1.465,2.838,2.838,0,0,0-1.691-.494,2.556,2.556,0,0,0-2.038.911,3.57,3.57,0,0,0-.781,2.407,3.577,3.577,0,0,0,.781,2.4,2.55,2.55,0,0,0,2.038.917,2.811,2.811,0,0,0,1.687-.494,2.529,2.529,0,0,0,.938-1.465l2.885.315a4.812,4.812,0,0,1-1.882,3.025,5.922,5.922,0,0,1-3.592,1.1Zm12.741,0a5.956,5.956,0,0,1-4.3-1.6,5.544,5.544,0,0,1-1.67-4.186,5.531,5.531,0,0,1,1.664-4.186,6.618,6.618,0,0,1,7.92-.517,4.793,4.793,0,0,1,1.865,3.025l-2.885.315a2.468,2.468,0,0,0-.933-1.465,2.838,2.838,0,0,0-1.692-.494,2.556,2.556,0,0,0-2.038.911,3.571,3.571,0,0,0-.781,2.407,3.578,3.578,0,0,0,.781,2.4,2.55,2.55,0,0,0,2.038.917,2.811,2.811,0,0,0,1.687-.494,2.529,2.529,0,0,0,.938-1.465l2.885.315a4.812,4.812,0,0,1-1.882,3.025,5.923,5.923,0,0,1-3.59,1.1Zm9.293-13.024a1.753,1.753,0,0,1-1.279-.526,1.728,1.728,0,0,1-.532-1.274,1.705,1.705,0,0,1,.537-1.263,1.758,1.758,0,0,1,1.275-.526,1.795,1.795,0,0,1,0,3.589Zm-1.592,12.822V9.827h3.145V20.975ZM804.333,8.308l2.838-3.99,1.54,1.085-2.468,2.906ZM805.3,21.19a7.009,7.009,0,0,1-3.156-.684,5.106,5.106,0,0,1-2.168-2,5.98,5.98,0,0,1-.786-3.112,5.454,5.454,0,0,1,1.691-4.229,7.071,7.071,0,0,1,8.838,0,5.453,5.453,0,0,1,1.692,4.229,5.483,5.483,0,0,1-1.692,4.246,6.278,6.278,0,0,1-4.418,1.551Zm-.032-2.484a2.861,2.861,0,0,0,2.207-.911,3.411,3.411,0,0,0,.84-2.407,3.411,3.411,0,0,0-.84-2.407,2.861,2.861,0,0,0-2.207-.911,2.756,2.756,0,0,0-2.142.917,3.441,3.441,0,0,0-.829,2.4,3.441,3.441,0,0,0,.829,2.4,2.756,2.756,0,0,0,2.137.915Zm15.052-9.1a4.345,4.345,0,0,1,3.084,1,3.719,3.719,0,0,1,1.073,2.857v7.505h-3.134V14.143a1.942,1.942,0,0,0-.559-1.54,2.1,2.1,0,0,0-1.437-.494,2.935,2.935,0,0,0-.933.141,2.4,2.4,0,0,0-.781.439,1.941,1.941,0,0,0-.559.84,3.884,3.884,0,0,0-.211,1.291v6.154H813.74V9.827h3.123v1.234a4.3,4.3,0,0,1,3.45-1.451Zm10.052,6.528V14.966a2.592,2.592,0,0,1,.265-1.214,2.432,2.432,0,0,1,.688-.829,7.6,7.6,0,0,1,1.16-.688,2.344,2.344,0,0,0,1.345-2.278,2.253,2.253,0,0,0-.617-1.708,2.255,2.255,0,0,0-1.632-.591,2.221,2.221,0,0,0-1.637.617,2.166,2.166,0,0,0-.617,1.61,4.255,4.255,0,0,0,.13.954l-2.8-.358a7.143,7.143,0,0,1-.054-.813,4.327,4.327,0,0,1,1.366-3.308,5.008,5.008,0,0,1,3.568-1.279,5.156,5.156,0,0,1,3.632,1.307,4.522,4.522,0,0,1,1.42,3.5,5.159,5.159,0,0,1-.238,1.616,3.665,3.665,0,0,1-.65,1.22,4.455,4.455,0,0,1-.873.813,4.644,4.644,0,0,1-1,.526,1.691,1.691,0,0,0-.716.482,1.179,1.179,0,0,0-.228.754v.846Zm2.548,4.533a1.678,1.678,0,0,1-1.247.521,1.727,1.727,0,0,1-1.263-.521,1.774,1.774,0,0,1,0-2.521,1.741,1.741,0,0,1,1.263-.514,1.779,1.779,0,0,1,1.247,3.036Z" transform="translate(190.005 3155.437)" fill="#00223d"/>
      <path id="Trazado_64897" data-name="Trazado 64897" d="M32.325,21.181a8.111,8.111,0,0,1-3-.548,7.254,7.254,0,0,1-2.413-1.54,6.869,6.869,0,0,1-1.6-2.477,8.961,8.961,0,0,1-.58-3.286,8.814,8.814,0,0,1,.586-3.27,6.855,6.855,0,0,1,4.011-4.015,8.184,8.184,0,0,1,3-.545,7.757,7.757,0,0,1,4.062,1.073,6.688,6.688,0,0,1,2.684,2.982l-1.789.74a5.028,5.028,0,0,0-2-2.174,5.742,5.742,0,0,0-2.961-.765,6.071,6.071,0,0,0-2.221.4,5.326,5.326,0,0,0-1.8,1.15,5.189,5.189,0,0,0-1.209,1.886,7,7,0,0,0-.439,2.531,7.045,7.045,0,0,0,.439,2.543A5.182,5.182,0,0,0,28.3,17.761a5.4,5.4,0,0,0,1.8,1.155,6,6,0,0,0,2.221.407,5.742,5.742,0,0,0,2.961-.765,5.04,5.04,0,0,0,2-2.163l1.789.727A6.655,6.655,0,0,1,36.4,20.111a7.779,7.779,0,0,1-4.072,1.07Zm14.075,0a5.619,5.619,0,0,1-2.733-.661,4.812,4.812,0,0,1-1.925-1.936,5.946,5.946,0,0,1-.711-2.944,5.429,5.429,0,0,1,1.513-4.017,5.675,5.675,0,0,1,7.715,0,5.441,5.441,0,0,1,1.508,4.017,5.445,5.445,0,0,1-1.513,4.028A5.221,5.221,0,0,1,46.4,21.181Zm-.01-1.563a3.275,3.275,0,0,0,2.521-1.1,4.1,4.1,0,0,0,1-2.885,4.089,4.089,0,0,0-1-2.874,3.274,3.274,0,0,0-2.521-1.093,3.229,3.229,0,0,0-2.5,1.1A4.116,4.116,0,0,0,42.9,15.64a4.131,4.131,0,0,0,.987,2.885,3.229,3.229,0,0,0,2.5,1.093Zm13.347-9.509a3.708,3.708,0,0,1,2.684.965,3.6,3.6,0,0,1,1,2.722v7.179H61.549V14.218a2.521,2.521,0,0,0-.65-1.909,2.326,2.326,0,0,0-1.671-.617,2.579,2.579,0,0,0-1.9.732,2.97,2.97,0,0,0-.748,2.174v6.376H54.707V10.315h1.877v1.367a3.56,3.56,0,0,1,3.155-1.573ZM70.45,20.975a2.8,2.8,0,0,1-2.081-.765,2.892,2.892,0,0,1-.759-2.131V11.811H65.432v-1.5h.8a1.541,1.541,0,0,0,1.177-.37,1.841,1.841,0,0,0,.342-1.252V6.759H69.5v3.556h2.45v1.5H69.5V17.89a1.616,1.616,0,0,0,.407,1.177,1.424,1.424,0,0,0,1.068.417h.976v1.49Zm13.4-5.541-.022.51H75.508a3.767,3.767,0,0,0,1.019,2.727,3.347,3.347,0,0,0,2.429.949,3.2,3.2,0,0,0,1.768-.51,3.307,3.307,0,0,0,1.214-1.41l1.692.358a4.812,4.812,0,0,1-1.83,2.289,4.97,4.97,0,0,1-2.83.835A5.15,5.15,0,0,1,75.132,19.7a5.526,5.526,0,0,1-1.465-4.055A5.5,5.5,0,0,1,75.138,11.6a5.086,5.086,0,0,1,3.779-1.481A4.812,4.812,0,0,1,82.5,11.483a5.4,5.4,0,0,1,1.36,3.951Zm-4.935-3.882a3.324,3.324,0,0,0-2.221.754,3.455,3.455,0,0,0-1.123,2.2h6.387a3.167,3.167,0,0,0-.933-2.2,3.012,3.012,0,0,0-2.107-.755Zm5.947,9.423,4.093-5.335-4.093-5.325h2.31l2.95,4.072,2.95-4.072h2.278l-4.11,5.324,4.109,5.336H93.062l-2.928-4.055-2.96,4.055Zm16.2,0a2.8,2.8,0,0,1-2.081-.765,2.892,2.892,0,0,1-.759-2.131V11.811H96.044v-1.5h.8a1.541,1.541,0,0,0,1.177-.37,1.841,1.841,0,0,0,.342-1.252V6.759h1.746v3.556h2.45v1.5h-2.45V17.89a1.616,1.616,0,0,0,.407,1.177,1.424,1.424,0,0,0,1.068.417h.976v1.49Zm8.566.206a5.619,5.619,0,0,1-2.733-.661,4.812,4.812,0,0,1-1.925-1.936,5.946,5.946,0,0,1-.711-2.944,5.429,5.429,0,0,1,1.513-4.017,5.675,5.675,0,0,1,7.715,0A5.441,5.441,0,0,1,115,15.64a5.445,5.445,0,0,1-1.513,4.028,5.221,5.221,0,0,1-3.854,1.513Zm-.011-1.563a3.275,3.275,0,0,0,2.521-1.1,4.1,4.1,0,0,0,1-2.885,4.089,4.089,0,0,0-1-2.874,3.274,3.274,0,0,0-2.521-1.1,3.229,3.229,0,0,0-2.5,1.1,4.116,4.116,0,0,0-.987,2.874,4.131,4.131,0,0,0,.987,2.885,3.229,3.229,0,0,0,2.5,1.1ZM6.983,50.586V35.317H8.924V50.586ZM18.26,39.72a3.708,3.708,0,0,1,2.684.965,3.6,3.6,0,0,1,1,2.722v7.179H20.071V43.829a2.521,2.521,0,0,0-.65-1.909,2.326,2.326,0,0,0-1.671-.617,2.579,2.579,0,0,0-1.9.732,2.97,2.97,0,0,0-.748,2.174v6.376H13.229V39.926h1.877v1.366A3.56,3.56,0,0,1,18.26,39.72ZM28.974,50.586a2.8,2.8,0,0,1-2.081-.765,2.892,2.892,0,0,1-.759-2.131V41.422h-2.18v-1.5h.8a1.541,1.541,0,0,0,1.177-.37,1.841,1.841,0,0,0,.342-1.252V36.37H28.02v3.556h2.455v1.5H28.02V47.5a1.616,1.616,0,0,0,.407,1.177A1.424,1.424,0,0,0,29.5,49.1h.98v1.49Zm13.4-5.541-.022.51H34.028a3.767,3.767,0,0,0,1.019,2.727,3.347,3.347,0,0,0,2.429.949,3.2,3.2,0,0,0,1.768-.51,3.307,3.307,0,0,0,1.214-1.41l1.692.358a4.812,4.812,0,0,1-1.822,2.287,4.97,4.97,0,0,1-2.83.835,5.15,5.15,0,0,1-3.838-1.481,5.526,5.526,0,0,1-1.465-4.055,5.5,5.5,0,0,1,1.469-4.046,5.086,5.086,0,0,1,3.779-1.481,4.812,4.812,0,0,1,3.578,1.366A5.4,5.4,0,0,1,42.377,45.045Zm-4.935-3.882a3.324,3.324,0,0,0-2.221.754,3.455,3.455,0,0,0-1.123,2.2h6.387a3.167,3.167,0,0,0-.933-2.2,3.012,3.012,0,0,0-2.11-.755Zm9.705.64a3.223,3.223,0,0,1,1.323-1.431,3.984,3.984,0,0,1,2.049-.564v1.771a3.511,3.511,0,0,0-2.477.792A3.307,3.307,0,0,0,47.19,44.9v5.688H45.316V39.926h1.832Zm10.611-2.081a3.708,3.708,0,0,1,2.684.965,3.6,3.6,0,0,1,1,2.722v7.177H59.565V43.829a2.521,2.521,0,0,0-.65-1.909,2.326,2.326,0,0,0-1.671-.617,2.579,2.579,0,0,0-1.9.732,2.97,2.97,0,0,0-.748,2.174v6.376H52.723V39.926H54.6v1.366a3.559,3.559,0,0,1,3.155-1.572Zm9.77,11.072a3.627,3.627,0,0,1-2.337-.732,2.628,2.628,0,0,1-.917-2.185,3.105,3.105,0,0,1,.292-1.393,2.456,2.456,0,0,1,.864-.971,5.2,5.2,0,0,1,1.252-.6,11.578,11.578,0,0,1,1.621-.385l1.727-.283q.944-.174.944-.987a1.863,1.863,0,0,0-.667-1.589,2.714,2.714,0,0,0-1.687-.5,2.767,2.767,0,0,0-1.671.494,2.042,2.042,0,0,0-.792,1.5L64.467,42.8A3.256,3.256,0,0,1,65.8,40.513a4.983,4.983,0,0,1,2.906-.765,5.894,5.894,0,0,1,1.545.19,4.2,4.2,0,0,1,1.291.6,2.675,2.675,0,0,1,.922,1.15,4.276,4.276,0,0,1,.331,1.746v4.4a1.8,1.8,0,0,0,.247,1.11,1.054,1.054,0,0,0,.84.287h.174v1.356h-.933A1.779,1.779,0,0,1,71.1,49.143h-.086a4.072,4.072,0,0,1-3.494,1.648Zm.434-1.518a2.844,2.844,0,0,0,2.287-1.03,4.242,4.242,0,0,0,.864-2.819l-2.819.542a3.8,3.8,0,0,0-1.653.591,1.374,1.374,0,0,0-.537,1.166,1.357,1.357,0,0,0,.514,1.171,2.2,2.2,0,0,0,1.34.378ZM80.91,50.784a5.134,5.134,0,0,1-3.817-1.529,5.455,5.455,0,0,1-1.508-4,5.466,5.466,0,0,1,1.5-4,5.552,5.552,0,0,1,6.909-.6,4.707,4.707,0,0,1,1.8,2.591l-1.757.283A3.193,3.193,0,0,0,80.9,41.285a3.151,3.151,0,0,0-2.468,1.1,4.732,4.732,0,0,0,0,5.742A3.159,3.159,0,0,0,80.9,49.212a3.193,3.193,0,0,0,3.134-2.246l1.757.292a4.712,4.712,0,0,1-1.805,2.591,5.163,5.163,0,0,1-3.08.93Zm8.6-13.36a1.277,1.277,0,0,1-1.273-1.275,1.2,1.2,0,0,1,.37-.89,1.234,1.234,0,0,1,.895-.37,1.218,1.218,0,0,1,.883.37,1.2,1.2,0,0,1,.37.89,1.22,1.22,0,0,1-.37.895,1.208,1.208,0,0,1-.88.376Zm-.959,13.161V39.926h1.886v10.66Zm10.194.206a5.619,5.619,0,0,1-2.733-.661,4.812,4.812,0,0,1-1.925-1.936,5.946,5.946,0,0,1-.711-2.944,5.429,5.429,0,0,1,1.513-4.017,5.675,5.675,0,0,1,7.715,0,5.441,5.441,0,0,1,1.508,4.017,5.445,5.445,0,0,1-1.513,4.028A5.222,5.222,0,0,1,98.745,50.792Zm-.011-1.563a3.275,3.275,0,0,0,2.521-1.1,4.633,4.633,0,0,0,0-5.758,3.275,3.275,0,0,0-2.521-1.1,3.229,3.229,0,0,0-2.5,1.1,4.674,4.674,0,0,0,0,5.758,3.229,3.229,0,0,0,2.5,1.093Zm13.348-9.51a3.708,3.708,0,0,1,2.684.965,3.6,3.6,0,0,1,1,2.722v7.181h-1.875V43.829a2.521,2.521,0,0,0-.65-1.909,2.326,2.326,0,0,0-1.671-.617,2.579,2.579,0,0,0-1.9.732,2.97,2.97,0,0,0-.748,2.174v6.376H107.05V39.926h1.877v1.366a3.56,3.56,0,0,1,3.155-1.572Zm9.77,11.072a3.627,3.627,0,0,1-2.337-.732,2.628,2.628,0,0,1-.917-2.185,3.105,3.105,0,0,1,.292-1.393,2.456,2.456,0,0,1,.864-.971,5.2,5.2,0,0,1,1.252-.6,11.578,11.578,0,0,1,1.621-.385l1.727-.283q.944-.174.944-.987a1.863,1.863,0,0,0-.667-1.589,2.714,2.714,0,0,0-1.687-.5,2.767,2.767,0,0,0-1.671.494,2.042,2.042,0,0,0-.792,1.5l-1.692-.358a3.256,3.256,0,0,1,1.334-2.283,4.983,4.983,0,0,1,2.906-.765,5.894,5.894,0,0,1,1.545.19,4.2,4.2,0,0,1,1.291.6,2.675,2.675,0,0,1,.922,1.15,4.276,4.276,0,0,1,.331,1.751v4.4a1.8,1.8,0,0,0,.247,1.11,1.054,1.054,0,0,0,.84.287h.174v1.355h-.928a1.779,1.779,0,0,1-2.017-1.442h-.086a4.071,4.071,0,0,1-3.5,1.648Zm.434-1.518a2.844,2.844,0,0,0,2.287-1.03,4.242,4.242,0,0,0,.864-2.819l-2.819.542a3.8,3.8,0,0,0-1.653.591,1.374,1.374,0,0,0-.537,1.166,1.357,1.357,0,0,0,.514,1.171,2.2,2.2,0,0,0,1.344.381Zm8.743,1.313V33.929h1.9V50.586Z" transform="translate(475.012 3329.402)" fill="#00223d"/>
      <path id="Trazado_64896" data-name="Trazado 64896" d="M32.325,21.181a8.111,8.111,0,0,1-3-.548,7.254,7.254,0,0,1-2.413-1.54,6.869,6.869,0,0,1-1.6-2.477,8.961,8.961,0,0,1-.58-3.286,8.814,8.814,0,0,1,.586-3.27,6.855,6.855,0,0,1,4.011-4.015,8.184,8.184,0,0,1,3-.545,7.757,7.757,0,0,1,4.062,1.073,6.688,6.688,0,0,1,2.684,2.982l-1.789.74a5.028,5.028,0,0,0-2-2.174,5.742,5.742,0,0,0-2.961-.765,6.071,6.071,0,0,0-2.221.4,5.326,5.326,0,0,0-1.8,1.15,5.189,5.189,0,0,0-1.209,1.886,7,7,0,0,0-.439,2.531,7.045,7.045,0,0,0,.439,2.543A5.182,5.182,0,0,0,28.3,17.761a5.4,5.4,0,0,0,1.8,1.155,6,6,0,0,0,2.221.407,5.742,5.742,0,0,0,2.961-.765,5.04,5.04,0,0,0,2-2.163l1.789.727A6.655,6.655,0,0,1,36.4,20.111a7.779,7.779,0,0,1-4.072,1.07Zm14.075,0a5.619,5.619,0,0,1-2.733-.661,4.812,4.812,0,0,1-1.925-1.936,5.946,5.946,0,0,1-.711-2.944,5.429,5.429,0,0,1,1.513-4.017,5.675,5.675,0,0,1,7.715,0,5.441,5.441,0,0,1,1.508,4.017,5.445,5.445,0,0,1-1.513,4.028A5.221,5.221,0,0,1,46.4,21.181Zm-.01-1.563a3.275,3.275,0,0,0,2.521-1.1,4.1,4.1,0,0,0,1-2.885,4.089,4.089,0,0,0-1-2.874,3.274,3.274,0,0,0-2.521-1.093,3.229,3.229,0,0,0-2.5,1.1A4.116,4.116,0,0,0,42.9,15.64a4.131,4.131,0,0,0,.987,2.885,3.229,3.229,0,0,0,2.5,1.093Zm13.347-9.509a3.708,3.708,0,0,1,2.684.965,3.6,3.6,0,0,1,1,2.722v7.179H61.549V14.218a2.521,2.521,0,0,0-.65-1.909,2.326,2.326,0,0,0-1.671-.617,2.579,2.579,0,0,0-1.9.732,2.97,2.97,0,0,0-.748,2.174v6.376H54.707V10.315h1.877v1.367a3.56,3.56,0,0,1,3.155-1.573ZM70.45,20.975a2.8,2.8,0,0,1-2.081-.765,2.892,2.892,0,0,1-.759-2.131V11.811H65.432v-1.5h.8a1.541,1.541,0,0,0,1.177-.37,1.841,1.841,0,0,0,.342-1.252V6.759H69.5v3.556h2.45v1.5H69.5V17.89a1.616,1.616,0,0,0,.407,1.177,1.424,1.424,0,0,0,1.068.417h.976v1.49Zm13.4-5.541-.022.51H75.508a3.767,3.767,0,0,0,1.019,2.727,3.347,3.347,0,0,0,2.429.949,3.2,3.2,0,0,0,1.768-.51,3.307,3.307,0,0,0,1.214-1.41l1.692.358a4.812,4.812,0,0,1-1.83,2.289,4.97,4.97,0,0,1-2.83.835A5.15,5.15,0,0,1,75.132,19.7a5.526,5.526,0,0,1-1.465-4.055A5.5,5.5,0,0,1,75.138,11.6a5.086,5.086,0,0,1,3.779-1.481A4.812,4.812,0,0,1,82.5,11.483a5.4,5.4,0,0,1,1.36,3.951Zm-4.935-3.882a3.324,3.324,0,0,0-2.221.754,3.455,3.455,0,0,0-1.123,2.2h6.387a3.167,3.167,0,0,0-.933-2.2,3.012,3.012,0,0,0-2.107-.755Zm5.947,9.423,4.093-5.335-4.093-5.325h2.31l2.95,4.072,2.95-4.072h2.278l-4.11,5.324,4.109,5.336H93.062l-2.928-4.055-2.96,4.055Zm16.2,0a2.8,2.8,0,0,1-2.081-.765,2.892,2.892,0,0,1-.759-2.131V11.811H96.044v-1.5h.8a1.541,1.541,0,0,0,1.177-.37,1.841,1.841,0,0,0,.342-1.252V6.759h1.746v3.556h2.45v1.5h-2.45V17.89a1.616,1.616,0,0,0,.407,1.177,1.424,1.424,0,0,0,1.068.417h.976v1.49Zm8.566.206a5.619,5.619,0,0,1-2.733-.661,4.812,4.812,0,0,1-1.925-1.936,5.946,5.946,0,0,1-.711-2.944,5.429,5.429,0,0,1,1.513-4.017,5.675,5.675,0,0,1,7.715,0A5.441,5.441,0,0,1,115,15.64a5.445,5.445,0,0,1-1.513,4.028,5.221,5.221,0,0,1-3.854,1.513Zm-.011-1.563a3.275,3.275,0,0,0,2.521-1.1,4.1,4.1,0,0,0,1-2.885,4.089,4.089,0,0,0-1-2.874,3.274,3.274,0,0,0-2.521-1.1,3.229,3.229,0,0,0-2.5,1.1,4.116,4.116,0,0,0-.987,2.874,4.131,4.131,0,0,0,.987,2.885,3.229,3.229,0,0,0,2.5,1.1Zm-71.51,15.7h1.93V50.586H37.991L29.76,38.234V50.586H27.852V35.317H29.88l8.231,12.3Zm8.545,15.474a3.627,3.627,0,0,1-2.337-.732,2.628,2.628,0,0,1-.917-2.185,3.105,3.105,0,0,1,.292-1.393,2.457,2.457,0,0,1,.864-.971,5.2,5.2,0,0,1,1.252-.6,11.578,11.578,0,0,1,1.621-.385l1.727-.283q.944-.174.944-.987a1.863,1.863,0,0,0-.667-1.589,2.714,2.714,0,0,0-1.687-.5,2.767,2.767,0,0,0-1.671.494,2.042,2.042,0,0,0-.792,1.5l-1.692-.358a3.256,3.256,0,0,1,1.334-2.283,4.983,4.983,0,0,1,2.906-.765,5.894,5.894,0,0,1,1.545.19,4.2,4.2,0,0,1,1.291.6,2.675,2.675,0,0,1,.922,1.15,4.276,4.276,0,0,1,.331,1.751v4.4a1.8,1.8,0,0,0,.247,1.11,1.054,1.054,0,0,0,.84.287h.174v1.353h-.932a1.779,1.779,0,0,1-2.017-1.442h-.086a4.072,4.072,0,0,1-3.493,1.648Zm.434-1.518a2.844,2.844,0,0,0,2.287-1.03,4.242,4.242,0,0,0,.864-2.819l-2.819.542a3.8,3.8,0,0,0-1.653.591,1.374,1.374,0,0,0-.537,1.166,1.357,1.357,0,0,0,.514,1.171,2.2,2.2,0,0,0,1.342.38Zm12.946,1.506a5.134,5.134,0,0,1-3.817-1.529,5.455,5.455,0,0,1-1.508-4,5.466,5.466,0,0,1,1.5-4,5.552,5.552,0,0,1,6.909-.6,4.707,4.707,0,0,1,1.8,2.591l-1.757.283a3.193,3.193,0,0,0-3.134-2.246,3.151,3.151,0,0,0-2.468,1.1,4.732,4.732,0,0,0,0,5.742,3.159,3.159,0,0,0,2.468,1.089,3.193,3.193,0,0,0,3.134-2.246l1.757.292a4.712,4.712,0,0,1-1.805,2.591,5.163,5.163,0,0,1-3.076.934Zm8.6-13.36a1.277,1.277,0,0,1-1.271-1.271,1.2,1.2,0,0,1,.37-.89,1.234,1.234,0,0,1,.895-.37,1.218,1.218,0,0,1,.883.37,1.2,1.2,0,0,1,.37.89,1.22,1.22,0,0,1-.37.895A1.208,1.208,0,0,1,68.636,37.421Zm-.955,13.165V39.926h1.886v10.66Zm10.194.206a5.619,5.619,0,0,1-2.733-.661,4.812,4.812,0,0,1-1.925-1.936,5.946,5.946,0,0,1-.711-2.944,5.429,5.429,0,0,1,1.513-4.017,5.675,5.675,0,0,1,7.715,0,5.441,5.441,0,0,1,1.508,4.017,5.445,5.445,0,0,1-1.513,4.028A5.221,5.221,0,0,1,77.875,50.792Zm-.011-1.563a3.274,3.274,0,0,0,2.521-1.1,4.633,4.633,0,0,0,0-5.758,3.274,3.274,0,0,0-2.521-1.1,3.229,3.229,0,0,0-2.5,1.1,4.674,4.674,0,0,0,0,5.758,3.229,3.229,0,0,0,2.5,1.1Zm13.348-9.51a3.708,3.708,0,0,1,2.684.965,3.6,3.6,0,0,1,1,2.722v7.181h-1.87V43.829a2.521,2.521,0,0,0-.65-1.909,2.326,2.326,0,0,0-1.671-.617,2.579,2.579,0,0,0-1.9.732,2.97,2.97,0,0,0-.748,2.174v6.376h-1.88V39.926h1.877v1.366a3.559,3.559,0,0,1,3.155-1.572Zm9.77,11.072a3.627,3.627,0,0,1-2.337-.732,2.628,2.628,0,0,1-.917-2.185,3.105,3.105,0,0,1,.292-1.393,2.456,2.456,0,0,1,.864-.971,5.2,5.2,0,0,1,1.252-.6,11.578,11.578,0,0,1,1.621-.385l1.727-.283q.944-.174.944-.987a1.863,1.863,0,0,0-.667-1.589,2.714,2.714,0,0,0-1.687-.5,2.767,2.767,0,0,0-1.671.494,2.042,2.042,0,0,0-.792,1.5l-1.692-.358a3.256,3.256,0,0,1,1.334-2.283,4.983,4.983,0,0,1,2.906-.765,5.894,5.894,0,0,1,1.545.19,4.2,4.2,0,0,1,1.291.6,2.675,2.675,0,0,1,.922,1.15,4.276,4.276,0,0,1,.331,1.751v4.4a1.8,1.8,0,0,0,.247,1.11,1.054,1.054,0,0,0,.845.285h.174v1.357h-.933a1.779,1.779,0,0,1-2.017-1.442h-.086a4.072,4.072,0,0,1-3.494,1.648Zm.434-1.518a2.844,2.844,0,0,0,2.287-1.03,4.242,4.242,0,0,0,.864-2.819l-2.819.542a3.8,3.8,0,0,0-1.653.591,1.374,1.374,0,0,0-.537,1.166,1.357,1.357,0,0,0,.514,1.171,2.2,2.2,0,0,0,1.345.381Zm8.74,1.313V33.929h1.9V50.586Z" transform="translate(375.074 3516.939)" fill="#00223d"/>
      <g id="Grupo_24910" data-name="Grupo 24910" transform="translate(642.808 3301.642)">
        <g id="Grupo_24908" data-name="Grupo 24908" clip-path="url(#clip-path-2)">
          <rect id="Rect치ngulo_25468" data-name="Rect치ngulo 25468" width="111.652" height="71.368" fill="#e7b42c"/>
        </g>
      </g>
      <path id="Trazado_64898" data-name="Trazado 64898" d="M35.09,7.74H29.578v4.442h4.857v1.552H29.578v4.434h5.514v1.573H27.812V6.169h7.279Zm5.872,12.184a4.492,4.492,0,0,1-2.554-.685,2.83,2.83,0,0,1-1.244-1.947l1.456-.415a2.03,2.03,0,0,0,.776,1.315,2.517,2.517,0,0,0,1.557.468,3.107,3.107,0,0,0,.911-.123,1.461,1.461,0,0,0,.7-.468,1.3,1.3,0,0,0,.2-1.254,1.673,1.673,0,0,0-.154-.313.955.955,0,0,0-.27-.26,3.558,3.558,0,0,0-.328-.2,3.363,3.363,0,0,0-.429-.179q-.284-.1-.458-.154t-.531-.154q-.357-.1-.549-.159a10.277,10.277,0,0,1-.987-.347,4.318,4.318,0,0,1-.8-.458,1.842,1.842,0,0,1-.617-.746,2.528,2.528,0,0,1-.207-1.06,2.45,2.45,0,0,1,.463-1.514,2.6,2.6,0,0,1,1.2-.892,4.8,4.8,0,0,1,1.682-.275,4.117,4.117,0,0,1,2.308.617,2.633,2.633,0,0,1,1.152,1.851l-1.368.347a1.815,1.815,0,0,0-.725-1.194,2.3,2.3,0,0,0-1.357-.4,2.344,2.344,0,0,0-1.272.333,1.118,1.118,0,0,0-.531,1.017,1.012,1.012,0,0,0,.139.526,1.668,1.668,0,0,0,.284.37,1.748,1.748,0,0,0,.521.284q.37.149.559.2t.695.179q.1.028.144.038.559.144.911.255a5.6,5.6,0,0,1,.819.347,2.724,2.724,0,0,1,.74.516,2.389,2.389,0,0,1,.463.733,2.591,2.591,0,0,1,.192,1.022,2.76,2.76,0,0,1-.284,1.277,2.221,2.221,0,0,1-.776.872,3.753,3.753,0,0,1-1.1.477A5.258,5.258,0,0,1,40.962,19.923Zm9.136-.183a2.491,2.491,0,0,1-1.851-.68,2.571,2.571,0,0,1-.675-1.894V11.6H45.636V10.265h.713A1.37,1.37,0,0,0,47.4,9.932a1.636,1.636,0,0,0,.3-1.11V7.1h1.552v3.161H51.43V11.6H49.251V17a1.436,1.436,0,0,0,.362,1.046,1.266,1.266,0,0,0,.95.37h.864v1.329Zm5.369-7.807a2.865,2.865,0,0,1,1.176-1.272,3.541,3.541,0,0,1,1.822-.5v1.571a3.122,3.122,0,0,0-2.2.7,2.939,2.939,0,0,0-.756,2.246v5.061H53.839V10.265h1.629ZM62.5,19.925a3.224,3.224,0,0,1-2.078-.65,2.337,2.337,0,0,1-.814-1.942,2.76,2.76,0,0,1,.26-1.234,2.184,2.184,0,0,1,.771-.864,4.625,4.625,0,0,1,1.11-.535,10.291,10.291,0,0,1,1.441-.342l1.532-.247q.839-.154.839-.877a1.656,1.656,0,0,0-.592-1.413,2.416,2.416,0,0,0-1.5-.448,2.46,2.46,0,0,0-1.481.434,1.815,1.815,0,0,0-.7,1.33l-1.5-.318a2.894,2.894,0,0,1,1.186-2.03,4.429,4.429,0,0,1,2.571-.687,5.24,5.24,0,0,1,1.373.169,3.732,3.732,0,0,1,1.147.531,2.377,2.377,0,0,1,.819,1.022,3.8,3.8,0,0,1,.294,1.557v3.914a1.6,1.6,0,0,0,.217.987.936.936,0,0,0,.746.255h.154v1.2h-.829a1.58,1.58,0,0,1-1.793-1.282h-.076a3.621,3.621,0,0,1-3.1,1.465Zm.386-1.35a2.528,2.528,0,0,0,2.033-.915,3.77,3.77,0,0,0,.771-2.506l-2.506.482a3.373,3.373,0,0,0-1.469.526,1.221,1.221,0,0,0-.477,1.036,1.208,1.208,0,0,0,.458,1.041,1.957,1.957,0,0,0,1.184.336Zm10.734,1.166a2.491,2.491,0,0,1-1.851-.68,2.571,2.571,0,0,1-.675-1.894V11.6H69.158V10.265h.713a1.37,1.37,0,0,0,1.046-.333,1.636,1.636,0,0,0,.3-1.11V7.1h1.548v3.161h2.179V11.6H72.769V17a1.436,1.436,0,0,0,.362,1.046,1.266,1.266,0,0,0,.95.37h.864v1.329Zm11.914-4.925-.02.453h-7.4a3.349,3.349,0,0,0,.906,2.424,2.975,2.975,0,0,0,2.159.844,2.838,2.838,0,0,0,1.571-.453,2.94,2.94,0,0,0,1.08-1.254l1.5.318a4.274,4.274,0,0,1-1.619,2.033,4.418,4.418,0,0,1-2.516.74,4.577,4.577,0,0,1-3.413-1.32A4.913,4.913,0,0,1,76.482,15a4.888,4.888,0,0,1,1.307-3.6,4.521,4.521,0,0,1,3.36-1.32A4.278,4.278,0,0,1,84.334,11.3a4.8,4.8,0,0,1,1.2,3.52Zm-4.386-3.455a2.961,2.961,0,0,0-1.974.67,3.07,3.07,0,0,0-1,1.952h5.675a2.816,2.816,0,0,0-.829-1.952,2.677,2.677,0,0,0-1.875-.666ZM95,10.265h1.62v8.993A5.161,5.161,0,0,1,95.4,22.95a5.1,5.1,0,0,1-7.991-1.6l1.378-.675a3.133,3.133,0,0,0,3.171,2.188,2.714,2.714,0,0,0,2.221-.925,3.938,3.938,0,0,0,.766-2.584V17.591a3.34,3.34,0,0,1-1.35,1.363,3.926,3.926,0,0,1-1.974.516,4.063,4.063,0,0,1-3.061-1.334A4.708,4.708,0,0,1,87.3,14.769a4.664,4.664,0,0,1,1.267-3.36,4.1,4.1,0,0,1,3.084-1.325,3.825,3.825,0,0,1,1.985.531,3.413,3.413,0,0,1,1.34,1.4ZM92,18.054a2.866,2.866,0,0,0,2.184-.973,3.439,3.439,0,0,0,0-4.637,2.97,2.97,0,0,0-4.371-.028,3.293,3.293,0,0,0-.892,2.352,3.266,3.266,0,0,0,.9,2.338A2.888,2.888,0,0,0,92,18.054Zm8.869-10.015a1.135,1.135,0,0,1-1.124-1.13,1.07,1.07,0,0,1,.333-.791,1.093,1.093,0,0,1,.8-.328,1.082,1.082,0,0,1,.786.328,1.07,1.07,0,0,1,.333.791,1.086,1.086,0,0,1-.333.8,1.075,1.075,0,0,1-.787.334Zm-.845,11.7V10.265H101.7v9.476Zm7.258.183a3.224,3.224,0,0,1-2.078-.65,2.337,2.337,0,0,1-.814-1.942,2.76,2.76,0,0,1,.26-1.234,2.184,2.184,0,0,1,.771-.864,4.626,4.626,0,0,1,1.11-.535,10.291,10.291,0,0,1,1.441-.342l1.532-.247q.839-.154.839-.877a1.656,1.656,0,0,0-.592-1.413,2.416,2.416,0,0,0-1.5-.448,2.46,2.46,0,0,0-1.481.434,1.815,1.815,0,0,0-.7,1.33l-1.5-.318a2.9,2.9,0,0,1,1.186-2.03,4.429,4.429,0,0,1,2.581-.686,5.24,5.24,0,0,1,1.373.169,3.732,3.732,0,0,1,1.147.531,2.377,2.377,0,0,1,.819,1.022,3.8,3.8,0,0,1,.294,1.557v3.914a1.6,1.6,0,0,0,.217.987.936.936,0,0,0,.746.255h.154v1.2h-.828a1.58,1.58,0,0,1-1.793-1.282h-.076a3.621,3.621,0,0,1-3.1,1.465Zm.386-1.35a2.528,2.528,0,0,0,2.033-.915,3.77,3.77,0,0,0,.771-2.506l-2.506.482a3.373,3.373,0,0,0-1.469.526,1.221,1.221,0,0,0-.477,1.036,1.208,1.208,0,0,0,.458,1.041,1.957,1.957,0,0,0,1.191.337ZM27.578,35.78h1.716V49.352H27.472L20.155,38.371V49.352h-1.7V35.78h1.8l7.316,10.93Zm7.6,13.754a3.224,3.224,0,0,1-2.078-.65,2.337,2.337,0,0,1-.814-1.942,2.76,2.76,0,0,1,.26-1.234,2.184,2.184,0,0,1,.771-.864,4.626,4.626,0,0,1,1.11-.535,10.293,10.293,0,0,1,1.441-.342l1.532-.247q.839-.154.839-.877a1.656,1.656,0,0,0-.592-1.413,2.416,2.416,0,0,0-1.5-.448,2.46,2.46,0,0,0-1.481.434,1.815,1.815,0,0,0-.7,1.33l-1.511-.326a2.894,2.894,0,0,1,1.186-2.03,4.429,4.429,0,0,1,2.584-.68,5.24,5.24,0,0,1,1.373.169,3.732,3.732,0,0,1,1.147.531,2.378,2.378,0,0,1,.819,1.022,3.8,3.8,0,0,1,.294,1.557V46.9a1.6,1.6,0,0,0,.217.987.936.936,0,0,0,.746.255h.154v1.205H40.14a1.58,1.58,0,0,1-1.793-1.282h-.076A3.621,3.621,0,0,1,35.173,49.534Zm.386-1.35a2.528,2.528,0,0,0,2.033-.915,3.771,3.771,0,0,0,.771-2.506l-2.506.482a3.373,3.373,0,0,0-1.469.526,1.221,1.221,0,0,0-.477,1.036,1.208,1.208,0,0,0,.458,1.041,1.957,1.957,0,0,0,1.189.337Zm11.509,1.34a4.565,4.565,0,0,1-3.393-1.357,5.4,5.4,0,0,1,0-7.114,4.935,4.935,0,0,1,6.141-.531,4.184,4.184,0,0,1,1.6,2.3l-1.562.247a2.883,2.883,0,0,0-1.07-1.481,2.913,2.913,0,0,0-1.716-.521,2.8,2.8,0,0,0-2.192.973,4.206,4.206,0,0,0,0,5.1,2.807,2.807,0,0,0,2.192.969,2.913,2.913,0,0,0,1.716-.521,2.883,2.883,0,0,0,1.07-1.481l1.562.26a4.2,4.2,0,0,1-1.6,2.3,4.59,4.59,0,0,1-2.74.85Zm7.65-11.875a1.135,1.135,0,0,1-1.128-1.128,1.07,1.07,0,0,1,.333-.791,1.093,1.093,0,0,1,.8-.328,1.082,1.082,0,0,1,.786.328,1.07,1.07,0,0,1,.333.791,1.086,1.086,0,0,1-.333.8,1.075,1.075,0,0,1-.793.333Zm-.855,11.7V39.876h1.677v9.476Zm9.061.183a4.994,4.994,0,0,1-2.429-.589,4.281,4.281,0,0,1-1.711-1.721,5.286,5.286,0,0,1-.632-2.617A4.827,4.827,0,0,1,59.5,41.036a5.045,5.045,0,0,1,6.859,0,4.837,4.837,0,0,1,1.34,3.572,4.84,4.84,0,0,1-1.345,3.578,4.641,4.641,0,0,1-3.426,1.349Zm-.01-1.388a2.911,2.911,0,0,0,2.241-.973,4.118,4.118,0,0,0,0-5.118,2.911,2.911,0,0,0-2.241-.973,2.87,2.87,0,0,0-2.221.973,4.154,4.154,0,0,0,0,5.118,2.87,2.87,0,0,0,2.221.973Zm11.865-8.454a3.3,3.3,0,0,1,2.386.864,3.2,3.2,0,0,1,.892,2.419v6.376H76.389v-6a2.241,2.241,0,0,0-.579-1.7A2.068,2.068,0,0,0,74.33,41.1a2.292,2.292,0,0,0-1.687.65,2.64,2.64,0,0,0-.665,1.932v5.668H70.307V39.876h1.668v1.209a3.165,3.165,0,0,1,2.8-1.392Zm8.685,9.842a3.224,3.224,0,0,1-2.078-.65,2.337,2.337,0,0,1-.814-1.942,2.76,2.76,0,0,1,.26-1.234,2.184,2.184,0,0,1,.771-.864,4.625,4.625,0,0,1,1.11-.535,10.293,10.293,0,0,1,1.441-.342l1.532-.247q.839-.154.839-.877a1.656,1.656,0,0,0-.592-1.413,2.416,2.416,0,0,0-1.5-.448,2.46,2.46,0,0,0-1.481.434,1.815,1.815,0,0,0-.7,1.33l-1.5-.318a2.894,2.894,0,0,1,1.186-2.03,4.429,4.429,0,0,1,2.584-.68,5.24,5.24,0,0,1,1.373.169,3.732,3.732,0,0,1,1.147.531,2.378,2.378,0,0,1,.819,1.022A3.8,3.8,0,0,1,88.15,43v3.914a1.6,1.6,0,0,0,.217.987.936.936,0,0,0,.746.255h.154v1.2h-.829a1.58,1.58,0,0,1-1.793-1.282h-.076A3.621,3.621,0,0,1,83.464,49.534Zm.386-1.35a2.528,2.528,0,0,0,2.033-.915,3.771,3.771,0,0,0,.771-2.506l-2.506.482a3.373,3.373,0,0,0-1.469.526,1.221,1.221,0,0,0-.477,1.036,1.208,1.208,0,0,0,.458,1.041,1.957,1.957,0,0,0,1.191.337Zm7.773,1.166v-14.8H93.31V49.352Zm17.2-14.8h1.668V49.352h-1.6l-.038-1.841a3.487,3.487,0,0,1-1.35,1.494,3.761,3.761,0,0,1-2,.549,4.306,4.306,0,0,1-3.128-1.335,4.565,4.565,0,0,1-.954-1.567,5.73,5.73,0,0,1-.352-2.033,4.982,4.982,0,0,1,1.287-3.557,4.154,4.154,0,0,1,3.144-1.368,3.777,3.777,0,0,1,1.98.535,3.506,3.506,0,0,1,1.357,1.451Zm-2.985,13.562a2.838,2.838,0,0,0,2.2-1,3.912,3.912,0,0,0,0-4.978,2.838,2.838,0,0,0-2.2-1,2.9,2.9,0,0,0-2.221.969,3.993,3.993,0,0,0,0,5.041,2.9,2.9,0,0,0,2.216.969Zm16.338-3.682-.02.453h-7.4a3.349,3.349,0,0,0,.906,2.424,2.975,2.975,0,0,0,2.159.844,2.838,2.838,0,0,0,1.571-.453,2.94,2.94,0,0,0,1.08-1.254l1.5.318a4.274,4.274,0,0,1-1.619,2.033,4.418,4.418,0,0,1-2.516.74,4.577,4.577,0,0,1-3.413-1.32,4.913,4.913,0,0,1-1.3-3.605,4.888,4.888,0,0,1,1.307-3.6,4.521,4.521,0,0,1,3.36-1.32,4.278,4.278,0,0,1,3.186,1.214,4.8,4.8,0,0,1,1.2,3.52Zm-4.386-3.455a2.961,2.961,0,0,0-1.974.67,3.07,3.07,0,0,0-1,1.952h5.675a2.816,2.816,0,0,0-.829-1.952,2.677,2.677,0,0,0-1.873-.666ZM35.915,66.962H30.4V71.4h4.859v1.552H30.4V77.39h5.514v1.573H28.636V65.391h7.279ZM42.72,79.136a4.565,4.565,0,0,1-3.393-1.357,5.4,5.4,0,0,1,0-7.114,4.935,4.935,0,0,1,6.141-.531,4.184,4.184,0,0,1,1.6,2.3l-1.562.247a2.883,2.883,0,0,0-1.07-1.481,2.913,2.913,0,0,0-1.716-.521,2.8,2.8,0,0,0-2.192.973,4.206,4.206,0,0,0,0,5.1,2.807,2.807,0,0,0,2.192.969,2.913,2.913,0,0,0,1.716-.521,2.883,2.883,0,0,0,1.07-1.481l1.562.26a4.2,4.2,0,0,1-1.6,2.3,4.59,4.59,0,0,1-2.739.85Zm10.786.01a4.994,4.994,0,0,1-2.429-.589,4.281,4.281,0,0,1-1.711-1.721,5.286,5.286,0,0,1-.632-2.617,4.827,4.827,0,0,1,1.345-3.572,5.045,5.045,0,0,1,6.859,0,5.435,5.435,0,0,1,0,7.156A4.642,4.642,0,0,1,53.506,79.146Zm-.01-1.388a2.911,2.911,0,0,0,2.241-.973,4.118,4.118,0,0,0,0-5.118,2.911,2.911,0,0,0-2.241-.973,2.87,2.87,0,0,0-2.221.973,4.154,4.154,0,0,0,0,5.118,2.87,2.87,0,0,0,2.221.973ZM65.362,69.3a3.3,3.3,0,0,1,2.386.864,3.2,3.2,0,0,1,.892,2.419v6.376H66.972v-6a2.241,2.241,0,0,0-.579-1.7,2.068,2.068,0,0,0-1.481-.549,2.292,2.292,0,0,0-1.687.65,2.64,2.64,0,0,0-.665,1.932v5.668H60.89V69.487h1.663V70.7A3.165,3.165,0,0,1,65.363,69.3Zm10.487,9.842a4.994,4.994,0,0,1-2.429-.589,4.281,4.281,0,0,1-1.711-1.721,5.286,5.286,0,0,1-.632-2.617,4.827,4.827,0,0,1,1.345-3.572,5.045,5.045,0,0,1,6.859,0,5.435,5.435,0,0,1,0,7.156,4.641,4.641,0,0,1-3.43,1.342Zm-.01-1.388a2.91,2.91,0,0,0,2.241-.973,4.118,4.118,0,0,0,0-5.118,2.911,2.911,0,0,0-2.241-.973,2.87,2.87,0,0,0-2.221.973,4.154,4.154,0,0,0,0,5.118,2.87,2.87,0,0,0,2.222.973ZM92.92,69.3a3.055,3.055,0,0,1,2.207.8,2.986,2.986,0,0,1,.839,2.26v6.595H94.3V72.8a2.141,2.141,0,0,0-.521-1.562,1.772,1.772,0,0,0-1.32-.531,1.872,1.872,0,0,0-1.446.6,2.57,2.57,0,0,0-.549,1.793v5.862h-1.7V72.872a2.239,2.239,0,0,0-.526-1.615,1.787,1.787,0,0,0-1.345-.544,1.851,1.851,0,0,0-1.441.617,2.659,2.659,0,0,0-.554,1.836v5.8H83.233V69.487H84.9v1.224a2.878,2.878,0,0,1,1.085-1.041,3.092,3.092,0,0,1,1.509-.37,3.219,3.219,0,0,1,1.62.4,2.49,2.49,0,0,1,1.051,1.152A2.949,2.949,0,0,1,91.3,69.71a3.254,3.254,0,0,1,1.62-.4Zm6.487-1.456,2.419-3.142.887.645-2.159,2.5ZM99.2,78.963V69.487h1.677v9.476Zm7.258.183a3.224,3.224,0,0,1-2.078-.65,2.337,2.337,0,0,1-.814-1.942,2.76,2.76,0,0,1,.26-1.234,2.184,2.184,0,0,1,.771-.864,4.626,4.626,0,0,1,1.11-.535,10.292,10.292,0,0,1,1.441-.342l1.532-.247q.839-.154.839-.877a1.656,1.656,0,0,0-.592-1.413,2.416,2.416,0,0,0-1.5-.448,2.46,2.46,0,0,0-1.481.434,1.815,1.815,0,0,0-.7,1.33l-1.5-.318a2.894,2.894,0,0,1,1.186-2.03,4.429,4.429,0,0,1,2.584-.68,5.24,5.24,0,0,1,1.373.169,3.732,3.732,0,0,1,1.147.531,2.378,2.378,0,0,1,.819,1.022,3.8,3.8,0,0,1,.294,1.557v3.914a1.6,1.6,0,0,0,.217.987.936.936,0,0,0,.746.255h.154v1.2h-.829a1.58,1.58,0,0,1-1.793-1.282h-.076a3.621,3.621,0,0,1-3.108,1.465Zm.386-1.35a2.528,2.528,0,0,0,2.033-.915,3.771,3.771,0,0,0,.771-2.506l-2.506.482a3.373,3.373,0,0,0-1.469.526,1.221,1.221,0,0,0-.477,1.036,1.208,1.208,0,0,0,.458,1.041,1.957,1.957,0,0,0,1.188.337Zm-64.19,30.961a7.21,7.21,0,0,1-2.67-.487,6.448,6.448,0,0,1-2.144-1.368,6.106,6.106,0,0,1-1.426-2.2,7.965,7.965,0,0,1-.516-2.92,7.835,7.835,0,0,1,.521-2.906A6.094,6.094,0,0,1,39.984,95.3a7.279,7.279,0,0,1,2.67-.482,6.9,6.9,0,0,1,3.61.954,5.946,5.946,0,0,1,2.386,2.65l-1.59.655a4.469,4.469,0,0,0-1.779-1.931,5.1,5.1,0,0,0-2.627-.68,5.4,5.4,0,0,0-1.974.357,4.736,4.736,0,0,0-1.6,1.022A4.613,4.613,0,0,0,38,99.522a6.725,6.725,0,0,0,0,4.516,4.606,4.606,0,0,0,1.075,1.682,4.8,4.8,0,0,0,1.6,1.027,5.333,5.333,0,0,0,1.974.361,5.1,5.1,0,0,0,2.627-.68,4.48,4.48,0,0,0,1.778-1.925l1.59.645a5.915,5.915,0,0,1-2.381,2.655A6.909,6.909,0,0,1,42.652,108.757Zm9.369-11.885a1.135,1.135,0,0,1-1.128-1.128,1.07,1.07,0,0,1,.333-.791,1.093,1.093,0,0,1,.8-.328,1.082,1.082,0,0,1,.786.328,1.07,1.07,0,0,1,.333.791,1.086,1.086,0,0,1-.333.8,1.075,1.075,0,0,1-.787.333Zm-.848,11.7V99.1h1.677v9.476Zm6.7-7.807a2.865,2.865,0,0,1,1.176-1.272,3.541,3.541,0,0,1,1.822-.5v1.571a3.122,3.122,0,0,0-2.2.7,2.939,2.939,0,0,0-.756,2.246v5.061H56.244V99.1h1.629Zm8.771,7.981a4.565,4.565,0,0,1-3.393-1.357,5.4,5.4,0,0,1,0-7.114,4.935,4.935,0,0,1,6.141-.531,4.184,4.184,0,0,1,1.6,2.3l-1.562.247a2.883,2.883,0,0,0-1.07-1.481,2.913,2.913,0,0,0-1.716-.521,2.8,2.8,0,0,0-2.192.973,4.206,4.206,0,0,0,0,5.1,2.807,2.807,0,0,0,2.192.969,2.913,2.913,0,0,0,1.716-.521,2.883,2.883,0,0,0,1.07-1.481l1.562.26a4.2,4.2,0,0,1-1.6,2.3A4.59,4.59,0,0,1,66.645,108.748ZM79.333,99.1H81v9.476H79.4l-.038-1.254a2.961,2.961,0,0,1-1.176,1.065,3.618,3.618,0,0,1-1.658.37,3.3,3.3,0,0,1-2.386-.864,3.2,3.2,0,0,1-.892-2.419V99.1h1.668v6a2.248,2.248,0,0,0,.584,1.7,2.064,2.064,0,0,0,1.489.559,2.266,2.266,0,0,0,1.682-.655,2.67,2.67,0,0,0,.66-1.937Zm5.059,9.476V93.769h1.687v14.806Zm7.268.183a3.224,3.224,0,0,1-2.078-.65,2.337,2.337,0,0,1-.814-1.942,2.76,2.76,0,0,1,.26-1.234,2.184,2.184,0,0,1,.771-.864,4.625,4.625,0,0,1,1.11-.535,10.292,10.292,0,0,1,1.441-.342l1.532-.247q.839-.154.839-.877a1.656,1.656,0,0,0-.592-1.413,2.416,2.416,0,0,0-1.5-.448,2.46,2.46,0,0,0-1.481.434,1.815,1.815,0,0,0-.7,1.33l-1.5-.318a2.894,2.894,0,0,1,1.186-2.03,4.429,4.429,0,0,1,2.584-.68,5.239,5.239,0,0,1,1.373.169,3.733,3.733,0,0,1,1.147.531,2.377,2.377,0,0,1,.819,1.022,3.8,3.8,0,0,1,.294,1.557v3.914a1.6,1.6,0,0,0,.217.987.936.936,0,0,0,.746.255h.16v1.2h-.829a1.58,1.58,0,0,1-1.793-1.282h-.076a3.621,3.621,0,0,1-3.1,1.465Zm.386-1.35a2.528,2.528,0,0,0,2.033-.915,3.771,3.771,0,0,0,.771-2.506l-2.506.482a3.373,3.373,0,0,0-1.469.526,1.221,1.221,0,0,0-.477,1.036,1.208,1.208,0,0,0,.458,1.041,1.957,1.957,0,0,0,1.2.337Zm9.4-6.642a2.865,2.865,0,0,1,1.176-1.272,3.541,3.541,0,0,1,1.822-.5v1.571a3.121,3.121,0,0,0-2.2.7,2.939,2.939,0,0,0-.756,2.246v5.062H99.822V99.1h1.629Z" transform="translate(577.417 3487.328)" fill="#00223d"/>
      <path id="Trazado_64899" data-name="Trazado 64899" d="M40.681,20.975l-1.139-3.231H32.96l-1.139,3.231H28.49L34.261,5.305h3.98L44.01,20.975Zm-6.766-5.953h4.674L36.256,8.374Zm17.014,6.159a5.956,5.956,0,0,1-4.3-1.6,5.543,5.543,0,0,1-1.671-4.186A5.531,5.531,0,0,1,46.618,11.2a6.618,6.618,0,0,1,7.921-.521A4.793,4.793,0,0,1,56.4,13.709l-2.885.315a2.468,2.468,0,0,0-.933-1.465,2.838,2.838,0,0,0-1.692-.494,2.556,2.556,0,0,0-2.038.911,3.571,3.571,0,0,0-.781,2.407,3.578,3.578,0,0,0,.782,2.408,2.55,2.55,0,0,0,2.038.917,2.811,2.811,0,0,0,1.687-.494,2.529,2.529,0,0,0,.938-1.465l2.885.315a4.812,4.812,0,0,1-1.882,3.025,5.922,5.922,0,0,1-3.6,1.091Zm11.852-.206a3.367,3.367,0,0,1-2.516-.906,3.521,3.521,0,0,1-.89-2.575V12.223h-2.19v-2.4h.7a1.84,1.84,0,0,0,1.388-.466A2.4,2.4,0,0,0,59.722,7.7V6.221h2.819V9.827h2.3v2.4h-2.3v4.935q0,1.442,1.291,1.442H64.84v2.374Zm9.624.217a7.009,7.009,0,0,1-3.156-.684,5.105,5.105,0,0,1-2.158-2A5.979,5.979,0,0,1,66.3,15.4,5.453,5.453,0,0,1,68,11.166a7.071,7.071,0,0,1,8.838,0A5.453,5.453,0,0,1,78.525,15.4a5.483,5.483,0,0,1-1.692,4.245,6.278,6.278,0,0,1-4.424,1.551Zm-.032-2.484a2.861,2.861,0,0,0,2.207-.911,3.41,3.41,0,0,0,.84-2.407,3.41,3.41,0,0,0-.84-2.407,2.861,2.861,0,0,0-2.207-.911,2.756,2.756,0,0,0-2.142.917,3.441,3.441,0,0,0-.829,2.4,3.441,3.441,0,0,0,.829,2.4,2.756,2.756,0,0,0,2.147.914ZM83.839,11.6A3.619,3.619,0,0,1,85.3,10.259a4.466,4.466,0,0,1,2.18-.559v2.787a4.223,4.223,0,0,0-2.667.672,2.935,2.935,0,0,0-.824,2.386v5.429H80.846V9.827h2.993Zm15.9,3.643-.032.748H91.438a2.886,2.886,0,0,0,.89,2.038,2.838,2.838,0,0,0,1.963.7,2.74,2.74,0,0,0,1.469-.385,2.366,2.366,0,0,0,.938-1.123l2.862.423a4.867,4.867,0,0,1-1.952,2.613,5.8,5.8,0,0,1-3.3.933,6.035,6.035,0,0,1-4.343-1.535,5.6,5.6,0,0,1-1.61-4.257,5.632,5.632,0,0,1,1.616-4.257,5.856,5.856,0,0,1,4.241-1.556,5.6,5.6,0,0,1,4,1.42,5.573,5.573,0,0,1,1.52,4.229Zm-5.5-3.441a2.468,2.468,0,0,0-2.714,2.147h5.118a2.344,2.344,0,0,0-.77-1.594,2.44,2.44,0,0,0-1.634-.553Zm11.8,9.39a6.229,6.229,0,0,1-3.254-.781,3.3,3.3,0,0,1-1.594-2.321l2.613-.74a2.1,2.1,0,0,0,2.234,1.659,2.307,2.307,0,0,0,1.139-.255.887.887,0,0,0,.444-.864.912.912,0,0,0-.184-.575,1.46,1.46,0,0,0-.569-.412,7.093,7.093,0,0,0-.761-.286q-.37-.123-.987-.287t-1.03-.32a6.9,6.9,0,0,1-.987-.417,4.186,4.186,0,0,1-.813-.575,2.317,2.317,0,0,1-.607-.874,3.149,3.149,0,0,1-.211-1.193,2.848,2.848,0,0,1,1.209-2.493,5.4,5.4,0,0,1,3.161-.846,5.539,5.539,0,0,1,2.917.716,3.239,3.239,0,0,1,1.5,2.234l-2.418.542a1.894,1.894,0,0,0-1.984-1.41,2.173,2.173,0,0,0-1.1.247.8.8,0,0,0-.434.74.845.845,0,0,0,.065.336.665.665,0,0,0,.228.271,3.323,3.323,0,0,0,.315.206,2.373,2.373,0,0,0,.444.179q.292.093.494.141l.569.147.58.152q.6.163,1.046.326a6.128,6.128,0,0,1,.96.455,3.445,3.445,0,0,1,.84.656,2.926,2.926,0,0,1,.548.922,3.4,3.4,0,0,1,.217,1.241,3.353,3.353,0,0,1-.37,1.616,2.808,2.808,0,0,1-1.025,1.089,4.988,4.988,0,0,1-1.447.586,7.51,7.51,0,0,1-1.75.19Z" transform="translate(975.934 3214.659)" fill="#00223d"/>
      <g id="Grupo_24911" data-name="Grupo 24911" transform="translate(-251.695 22.208)">
        <rect id="Rect치ngulo_25470" data-name="Rect치ngulo 25470" width="407.153" height="247.993" rx="9.87" transform="translate(1093.145 3228.848)" fill="#e7b42b" opacity="0.359"/>
        <text id="Organizaci칩n_de_las_Naciones_Unidas_para_el_Desarrollo_Industrial_ONUDI_._Programa_de_las_Naciones_Unidas_para_el_Medio_Ambiente_PNUMA_._Alianza_del_Pac칤fico" data-name="Organizaci칩n de las Naciones Unidas para el Desarrollo Industrial (ONUDI). Programa de las Naciones Unidas para el Medio Ambiente (PNUMA). Alianza del Pac칤fico" transform="translate(1132.626 3268.946)" fill="#00223d" font-size="22" font-family="CerebriSans-Regular, Cerebri Sans"><tspan x="0" y="0">Organizaci칩n de las Naciones </tspan><tspan x="0" y="30">Unidas para el Desarrollo Industrial </tspan><tspan x="0" y="60">(ONUDI).</tspan><tspan x="0" y="90">Programa de las Naciones Unidas </tspan><tspan x="0" y="120">para el Medio Ambiente</tspan><tspan x="0" y="150">(PNUMA).</tspan><tspan x="0" y="180">Alianza del Pac칤fico</tspan></text>
        <circle id="Elipse_954" data-name="Elipse 954" cx="5.371" cy="5.371" r="5.371" transform="translate(1108.748 3255.556)" fill="#e4986f"/>
        <circle id="Elipse_955" data-name="Elipse 955" cx="5.371" cy="5.371" r="5.371" transform="translate(1108.748 3348.091)" fill="#e4986f"/>
        <circle id="Elipse_956" data-name="Elipse 956" cx="5.371" cy="5.371" r="5.371" transform="translate(1108.748 3434.456)" fill="#e4986f"/>
      </g>
      <g id="grafico2-cp2" transform="translate(308.412 3233.783)">
        <path id="Trazado_60903" data-name="Trazado 60903" d="M-54.213,42.8A134.36,134.36,0,0,1,7.822,57.828a68.568,68.568,0,1,1,79.555,0A134.361,134.361,0,0,1,149.413,42.8a136.545,136.545,0,0,1,26.169,2.468A135.459,135.459,0,0,0,182.6,2.011a134.2,134.2,0,0,0-39.482-95.5,134.2,134.2,0,0,0-95.5-39.556,134.175,134.175,0,0,0-95.5,39.556,134.151,134.151,0,0,0-39.58,95.5,135.113,135.113,0,0,0,7.07,43.306A136.456,136.456,0,0,1-54.213,42.8Z" transform="translate(189.265 133.04)" fill="url(#linear-gradient)"/>
        <path id="Trazado_60904" data-name="Trazado 60904" d="M244.909,82.356A135.236,135.236,0,0,0,85.132,59.013L118.445,116.7a68.562,68.562,0,1,1-37.557,61.147,134.1,134.1,0,0,1-33.239,88.735c2.023,2.307,4.121,4.565,6.317,6.761a135.043,135.043,0,1,0,190.955-191Z" transform="translate(189.265 133.04)" fill="url(#linear-gradient-2)"/>
        <path id="Trazado_60905" data-name="Trazado 60905" d="M14.349,177.778v.074a68.649,68.649,0,0,1-68.574,68.562A68.649,68.649,0,0,1-122.8,177.852a68.648,68.648,0,0,1,68.587-68.574,68.056,68.056,0,0,1,31.005,7.4L10.1,58.988A134.4,134.4,0,0,0-54.176,42.776a134.126,134.126,0,0,0-95.5,39.556,134.126,134.126,0,0,0-39.556,95.5,134.151,134.151,0,0,0,39.556,95.5,134.176,134.176,0,0,0,95.5,39.556,134.2,134.2,0,0,0,95.5-39.556,134.2,134.2,0,0,0,39.556-95.5v-.074Z" transform="translate(189.265 133.04)" fill="url(#linear-gradient-3)"/>
      </g>
      <g id="Grupo_24912" data-name="Grupo 24912" transform="translate(-82.664 17.273)">
        <rect id="Rect치ngulo_25471" data-name="Rect치ngulo 25471" width="407.153" height="139.419" rx="9.87" transform="translate(924.114 3503.985)" fill="#d15b8b" opacity="0.359"/>
        <text id="Sector_p칰blico_Sector_privado_Academia_Sociedad_civl" data-name="Sector p칰blico Sector privado Academia Sociedad civl" transform="translate(964.83 3531.745)" fill="#00223d" font-size="22" font-family="CerebriSans-Regular, Cerebri Sans"><tspan x="0" y="0">Sector p칰blico</tspan><tspan x="0" y="30">Sector privado</tspan><tspan x="0" y="60">Academia</tspan><tspan x="0" y="90">Sociedad civl</tspan></text>
        <circle id="Elipse_957" data-name="Elipse 957" cx="5.371" cy="5.371" r="5.371" transform="translate(939.718 3519.588)" fill="#e4986f"/>
        <circle id="Elipse_958" data-name="Elipse 958" cx="5.371" cy="5.371" r="5.371" transform="translate(939.718 3550.433)" fill="#e4986f"/>
        <circle id="Elipse_959" data-name="Elipse 959" cx="5.371" cy="5.371" r="5.371" transform="translate(939.718 3580.044)" fill="#e4986f"/>
        <circle id="Elipse_960" data-name="Elipse 960" cx="5.371" cy="5.371" r="5.371" transform="translate(939.718 3610.889)" fill="#e4986f"/>
      </g>
      <g id="Grupo_24913" data-name="Grupo 24913" transform="translate(1067.5 3485.051) rotate(89.026)">
        <g id="Grupo_24908-2" data-name="Grupo 24908" clip-path="url(#clip-path-3)">
          <rect id="Rect치ngulo_25468-2" data-name="Rect치ngulo 25468" width="36.095" height="32.693" fill="#d25b8b"/>
        </g>
      </g>
    </g>
  </g>
</svg>
