<svg id="Grupo_24738" data-name="Grupo 24738" xmlns="http://www.w3.org/2000/svg" xmlns:xlink="http://www.w3.org/1999/xlink" width="546.3" height="300.999" viewBox="0 0 546.3 300.999">
  <defs>
    <clipPath id="clip-path">
      <rect id="Rectángulo_25385" data-name="Rectángulo 25385" width="546.3" height="300.999" fill="none"/>
    </clipPath>
  </defs>
  <g id="Grupo_24737" data-name="Grupo 24737" clip-path="url(#clip-path)">
    <path id="Trazado_59904" data-name="Trazado 59904" d="M101.412,352.08a20.849,20.849,0,0,0-12.065-18.91,11.829,11.829,0,0,0-11.784-13.18,11.807,11.807,0,0,0-4.706.975,10.12,10.12,0,1,0-18.926,7.163A13.449,13.449,0,0,0,42.05,347.122a13.66,13.66,0,0,0,9.686,25.111,10.119,10.119,0,0,0,19.345,3.439,12.542,12.542,0,0,0,23.127-6.733c0-.356-.024-.706-.054-1.055a20.8,20.8,0,0,0,7.257-15.8" transform="translate(-14.958 -132.691)" fill="#9dd12c"/>
    <path id="Trazado_59905" data-name="Trazado 59905" d="M97.975,447.662H85.72L90.7,387H93Zm-9.746-2.311h7.237L91.847,401.4Z" transform="translate(-36.197 -163.417)" fill="#184e63"/>
    <path id="Trazado_59906" data-name="Trazado 59906" d="M255.029,221.948a13.866,13.866,0,0,0,27.731,0c0-7.658-14.01-24.7-14.01-24.7s-13.721,17.04-13.721,24.7" transform="translate(-107.69 -83.292)" fill="#40c3c6"/>
    <path id="Trazado_59907" data-name="Trazado 59907" d="M257.561,152.972a9.162,9.162,0,0,0,18.325,0c0-5.06-9.258-16.32-9.258-16.32s-9.067,11.26-9.067,16.32" transform="translate(-108.759 -57.704)" fill="#40c3c6"/>
    <path id="Trazado_59908" data-name="Trazado 59908" d="M292.644,177.62a11.666,11.666,0,0,0,23.332,0c0-6.443-11.787-20.779-11.787-20.779s-11.544,14.336-11.544,20.779" transform="translate(-123.574 -66.229)" fill="#40c3c6"/>
    <path id="Trazado_59909" data-name="Trazado 59909" d="M258,239.62A15.111,15.111,0,0,1,242.9,224.526c0-8,13.421-24.759,13.993-25.468l.946-1.176.959,1.166c.584.71,14.289,17.472,14.289,25.478A15.111,15.111,0,0,1,258,239.62m-.134-37.822c-4.211,5.43-12.5,17.253-12.5,22.728a12.637,12.637,0,0,0,25.275,0c0-5.472-8.475-17.3-12.771-22.728" transform="translate(-102.569 -83.559)" fill="#184e63"/>
    <path id="Trazado_59910" data-name="Trazado 59910" d="M255.825,165.941a10.4,10.4,0,0,1-10.39-10.391c0-5.339,8.382-15.9,9.339-17.091l.946-1.176.959,1.166c.976,1.187,9.537,11.755,9.537,17.1a10.4,10.4,0,0,1-10.391,10.391m-.085-24.731c-2.833,3.707-7.849,10.969-7.849,14.341a7.934,7.934,0,1,0,15.867,0c0-3.372-5.129-10.638-8.019-14.341" transform="translate(-103.639 -57.97)" fill="#184e63"/>
    <path id="Trazado_59911" data-name="Trazado 59911" d="M293.412,193.092A12.908,12.908,0,0,1,280.519,180.2c0-6.8,11.333-20.951,11.816-21.55l.946-1.176.959,1.166c1.235,1.5,12.066,14.87,12.066,21.56a12.909,12.909,0,0,1-12.894,12.894m-.111-31.7c-3.573,4.633-10.326,14.317-10.326,18.806a10.438,10.438,0,0,0,20.875,0c0-4.486-6.9-14.178-10.549-18.806" transform="translate(-118.454 -66.495)" fill="#184e63"/>
    <path id="Trazado_59912" data-name="Trazado 59912" d="M592.023,482.467H577.293a2.082,2.082,0,0,1-2.076-1.931l-2-27.486H596.1l-2,27.486a2.082,2.082,0,0,1-2.077,1.931" transform="translate(-242.051 -191.308)" fill="#fff"/>
    <path id="Trazado_59913" data-name="Trazado 59913" d="M597,450.021H567.391v-6.946H597Zm-27.155-2.457h24.7v-2.034h-24.7Z" transform="translate(-239.59 -187.096)" fill="#184e63"/>
    <path id="Trazado_59914" data-name="Trazado 59914" d="M594.442,440.963h-2.457v-1.818a1.018,1.018,0,0,0-1.017-1.017h-3.635a1.018,1.018,0,0,0-1.016,1.017v1.818h-2.456v-1.818a3.477,3.477,0,0,1,3.473-3.473h3.635a3.477,3.477,0,0,1,3.473,3.473Z" transform="translate(-246.545 -183.97)" fill="#184e63"/>
    <path id="Trazado_59915" data-name="Trazado 59915" d="M643.772,458.711l-2.022-11.562,8.293-4.173,2.255,12.419Z" transform="translate(-270.989 -187.054)" fill="#9dd12c"/>
    <path id="Trazado_59916" data-name="Trazado 59916" d="M678.258,441.437l11.6,1.8,1.288,9.195-12.485-1.853Z" transform="translate(-286.406 -186.404)" fill="#9dd12c"/>
    <path id="Trazado_59917" data-name="Trazado 59917" d="M662.908,439.008l.145,1.752-7.086.585.7,8.419,7.086-.586.144,1.753.039,0,3.273-6.272L662.947,439Z" transform="translate(-276.993 -185.377)" fill="#89bb00"/>
    <path id="Trazado_59918" data-name="Trazado 59918" d="M692.031,458.814l-8.2-2.046-1.722,6.9-1.706-.425-.009.038,4.889,5.114,6.719-2.217.01-.038-1.706-.426Z" transform="translate(-287.31 -192.878)" fill="#89bb00"/>
    <path id="Trazado_59919" data-name="Trazado 59919" d="M660.119,468.337l-.026-.029-6.992,1.075-2.035,6.776.025.029,1.327-1.154,4.665,5.365,6.374-5.543-4.665-5.365Z" transform="translate(-274.923 -197.751)" fill="#89bb00"/>
    <path id="Trazado_59920" data-name="Trazado 59920" d="M677.731,478.214l-8.124,8.472-8.272-4.215,8.676-9.168Z" transform="translate(-279.26 -199.86)" fill="#9dd12c"/>
    <path id="Trazado_59921" data-name="Trazado 59921" d="M704.932,161.722c-.211,0-.421.007-.629.018a15.7,15.7,0,1,0-30.36-7.967,8.256,8.256,0,0,0-11.412,4.264,13.1,13.1,0,1,0-4.245,25.483c7.231,0,40.4.147,46.646.147s11.308-4.392,11.308-10.637a11.308,11.308,0,0,0-11.308-11.308" transform="translate(-272.443 -59.808)" fill="#40c3c6"/>
    <path id="Trazado_59922" data-name="Trazado 59922" d="M675.622,225.685a1.23,1.23,0,0,1-1.19-1.538l.872-3.354a1.228,1.228,0,1,1,2.377.618l-.872,3.355a1.23,1.23,0,0,1-1.188.919" transform="translate(-284.773 -92.845)" fill="#184e63"/>
    <path id="Trazado_59923" data-name="Trazado 59923" d="M666.644,252.281a1.229,1.229,0,0,1-1.189-1.537L666.948,245a1.229,1.229,0,0,1,2.378.619l-1.494,5.744a1.229,1.229,0,0,1-1.188.919m2.988-11.488a1.23,1.23,0,0,1-1.19-1.538l.706-2.714a1.228,1.228,0,1,1,2.377.618l-.705,2.714a1.229,1.229,0,0,1-1.188.919" transform="translate(-280.982 -99.495)" fill="#184e63"/>
    <path id="Trazado_59924" data-name="Trazado 59924" d="M653.862,293.05a1.25,1.25,0,0,1-.31-.04,1.228,1.228,0,0,1-.879-1.5l1.493-5.744a1.228,1.228,0,1,1,2.377.618l-1.493,5.744a1.229,1.229,0,0,1-1.188.919m2.987-11.488a1.229,1.229,0,0,1-1.189-1.537l.705-2.714a1.228,1.228,0,1,1,2.378.618l-.706,2.714a1.229,1.229,0,0,1-1.188.919m2.2-8.458a1.23,1.23,0,0,1-1.19-1.538l1.494-5.744a1.229,1.229,0,0,1,2.378.618l-1.493,5.744a1.23,1.23,0,0,1-1.188.919" transform="translate(-275.585 -111.859)" fill="#184e63"/>
    <path id="Trazado_59925" data-name="Trazado 59925" d="M651.132,319.879a1.214,1.214,0,0,1-.309-.04,1.228,1.228,0,0,1-.88-1.5l.872-3.355a1.228,1.228,0,0,1,2.377.618l-.871,3.354a1.229,1.229,0,0,1-1.188.92" transform="translate(-274.432 -132.62)" fill="#184e63"/>
    <path id="Trazado_59926" data-name="Trazado 59926" d="M727.622,225.685a1.23,1.23,0,0,1-1.19-1.538l.872-3.354a1.228,1.228,0,1,1,2.377.618l-.872,3.355a1.23,1.23,0,0,1-1.188.919" transform="translate(-306.731 -92.845)" fill="#184e63"/>
    <path id="Trazado_59927" data-name="Trazado 59927" d="M718.644,252.281a1.229,1.229,0,0,1-1.189-1.537L718.948,245a1.229,1.229,0,0,1,2.378.619l-1.494,5.744a1.229,1.229,0,0,1-1.188.919m2.987-11.488a1.23,1.23,0,0,1-1.19-1.538l.706-2.714a1.228,1.228,0,1,1,2.377.618l-.705,2.714a1.229,1.229,0,0,1-1.188.919" transform="translate(-302.94 -99.495)" fill="#184e63"/>
    <path id="Trazado_59928" data-name="Trazado 59928" d="M705.862,293.05a1.25,1.25,0,0,1-.31-.04,1.228,1.228,0,0,1-.879-1.5l1.493-5.744a1.228,1.228,0,1,1,2.377.618l-1.493,5.744a1.229,1.229,0,0,1-1.188.919m2.987-11.488a1.229,1.229,0,0,1-1.189-1.537l.705-2.714a1.229,1.229,0,0,1,2.378.618l-.706,2.714a1.229,1.229,0,0,1-1.188.919m2.2-8.458a1.23,1.23,0,0,1-1.19-1.538l1.493-5.744a1.229,1.229,0,0,1,2.378.618l-1.493,5.744a1.23,1.23,0,0,1-1.188.919" transform="translate(-297.543 -111.859)" fill="#184e63"/>
    <path id="Trazado_59929" data-name="Trazado 59929" d="M703.132,319.879a1.213,1.213,0,0,1-.309-.04,1.228,1.228,0,0,1-.88-1.5l.872-3.355a1.228,1.228,0,1,1,2.377.618l-.871,3.354a1.229,1.229,0,0,1-1.188.92" transform="translate(-296.39 -132.62)" fill="#184e63"/>
    <path id="Trazado_59930" data-name="Trazado 59930" d="M711.622,225.685a1.23,1.23,0,0,1-1.19-1.538l.872-3.354a1.228,1.228,0,1,1,2.377.618l-.872,3.355a1.23,1.23,0,0,1-1.188.919" transform="translate(-299.975 -92.845)" fill="#184e63"/>
    <path id="Trazado_59931" data-name="Trazado 59931" d="M702.26,253.635a1.23,1.23,0,0,1-1.19-1.538l1.671-6.427a1.228,1.228,0,1,1,2.377.619l-1.671,6.427a1.229,1.229,0,0,1-1.188.919m3.342-12.855a1.23,1.23,0,0,1-1.19-1.538l.4-1.518a1.228,1.228,0,0,1,2.377.619l-.395,1.518a1.229,1.229,0,0,1-1.188.919" transform="translate(-296.022 -99.995)" fill="#184e63"/>
    <path id="Trazado_59932" data-name="Trazado 59932" d="M689.324,294a1.246,1.246,0,0,1-.31-.04,1.228,1.228,0,0,1-.88-1.5l1.671-6.427a1.228,1.228,0,0,1,2.377.619l-1.671,6.427a1.229,1.229,0,0,1-1.188.919m3.342-12.855a1.213,1.213,0,0,1-.309-.04,1.228,1.228,0,0,1-.88-1.5l.395-1.518a1.228,1.228,0,1,1,2.377.618l-.395,1.518a1.229,1.229,0,0,1-1.188.92m2.065-7.946a1.23,1.23,0,0,1-1.19-1.538l1.671-6.427a1.228,1.228,0,0,1,2.377.619l-1.671,6.427a1.23,1.23,0,0,1-1.188.919" transform="translate(-290.56 -111.61)" fill="#184e63"/>
    <path id="Trazado_59933" data-name="Trazado 59933" d="M687.132,319.879a1.214,1.214,0,0,1-.309-.04,1.228,1.228,0,0,1-.88-1.5l.872-3.355a1.228,1.228,0,0,1,2.377.618l-.871,3.354a1.229,1.229,0,0,1-1.188.92" transform="translate(-289.634 -132.62)" fill="#184e63"/>
    <path id="Trazado_59934" data-name="Trazado 59934" d="M667.132,280.1a1.229,1.229,0,0,1-1.19-1.538l.722-2.776a1.228,1.228,0,1,1,2.377.618l-.722,2.777a1.228,1.228,0,0,1-1.187.92m2.466-9.486a1.23,1.23,0,0,1-1.19-1.538l2.473-9.509a1.228,1.228,0,0,1,2.377.618l-2.473,9.51a1.23,1.23,0,0,1-1.188.919m3.3-12.68a1.229,1.229,0,0,1-1.19-1.537l1.745-6.709a1.228,1.228,0,1,1,2.377.618l-1.744,6.709a1.23,1.23,0,0,1-1.189.919m4.218-16.219a1.23,1.23,0,0,1-1.19-1.538l.824-3.169a1.228,1.228,0,1,1,2.377.618l-.824,3.17a1.227,1.227,0,0,1-1.187.919m2.569-9.879a1.23,1.23,0,0,1-1.191-1.538l2.473-9.509a1.228,1.228,0,1,1,2.377.618l-2.472,9.51a1.229,1.229,0,0,1-1.187.919" transform="translate(-281.188 -92.845)" fill="#184e63"/>
    <path id="Trazado_59935" data-name="Trazado 59935" d="M540.423,161.9a1.228,1.228,0,1,1,0-2.456,5.881,5.881,0,0,0,5.874-5.874v-18.6a1.228,1.228,0,1,1,2.456,0v18.6a8.339,8.339,0,0,1-8.33,8.33" transform="translate(-227.684 -56.474)" fill="#184e63"/>
    <path id="Trazado_59936" data-name="Trazado 59936" d="M517.031,120.8h41.594a20.8,20.8,0,1,0-41.594,0" transform="translate(-218.325 -42.228)" fill="#40c3c6"/>
    <path id="Trazado_59937" data-name="Trazado 59937" d="M551.649,100.355a1.733,1.733,0,0,1-1.733-1.733V95.733a1.733,1.733,0,0,1,3.466,0v2.889a1.733,1.733,0,0,1-1.733,1.733" transform="translate(-232.211 -39.693)" fill="#40c3c6"/>
    <path id="Trazado_59938" data-name="Trazado 59938" d="M479.1,483.077A13.577,13.577,0,1,1,465.52,469.5,13.576,13.576,0,0,1,479.1,483.077" transform="translate(-190.84 -198.254)" fill="#40c3c6"/>
    <path id="Trazado_59939" data-name="Trazado 59939" d="M468.359,495.969l-.666-6.618a4.6,4.6,0,0,0,.941-.2l2.033,6.334a11.249,11.249,0,0,1-2.308.481m-2.348-.008a11.273,11.273,0,0,1-2.306-.5l2.079-6.318a4.616,4.616,0,0,0,.939.2Zm6.815-1.43-3.317-5.765a4.616,4.616,0,0,0,.782-.567l4.442,4.952a11.231,11.231,0,0,1-1.907,1.38m-11.273-.038a11.33,11.33,0,0,1-1.895-1.393l4.474-4.922a4.637,4.637,0,0,0,.779.573Zm14.758-3.087-5.371-3.923a4.574,4.574,0,0,0,.481-.829l6.074,2.71a11.236,11.236,0,0,1-1.184,2.042m-18.22-.063a11.29,11.29,0,0,1-1.168-2.047l6.091-2.672a4.592,4.592,0,0,0,.477.834Zm20.132-4.219-6.5-1.387a4.613,4.613,0,0,0,.1-.957h6.652a11.227,11.227,0,0,1-.246,2.344m-22.016-.079a11.3,11.3,0,0,1-.229-2.265v-.107l6.651.107a4.676,4.676,0,0,0,.094.931Zm15.523-3.162a4.549,4.549,0,0,0-.285-.917l6.11-2.63a11.286,11.286,0,0,1,.7,2.253Zm-8.994-.093-6.5-1.424a11.255,11.255,0,0,1,.745-2.239l6.056,2.751a4.577,4.577,0,0,0-.3.912m8.238-1.663a4.59,4.59,0,0,0-.637-.724l4.51-4.889a11.3,11.3,0,0,1,1.555,1.768Zm-7.447-.076-5.346-3.957a11.312,11.312,0,0,1,1.589-1.735l4.41,4.979a4.657,4.657,0,0,0-.653.713m6.037-1.226a4.575,4.575,0,0,0-.871-.4l2.119-6.305a11.264,11.264,0,0,1,2.147.985Zm-4.6-.046-3.277-5.789a11.216,11.216,0,0,1,2.165-.941l1.991,6.347a4.522,4.522,0,0,0-.879.382m2.794-.563a4.9,4.9,0,0,0-.974-.01l-.621-6.622a11.357,11.357,0,0,1,2.344.023Z" transform="translate(-192.544 -199.958)" fill="#184e63"/>
    <path id="Trazado_59940" data-name="Trazado 59940" d="M452.015,491.532c-16.855,0-30.451-13.457-31.022-14.03l-.463-.465.25-.629c.083-.2,13.651-20.114,31.236-20.114,9,0,16.985,5.374,22.1,9.882,4.663,4.11,9.217,9.708,9.217,10.626,0,.389,0,.647-2.734,2.952a57.936,57.936,0,0,1-6.613,4.8c-5.106,3.183-13.063,6.977-21.968,6.977m-29.047-14.865c2.763,2.582,14.7,12.894,29.047,12.894,14.552,0,26.52-10.479,29.061-12.883-2.251-3.07-14.346-18.413-29.061-18.413-14.652,0-26.738,15.267-29.047,18.4" transform="translate(-177.576 -192.678)" fill="#184e63"/>
    <path id="Trazado_59941" data-name="Trazado 59941" d="M482.231,483.023c-4.436-3.838-16.19-12.766-29.511-12.766-14.3,0-26.277,9.488-29.608,12.4l-1.258-1.441c3.458-3.018,15.9-12.867,30.866-12.867,13.964,0,26.165,9.253,30.762,13.232Z" transform="translate(-178.135 -197.766)" fill="#184e63"/>
    <path id="Trazado_59942" data-name="Trazado 59942" d="M187.847,279.948a7.769,7.769,0,1,1-3.648-15.1c4.171-1.008,14.992,4.371,14.992,4.371s-7.173,9.726-11.343,10.733" transform="translate(-75.27 -111.782)" fill="#9dd12c"/>
    <path id="Trazado_59943" data-name="Trazado 59943" d="M131.8,248.1a7.206,7.206,0,0,1-14.4-.5c.139-3.978,7.642-12.305,7.642-12.305s6.9,8.832,6.762,12.81" transform="translate(-49.573 -99.353)" fill="#9dd12c"/>
    <rect id="Rectángulo_25352" data-name="Rectángulo 25352" width="2.457" height="75.295" transform="translate(86.432 127.372)" fill="#184e63"/>
    <path id="Trazado_59944" data-name="Trazado 59944" d="M153.74,306.728h-.289v-2.457h.289a10.63,10.63,0,0,0,10.618-10.618V287.59a11.641,11.641,0,0,1,11.627-11.627v2.456a9.182,9.182,0,0,0-9.171,9.171v6.063a13.089,13.089,0,0,1-13.075,13.075" transform="translate(-64.797 -116.53)" fill="#184e63"/>
    <path id="Trazado_59945" data-name="Trazado 59945" d="M140.444,283.125l-.289,0a12.727,12.727,0,0,1-12.413-12.41V253.588H130.2v17.124a10.24,10.24,0,0,0,10.246,9.957Z" transform="translate(-53.941 -107.082)" fill="#184e63"/>
    <path id="Trazado_59946" data-name="Trazado 59946" d="M159.415,258.759h-6.206V256.3h6.206a3.811,3.811,0,0,0,3.807-3.807V242.206h2.457V252.5a6.271,6.271,0,0,1-6.264,6.264" transform="translate(-64.695 -102.275)" fill="#184e63"/>
    <path id="Trazado_59947" data-name="Trazado 59947" d="M120.614,287.132h-6.393a7.646,7.646,0,0,1-7.637-7.637h2.457a5.186,5.186,0,0,0,5.181,5.181h6.393Z" transform="translate(-45.007 -118.021)" fill="#184e63"/>
    <path id="Trazado_59948" data-name="Trazado 59948" d="M167.741,242.961c-.163,0-.326-.005-.491-.017a6.994,6.994,0,0,1-6.484-7.454c.245-3.517,6.114-9.69,6.782-10.384l1.016-1.052.861,1.183c.566.778,5.524,7.705,5.279,11.222a7,7,0,0,1-6.963,6.5m.555-15.051c-2.219,2.472-4.96,6.042-5.079,7.75a4.529,4.529,0,1,0,9.037.629c.118-1.708-2.1-5.624-3.957-8.379" transform="translate(-67.879 -94.611)" fill="#184e63"/>
    <path id="Trazado_59949" data-name="Trazado 59949" d="M145.411,218.78c-.2,0-.4-.007-.6-.021a8.578,8.578,0,0,1-7.953-9.142c.3-4.364,7.708-12.151,8.552-13.025l1.016-1.053.861,1.184c.714.982,6.969,9.719,6.666,14.083a8.592,8.592,0,0,1-8.54,7.974m.746-19.393c-2.906,3.194-6.687,8.068-6.849,10.4a6.111,6.111,0,1,0,12.192.848c.162-2.335-2.908-7.684-5.343-11.249" transform="translate(-57.781 -82.57)" fill="#184e63"/>
    <path id="Trazado_59950" data-name="Trazado 59950" d="M104.511,278.953a7.026,7.026,0,0,1-6.53-4.5c-1.254-3.294,1.481-11.361,1.8-12.27l.481-1.382,1.278.712c.84.469,8.248,4.676,9.5,7.97a6.99,6.99,0,0,1-6.528,9.473m-2.877-14.542c-.976,3.174-1.966,7.567-1.357,9.166a4.523,4.523,0,0,0,5.844,2.621,4.529,4.529,0,0,0,2.622-5.844c-.61-1.6-4.269-4.223-7.109-5.944" transform="translate(-41.236 -110.126)" fill="#184e63"/>
    <path id="Trazado_59951" data-name="Trazado 59951" d="M141.145,96.843a13.689,13.689,0,0,1-13.678-13.648c0-6.689,10.08-22.86,12.391-25.865v-.859l1.268-.016c.693,0,.872,0,3.159,3.608.819,1.292,2.472,3.952,4.293,7.253,2.832,5.135,6.212,12.058,6.212,15.879a13.661,13.661,0,0,1-13.645,13.648m.081-37.026c-4.365,6.757-11.274,18.65-11.274,23.378a11.192,11.192,0,0,0,22.384,0c0-5.133-8.2-19.033-11.11-23.378" transform="translate(-53.825 -23.839)" fill="#184e63"/>
    <rect id="Rectángulo_25353" data-name="Rectángulo 25353" width="2.311" height="34.664" transform="translate(86.034 44.485)" fill="#184e63"/>
    <rect id="Rectángulo_25354" data-name="Rectángulo 25354" width="11.215" height="2.456" transform="matrix(0.803, -0.596, 0.596, 0.803, 87.12, 57.533)" fill="#184e63"/>
    <rect id="Rectángulo_25355" data-name="Rectángulo 25355" width="2.456" height="8.486" transform="matrix(0.616, -0.787, 0.787, 0.616, 79.54, 47.284)" fill="#184e63"/>
    <rect id="Rectángulo_25356" data-name="Rectángulo 25356" width="2.456" height="13.782" transform="matrix(0.569, -0.822, 0.822, 0.569, 74.659, 58.949)" fill="#184e63"/>
    <path id="Trazado_59952" data-name="Trazado 59952" d="M257.719,333.98l-26.17-15.91a19.81,19.81,0,0,0-9.355-3c-.292-.013-.586-.068-.88-.068H200.167c-8.04,0-15.073,4.8-17.138,11.632l-1.96,6.505-2.682,16.642a8.23,8.23,0,0,0,7.539,9.694c.211.014.424.013.639.013h73.912c4.257,0,7.716-3.005,7.716-6.747v-3.347c0-6.438-4.025-12.357-10.474-15.41m-57.9-.356.607-6.394a4.6,4.6,0,0,1,4.684-4.142h16.671a28.826,28.826,0,0,1,15.1,4.126l14.377,8.732Z" transform="translate(-75.278 -133.014)" fill="#fff"/>
    <rect id="Rectángulo_25357" data-name="Rectángulo 25357" width="50.551" height="2.457" transform="translate(122.708 228.86)" fill="#184e63"/>
    <path id="Trazado_59953" data-name="Trazado 59953" d="M269.687,364.886l-1.213-2.136a5.385,5.385,0,0,0,2.909-4.626v-3.347c0-5.967-3.743-11.447-9.768-14.3l-.113-.061-26.167-15.91a18.57,18.57,0,0,0-8.769-2.775c-.275-.013-.55-.018-.825-.018H204.594c-7.492,0-14.056,4.4-15.963,10.709l-1.936,6.4-2.669,16.547a7.465,7.465,0,0,0,.063,2.762l-2.4.512a9.93,9.93,0,0,1-.086-3.666l2.719-16.788,1.96-6.481c2.218-7.333,9.749-12.455,18.315-12.455h21.147q.467,0,.933.02a21.03,21.03,0,0,1,9.938,3.131l26.114,15.877c6.858,3.271,11.114,9.585,11.114,16.493v3.347a7.81,7.81,0,0,1-4.152,6.762" transform="translate(-76.629 -134.811)" fill="#184e63"/>
    <path id="Trazado_59954" data-name="Trazado 59954" d="M307.78,400.47a10.638,10.638,0,1,1,10.638-10.638A10.65,10.65,0,0,1,307.78,400.47m0-18.82a8.182,8.182,0,1,0,8.182,8.182,8.191,8.191,0,0,0-8.182-8.182" transform="translate(-125.473 -160.121)" fill="#184e63"/>
    <path id="Trazado_59955" data-name="Trazado 59955" d="M188.331,400.47a10.638,10.638,0,1,1,10.638-10.638,10.65,10.65,0,0,1-10.638,10.638m0-18.82a8.182,8.182,0,1,0,8.181,8.182,8.191,8.191,0,0,0-8.181-8.182" transform="translate(-75.034 -160.121)" fill="#184e63"/>
    <path id="Trazado_59956" data-name="Trazado 59956" d="M276.229,345.147l-57.487-2.524.726-7.807a5.906,5.906,0,0,1,5.907-5.383h16.671a30.166,30.166,0,0,1,15.746,4.434Zm-54.8-4.865,45.4,1.993-10.317-6.312a27.712,27.712,0,0,0-14.464-4.073H225.375a3.461,3.461,0,0,0-3.461,3.154Z" transform="translate(-92.367 -139.109)" fill="#184e63"/>
    <path id="Trazado_59957" data-name="Trazado 59957" d="M201.065,342.6l-14.309-.622,3.338-8.761a6.382,6.382,0,0,1,5.931-4.087l.188,0,1.052.072a5.168,5.168,0,0,1,3.938,1.915,5.7,5.7,0,0,1,1.132,4.659Zm-10.8-2.928,8.777.381.879-4.724a3.248,3.248,0,0,0-.622-2.659,2.745,2.745,0,0,0-2.114-1.01l-.058,0-1.1-.072a3.91,3.91,0,0,0-3.635,2.506Z" transform="translate(-78.861 -138.979)" fill="#184e63"/>
    <path id="Trazado_59958" data-name="Trazado 59958" d="M306.128,354.834h-3.765a3.89,3.89,0,0,1,0-7.78h3.765a3.89,3.89,0,0,1,0,7.78" transform="translate(-126.036 -146.549)" fill="#184e63"/>
    <path id="Trazado_59959" data-name="Trazado 59959" d="M197.435,367.217a4.992,4.992,0,1,1,4.993-4.992,5,5,0,0,1-4.993,4.992m0-7.528a2.536,2.536,0,1,0,2.536,2.536,2.539,2.539,0,0,0-2.536-2.536" transform="translate(-81.262 -150.848)" fill="#184e63"/>
    <path id="Trazado_59960" data-name="Trazado 59960" d="M154.758,417.53c-11.545,0-22.349-4.849-28.92-12.978-7.243-8.96-8.658-21.771-3.443-31.151a16.711,16.711,0,0,1,7.16-7.193,17.7,17.7,0,0,1,7.3-1.506c.593-.015,1.169-.005,1.729.024,3.131-2.324,7.488-3.594,13.22-3.865a61.612,61.612,0,0,1,15.819,1.3l-.516,2.4a59.038,59.038,0,0,0-15.187-1.25,25.5,25.5,0,0,0-9.524,2,10.9,10.9,0,0,1,5.143,2.945,9.041,9.041,0,0,1,1.125,10.754,8.365,8.365,0,0,1-10.341,3.092,8,8,0,0,1-4.338-5.874,11.56,11.56,0,0,1,2.048-9.042,12.668,12.668,0,0,0-11.49,7.4c-4.741,8.527-3.423,20.288,3.206,28.489,6.109,7.557,16.2,12.139,27.01,12.139h.12c12.158,0,22.458-5.471,28.958-9.955l1.4,1.988c-9.731,6.714-20.225,10.278-30.346,10.278Zm-15.4-50.282a11.18,11.18,0,0,0-1.025,1.007,8.926,8.926,0,0,0-1.945,7.493,5.6,5.6,0,0,0,2.983,4.14,5.919,5.919,0,0,0,7.214-2.188,6.609,6.609,0,0,0-.841-7.755,10.031,10.031,0,0,0-6.387-2.7" transform="translate(-50.363 -152.35)" fill="#184e63"/>
    <path id="Trazado_59961" data-name="Trazado 59961" d="M230.439,427.694a3.554,3.554,0,0,0-.469.418l-1.348,1.188a3.445,3.445,0,1,0,4.558,5.167l1.348-1.189a3.511,3.511,0,0,0,.423-.469c1.267.882,2.361,1.217,2.87.768.837-.739-.238-3.327-2.4-5.776s-4.573-3.815-5.41-3.077c-.509.449-.289,1.6.428,2.97" transform="translate(-96.033 -179.262)" fill="#184e63"/>
    <path id="Trazado_59962" data-name="Trazado 59962" d="M237.5,427.009a1.09,1.09,0,0,1-.721-1.908l3.819-3.368a1.09,1.09,0,0,1,1.441,1.635l-3.819,3.368a1.083,1.083,0,0,1-.72.273" transform="translate(-99.829 -177.969)" fill="#184e63"/>
    <path id="Trazado_59963" data-name="Trazado 59963" d="M241.274,431.287a1.09,1.09,0,0,1-.722-1.907l3.819-3.369a1.09,1.09,0,1,1,1.442,1.634L242,431.014a1.086,1.086,0,0,1-.721.273" transform="translate(-101.422 -179.775)" fill="#184e63"/>
    <path id="Trazado_59964" data-name="Trazado 59964" d="M777.423,233H765.5a7.927,7.927,0,0,0-7.308,5.025c-1.028,2.583-2.09,5.266-2.09,5.386a13.516,13.516,0,0,1-1.9,1.125l-2.815-4.811-6.07,3.55,2.648,4.536c-.116.06-.265.12-.38.179a8.521,8.521,0,0,0-4.667,7.567v27.485a7.788,7.788,0,0,0,7.8,7.732h26.71a7.677,7.677,0,0,0,7.667-7.732V240.867A7.793,7.793,0,0,0,777.423,233m-1.972,7.348A8.343,8.343,0,0,1,769.1,243.4h-3.8a2.465,2.465,0,0,1-2.116-3.629,4.028,4.028,0,0,1,3.476-2.148h11Z" transform="translate(-313.709 -98.388)" fill="#fff"/>
    <path id="Trazado_59965" data-name="Trazado 59965" d="M781.4,281.356a7.448,7.448,0,0,0-7.435-7.3l-.143,0a7.391,7.391,0,0,0-5.839,3.011l-1.6-1.187a9.431,9.431,0,0,1,17.008,5.435Z" transform="translate(-323.616 -114.884)" fill="#184e63"/>
    <path id="Trazado_59966" data-name="Trazado 59966" d="M769.86,278.442l-5.847,4.777-1.214-7.452Z" transform="translate(-322.105 -116.447)" fill="#184e63"/>
    <path id="Trazado_59967" data-name="Trazado 59967" d="M772.662,301.167a9.43,9.43,0,0,1-9.424-9.253l1.991-.038a7.439,7.439,0,0,0,13.416,4.286l1.6,1.187a9.371,9.371,0,0,1-7.4,3.817l-.183,0" transform="translate(-322.29 -123.249)" fill="#184e63"/>
    <path id="Trazado_59968" data-name="Trazado 59968" d="M784.037,296.134l5.847-4.777,1.214,7.452Z" transform="translate(-331.073 -123.031)" fill="#184e63"/>
    <path id="Trazado_59969" data-name="Trazado 59969" d="M651.611,150.292a14.709,14.709,0,1,1,14.709-14.709,14.725,14.725,0,0,1-14.709,14.709m0-26.961a12.252,12.252,0,1,0,12.252,12.253,12.266,12.266,0,0,0-12.252-12.253" transform="translate(-268.943 -51.041)" fill="#184e63"/>
    <path id="Trazado_59970" data-name="Trazado 59970" d="M641.738,153.818h-.014l-.17.085.064-11.062h.11c.422,0,.872-.011,1.3-.043l.834,11.029c-.705.053-1.421-.009-2.127-.009m-6.271-.514c-.755-.17-1.51-.375-2.246-.607l3.35-10.634c.443.14.9.263,1.352.365Zm14.423-.5-3.208-10.678c.443-.133.889-.287,1.323-.459l4.084,10.374c-.721.284-1.461.54-2.2.763m-22.283-2.574c-.668-.385-1.329-.8-1.964-1.242l6.342-9.169c.385.266.785.519,1.188.752Zm29.908-1.04-6.226-9.248c.387-.26.77-.541,1.136-.834l6.959,8.71c-.6.482-1.232.943-1.869,1.372m-36.5-4.209c-.525-.564-1.032-1.156-1.509-1.759l8.752-6.907c.289.367.6.727.919,1.072Zm42.718-1.481-8.668-7.011c.3-.367.581-.748.843-1.132l9.209,6.284c-.432.633-.9,1.259-1.384,1.86m-47.479-5.467c-.334-.691-.646-1.407-.926-2.13l10.4-4.024c.17.438.358.871.56,1.288Zm51.749-1.8-10.346-4.153c.173-.43.33-.875.467-1.323l10.656,3.281c-.229.741-.49,1.48-.777,2.194m-54.249-6.261c-.117-.766-.2-1.543-.254-2.313l11.124-.753c.031.463.083.932.152,1.393Zm56.059-1.958-11.088-.9c.038-.467.081-.943.081-1.414v-.192h10.977v.192c0,.77.092,1.547.031,2.312m-45.047-4.84-11.031-1.618c.113-.762.258-1.53.433-2.285l10.859,2.525c-.105.456-.194.919-.261,1.378m33.7-1.242c-.1-.453-.222-.907-.36-1.35l10.641-3.327c.231.738.433,1.5.6,2.251Zm-32.21-3.632L616.2,113.478c.33-.69.7-1.378,1.086-2.046l9.63,5.618c-.239.41-.462.83-.664,1.249m30.366-1.114c-.235-.408-.487-.809-.75-1.191l9.181-6.326c.435.631.851,1.292,1.236,1.964Zm-27.493-3.115-8.189-7.567c.524-.567,1.076-1.117,1.64-1.636l7.548,8.2c-.343.316-.679.651-1,1m24.315-.9c-.344-.322-.7-.632-1.069-.921l6.926-8.736c.6.477,1.192.986,1.757,1.513Zm-20.323-2.309-5.613-9.633c.666-.388,1.357-.753,2.054-1.086l4.8,10.063c-.422.2-.839.422-1.241.656m16.112-.593c-.42-.2-.853-.394-1.288-.563l4.041-10.391c.72.28,1.437.593,2.131.932Zm-11.372-1.284L635.35,98.126c.753-.173,1.522-.318,2.286-.429l1.6,11.034c-.461.066-.926.153-1.379.258m6.5-.237c-.461-.071-.932-.124-1.4-.157l.789-11.121c.769.055,1.545.142,2.3.258Z" transform="translate(-259.059 -41.16)" fill="#184e63"/>
    <path id="Trazado_59971" data-name="Trazado 59971" d="M859.116,242l3.454,68.17H851.107l3.442-67.978Z" transform="translate(-359.394 -102.19)" fill="#fff"/>
    <path id="Trazado_59972" data-name="Trazado 59972" d="M873.782,181.124C872.051,188.132,863.37,204,862.7,204.508a.055.055,0,0,1-.085-.023c-.345-.826-.614-19.029,1.073-25.856,1.837-7.434,8.254-11.5,8.254-11.5a21.062,21.062,0,0,1,1.842,13.994" transform="translate(-364.144 -70.573)" fill="#40c3c6"/>
    <path id="Trazado_59973" data-name="Trazado 59973" d="M873.782,181.124C872.051,188.132,863.37,204,862.7,204.508a.055.055,0,0,1-.085-.023c-.345-.826-.614-19.029,1.073-25.856,1.837-7.434,8.254-11.5,8.254-11.5a21.062,21.062,0,0,1,1.842,13.994" transform="translate(-364.144 -70.573)" fill="#40c3c6"/>
    <path id="Trazado_59974" data-name="Trazado 59974" d="M864.98,177.659l-2.384-.59a21.953,21.953,0,0,1,8.788-12.242l1.094-.693.634,1.13a22.67,22.67,0,0,1,2.3,7.292l-2.433.343a21.507,21.507,0,0,0-1.413-5.15,19.339,19.339,0,0,0-6.587,9.91" transform="translate(-364.246 -69.308)" fill="#184e63"/>
    <path id="Trazado_59975" data-name="Trazado 59975" d="M880.441,258.825c-5.562-4.6-16.088-19.309-16.256-20.135a.055.055,0,0,1,.058-.066c.894.048,17.41,7.707,22.827,12.189,5.9,4.882,6.777,12.426,6.777,12.426a21.069,21.069,0,0,1-13.407-4.414" transform="translate(-364.916 -100.762)" fill="#40c3c6"/>
    <path id="Trazado_59976" data-name="Trazado 59976" d="M885.408,250.862c-5.243-4.338-21.018-11.618-22.251-11.927a.684.684,0,0,0,.141.018l.062-1.171-1.258.255.287-1.094,1.04-.443c1.421.076,18.246,8.085,23.545,12.469Zm-22-13.09.836.776a1.18,1.18,0,0,0,.261-1Z" transform="translate(-364.037 -99.866)" fill="#184e63"/>
    <path id="Trazado_59977" data-name="Trazado 59977" d="M806.653,242.752c6.56-3.013,24.377-6.114,25.194-5.906a.055.055,0,0,1,.035.081c-.43.785-14.5,12.34-20.888,15.275-6.958,3.2-14.137.712-14.137.712a21.066,21.066,0,0,1,9.8-10.162" transform="translate(-336.487 -100.008)" fill="#40c3c6"/>
    <path id="Trazado_59978" data-name="Trazado 59978" d="M862.195,232.833a4.333,4.333,0,1,1-4.333-4.333,4.333,4.333,0,0,1,4.333,4.333" transform="translate(-360.417 -96.488)" fill="#9dd12c"/>
    <path id="Trazado_59979" data-name="Trazado 59979" d="M863.037,360.311H844.549a1.155,1.155,0,0,1,0-2.311h18.487a1.155,1.155,0,0,1,0,2.311" transform="translate(-356.137 -151.171)" fill="#184e63"/>
    <path id="Trazado_59980" data-name="Trazado 59980" d="M793.134,445.641H718.029L729.584,400h75.105Z" transform="translate(-303.2 -168.907)" fill="#40c3c6"/>
    <path id="Trazado_59981" data-name="Trazado 59981" d="M798.954,452.943H721.535l12.123-47.884h77.419ZM724.417,450.7h72.792L808.2,407.3H735.4Z" transform="translate(-304.68 -171.043)" fill="#184e63"/>
    <path id="Trazado_59982" data-name="Trazado 59982" d="M749.185,452.373a1.181,1.181,0,0,1-.288-.036,1.156,1.156,0,0,1-.832-1.407l11.555-45.063a1.156,1.156,0,1,1,2.239.574L750.3,451.505a1.156,1.156,0,0,1-1.119.868" transform="translate(-315.868 -171.017)" fill="#184e63"/>
    <path id="Trazado_59983" data-name="Trazado 59983" d="M775.185,452.373a1.18,1.18,0,0,1-.288-.036,1.156,1.156,0,0,1-.832-1.407l11.555-45.063a1.156,1.156,0,1,1,2.239.574L776.3,451.505a1.156,1.156,0,0,1-1.119.868" transform="translate(-326.847 -171.017)" fill="#184e63"/>
    <path id="Trazado_59984" data-name="Trazado 59984" d="M801.185,452.373a1.18,1.18,0,0,1-.288-.036,1.156,1.156,0,0,1-.832-1.407l11.555-45.063a1.156,1.156,0,1,1,2.239.574L802.3,451.505a1.156,1.156,0,0,1-1.119.868" transform="translate(-337.825 -171.017)" fill="#184e63"/>
    <path id="Trazado_59985" data-name="Trazado 59985" d="M827.185,452.373a1.181,1.181,0,0,1-.288-.036,1.156,1.156,0,0,1-.832-1.407l11.555-45.063a1.156,1.156,0,1,1,2.239.574L828.3,451.505a1.156,1.156,0,0,1-1.119.868" transform="translate(-348.804 -171.017)" fill="#184e63"/>
    <path id="Trazado_59986" data-name="Trazado 59986" d="M813.077,427.311H738.549a1.155,1.155,0,0,1,0-2.311h74.528a1.155,1.155,0,1,1,0,2.311" transform="translate(-311.377 -179.463)" fill="#184e63"/>
    <path id="Trazado_59987" data-name="Trazado 59987" d="M808.077,447.311H733.549a1.155,1.155,0,1,1,0-2.311h74.528a1.155,1.155,0,0,1,0,2.311" transform="translate(-309.266 -187.909)" fill="#184e63"/>
    <path id="Trazado_59988" data-name="Trazado 59988" d="M803.077,467.311H728.549a1.155,1.155,0,0,1,0-2.311h74.528a1.155,1.155,0,0,1,0,2.311" transform="translate(-307.154 -196.354)" fill="#184e63"/>
    <path id="Trazado_59989" data-name="Trazado 59989" d="M853.521,452.952a1.154,1.154,0,0,1-1.007-.587,1.12,1.12,0,0,1,.3-1.574l12.563-7.179V406.155a1.155,1.155,0,1,1,2.311,0v38.8L853.95,452.8a.705.705,0,0,1-.429.15" transform="translate(-359.908 -171.018)" fill="#184e63"/>
    <path id="Trazado_59990" data-name="Trazado 59990" d="M620.685,350.881a6.064,6.064,0,0,1-12.121-.424c.117-3.347,6.43-10.356,6.43-10.356s5.808,7.433,5.691,10.78" transform="translate(-256.974 -143.613)" fill="#9dd12c"/>
    <path id="Trazado_59991" data-name="Trazado 59991" d="M644.274,396.691l-6.515-25.32-3.687,12.671H625.5a8.483,8.483,0,0,1-8.473-8.474V354.578h2.311v20.991a6.169,6.169,0,0,0,6.162,6.163h6.836l5.557-19.1,6.2,24.076,4.347-19.9,5.746,13.2H660l3.841-18.054,4.644,22.5,3.505-15.833,5.758,9.627a6.365,6.365,0,0,0,5.719-6.324V354h2.311v17.91a8.675,8.675,0,0,1-8.666,8.666h-.655l-3.467-5.8-4.584,20.708-4.6-22.28-1.937,9.1h-9.2l-3.5-8.035Z" transform="translate(-260.551 -149.482)" fill="#184e63"/>
    <path id="Trazado_59992" data-name="Trazado 59992" d="M725.049,355.152a3.95,3.95,0,0,0,0,.707l-.016,2.025a3.883,3.883,0,1,0,7.764.062l.016-2.026a3.982,3.982,0,0,0-.075-.708c1.693-.4,2.8-1.065,2.8-1.83.01-1.258-2.97-2.3-6.652-2.332s-6.642.967-6.652,2.226c-.006.764,1.127,1.448,2.814,1.875" transform="translate(-304.976 -148.237)" fill="#184e63"/>
    <path id="Trazado_59993" data-name="Trazado 59993" d="M729.763,349.088h-.01a1.248,1.248,0,0,1-1.219-1.265l.046-5.672A1.173,1.173,0,0,1,729.809,341h.01a1.158,1.158,0,0,1,1.219,1.157l-.046,5.726a1.217,1.217,0,0,1-1.228,1.205" transform="translate(-307.636 -143.993)" fill="#184e63"/>
    <path id="Trazado_59994" data-name="Trazado 59994" d="M736.19,348.994h-.01a1.235,1.235,0,0,1-1.218-1.25l.046-5.744a1.228,1.228,0,1,1,2.457.014l-.045,5.75a1.239,1.239,0,0,1-1.228,1.231" transform="translate(-310.349 -143.899)" fill="#184e63"/>
    <path id="Trazado_59995" data-name="Trazado 59995" d="M626.559,326.867a7.206,7.206,0,0,0,14.4-.5c-.14-3.978-7.642-12.306-7.642-12.306s-6.9,8.832-6.762,12.81" transform="translate(-264.574 -132.616)" fill="#9dd12c"/>
    <path id="Trazado_59996" data-name="Trazado 59996" d="M649.786,342.995a5.757,5.757,0,0,0,10.761,4.1c1.131-2.972-1.81-11.43-1.81-11.43s-7.821,4.362-8.952,7.334" transform="translate(-274.223 -141.738)" fill="#9dd12c"/>
    <path id="Trazado_59997" data-name="Trazado 59997" d="M619.458,361.9h-.289v-2.457a10.24,10.24,0,0,0,10.245-9.957V332.36h2.457v17.124a12.727,12.727,0,0,1-12.413,12.41Z" transform="translate(-261.454 -140.345)" fill="#184e63"/>
    <path id="Trazado_59998" data-name="Trazado 59998" d="M644.422,358.9h-6.393v-2.457h6.393a5.186,5.186,0,0,0,5.18-5.181h2.457a7.646,7.646,0,0,1-7.637,7.637" transform="translate(-269.418 -148.328)" fill="#184e63"/>
    <path id="Trazado_59999" data-name="Trazado 59999" d="M186.818,170.268a1.229,1.229,0,0,1-.271-2.426l18.546-4.215a1.229,1.229,0,0,1,.545,2.4l-18.547,4.215a1.235,1.235,0,0,1-.273.031" transform="translate(-78.369 -69.081)" fill="#184e63"/>
    <path id="Trazado_60000" data-name="Trazado 60000" d="M186.818,160.053a1.229,1.229,0,0,1-.271-2.426l18.546-4.215a1.229,1.229,0,0,1,.545,2.4l-18.547,4.215a1.235,1.235,0,0,1-.273.031" transform="translate(-78.369 -64.767)" fill="#184e63"/>
    <path id="Trazado_60001" data-name="Trazado 60001" d="M186.818,149.839a1.229,1.229,0,0,1-.271-2.426l18.546-4.215a1.229,1.229,0,0,1,.545,2.4l-18.547,4.215a1.235,1.235,0,0,1-.273.031" transform="translate(-78.369 -60.454)" fill="#184e63"/>
    <path id="Trazado_60002" data-name="Trazado 60002" d="M186.818,139.624a1.228,1.228,0,0,1-.271-2.426l18.546-4.215a1.228,1.228,0,1,1,.545,2.4l-18.547,4.216a1.269,1.269,0,0,1-.273.03" transform="translate(-78.369 -56.141)" fill="#184e63"/>
    <path id="Trazado_60003" data-name="Trazado 60003" d="M186.819,130.283a1.228,1.228,0,0,1-.294-2.421l12.224-3.021a1.228,1.228,0,1,1,.589,2.384l-12.224,3.022a1.247,1.247,0,0,1-.3.036" transform="translate(-78.369 -52.701)" fill="#184e63"/>
    <path id="Trazado_60004" data-name="Trazado 60004" d="M184.916,172v7.789a11.515,11.515,0,0,0,6.355,10.311v6.743h6.355v-6.534a10.968,10.968,0,0,0,6.933-10.52V172Z" transform="translate(-78.084 -72.63)" fill="#fff"/>
    <path id="Trazado_60005" data-name="Trazado 60005" d="M608.895,6.933A6.933,6.933,0,1,1,601.962,0a6.933,6.933,0,0,1,6.933,6.933" transform="translate(-251.261)" fill="#9dd12c"/>
    <path id="Trazado_60006" data-name="Trazado 60006" d="M603.817,52.42H596.6a4.911,4.911,0,0,1-4.911-4.911l-1.156-15.6A4.911,4.911,0,0,1,595.44,27h9.533a4.911,4.911,0,0,1,4.911,4.911l-1.155,15.6a4.911,4.911,0,0,1-4.911,4.911" transform="translate(-249.361 -11.401)" fill="#9dd12c"/>
    <path id="Trazado_60007" data-name="Trazado 60007" d="M614.062,84.287h0a3.034,3.034,0,0,1-3.033-3.033V61.033a3.033,3.033,0,0,1,6.066,0V81.254a3.033,3.033,0,0,1-3.033,3.033" transform="translate(-258.017 -24.491)" fill="#9dd12c"/>
    <path id="Trazado_60008" data-name="Trazado 60008" d="M617.431,27.2h0a3.033,3.033,0,0,1,4.008,1.529l5.075,11.337a3.033,3.033,0,0,1-5.537,2.478L615.9,31.21a3.033,3.033,0,0,1,1.529-4.008" transform="translate(-259.963 -11.374)" fill="#9dd12c"/>
    <path id="Trazado_60009" data-name="Trazado 60009" d="M588.983,27.2h0a3.033,3.033,0,0,0-4.008,1.529L579.9,40.069a3.033,3.033,0,1,0,5.537,2.478l5.074-11.337a3.033,3.033,0,0,0-1.529-4.008" transform="translate(-244.761 -11.374)" fill="#9dd12c"/>
    <path id="Trazado_60010" data-name="Trazado 60010" d="M595.562,84.287h0a3.033,3.033,0,0,1-3.033-3.033V61.033a3.033,3.033,0,1,1,6.066,0V81.254a3.033,3.033,0,0,1-3.033,3.033" transform="translate(-250.205 -24.491)" fill="#9dd12c"/>
    <path id="Trazado_60011" data-name="Trazado 60011" d="M293.212,490.814a12.538,12.538,0,1,1,12.54-12.824,12.538,12.538,0,0,1-12.25,12.82c-.1,0-.194,0-.29,0m.009-22.62-.235,0a10.082,10.082,0,0,0,.225,20.161l.235,0a10.082,10.082,0,0,0,9.849-10.309,10.139,10.139,0,0,0-10.075-9.853" transform="translate(-118.521 -196.665)" fill="#184e63"/>
    <path id="Trazado_60012" data-name="Trazado 60012" d="M366.325,489.149a12.547,12.547,0,1,1,.292,0c-.1,0-.2,0-.292,0m.012-22.619-.236,0a10.082,10.082,0,0,0,.224,20.161l.236,0a10.082,10.082,0,0,0-.224-20.161" transform="translate(-149.395 -195.963)" fill="#184e63"/>
    <path id="Trazado_60013" data-name="Trazado 60013" d="M335.087,481.3a4.906,4.906,0,1,1-5.017-4.793,4.907,4.907,0,0,1,5.017,4.793" transform="translate(-137.353 -201.212)" fill="#184e63"/>
    <path id="Trazado_60014" data-name="Trazado 60014" d="M298.227,475.574l13.261-18.914,7.363,14.509-2.191,1.112-5.51-10.859-8.123,11.586,14.952-.341L336.405,456.3l1.632,1.837-19.1,16.967Z" transform="translate(-125.931 -192.679)" fill="#184e63"/>
    <rect id="Rectángulo_25358" data-name="Rectángulo 25358" width="2.456" height="13.376" transform="translate(177.773 259.47) rotate(-83.749)" fill="#184e63"/>
    <path id="Trazado_60015" data-name="Trazado 60015" d="M363.315,464.761l-9.538-27.216-4.327.1-.056-2.455,6.111-.139,10.129,28.9Z" transform="translate(-147.537 -183.706)" fill="#184e63"/>
    <rect id="Rectángulo_25359" data-name="Rectángulo 25359" width="25.343" height="2.456" transform="translate(185.554 263.894) rotate(-3.682)" fill="#184e63"/>
    <rect id="Rectángulo_25360" data-name="Rectángulo 25360" width="2.457" height="7.43" transform="translate(183.334 259.116) rotate(-6.434)" fill="#184e63"/>
    <path id="Trazado_60016" data-name="Trazado 60016" d="M75.819,191.511c2.521-2.581,10.28-7.218,10.7-7.268a.028.028,0,0,1,.031.032c-.061.443-4.555,8.355-7.011,10.868a10.431,10.431,0,0,1-6.469,2.864,10.533,10.533,0,0,1,2.751-6.5" transform="translate(-30.854 -77.8)" fill="#40c3c6"/>
    <path id="Trazado_60017" data-name="Trazado 60017" d="M69.377,182.773c3.549-.649,12.561.051,12.931.252a.027.027,0,0,1,.007.043c-.306.327-8.546,4.185-12,4.817a10.427,10.427,0,0,1-6.935-1.4,10.532,10.532,0,0,1,6-3.711" transform="translate(-26.762 -77.065)" fill="#40c3c6"/>
    <path id="Trazado_60018" data-name="Trazado 60018" d="M73.3,168.691c3.272,1.522,10.221,7.3,10.407,7.68a.027.027,0,0,1-.019.039c-.438.09-9.393-1.524-12.58-3.007a10.428,10.428,0,0,1-4.849-5.152,10.531,10.531,0,0,1,7.041.439" transform="translate(-27.98 -70.873)" fill="#40c3c6"/>
    <path id="Trazado_60019" data-name="Trazado 60019" d="M85.989,157.642c1.79,3.132,4.121,11.867,4.054,12.282a.028.028,0,0,1-.039.021c-.41-.18-6.784-6.673-8.528-9.724a10.428,10.428,0,0,1-.979-7.007,10.53,10.53,0,0,1,5.492,4.428" transform="translate(-33.897 -64.697)" fill="#40c3c6"/>
    <path id="Trazado_60020" data-name="Trazado 60020" d="M100.785,155.806c-.35,3.591-3.5,12.065-3.791,12.366a.028.028,0,0,1-.044,0c-.231-.384-1.679-9.367-1.339-12.865a10.429,10.429,0,0,1,3.25-6.283,10.529,10.529,0,0,1,1.923,6.787" transform="translate(-40.352 -62.926)" fill="#40c3c6"/>
    <path id="Trazado_60021" data-name="Trazado 60021" d="M108.941,164.16c-2.361,2.729-9.826,7.825-10.24,7.9a.028.028,0,0,1-.033-.029c.034-.446,4.043-8.615,6.343-11.272a10.43,10.43,0,0,1,6.284-3.249,10.529,10.529,0,0,1-2.354,6.65" transform="translate(-41.664 -66.511)" fill="#40c3c6"/>
    <path id="Trazado_60022" data-name="Trazado 60022" d="M111.89,178.732c-3.5.862-12.541.707-12.923.529a.027.027,0,0,1-.009-.043c.285-.345,8.278-4.693,11.691-5.533a10.428,10.428,0,0,1,7.006.98,10.531,10.531,0,0,1-5.765,4.067" transform="translate(-41.783 -73.236)" fill="#40c3c6"/>
    <path id="Trazado_60023" data-name="Trazado 60023" d="M109.559,191.337c-3.358-1.321-10.644-6.671-10.852-7.038a.027.027,0,0,1,.017-.04c.432-.116,9.467.955,12.738,2.242a10.427,10.427,0,0,1,5.15,4.849,10.526,10.526,0,0,1-7.054-.013" transform="translate(-41.679 -77.803)" fill="#40c3c6"/>
    <path id="Trazado_60024" data-name="Trazado 60024" d="M102.806,196.845c-1.976-3.019-4.83-11.6-4.788-12.015a.027.027,0,0,1,.038-.023c.42.155,7.175,6.251,9.1,9.192a10.431,10.431,0,0,1,1.4,6.935,10.53,10.53,0,0,1-5.75-4.088" transform="translate(-41.389 -78.037)" fill="#40c3c6"/>
    <path id="Trazado_60025" data-name="Trazado 60025" d="M91.9,197.431c.132-3.606,2.761-12.254,3.037-12.572a.028.028,0,0,1,.044,0c.253.369,2.242,9.248,2.113,12.76a10.429,10.429,0,0,1-2.865,6.468,10.527,10.527,0,0,1-2.329-6.659" transform="translate(-38.803 -78.056)" fill="#40c3c6"/>
    <path id="Trazado_60026" data-name="Trazado 60026" d="M82.145,189.664a1.473,1.473,0,0,1-.1-2.942c.161-.01.321-.024.481-.039a1.473,1.473,0,0,1,.272,2.933c-.183.017-.366.032-.551.044-.034,0-.068,0-.1,0m-7.679-.788a1.484,1.484,0,0,1-.4-.055c-.178-.05-.355-.1-.532-.157a1.473,1.473,0,0,1,.872-2.814q.229.071.461.136a1.473,1.473,0,0,1-.4,2.89m15.644-1.283a1.473,1.473,0,0,1-.629-2.8c.146-.069.291-.139.434-.21a1.473,1.473,0,1,1,1.318,2.634q-.245.122-.495.24a1.464,1.464,0,0,1-.628.141m-23.017-2.381a1.467,1.467,0,0,1-.884-.3q-.222-.167-.44-.339a1.473,1.473,0,0,1,1.83-2.309c.126.1.252.2.381.294a1.472,1.472,0,0,1-.887,2.649m29.692-2.432a1.473,1.473,0,0,1-1.067-2.488c.111-.117.222-.236.332-.356a1.473,1.473,0,1,1,2.176,1.986c-.123.135-.248.269-.373.4a1.469,1.469,0,0,1-1.067.458M61.54,179.139a1.471,1.471,0,0,1-1.253-.7q-.143-.231-.283-.466a1.473,1.473,0,0,1,2.533-1.5c.083.14.167.279.253.417a1.473,1.473,0,0,1-1.251,2.249m39.74-3.253a1.475,1.475,0,0,1-1.36-2.038q.093-.222.18-.447a1.473,1.473,0,0,1,2.748,1.061c-.068.173-.136.345-.206.516a1.475,1.475,0,0,1-1.362.908m-42.73-4.414a1.475,1.475,0,0,1-1.447-1.2c-.033-.179-.065-.359-.094-.54a1.472,1.472,0,1,1,2.9-.484c.027.161.055.32.086.48a1.476,1.476,0,0,1-1.45,1.745m44.424-3.643h-.035a1.473,1.473,0,0,1-1.438-1.507c0-.16.005-.321.005-.482v-.091a1.473,1.473,0,0,1,2.946,0v.091c0,.184,0,.369-.006.552a1.473,1.473,0,0,1-1.472,1.438m-44.438-4.587a1.491,1.491,0,0,1-.266-.024,1.472,1.472,0,0,1-1.183-1.714q.049-.27.1-.537a1.473,1.473,0,1,1,2.886.59c-.032.159-.063.318-.093.478a1.473,1.473,0,0,1-1.447,1.207m43.089-3.622a1.471,1.471,0,0,1-1.382-.965c-.056-.153-.113-.3-.172-.454a1.473,1.473,0,0,1,2.743-1.076q.1.256.194.514a1.472,1.472,0,0,1-1.383,1.981m-40.135-4.059a1.474,1.474,0,0,1-1.253-2.246c.1-.155.194-.31.292-.463a1.473,1.473,0,0,1,2.476,1.6c-.088.136-.175.273-.261.412a1.471,1.471,0,0,1-1.255.7m35.936-3.017a1.47,1.47,0,0,1-1.106-.5q-.161-.184-.325-.363a1.473,1.473,0,1,1,2.171-1.991q.185.2.366.407a1.472,1.472,0,0,1-1.1,2.446m-30.4-3.08a1.473,1.473,0,0,1-.892-2.646q.22-.166.442-.328a1.473,1.473,0,0,1,1.727,2.387c-.131.094-.259.191-.388.288a1.467,1.467,0,0,1-.889.3m23.931-2.012a1.466,1.466,0,0,1-.682-.169c-.142-.075-.287-.148-.432-.22a1.473,1.473,0,1,1,1.309-2.639q.247.123.491.25a1.473,1.473,0,0,1-.686,2.778m-16.579-1.679a1.473,1.473,0,0,1-.4-2.889c.175-.05.351-.1.527-.145a1.473,1.473,0,0,1,.752,2.848c-.157.041-.314.084-.47.129a1.453,1.453,0,0,1-.406.057m8.71-.728a1.557,1.557,0,0,1-.163-.009q-.242-.027-.484-.049a1.473,1.473,0,1,1,.26-2.934c.183.017.366.035.547.055a1.473,1.473,0,0,1-.159,2.937" transform="translate(-24.064 -59.982)" fill="#184e63"/>
    <path id="Trazado_60027" data-name="Trazado 60027" d="M797.471,174.543a40.723,40.723,0,0,1,7.351-4.993.019.019,0,0,1,.021.021,41.807,41.807,0,0,1-4.818,7.467,7.162,7.162,0,0,1-4.444,1.968,7.232,7.232,0,0,1,1.89-4.463" transform="translate(-335.947 -71.595)" fill="#9dd12c"/>
    <path id="Trazado_60028" data-name="Trazado 60028" d="M793.044,168.54a40.72,40.72,0,0,1,8.884.173.019.019,0,0,1,0,.03,41.849,41.849,0,0,1-8.247,3.309,7.165,7.165,0,0,1-4.764-.962,7.234,7.234,0,0,1,4.122-2.55" transform="translate(-333.135 -71.091)" fill="#9dd12c"/>
    <path id="Trazado_60029" data-name="Trazado 60029" d="M795.741,158.866a40.734,40.734,0,0,1,7.15,5.277.019.019,0,0,1-.013.027,41.818,41.818,0,0,1-8.642-2.067,7.163,7.163,0,0,1-3.332-3.539,7.239,7.239,0,0,1,4.837.3" transform="translate(-333.972 -66.837)" fill="#9dd12c"/>
    <path id="Trazado_60030" data-name="Trazado 60030" d="M804.458,151.275a40.693,40.693,0,0,1,2.785,8.438.019.019,0,0,1-.027.014,41.834,41.834,0,0,1-5.858-6.681,7.162,7.162,0,0,1-.673-4.814,7.234,7.234,0,0,1,3.773,3.042" transform="translate(-338.038 -62.594)" fill="#9dd12c"/>
    <path id="Trazado_60031" data-name="Trazado 60031" d="M814.624,150.013a40.68,40.68,0,0,1-2.6,8.5.019.019,0,0,1-.03,0,41.784,41.784,0,0,1-.919-8.838,7.163,7.163,0,0,1,2.232-4.317,7.235,7.235,0,0,1,1.321,4.663" transform="translate(-342.473 -61.376)" fill="#9dd12c"/>
    <path id="Trazado_60032" data-name="Trazado 60032" d="M820.226,155.752a40.708,40.708,0,0,1-7.036,5.428.019.019,0,0,1-.023-.02,41.849,41.849,0,0,1,4.358-7.744,7.168,7.168,0,0,1,4.317-2.233,7.231,7.231,0,0,1-1.617,4.569" transform="translate(-343.374 -63.84)" fill="#9dd12c"/>
    <path id="Trazado_60033" data-name="Trazado 60033" d="M822.252,165.764a40.688,40.688,0,0,1-8.879.363.019.019,0,0,1-.006-.029,41.824,41.824,0,0,1,8.032-3.8,7.166,7.166,0,0,1,4.814.674,7.231,7.231,0,0,1-3.96,2.794" transform="translate(-343.456 -68.46)" fill="#9dd12c"/>
    <path id="Trazado_60034" data-name="Trazado 60034" d="M820.651,174.424a40.686,40.686,0,0,1-7.455-4.836.019.019,0,0,1,.011-.028,41.83,41.83,0,0,1,8.752,1.541,7.164,7.164,0,0,1,3.539,3.331,7.233,7.233,0,0,1-4.847-.009" transform="translate(-343.384 -71.597)" fill="#9dd12c"/>
    <path id="Trazado_60035" data-name="Trazado 60035" d="M816.012,178.208a40.693,40.693,0,0,1-3.289-8.255.019.019,0,0,1,.026-.016A41.822,41.822,0,0,1,819,176.252a7.163,7.163,0,0,1,.963,4.764,7.235,7.235,0,0,1-3.951-2.808" transform="translate(-343.186 -71.758)" fill="#9dd12c"/>
    <path id="Trazado_60036" data-name="Trazado 60036" d="M808.517,178.611a40.7,40.7,0,0,1,2.086-8.638.019.019,0,0,1,.031,0,41.851,41.851,0,0,1,1.452,8.767,7.165,7.165,0,0,1-1.968,4.444,7.233,7.233,0,0,1-1.6-4.575" transform="translate(-341.408 -71.771)" fill="#9dd12c"/>
    <path id="Trazado_60037" data-name="Trazado 60037" d="M799.4,174.466a1.228,1.228,0,0,1-.083-2.454q.2-.014.4-.032a1.228,1.228,0,1,1,.226,2.446c-.153.014-.3.027-.459.038l-.085,0m-6.4-.657a1.216,1.216,0,0,1-.334-.047c-.148-.042-.3-.086-.444-.131a1.228,1.228,0,0,1,.727-2.347c.128.04.255.077.385.114a1.229,1.229,0,0,1-.333,2.411m13.046-1.07a1.228,1.228,0,0,1-.525-2.339c.121-.057.242-.116.362-.176a1.228,1.228,0,0,1,1.1,2.2c-.136.068-.274.135-.413.2a1.225,1.225,0,0,1-.523.117m-19.2-1.986a1.223,1.223,0,0,1-.737-.247c-.123-.092-.246-.187-.366-.283a1.228,1.228,0,0,1,1.526-1.925q.157.125.317.246a1.228,1.228,0,0,1-.74,2.209m24.761-2.028a1.229,1.229,0,0,1-.89-2.075q.139-.146.277-.3a1.228,1.228,0,0,1,1.815,1.656q-.154.169-.311.334a1.225,1.225,0,0,1-.89.382m-29.392-3.037a1.228,1.228,0,0,1-1.045-.581c-.08-.128-.159-.258-.236-.388a1.228,1.228,0,1,1,2.112-1.254c.069.116.139.232.211.347a1.228,1.228,0,0,1-1.043,1.876m33.141-2.712a1.229,1.229,0,0,1-1.134-1.7c.051-.124.1-.248.15-.373a1.228,1.228,0,0,1,2.291.884q-.083.217-.172.431a1.229,1.229,0,0,1-1.135.757m-35.634-3.681a1.229,1.229,0,0,1-1.206-1c-.028-.149-.054-.3-.079-.449a1.228,1.228,0,1,1,2.423-.4c.023.133.046.267.071.4a1.23,1.23,0,0,1-1.209,1.455m37.047-3.038h-.029a1.228,1.228,0,0,1-1.2-1.257c0-.134,0-.268,0-.4v-.076a1.228,1.228,0,1,1,2.456,0v.076c0,.154,0,.307-.006.46a1.228,1.228,0,0,1-1.227,1.2m-37.058-3.825a1.271,1.271,0,0,1-.222-.02,1.228,1.228,0,0,1-.987-1.43q.041-.224.087-.448a1.228,1.228,0,0,1,2.407.492q-.041.2-.078.4a1.228,1.228,0,0,1-1.206,1.007m35.933-3.02a1.227,1.227,0,0,1-1.153-.805c-.047-.127-.094-.253-.144-.378a1.228,1.228,0,0,1,2.287-.9c.055.142.109.285.162.429a1.229,1.229,0,0,1-1.153,1.652m-33.47-3.386a1.229,1.229,0,0,1-1.044-1.873c.079-.13.161-.259.243-.387a1.229,1.229,0,0,1,2.065,1.332c-.073.114-.146.228-.218.343a1.229,1.229,0,0,1-1.047.585m29.968-2.515a1.223,1.223,0,0,1-.922-.417c-.09-.1-.18-.2-.271-.3a1.228,1.228,0,1,1,1.81-1.66q.154.168.305.34a1.229,1.229,0,0,1-.922,2.04m-25.353-2.569a1.228,1.228,0,0,1-.744-2.207q.183-.139.369-.273a1.228,1.228,0,1,1,1.44,1.99q-.163.118-.323.24a1.226,1.226,0,0,1-.742.25m19.957-1.678a1.225,1.225,0,0,1-.569-.141c-.118-.062-.239-.123-.36-.183a1.228,1.228,0,1,1,1.091-2.2c.138.069.274.138.41.209a1.228,1.228,0,0,1-.572,2.316m-13.825-1.4a1.229,1.229,0,0,1-.337-2.41c.146-.042.293-.082.439-.121a1.228,1.228,0,1,1,.627,2.375c-.131.035-.262.07-.392.107a1.227,1.227,0,0,1-.338.048m7.264-.607a1.209,1.209,0,0,1-.136-.008c-.135-.015-.269-.028-.4-.04a1.228,1.228,0,0,1,.217-2.447c.152.014.305.029.456.046a1.228,1.228,0,0,1-.133,2.449" transform="translate(-328.702 -56.903)" fill="#184e63"/>
    <path id="Trazado_60038" data-name="Trazado 60038" d="M884.046,376.89a1.638,1.638,0,0,1-.634-3.148l.3-.125a1.638,1.638,0,0,1,1.272,3.019l-.306.128a1.632,1.632,0,0,1-.632.127m4.741-2.227a1.638,1.638,0,0,1-.771-3.083l.285-.153a1.638,1.638,0,0,1,1.546,2.888l-.292.156a1.632,1.632,0,0,1-.768.192m4.5-2.671a1.638,1.638,0,0,1-.908-3l.267-.179a1.638,1.638,0,1,1,1.825,2.721l-.278.185a1.624,1.624,0,0,1-.905.274m4.221-3.1a1.638,1.638,0,0,1-1.035-2.909l.245-.2a1.637,1.637,0,1,1,2.085,2.525l-.262.216a1.631,1.631,0,0,1-1.032.367m3.893-3.5a1.638,1.638,0,0,1-1.158-2.8l.227-.227a1.638,1.638,0,1,1,2.325,2.307l-.236.236a1.632,1.632,0,0,1-1.158.48m3.528-3.872a1.638,1.638,0,0,1-1.266-2.675l.207-.252a1.638,1.638,0,0,1,2.535,2.075l-.207.252a1.635,1.635,0,0,1-1.268.6m3.127-4.2a1.638,1.638,0,0,1-1.356-2.554l.176-.262a1.638,1.638,0,0,1,2.727,1.814l-.188.281a1.636,1.636,0,0,1-1.359.722m2.7-4.483a1.638,1.638,0,0,1-1.439-2.418l.15-.278a1.638,1.638,0,1,1,2.891,1.539l-.159.3a1.638,1.638,0,0,1-1.442.858m2.258-4.726a1.638,1.638,0,0,1-1.508-2.274l.122-.292a1.637,1.637,0,1,1,3.026,1.251l-.13.313a1.638,1.638,0,0,1-1.51,1m1.792-4.921a1.638,1.638,0,0,1-1.563-2.127l.092-.3a1.637,1.637,0,1,1,3.134.949l-.1.328a1.638,1.638,0,0,1-1.563,1.148m1.315-5.07a1.639,1.639,0,0,1-1.6-1.977l.063-.3a1.637,1.637,0,1,1,3.211.642l-.069.339a1.638,1.638,0,0,1-1.6,1.3m.82-5.189a1.646,1.646,0,0,1-.176-.009,1.626,1.626,0,0,1-1.453-1.791l.035-.318a1.638,1.638,0,0,1,3.258.337l-.033.306a1.653,1.653,0,0,1-1.63,1.475m.322-5.213h-.026a1.637,1.637,0,0,1-1.612-1.663l0-.311a1.638,1.638,0,0,1,1.638-1.629h.009a1.638,1.638,0,0,1,1.629,1.646l0,.345a1.637,1.637,0,0,1-1.637,1.612m-.185-5.235a1.638,1.638,0,0,1-1.63-1.5l-.027-.318a1.637,1.637,0,1,1,3.262-.288l.029.335a1.638,1.638,0,0,1-1.5,1.768c-.046,0-.092.006-.137.006m-.691-5.194a1.638,1.638,0,0,1-1.611-1.351l-.057-.3a1.638,1.638,0,0,1,3.218-.609l.064.34a1.638,1.638,0,0,1-1.614,1.925m-1.2-5.1A1.638,1.638,0,0,1,913.622,311l-.087-.3a1.638,1.638,0,0,1,3.141-.928l.1.33a1.638,1.638,0,0,1-1.127,2.024,1.657,1.657,0,0,1-.449.062m-1.693-4.957a1.638,1.638,0,0,1-1.521-1.03l-.12-.3a1.638,1.638,0,0,1,3.035-1.231l.125.312a1.638,1.638,0,0,1-1.52,2.246m-2.178-4.765a1.638,1.638,0,0,1-1.456-.887l-.144-.276a1.638,1.638,0,0,1,2.9-1.532l.16.307a1.638,1.638,0,0,1-1.455,2.389m-2.638-4.528a1.637,1.637,0,0,1-1.376-.748l-.17-.26a1.638,1.638,0,0,1,2.731-1.809l.188.288a1.638,1.638,0,0,1-1.373,2.529m-3.067-4.247a1.633,1.633,0,0,1-1.283-.619l-.2-.243a1.638,1.638,0,0,1,2.544-2.063l.214.268a1.638,1.638,0,0,1-1.281,2.657m-3.458-3.935a1.634,1.634,0,0,1-1.179-.5l-.222-.229a1.638,1.638,0,0,1,2.346-2.286l.234.242a1.637,1.637,0,0,1-1.179,2.774" transform="translate(-372.611 -120.873)" fill="#184e63"/>
    <path id="Trazado_60039" data-name="Trazado 60039" d="M706.622,33.022a40.724,40.724,0,0,1,7.35-4.993.019.019,0,0,1,.021.022,41.832,41.832,0,0,1-4.817,7.467,7.167,7.167,0,0,1-4.445,1.968,7.233,7.233,0,0,1,1.89-4.464" transform="translate(-297.585 -11.836)" fill="#9dd12c"/>
    <path id="Trazado_60040" data-name="Trazado 60040" d="M702.2,27.02a40.72,40.72,0,0,1,8.884.173.019.019,0,0,1,0,.03,41.849,41.849,0,0,1-8.247,3.309,7.168,7.168,0,0,1-4.764-.963,7.232,7.232,0,0,1,4.122-2.55" transform="translate(-294.773 -11.331)" fill="#9dd12c"/>
    <path id="Trazado_60041" data-name="Trazado 60041" d="M704.892,17.345a40.735,40.735,0,0,1,7.15,5.277.019.019,0,0,1-.013.027,41.819,41.819,0,0,1-8.642-2.067,7.162,7.162,0,0,1-3.332-3.539,7.239,7.239,0,0,1,4.837.3" transform="translate(-295.61 -7.077)" fill="#9dd12c"/>
    <path id="Trazado_60042" data-name="Trazado 60042" d="M713.609,9.754a40.693,40.693,0,0,1,2.785,8.438.019.019,0,0,1-.027.014,41.861,41.861,0,0,1-5.858-6.681,7.162,7.162,0,0,1-.673-4.814,7.232,7.232,0,0,1,3.773,3.042" transform="translate(-299.675 -2.834)" fill="#9dd12c"/>
    <path id="Trazado_60043" data-name="Trazado 60043" d="M723.775,8.492a40.665,40.665,0,0,1-2.6,8.5.019.019,0,0,1-.03,0,41.821,41.821,0,0,1-.919-8.838,7.163,7.163,0,0,1,2.232-4.317,7.235,7.235,0,0,1,1.321,4.663" transform="translate(-304.11 -1.617)" fill="#9dd12c"/>
    <path id="Trazado_60044" data-name="Trazado 60044" d="M729.378,14.231a40.71,40.71,0,0,1-7.036,5.428.019.019,0,0,1-.023-.02,41.85,41.85,0,0,1,4.358-7.744A7.167,7.167,0,0,1,731,9.662a7.232,7.232,0,0,1-1.617,4.569" transform="translate(-305.012 -4.08)" fill="#9dd12c"/>
    <path id="Trazado_60045" data-name="Trazado 60045" d="M731.4,24.243a40.688,40.688,0,0,1-8.879.363.019.019,0,0,1-.006-.029,41.826,41.826,0,0,1,8.032-3.8,7.166,7.166,0,0,1,4.814.674,7.231,7.231,0,0,1-3.96,2.794" transform="translate(-305.093 -8.701)" fill="#9dd12c"/>
    <path id="Trazado_60046" data-name="Trazado 60046" d="M729.8,32.9a40.69,40.69,0,0,1-7.455-4.835.019.019,0,0,1,.011-.028,41.782,41.782,0,0,1,8.752,1.54,7.164,7.164,0,0,1,3.539,3.332A7.235,7.235,0,0,1,729.8,32.9" transform="translate(-305.022 -11.838)" fill="#9dd12c"/>
    <path id="Trazado_60047" data-name="Trazado 60047" d="M725.163,36.687a40.67,40.67,0,0,1-3.29-8.255.019.019,0,0,1,.026-.016,41.829,41.829,0,0,1,6.251,6.315,7.163,7.163,0,0,1,.963,4.764,7.233,7.233,0,0,1-3.95-2.808" transform="translate(-304.823 -11.999)" fill="#9dd12c"/>
    <path id="Trazado_60048" data-name="Trazado 60048" d="M717.668,37.09a40.7,40.7,0,0,1,2.086-8.638.02.02,0,0,1,.031,0,41.824,41.824,0,0,1,1.452,8.767,7.165,7.165,0,0,1-1.968,4.444,7.233,7.233,0,0,1-1.6-4.575" transform="translate(-303.046 -12.012)" fill="#9dd12c"/>
    <path id="Trazado_60049" data-name="Trazado 60049" d="M283.657,303.7a1.228,1.228,0,0,1-.549-2.328c.077-.038.154-.079.228-.122a1.228,1.228,0,0,1,1.231,2.125c-.119.069-.24.133-.363.2a1.22,1.22,0,0,1-.547.129m-4.829-.152a1.223,1.223,0,0,1-.611-.164c-.121-.07-.24-.143-.356-.221a1.228,1.228,0,1,1,1.367-2.041c.07.047.141.091.214.133a1.228,1.228,0,0,1-.614,2.293m7.673-4.108-.082,0a1.228,1.228,0,0,1-1.144-1.307c.005-.084.008-.169.008-.254a1.238,1.238,0,0,1,1.228-1.239,1.22,1.22,0,0,1,1.228,1.218H286.51l1.228,0c0,.159,0,.3-.013.435a1.229,1.229,0,0,1-1.225,1.147m-10.24-.33a1.224,1.224,0,0,1-1.228-1.223v-.01c0-.135,0-.269.013-.4a1.228,1.228,0,1,1,2.451.155c-.005.081-.008.164-.008.247a1.233,1.233,0,0,1-1.228,1.233m7.957-4.277a1.223,1.223,0,0,1-.677-.2q-.107-.071-.22-.136a1.228,1.228,0,1,1,1.225-2.129q.179.1.351.217a1.228,1.228,0,0,1-.679,2.253m-5.405-.161a1.228,1.228,0,0,1-.62-2.289c.12-.07.242-.136.367-.2a1.228,1.228,0,0,1,1.094,2.2c-.076.038-.15.077-.222.12a1.227,1.227,0,0,1-.618.168" transform="translate(-116.137 -123.325)" fill="#184e63"/>
    <path id="Trazado_60050" data-name="Trazado 60050" d="M655.431,18.644a1.228,1.228,0,0,1-.549-2.328c.077-.038.153-.079.228-.122a1.228,1.228,0,0,1,1.231,2.125c-.119.069-.24.133-.363.2a1.222,1.222,0,0,1-.547.129m-4.829-.153a1.223,1.223,0,0,1-.611-.164c-.121-.07-.24-.143-.356-.221A1.228,1.228,0,1,1,651,16.065c.07.047.141.091.214.133a1.228,1.228,0,0,1-.614,2.293m7.673-4.108-.082,0a1.228,1.228,0,0,1-1.144-1.307c.005-.084.008-.169.008-.254a1.237,1.237,0,0,1,1.228-1.239,1.219,1.219,0,0,1,1.228,1.218h-1.228l1.228,0c0,.159,0,.3-.013.435a1.229,1.229,0,0,1-1.225,1.147m-10.24-.33a1.223,1.223,0,0,1-1.228-1.223v-.01c0-.135,0-.269.012-.4a1.228,1.228,0,0,1,2.452.155c-.005.081-.008.164-.008.247a1.233,1.233,0,0,1-1.228,1.233m7.956-4.277a1.221,1.221,0,0,1-.676-.2q-.107-.071-.22-.136a1.228,1.228,0,1,1,1.225-2.129q.179.1.35.217a1.228,1.228,0,0,1-.679,2.253m-5.405-.161a1.228,1.228,0,0,1-.621-2.289c.12-.07.242-.136.367-.2a1.228,1.228,0,0,1,1.093,2.2c-.076.038-.15.077-.222.12a1.227,1.227,0,0,1-.618.168" transform="translate(-273.125 -2.956)" fill="#184e63"/>
    <path id="Trazado_60051" data-name="Trazado 60051" d="M607.052,219.631a1.228,1.228,0,0,1-.545-2.329q.171-.085.335-.179a1.228,1.228,0,1,1,1.23,2.125q-.234.135-.477.256a1.22,1.22,0,0,1-.543.127m-6.64-.21a1.221,1.221,0,0,1-.614-.165c-.156-.09-.309-.185-.458-.284a1.228,1.228,0,1,1,1.362-2.045q.159.106.325.2a1.229,1.229,0,0,1-.616,2.292m10.55-5.649-.083,0a1.228,1.228,0,0,1-1.143-1.307c.008-.125.012-.251.012-.379a1.241,1.241,0,0,1,1.228-1.243,1.216,1.216,0,0,1,1.228,1.214v.029c0,.183-.006.363-.018.542a1.229,1.229,0,0,1-1.224,1.147m-14.08-.454a1.222,1.222,0,0,1-1.228-1.221v-.014c0-.176.005-.352.017-.526a1.228,1.228,0,1,1,2.451.159c-.008.121-.011.243-.011.366a1.234,1.234,0,0,1-1.228,1.236m10.941-5.882a1.223,1.223,0,0,1-.678-.2c-.105-.07-.214-.137-.324-.2a1.228,1.228,0,0,1,1.223-2.131q.236.135.46.284a1.228,1.228,0,0,1-.681,2.251m-7.433-.22a1.228,1.228,0,0,1-.618-2.291c.155-.09.314-.176.475-.256a1.228,1.228,0,1,1,1.094,2.2c-.114.057-.226.117-.336.181a1.223,1.223,0,0,1-.615.166" transform="translate(-251.525 -86.371)" fill="#184e63"/>
    <path id="Trazado_60052" data-name="Trazado 60052" d="M696.314,66.493A8.493,8.493,0,1,1,687.821,58a8.493,8.493,0,0,1,8.493,8.493" transform="translate(-286.858 -24.491)" fill="#40c3c6"/>
    <path id="Trazado_60053" data-name="Trazado 60053" d="M827.977,98.462A12.864,12.864,0,1,1,840.841,85.6a12.879,12.879,0,0,1-12.864,12.864m0-20.816a7.951,7.951,0,1,0,7.951,7.951,7.961,7.961,0,0,0-7.951-7.951" transform="translate(-344.195 -30.713)" fill="#9dd12c"/>
    <path id="Trazado_60054" data-name="Trazado 60054" d="M228.626,76.447a12.864,12.864,0,1,1,12.864-12.864,12.879,12.879,0,0,1-12.864,12.864m0-20.816a7.951,7.951,0,1,0,7.951,7.951,7.96,7.96,0,0,0-7.951-7.951" transform="translate(-91.109 -21.417)" fill="#9dd12c"/>
    <path id="Trazado_60055" data-name="Trazado 60055" d="M913.59,352.759a5.8,5.8,0,1,1-5.8-5.8,5.8,5.8,0,0,1,5.8,5.8" transform="translate(-380.878 -146.508)" fill="#40c3c6"/>
    <path id="Trazado_60056" data-name="Trazado 60056" d="M801.149,371.456a1.205,1.205,0,0,1-1.2-1.2V358.12a1.2,1.2,0,0,1,2.409,0v12.132a1.205,1.205,0,0,1-1.2,1.2" transform="translate(-337.79 -150.713)" fill="#184e63"/>
    <path id="Trazado_60057" data-name="Trazado 60057" d="M802.78,369.823H790.649a1.2,1.2,0,1,1,0-2.409H802.78a1.2,1.2,0,0,1,0,2.409" transform="translate(-333.356 -155.147)" fill="#184e63"/>
    <path id="Trazado_60058" data-name="Trazado 60058" d="M822.8,29.622a1.2,1.2,0,0,1-1.2-1.2V16.286a1.2,1.2,0,0,1,2.409,0V28.417a1.2,1.2,0,0,1-1.2,1.2" transform="translate(-346.931 -6.368)" fill="#184e63"/>
    <path id="Trazado_60059" data-name="Trazado 60059" d="M824.429,27.989H812.3a1.2,1.2,0,0,1,0-2.409h12.132a1.2,1.2,0,0,1,0,2.409" transform="translate(-342.498 -10.802)" fill="#184e63"/>
    <path id="Trazado_60060" data-name="Trazado 60060" d="M376.649,158.957a1.2,1.2,0,0,1-1.2-1.2V145.621a1.2,1.2,0,1,1,2.409,0v12.132a1.2,1.2,0,0,1-1.2,1.2" transform="translate(-158.538 -60.982)" fill="#184e63"/>
    <path id="Trazado_60061" data-name="Trazado 60061" d="M378.281,157.324H366.15a1.2,1.2,0,0,1,0-2.409h12.132a1.2,1.2,0,1,1,0,2.409" transform="translate(-154.104 -65.415)" fill="#184e63"/>
    <path id="Trazado_60062" data-name="Trazado 60062" d="M172.649,430.956a1.2,1.2,0,0,1-1.2-1.2V417.621a1.2,1.2,0,0,1,2.409,0v12.131a1.2,1.2,0,0,1-1.2,1.2" transform="translate(-72.395 -175.839)" fill="#184e63"/>
    <path id="Trazado_60063" data-name="Trazado 60063" d="M174.281,429.324H162.15a1.2,1.2,0,1,1,0-2.409h12.132a1.2,1.2,0,1,1,0,2.409" transform="translate(-67.962 -180.272)" fill="#184e63"/>
    <path id="Trazado_60064" data-name="Trazado 60064" d="M488.124,9.311h-.578a1.155,1.155,0,0,1,0-2.311h.578a1.155,1.155,0,0,1,0,2.311m-5.2,0h-.578a1.155,1.155,0,1,1,0-2.311h.578a1.155,1.155,0,0,1,0,2.311m-5.2,0h-.578a1.155,1.155,0,0,1,0-2.311h.578a1.155,1.155,0,1,1,0,2.311m-5.2,0h-.578a1.155,1.155,0,0,1,0-2.311h.578a1.155,1.155,0,0,1,0,2.311m-5.2,0h-.578a1.155,1.155,0,0,1,0-2.311h.578a1.155,1.155,0,0,1,0,2.311m-5.2,0h-.578a1.155,1.155,0,0,1,0-2.311h.578a1.155,1.155,0,0,1,0,2.311m-5.2,0h-.578a1.155,1.155,0,1,1,0-2.311h.578a1.155,1.155,0,0,1,0,2.311m-5.2,0h-.578a1.155,1.155,0,0,1,0-2.311h.578a1.155,1.155,0,0,1,0,2.311m-5.2,0h-.578a1.155,1.155,0,0,1,0-2.311h.578a1.155,1.155,0,1,1,0,2.311m-5.2,0h-.578a1.155,1.155,0,0,1,0-2.311h.578a1.155,1.155,0,1,1,0,2.311m-5.2,0h-.578a1.155,1.155,0,0,1,0-2.311h.578a1.155,1.155,0,0,1,0,2.311" transform="translate(-183.431 -2.956)" fill="#184e63"/>
    <path id="Trazado_60065" data-name="Trazado 60065" d="M489.435,24.311H487.7a1.156,1.156,0,0,0-1.733,0h-5.777a1.155,1.155,0,0,1,0-2.311h5.777a1.156,1.156,0,0,0,1.733,0h1.733a1.155,1.155,0,1,1,0,2.311m-15.021,0h-1.733a1.155,1.155,0,0,1,0-2.311h1.733a1.155,1.155,0,0,1,0,2.311m-7.511,0h-5.777a1.156,1.156,0,0,0-1.733,0h-5.777a1.155,1.155,0,0,1,0-2.311h5.777a1.156,1.156,0,0,0,1.733,0H466.9a1.155,1.155,0,0,1,0,2.311m-19.065,0h-1.733a1.155,1.155,0,0,1,0-2.311h1.733a1.155,1.155,0,0,1,0,2.311m-7.511,0H434.55a1.155,1.155,0,0,1,0-2.311h5.777a1.155,1.155,0,0,1,0,2.311" transform="translate(-183.008 -9.29)" fill="#184e63"/>
    <path id="Trazado_60066" data-name="Trazado 60066" d="M90.332,87.2a1.638,1.638,0,0,1-1.638-1.637v-.336A1.637,1.637,0,0,1,90.332,83.6h.009a1.638,1.638,0,0,1,1.629,1.646v.319A1.637,1.637,0,0,1,90.332,87.2m.215-5.232c-.045,0-.091,0-.137-.006a1.637,1.637,0,0,1-1.5-1.767l.028-.331a1.638,1.638,0,0,1,3.264.28l-.027.322a1.638,1.638,0,0,1-1.63,1.5m.642-5.2a1.576,1.576,0,0,1-.269-.023,1.637,1.637,0,0,1-1.349-1.882l.057-.336a1.638,1.638,0,0,1,3.227.559l-.053.31a1.638,1.638,0,0,1-1.614,1.371m1.071-5.126a1.64,1.64,0,0,1-1.589-2.041l.084-.325a1.638,1.638,0,1,1,3.171.82l-.079.31a1.639,1.639,0,0,1-1.586,1.236m1.493-5.02A1.64,1.64,0,0,1,92.2,64.459l.112-.324a1.638,1.638,0,0,1,3.09,1.086l-.1.3a1.639,1.639,0,0,1-1.549,1.108m1.909-4.883a1.639,1.639,0,0,1-1.5-2.3l.138-.311a1.638,1.638,0,0,1,2.989,1.339l-.129.29a1.638,1.638,0,0,1-1.5.979m2.309-4.706a1.639,1.639,0,0,1-1.438-2.419l.164-.3A1.638,1.638,0,0,1,99.563,55.9l-.151.276a1.637,1.637,0,0,1-1.441.857m2.692-4.5A1.638,1.638,0,0,1,99.3,50l.184-.278a1.638,1.638,0,1,1,2.73,1.809l-.177.269a1.636,1.636,0,0,1-1.37.738m3.053-4.258a1.638,1.638,0,0,1-1.29-2.645l.21-.267A1.638,1.638,0,1,1,105.2,47.4l-.195.248a1.636,1.636,0,0,1-1.292.63m3.394-3.992a1.637,1.637,0,0,1-1.2-2.75l.227-.244a1.638,1.638,0,1,1,2.395,2.234l-.219.235a1.631,1.631,0,0,1-1.2.525m3.71-3.7a1.638,1.638,0,0,1-1.109-2.844l.248-.227a1.638,1.638,0,1,1,2.2,2.424l-.235.214a1.63,1.63,0,0,1-1.108.432m4-3.38a1.638,1.638,0,0,1-1.006-2.931l.263-.2a1.638,1.638,0,0,1,2,2.594l-.254.2a1.635,1.635,0,0,1-1,.344m4.264-3.038a1.638,1.638,0,0,1-.9-3.009l.281-.183a1.638,1.638,0,0,1,1.778,2.751l-.267.173a1.632,1.632,0,0,1-.894.267m4.5-2.675a1.638,1.638,0,0,1-.779-3.079l.295-.158a1.638,1.638,0,1,1,1.542,2.89l-.281.151a1.63,1.63,0,0,1-.776.2m4.7-2.292a1.638,1.638,0,0,1-.656-3.139l.3-.132a1.638,1.638,0,1,1,1.3,3.007l-.294.127a1.623,1.623,0,0,1-.654.138m4.875-1.893a1.638,1.638,0,0,1-.529-3.188l.319-.108A1.638,1.638,0,0,1,134,27.122l-.3.1a1.631,1.631,0,0,1-.53.088m5.023-1.482a1.638,1.638,0,0,1-.4-3.227l.327-.081A1.638,1.638,0,0,1,138.9,25.7l-.309.077a1.639,1.639,0,0,1-.4.05m5.128-1.059a1.638,1.638,0,0,1-.261-3.254l.328-.053A1.638,1.638,0,1,1,143.9,24.7l-.319.051a1.65,1.65,0,0,1-.265.021m5.2-.63a1.638,1.638,0,0,1-.129-3.27l.339-.026a1.638,1.638,0,1,1,.237,3.267l-.314.024c-.044,0-.089.005-.133.005m57.969-.2h-.327a1.638,1.638,0,1,1,0-3.275h.327a1.638,1.638,0,1,1,0,3.275m-5.24,0h-.328a1.638,1.638,0,1,1,0-3.275h.328a1.638,1.638,0,0,1,0,3.275m-5.241,0h-.328a1.638,1.638,0,0,1,0-3.275H196a1.638,1.638,0,0,1,0,3.275m-5.241,0h-.328a1.638,1.638,0,0,1,0-3.275h.328a1.638,1.638,0,1,1,0,3.275m-5.241,0h-.328a1.638,1.638,0,1,1,0-3.275h.328a1.638,1.638,0,0,1,0,3.275m-5.241,0h-.328a1.638,1.638,0,0,1,0-3.275h.328a1.638,1.638,0,0,1,0,3.275m-5.241,0h-.328a1.638,1.638,0,0,1,0-3.275h.328a1.638,1.638,0,1,1,0,3.275m-5.241,0h-.327a1.638,1.638,0,1,1,0-3.275h.327a1.638,1.638,0,1,1,0,3.275m-5.24,0h-.328a1.638,1.638,0,1,1,0-3.275h.328a1.638,1.638,0,0,1,0,3.275m-5.241,0h-.328a1.638,1.638,0,1,1,0-3.275h.328a1.638,1.638,0,0,1,0,3.275m-5.241,0h-.328a1.638,1.638,0,0,1,0-3.275h.328a1.638,1.638,0,0,1,0,3.275" transform="translate(-37.453 -8.727)" fill="#184e63"/>
    <path id="Trazado_60067" data-name="Trazado 60067" d="M40.931,385.653c-.687-.136-1.373-.288-2.039-.449l2.629-10.835q.788.192,1.588.35Zm-10.74-3.423c-.626-.28-1.259-.579-1.884-.89l4.959-9.985q.732.364,1.48.7Zm-9.709-5.723c-.552-.415-1.1-.847-1.639-1.284l7.048-8.638q.633.516,1.287,1.008Zm-8.2-7.712c-.445-.523-.889-1.065-1.318-1.612l8.775-6.878q.5.64,1.031,1.263Zm-6.3-9.33c-.319-.611-.632-1.238-.929-1.866l10.079-4.765q.348.735.724,1.454ZM1.9,348.961c-.177-.669-.343-1.351-.492-2.029l10.887-2.4q.175.8.383,1.582ZM.252,337.82q-.032-.912-.032-1.833L0,335.745l10.928.042v.2c0,.482.228.96.245,1.437Zm11.8-9.164L1.09,326.6c.127-.677.271-1.364.428-2.043l10.864,2.505q-.183.791-.333,1.594m2.574-8.389L4.4,315.822c.276-.634.57-1.273.874-1.9L15.3,318.785c-.237.49-.466.988-.681,1.482M19,312.649l-8.987-6.6c.414-.565.842-1.123,1.273-1.66l8.7,6.969c-.333.415-.666.849-.988,1.289m5.955-6.467-7.315-8.414c.523-.455,1.062-.9,1.6-1.336l6.963,8.706q-.636.509-1.25,1.043m7.226-5-5.279-9.82c.608-.327,1.231-.646,1.853-.948l4.874,10.027q-.732.357-1.448.741m8.141-3.267-2.964-10.748c.668-.184,1.349-.357,2.024-.514L41.9,297.521q-.795.184-1.577.4M49,296.544l-.515-11.136c.688-.032,1.388-.05,2.082-.054l.066,11.149q-.821.005-1.633.042" transform="translate(0 -120.495)" fill="#184e63"/>
    <path id="Trazado_60068" data-name="Trazado 60068" d="M553.085,206.409S533.15,214.9,528.2,220.865l1.543-.678,5.279,12.019,6.785-10.349-2.816-8.316,1.72-.582,2.361,6.971,3.256-4.967,1.519,1-7.357,11.222,10.586-.571.1,1.813-11.92.642-7.083,10.8a12.927,12.927,0,0,0,17.171-4.16c3.918-5.975,4.114-29.871,3.741-29.3" transform="translate(-223.043 -87.155)" fill="#9dd12c"/>
    <path id="Trazado_60069" data-name="Trazado 60069" d="M528.748,249.523l3.181-4.852L526.2,231.628c-.149.186-.284.369-.4.549a12.927,12.927,0,0,0,2.95,17.345" transform="translate(-221.133 -97.809)" fill="#9dd12c"/>
    <path id="Trazado_60070" data-name="Trazado 60070" d="M376.812,204.409s19.935,8.492,24.882,14.456l-1.543-.678-5.279,12.019-6.785-10.349,2.816-8.316-1.719-.582-2.36,6.971-3.257-4.967-1.519,1,7.357,11.222-10.586-.571-.1,1.813,11.921.642,7.083,10.8a12.927,12.927,0,0,1-17.171-4.16c-3.918-5.975-4.114-29.871-3.741-29.3" transform="translate(-159.06 -86.311)" fill="#9dd12c"/>
    <path id="Trazado_60071" data-name="Trazado 60071" d="M413.4,247.523l-3.181-4.852,5.728-13.042c.149.186.285.369.4.549a12.928,12.928,0,0,1-2.95,17.345" transform="translate(-173.223 -96.964)" fill="#9dd12c"/>
    <path id="Trazado_60072" data-name="Trazado 60072" d="M478.907,168.351c0,12.45-12,22.544-26.807,22.544s-26.806-10.094-26.806-22.544S452.1,122.078,452.1,122.076c0-1.187,26.807,33.824,26.807,46.275" transform="translate(-179.587 -51.536)" fill="#9dd12c"/>
    <path id="Trazado_60073" data-name="Trazado 60073" d="M454.707,202.468c-15.369,0-27.989-10.591-27.989-23.61,0-12.065,23.223-42.015,26.69-46.644v-.7l1.205-.029c.556,0,.983,0,5.459,5.937,1.759,2.333,5.323,7.138,9.236,13.1,6.042,9.212,13.258,21.6,13.258,28.328,0,13.019-12.489,23.61-27.858,23.61m.131-68.324c-9.343,11.953-25.871,35.487-25.871,44.715,0,11.842,11.547,21.477,25.74,21.477s25.74-9.635,25.74-21.477c0-10.818-21.195-39.667-25.609-44.715" transform="translate(-180.189 -55.523)" fill="#184e63"/>
    <rect id="Rectángulo_25361" data-name="Rectángulo 25361" width="2.311" height="80.883" transform="translate(272.642 78.572)" fill="#184e63"/>
    <rect id="Rectángulo_25362" data-name="Rectángulo 25362" width="12.131" height="2.133" transform="translate(273.682 96.393) rotate(-29.74)" fill="#184e63"/>
    <rect id="Rectángulo_25363" data-name="Rectángulo 25363" width="26.246" height="2.133" transform="matrix(0.841, -0.541, 0.541, 0.841, 273.874, 122.253)" fill="#184e63"/>
    <rect id="Rectángulo_25364" data-name="Rectángulo 25364" width="2.133" height="17.903" transform="matrix(0.548, -0.836, 0.836, 0.548, 258.778, 100.562)" fill="#184e63"/>
    <rect id="Rectángulo_25365" data-name="Rectángulo 25365" width="2.133" height="29.617" transform="matrix(0.508, -0.861, 0.861, 0.508, 248.16, 121.683)" fill="#184e63"/>
    <path id="Trazado_60074" data-name="Trazado 60074" d="M574.107,286.786h0a15.522,15.522,0,0,1-9-28.177c6.373-4.527,28.976-5.648,31.969-5.648.939,0,1.826,0,2.119.921l.273.855-.438.317c-1.441,3.714-9.681,24.414-15.944,28.864a15.421,15.421,0,0,1-8.977,2.869m22.136-31.36c-6.508.135-24.83,1.716-29.716,5.186a13.065,13.065,0,1,0,15.133,21.3c4.514-3.207,11.174-17.9,14.583-26.488" transform="translate(-235.865 -106.817)" fill="#9dd12c"/>
    <rect id="Rectángulo_25366" data-name="Rectángulo 25366" width="40.124" height="2.457" transform="translate(318.981 176.684) rotate(-35.391)" fill="#9dd12c"/>
    <rect id="Rectángulo_25367" data-name="Rectángulo 25367" width="14.315" height="2.457" transform="translate(337.464 164.781) rotate(-89.071)" fill="#9dd12c"/>
    <rect id="Rectángulo_25368" data-name="Rectángulo 25368" width="2.456" height="9.765" transform="translate(345.432 160.739) rotate(-73.435)" fill="#9dd12c"/>
    <rect id="Rectángulo_25369" data-name="Rectángulo 25369" width="2.457" height="16.869" transform="translate(331.232 170.202) rotate(-70.323)" fill="#9dd12c"/>
    <path id="Trazado_60075" data-name="Trazado 60075" d="M347.066,286.786a15.418,15.418,0,0,1-8.977-2.869c-6.263-4.449-14.5-25.141-15.943-28.857l-.43-.306.263-.872c.293-.921,1.18-.921,2.119-.921,2.993,0,25.6,1.121,31.969,5.648a15.522,15.522,0,0,1-9,28.177m-22.137-31.36c3.409,8.585,10.069,23.282,14.583,26.488a13.065,13.065,0,0,0,15.133-21.3c-4.885-3.47-23.208-5.052-29.716-5.186" transform="translate(-135.85 -106.817)" fill="#9dd12c"/>
    <rect id="Rectángulo_25370" data-name="Rectángulo 25370" width="2.457" height="40.124" transform="matrix(0.579, -0.815, 0.815, 0.579, 196.343, 155.449)" fill="#9dd12c"/>
    <rect id="Rectángulo_25371" data-name="Rectángulo 25371" width="2.456" height="14.315" transform="translate(209.304 150.508) rotate(-0.934)" fill="#9dd12c"/>
    <rect id="Rectángulo_25372" data-name="Rectángulo 25372" width="9.766" height="2.456" transform="translate(193.965 161.169) rotate(-16.564)" fill="#9dd12c"/>
    <rect id="Rectángulo_25373" data-name="Rectángulo 25373" width="16.87" height="2.457" transform="matrix(0.942, -0.337, 0.337, 0.942, 201.514, 173.569)" fill="#9dd12c"/>
    <path id="Trazado_60076" data-name="Trazado 60076" d="M491.453,283.726a58.189,58.189,0,0,1-.659,8.741A57.481,57.481,0,0,1,434.067,341.2a58.556,58.556,0,0,1-31.521-9.336h-.006c-1.271-1.155-2.5-1.808-3.7-2.738a57.385,57.385,0,0,1-22.168-45.358c0-1.4.052-2.808.15-4.183a57.389,57.389,0,0,1,114.628,4.137" transform="translate(-159.057 -95.576)" fill="#40c3c6"/>
    <path id="Trazado_60077" data-name="Trazado 60077" d="M445.56,255.446a7.639,7.639,0,0,1,.551-4.04c.583-1.157,1.691-2.279,1.339-3.527a2.892,2.892,0,0,0-2.116-1.7c-5.784-1.749-11.8,2.357-17.831,1.961a7.805,7.805,0,0,0-3.038.071,4.865,4.865,0,0,0-1.523.944,14.157,14.157,0,0,0-3.69,4.814c1.222,1.138,3.267.5,4.777,1.216a5.739,5.739,0,0,1,2.12,2.192c1.54,2.308,3.141,4.813,3.078,7.587-.013.608-.109,1.214-.077,1.821a4.581,4.581,0,0,0,5.227,4.081,6.179,6.179,0,0,1,3.427-5.5c2.191-1.05,5.048-.818,6.723-2.577,1.762-1.851,1.233-4.795,1.035-7.342" transform="translate(-177.036 -103.769)" fill="#9dd12c"/>
    <path id="Trazado_60078" data-name="Trazado 60078" d="M405.169,282.689a24.58,24.58,0,0,1-2.7,1.358c-3.466,2.045-4.068,8.059-8.066,8.458a17.513,17.513,0,0,1-3.045-.318,5.18,5.18,0,0,0-5.061,2.681,3.9,3.9,0,0,0,1.768,5.148c1.323.549,2.837.2,4.246.445s2.86,1.7,2.149,2.946c-1.317-2.138-4.581-1.15-7.043-1.658-4.928-1.011-5.789-7.655-9.059-11.48a13.151,13.151,0,0,0-1.427-1.41,57.254,57.254,0,0,1,21.2-40.5,7.353,7.353,0,0,1,4.321.988,22.979,22.979,0,0,1-2.617,2.883l2.774-2.1q-3.181,2.938-6.367,5.887a4.457,4.457,0,0,0-1.167,1.421c-.716,1.629.682,3.443,2.236,4.31s3.4,1.323,4.6,2.64,1.069,3.986-.676,4.339c-2.392-1.41-5.026-2.773-7.788-2.519s-5.465,2.866-4.766,5.552a3.835,3.835,0,0,0,6.125,1.629c.878-.9,1.294-2.247,2.368-2.889,1.843-1.109,4.073.526,5.592,2.045a14.006,14.006,0,0,1,3.53,4.714c.7,1.855.433,4.223-1.138,5.425" transform="translate(-159.167 -104.868)" fill="#9dd12c"/>
    <path id="Trazado_60079" data-name="Trazado 60079" d="M433.43,353.681c-.543,1.08-2.115,1.67-2.034,2.877a5.587,5.587,0,0,0,.352,1.121c.52,1.756-1.179,3.3-2.6,4.46-4.9,4.015-8.562,9.325-12.15,14.553a6.984,6.984,0,0,0-1.5,3.31,2.72,2.72,0,0,0,.075.861q-1.906-1.248-3.7-2.646a20.739,20.739,0,0,1,1.306-6.54q1.257-3.952,2.507-7.9c.439-1.387.872-2.935.266-4.258-1.167-2.536-4.98-2.276-7.054-4.148a4.24,4.24,0,0,1-1.173-4.316c.844-2.692,4.345-4.5,3.853-7.279a5.1,5.1,0,0,1,5.159-.491,5.771,5.771,0,0,0,1.976.826c.883.07,1.721-.508,2.611-.433,2,.173,2.236,3.068,3.634,4.524,1.323,1.374,3.507,1.253,5.384,1.617s3.94,2.149,3.079,3.859" transform="translate(-172.096 -144.755)" fill="#9dd12c"/>
    <path id="Trazado_60080" data-name="Trazado 60080" d="M470.111,314.553a25.934,25.934,0,0,0-5.836,6.152,12.8,12.8,0,0,0-2.576,7.488c.109,2.682,1.8,5.428,4.4,6.086,3.224.814,6.675-1.642,9.838-.617,3.016.978,4.249,4.691,3.984,7.851s-1.562,6.171-1.753,9.336c-.141,2.343.66,5.109,2.876,5.885a4.65,4.65,0,0,0,4.769-1.56,13.421,13.421,0,0,0,2.392-4.71c1.939-5.558,3.912-11.371,8.1-15.507,1.1-1.088,2.462-2.544,1.791-3.94-2.467.762-5.22-.694-6.619-2.865a12.829,12.829,0,0,1-1.592-7.457,3.757,3.757,0,0,0-.169-1.641c-.7-1.6-3.091-1.294-4.589-.4s-3.137,2.158-4.789,1.6c-2.008-.679-2.537-3.641-4.568-4.243-1.059-.314-2.178.135-3.28.211s-2.478-.569-2.384-1.67" transform="translate(-194.957 -132.825)" fill="#9dd12c"/>
    <path id="Trazado_60081" data-name="Trazado 60081" d="M533.443,300.828a58.194,58.194,0,0,1-.659,8.741c-1.738-1.491-3.333-3.172-5.4-4.125-2.658-1.225-6.644-.433-7.227,2.432-.358,1.751.168,4.385-1.594,4.651-1.589-1.213-.855-3.732-1.433-5.65-.8-2.663-3.94-3.709-6.65-4.362q-3.761-.91-7.534-1.819c-.641,1.143.289,2.657,1.519,3.108a6.908,6.908,0,0,0,3.883-.133c-.144.7-.289,1.4-.428,2.1a32.647,32.647,0,0,1-7.851,2.923q-1.516-5.278-3.045-10.549a7.683,7.683,0,0,0-1.71-3.524,2.664,2.664,0,0,0-3.565-.341c.127-1.623,1.883-2.715,3.507-2.71a9.849,9.849,0,0,1,4.541,1.606c-.046-2.744-2.692-5.8-5.142-4.57-1.311.659-1.849,2.2-2.617,3.449s-2.38,2.357-3.611,1.56a5.234,5.234,0,0,0-5.141-4.079,8.47,8.47,0,0,0,1.785,4.911,4.29,4.29,0,0,1-2.271.428,8.6,8.6,0,0,1-1.456-3.316,8.021,8.021,0,0,0-5.107,1.566,6.649,6.649,0,0,1,5.431-7.661,26.512,26.512,0,0,0,3.53-.272c3.732-.976,4.425-5.9,4.362-9.758-2.432.208-1.849,4.252-3.634,5.916-1.762,1.635-4.927-.306-5.13-2.7s1.5-4.529,3.357-6.055c2.657-2.184,7.32-3.345,9.024-.358a18.019,18.019,0,0,0,1.005,2.1c.93,1.231,2.808,1.329,4.235.751a21.758,21.758,0,0,0,3.866-2.525,13.785,13.785,0,0,1,11.45-1.739c.023-1.8.792-4.258,2.554-3.934-.272.82.555,1.67,1.41,1.768a4.418,4.418,0,0,0,2.45-.711c.716-.376,1.439-.745,2.155-1.115a57.106,57.106,0,0,1,11.144,33.988" transform="translate(-201.047 -112.678)" fill="#9dd12c"/>
    <path id="Trazado_60082" data-name="Trazado 60082" d="M548.785,374.667a9.058,9.058,0,0,1-6.625-2.893l-18.844-20.345a9.027,9.027,0,1,1,13.246-12.269l18.845,20.345a9.028,9.028,0,0,1-6.621,15.162m-18.849-35.944a6.572,6.572,0,0,0-4.819,11.037L543.961,370.1a6.572,6.572,0,1,0,9.642-8.931l-18.844-20.344a6.593,6.593,0,0,0-4.823-2.106" transform="translate(-219.963 -141.994)" fill="#184e63"/>
    <path id="Trazado_60083" data-name="Trazado 60083" d="M555.45,337.1a9.028,9.028,0,0,1-6.258-15.535l8.006-7.7a9.028,9.028,0,1,1,12.514,13.015l-8,7.7a8.984,8.984,0,0,1-6.257,2.521m8-23.3a6.539,6.539,0,0,0-4.553,1.834l-8.005,7.7A6.571,6.571,0,1,0,560,332.814l8.005-7.7a6.571,6.571,0,0,0-4.555-11.309" transform="translate(-230.737 -131.474)" fill="#184e63"/>
    <path id="Trazado_60084" data-name="Trazado 60084" d="M527.8,391.583a9.057,9.057,0,0,1-6.625-2.893L499,364.751a9.028,9.028,0,0,1,6.621-15.162,9.058,9.058,0,0,1,6.625,2.893l22.173,23.938a9.028,9.028,0,0,1-6.621,15.163m-22.177-39.537a6.572,6.572,0,0,0-4.819,11.037l22.173,23.938a6.572,6.572,0,0,0,9.642-8.931l-22.173-23.938a6.6,6.6,0,0,0-4.823-2.106" transform="translate(-209.695 -147.62)" fill="#184e63"/>
    <path id="Trazado_60085" data-name="Trazado 60085" d="M510.252,409.821a7.938,7.938,0,0,1-5.8-2.535l-14.816-16a7.917,7.917,0,0,1,.429-11.177l.489-.453a7.91,7.91,0,0,1,11.179.427l14.815,16a7.908,7.908,0,0,1-.428,11.177l-.49.454a7.883,7.883,0,0,1-5.373,2.108m-14.329-29.813a5.437,5.437,0,0,0-3.7,1.452l-.489.454a5.46,5.46,0,0,0-.3,7.707l14.816,16a5.453,5.453,0,0,0,7.707.295l.491-.454a5.453,5.453,0,0,0,.294-7.706l-14.815-16a5.4,5.4,0,0,0-4-1.747" transform="translate(-205.867 -159.428)" fill="#184e63"/>
    <path id="Trazado_60086" data-name="Trazado 60086" d="M497.823,424.369a6.3,6.3,0,0,1-4.607-2.012L481.279,409.47a6.278,6.278,0,0,1,.339-8.873l.1-.094a6.279,6.279,0,0,1,8.876.339l11.936,12.886a6.28,6.28,0,0,1-.34,8.873l-.1.095a6.261,6.261,0,0,1-4.267,1.674m-11.835-23.084a3.81,3.81,0,0,0-2.6,1.019l-.1.094a3.823,3.823,0,0,0-.207,5.4l11.936,12.887a3.823,3.823,0,0,0,5.4.206l.1-.094a3.823,3.823,0,0,0,.209-5.4L488.793,402.51a3.786,3.786,0,0,0-2.806-1.225" transform="translate(-202.522 -168.412)" fill="#184e63"/>
    <path id="Trazado_60087" data-name="Trazado 60087" d="M533.827,354.123a9.393,9.393,0,0,1-6.576-3.187,2.544,2.544,0,0,1-.106-2.85c1.1-2.272,4.962-5.316,7.414-5.316a2.3,2.3,0,0,1,1.888.846,9.4,9.4,0,0,1,1.757,4.714c.207,2.173-.365,3.915-1.611,4.906a4.377,4.377,0,0,1-2.766.886m-4.59-4.639a7.014,7.014,0,0,0,4.59,2.183,1.951,1.951,0,0,0,1.236-.351,3.206,3.206,0,0,0,.7-2.758,6.417,6.417,0,0,0-1.172-3.344h-.028c-.815,0-2.736,1.065-4.192,2.582a4.024,4.024,0,0,0-1.13,1.688" transform="translate(-222.44 -144.741)" fill="#184e63"/>
    <path id="Trazado_60088" data-name="Trazado 60088" d="M509.755,368.1a9.463,9.463,0,0,1-6.637-3.126,2.586,2.586,0,0,1-.136-2.916c1.108-2.348,5.008-5.5,7.479-5.5a2.313,2.313,0,0,1,1.866.822,9.557,9.557,0,0,1,1.868,4.762c.248,2.2-.3,3.981-1.549,5.008a4.469,4.469,0,0,1-2.892.946m-4.682-4.618a7.126,7.126,0,0,0,4.682,2.162,2.044,2.044,0,0,0,1.329-.385,3.15,3.15,0,0,0,.67-2.784,6.293,6.293,0,0,0-1.264-3.348h-.029c-.826,0-2.774,1.054-4.249,2.644a4.045,4.045,0,0,0-1.139,1.711" transform="translate(-212.238 -150.564)" fill="#184e63"/>
    <path id="Trazado_60089" data-name="Trazado 60089" d="M559.7,342.341c-2.431,0-6.351-4.105-7.338-6.582a2.388,2.388,0,0,1,.326-2.827,7.731,7.731,0,0,1,5.084-1.8,5.429,5.429,0,0,1,4.066,1.551c2.4,2.531,1.209,7.279-.735,9.123a1.991,1.991,0,0,1-1.4.537m-5.152-7.771a11.417,11.417,0,0,0,5.019,5.29c1.069-1.225,1.7-4.207.488-5.489a3.215,3.215,0,0,0-2.283-.785,5.621,5.621,0,0,0-3.224.983" transform="translate(-233.124 -139.825)" fill="#184e63"/>
    <path id="Trazado_60090" data-name="Trazado 60090" d="M500.1,395.112A8.722,8.722,0,0,1,494,392.154a2.426,2.426,0,0,1-.109-2.719c1.015-2.106,4.6-4.928,6.883-4.928a2.249,2.249,0,0,1,1.811.815,8.71,8.71,0,0,1,1.632,4.372,5.013,5.013,0,0,1-1.514,4.584,4.109,4.109,0,0,1-2.6.834m-4.1-4.387a6.316,6.316,0,0,0,4.1,1.93,1.684,1.684,0,0,0,1.067-.3,2.83,2.83,0,0,0,.6-2.429,6.512,6.512,0,0,0-1.02-2.958c-1.475.086-4.558,2.722-4.745,3.756" transform="translate(-208.405 -162.364)" fill="#184e63"/>
    <path id="Trazado_60091" data-name="Trazado 60091" d="M489.846,412.407a6.034,6.034,0,0,1-4.117-2.326,2.137,2.137,0,0,1-.154-2.332,4.848,4.848,0,0,1,3.753-2.563,2.012,2.012,0,0,1,1.614.746c1.249,1.569,2.017,4.683.376,5.989a2.333,2.333,0,0,1-1.471.486m-2.3-3.623a3.948,3.948,0,0,0,2.3,1.394.321.321,0,0,0,.1-.01,3.5,3.5,0,0,0-.672-2.748,2.821,2.821,0,0,0-1.725,1.365" transform="translate(-204.928 -171.096)" fill="#184e63"/>
    <path id="Trazado_60092" data-name="Trazado 60092" d="M376.379,374.667h0a9.027,9.027,0,0,1-6.621-15.162L388.6,339.16a9.027,9.027,0,0,1,15.644,5.789,8.964,8.964,0,0,1-2.4,6.48L383,371.774a9.055,9.055,0,0,1-6.625,2.893m18.849-35.944a6.592,6.592,0,0,0-4.823,2.106L371.56,361.174A6.571,6.571,0,1,0,381.2,370.1l18.844-20.344a6.571,6.571,0,0,0-4.819-11.037" transform="translate(-155.121 -141.994)" fill="#184e63"/>
    <path id="Trazado_60093" data-name="Trazado 60093" d="M377.641,337.1h0a8.981,8.981,0,0,1-6.256-2.521l-8.006-7.7a9.028,9.028,0,0,1,12.514-13.015l8.006,7.7a9.028,9.028,0,0,1-6.258,15.535m-8-23.3a6.571,6.571,0,0,0-4.555,11.309l8.005,7.7a6.571,6.571,0,1,0,9.109-9.474l-8.005-7.7a6.54,6.54,0,0,0-4.553-1.834" transform="translate(-152.275 -131.474)" fill="#184e63"/>
    <path id="Trazado_60094" data-name="Trazado 60094" d="M394.938,391.583h0a9.028,9.028,0,0,1-6.621-15.163l22.173-23.938a9.027,9.027,0,0,1,15.644,5.789,8.965,8.965,0,0,1-2.4,6.48l-22.173,23.938a9.057,9.057,0,0,1-6.624,2.893m22.176-39.537a6.593,6.593,0,0,0-4.823,2.106l-22.173,23.938a6.571,6.571,0,1,0,9.642,8.931l22.173-23.938a6.571,6.571,0,0,0-4.819-11.037" transform="translate(-162.959 -147.62)" fill="#184e63"/>
    <path id="Trazado_60095" data-name="Trazado 60095" d="M419.134,409.821h0a7.885,7.885,0,0,1-5.374-2.108l-.491-.454a7.909,7.909,0,0,1-.427-11.177l14.816-16a7.909,7.909,0,0,1,11.177-.428l.49.454a7.918,7.918,0,0,1,.428,11.177l-14.816,16a7.934,7.934,0,0,1-5.8,2.535m14.329-29.813a5.4,5.4,0,0,0-4,1.747l-14.816,16a5.453,5.453,0,0,0,.3,7.706l.491.454a5.452,5.452,0,0,0,7.706-.295l14.816-16a5.46,5.46,0,0,0-.3-7.706l-.49-.454a5.435,5.435,0,0,0-3.7-1.452" transform="translate(-173.44 -159.428)" fill="#184e63"/>
    <path id="Trazado_60096" data-name="Trazado 60096" d="M436.332,424.369h0a6.26,6.26,0,0,1-4.266-1.673l-.1-.1a6.278,6.278,0,0,1-.34-8.874l11.935-12.886a6.279,6.279,0,0,1,8.875-.34l.1.1a6.278,6.278,0,0,1,.34,8.873L440.94,422.357a6.3,6.3,0,0,1-4.609,2.012m11.836-23.084a3.787,3.787,0,0,0-2.807,1.225L433.425,415.4a3.822,3.822,0,0,0,.207,5.4l.1.1a3.823,3.823,0,0,0,5.4-.206L451.074,407.8a3.822,3.822,0,0,0-.207-5.4l-.1-.1a3.811,3.811,0,0,0-2.6-1.019" transform="translate(-181.554 -168.412)" fill="#184e63"/>
    <path id="Trazado_60097" data-name="Trazado 60097" d="M409.922,354.123h0a4.378,4.378,0,0,1-2.766-.886c-1.246-.991-1.818-2.734-1.611-4.906a9.4,9.4,0,0,1,1.758-4.715,2.3,2.3,0,0,1,1.889-.846c2.452,0,6.318,3.044,7.413,5.316a2.545,2.545,0,0,1-.106,2.849,9.393,9.393,0,0,1-6.576,3.187m-.76-8.909a6.421,6.421,0,0,0-1.172,3.344c-.122,1.279.07,2.31.627,2.755a1.662,1.662,0,0,0,1.168.352h0a6.981,6.981,0,0,0,4.659-2.183,3.778,3.778,0,0,0-1.1-1.687c-1.455-1.518-3.343-2.582-4.157-2.582Z" transform="translate(-171.23 -144.741)" fill="#184e63"/>
    <path id="Trazado_60098" data-name="Trazado 60098" d="M433.863,368.1h0a4.475,4.475,0,0,1-2.892-.946c-2.671-2.2-1.663-7.364.321-9.771a2.311,2.311,0,0,1,1.866-.821c2.471,0,6.371,3.146,7.479,5.495a2.586,2.586,0,0,1-.136,2.916,9.466,9.466,0,0,1-6.636,3.126m-.735-8.974c-1.315,1.733-1.858,5.145-.6,6.185a2.048,2.048,0,0,0,1.331.359,7.135,7.135,0,0,0,4.681-2.175,4.045,4.045,0,0,0-1.138-1.718c-1.476-1.59-3.424-2.651-4.25-2.651Z" transform="translate(-181.3 -150.565)" fill="#184e63"/>
    <path id="Trazado_60099" data-name="Trazado 60099" d="M384.321,342.341h0a1.994,1.994,0,0,1-1.4-.536c-1.944-1.845-3.135-6.593-.735-9.124a5.427,5.427,0,0,1,4.066-1.551,7.731,7.731,0,0,1,5.083,1.8,2.389,2.389,0,0,1,.326,2.828c-.987,2.476-4.908,6.581-7.338,6.581m1.928-8.754a3.216,3.216,0,0,0-2.283.785c-1.216,1.282-.581,4.264.489,5.489a11.419,11.419,0,0,0,5.018-5.29,5.621,5.621,0,0,0-3.224-.983" transform="translate(-160.818 -139.825)" fill="#184e63"/>
    <path id="Trazado_60100" data-name="Trazado 60100" d="M444.2,395.112h0a4.112,4.112,0,0,1-2.6-.834,5.014,5.014,0,0,1-1.514-4.584,8.714,8.714,0,0,1,1.632-4.373,2.25,2.25,0,0,1,1.811-.814c2.279,0,5.867,2.822,6.883,4.928a2.426,2.426,0,0,1-.109,2.719,8.718,8.718,0,0,1-6.1,2.959m-.643-8.148a6.5,6.5,0,0,0-1.023,2.963,2.831,2.831,0,0,0,.6,2.429,1.689,1.689,0,0,0,1.068.3,6.317,6.317,0,0,0,4.1-1.93c-.189-1.046-3.336-3.728-4.741-3.762" transform="translate(-185.818 -162.364)" fill="#184e63"/>
    <path id="Trazado_60101" data-name="Trazado 60101" d="M457.209,412.408h0a2.331,2.331,0,0,1-1.471-.487,3.13,3.13,0,0,1-.868-3.064,6.478,6.478,0,0,1,1.245-2.924,2.011,2.011,0,0,1,1.614-.746,4.846,4.846,0,0,1,3.753,2.563,2.136,2.136,0,0,1-.154,2.332,6.04,6.04,0,0,1-4.118,2.327m-.078-2.13c.01,0,.037-.049.078-.049a4.019,4.019,0,0,0,2.3-1.419,2.769,2.769,0,0,0-1.725-1.328,3.36,3.36,0,0,0-.657,2.8Z" transform="translate(-192.049 -171.097)" fill="#184e63"/>
    <path id="Trazado_60102" data-name="Trazado 60102" d="M565.457,221.553l-2.131-.091.626-14.593-6.441,2.9-.876-1.945,9.594-4.321Z" transform="translate(-235.049 -85.933)" fill="#184e63"/>
    <path id="Trazado_60103" data-name="Trazado 60103" d="M377.637,231.479c-3.494-10.092-2.685-27.539-2.65-28.277l.075-1.537,9.782,4.221L384,207.845l-6.934-2.992c-.114,4.525-.185,17.918,2.586,25.929Z" transform="translate(-158.3 -85.157)" fill="#184e63"/>
    <path id="Trazado_60104" data-name="Trazado 60104" d="M459.171,50.255a4.339,4.339,0,0,0-5.617-2.472L443.733,51.6l-9.821-3.819a4.339,4.339,0,0,0-5.617,5.617,4.3,4.3,0,0,0,5.584,2.472l5.744-2.247v7.458a6.611,6.611,0,0,0-3.29,3.455H416.29a13.648,13.648,0,0,0-13.642,13.577V89.958h-1.733V94.58H412.47V89.958h-1.733V78.115a5.551,5.551,0,0,1,5.554-5.488h20.486a8.066,8.066,0,1,0,10.935-11.31V53.625l5.81,2.247a4.356,4.356,0,0,0,5.649-5.617" transform="translate(-169.293 -20.052)" fill="#fff"/>
    <path id="Trazado_60105" data-name="Trazado 60105" d="M406.071,238.614a1.156,1.156,0,0,1-1.155-1.155v-2.311a1.155,1.155,0,1,1,2.311,0v2.311a1.156,1.156,0,0,1-1.155,1.155m0-5.777a1.156,1.156,0,0,1-1.155-1.155v-6.933a1.155,1.155,0,1,1,2.311,0v6.933a1.156,1.156,0,0,1-1.155,1.155m0-13.866a1.156,1.156,0,0,1-1.155-1.155v-3.466a1.155,1.155,0,1,1,2.311,0v3.466a1.156,1.156,0,0,1-1.155,1.155m0-10.4a1.156,1.156,0,0,1-1.155-1.155v-6.933a1.155,1.155,0,0,1,2.311,0v6.933a1.156,1.156,0,0,1-1.155,1.155m0-10.4a1.156,1.156,0,0,1-1.155-1.155v-6.933a1.155,1.155,0,1,1,2.311,0v6.933a1.156,1.156,0,0,1-1.155,1.155m0-13.866a1.156,1.156,0,0,1-1.155-1.155v-3.466a1.155,1.155,0,1,1,2.311,0v3.466a1.156,1.156,0,0,1-1.155,1.155m0-10.4a1.156,1.156,0,0,1-1.155-1.155v-6.933a1.155,1.155,0,1,1,2.311,0v6.933a1.156,1.156,0,0,1-1.155,1.155m0-10.4a1.156,1.156,0,0,1-1.155-1.155V155.42a1.155,1.155,0,1,1,2.311,0v6.933a1.156,1.156,0,0,1-1.155,1.155m0-13.866a1.156,1.156,0,0,1-1.155-1.155v-3.466a1.155,1.155,0,1,1,2.311,0v3.466a1.156,1.156,0,0,1-1.155,1.155m0-10.4a1.156,1.156,0,0,1-1.155-1.155v-6.933a1.155,1.155,0,0,1,2.311,0v6.933a1.156,1.156,0,0,1-1.155,1.155" transform="translate(-170.983 -54.895)" fill="#184e63"/>
    <path id="Trazado_60106" data-name="Trazado 60106" d="M414.071,135.777a1.156,1.156,0,0,1-1.155-1.155v-3.466a1.155,1.155,0,0,1,2.311,0v3.466a1.156,1.156,0,0,1-1.155,1.155" transform="translate(-174.361 -54.895)" fill="#184e63"/>
    <path id="Trazado_60107" data-name="Trazado 60107" d="M414.071,164.91a1.156,1.156,0,0,1-1.155-1.155V157.4a1.155,1.155,0,1,1,2.311,0v6.355a1.156,1.156,0,0,1-1.155,1.155m0-12.71a1.156,1.156,0,0,1-1.155-1.155v-2.889a1.155,1.155,0,1,1,2.311,0v2.889a1.156,1.156,0,0,1-1.155,1.155" transform="translate(-174.361 -62.073)" fill="#184e63"/>
    <path id="Trazado_60108" data-name="Trazado 60108" d="M414.071,239.24a1.156,1.156,0,0,1-1.155-1.155v-5.777a1.155,1.155,0,0,1,2.311,0v5.777a1.156,1.156,0,0,1-1.155,1.155m0-12.132a1.156,1.156,0,0,1-1.155-1.155v-2.889a1.155,1.155,0,0,1,2.311,0v2.889a1.156,1.156,0,0,1-1.155,1.155m0-9.244a1.156,1.156,0,0,1-1.155-1.155v-6.355a1.155,1.155,0,1,1,2.311,0v6.355a1.156,1.156,0,0,1-1.155,1.155m0-9.244a1.156,1.156,0,0,1-1.155-1.155v-6.355a1.155,1.155,0,0,1,2.311,0v6.355a1.156,1.156,0,0,1-1.155,1.155m0-12.71a1.156,1.156,0,0,1-1.155-1.155v-2.889a1.155,1.155,0,1,1,2.311,0v2.889a1.156,1.156,0,0,1-1.155,1.155m0-9.244a1.156,1.156,0,0,1-1.155-1.155v-6.355a1.155,1.155,0,1,1,2.311,0v6.355a1.156,1.156,0,0,1-1.155,1.155" transform="translate(-174.361 -75.163)" fill="#184e63"/>
    <path id="Trazado_60109" data-name="Trazado 60109" d="M414.071,288.777a1.156,1.156,0,0,1-1.155-1.155v-3.466a1.155,1.155,0,1,1,2.311,0v3.466a1.156,1.156,0,0,1-1.155,1.155" transform="translate(-174.361 -119.501)" fill="#184e63"/>
    <path id="Trazado_60110" data-name="Trazado 60110" d="M195.923,498.2h-.165c-4.357,0-12.252-3.961-18.107-7.27-3.774-2.132-6.811-4.035-8.286-4.993-4.035-2.617-4.035-2.777-4.031-3.49l.006-1.217.872-.122C169.532,478.971,188.3,467,196,467h.082c8.559.578,15.449,7.2,15.36,15.759A15.637,15.637,0,0,1,195.923,498.2m-27.247-15.6c4.694,3.274,20.954,13.287,27.107,13.287h.14a13.082,13.082,0,0,0,.132-26.163c-5.629,0-19.615,7.958-27.379,12.877" transform="translate(-69.815 -197.199)" fill="#9dd12c"/>
    <rect id="Rectángulo_25374" data-name="Rectángulo 25374" width="2.457" height="40.124" transform="translate(108.748 286.547) rotate(-89.404)" fill="#9dd12c"/>
    <rect id="Rectángulo_25375" data-name="Rectángulo 25375" width="14.315" height="2.456" transform="translate(116.356 295.703) rotate(-53.068)" fill="#9dd12c"/>
    <rect id="Rectángulo_25376" data-name="Rectángulo 25376" width="2.456" height="9.765" transform="translate(110.21 278.066) rotate(-37.45)" fill="#9dd12c"/>
    <rect id="Rectángulo_25377" data-name="Rectángulo 25377" width="2.457" height="16.87" transform="matrix(0.826, -0.564, 0.564, 0.826, 123.603, 272.466)" fill="#9dd12c"/>
    <path id="Trazado_60111" data-name="Trazado 60111" d="M758.925,66.64h-.077A15.352,15.352,0,0,1,743.4,51.194c.021-4.357,3.932-12.249,7.21-18.122,2.112-3.785,4.018-6.687,4.966-8.167,2.6-4.05,2.765-3.9,3.477-3.9h.511l.31.46v.153c2.311,3.338,14.4,22.01,14.361,29.683A15.289,15.289,0,0,1,758.925,66.64m.036-42.565c-3.247,4.713-13.073,21.029-13.1,27.181a13.018,13.018,0,0,0,13,13.073h.065a13.068,13.068,0,0,0,13.063-12.974c.027-5.532-8.042-19.5-13.027-27.279" transform="translate(-313.913 -8.867)" fill="#184e63"/>
    <rect id="Rectángulo_25378" data-name="Rectángulo 25378" width="40.124" height="2.457" transform="matrix(0.005, -1, 1, 0.005, 443.726, 65.225)" fill="#184e63"/>
    <rect id="Rectángulo_25379" data-name="Rectángulo 25379" width="2.456" height="14.315" transform="translate(433.343 34.734) rotate(-53.398)" fill="#184e63"/>
    <rect id="Rectángulo_25380" data-name="Rectángulo 25380" width="9.766" height="2.456" transform="matrix(0.791, -0.612, 0.612, 0.791, 444.692, 32.498)" fill="#184e63"/>
    <rect id="Rectángulo_25381" data-name="Rectángulo 25381" width="16.87" height="2.457" transform="matrix(0.823, -0.569, 0.569, 0.823, 444.209, 49.473)" fill="#184e63"/>
    <path id="Trazado_60112" data-name="Trazado 60112" d="M344.461,58.139A16.858,16.858,0,1,0,315.136,69.48a23.305,23.305,0,0,1,6.07,14.227l.434,6.943h11.928l.439-7.007a23.447,23.447,0,0,1,6.116-14.218,16.786,16.786,0,0,0,4.339-11.287" transform="translate(-131.218 -17.432)" fill="#9dd12c"/>
    <path id="Trazado_60113" data-name="Trazado 60113" d="M340.983,127.064H328.7a1.228,1.228,0,1,1,0-2.457h12.279a1.228,1.228,0,1,1,0,2.457" transform="translate(-138.282 -52.617)" fill="#184e63"/>
    <path id="Trazado_60114" data-name="Trazado 60114" d="M340.983,133.957H328.7a1.228,1.228,0,1,1,0-2.457h12.279a1.228,1.228,0,1,1,0,2.457" transform="translate(-138.282 -55.528)" fill="#184e63"/>
    <path id="Trazado_60115" data-name="Trazado 60115" d="M340.983,141.851H328.7a1.228,1.228,0,1,1,0-2.457h12.279a1.228,1.228,0,1,1,0,2.457" transform="translate(-138.282 -58.861)" fill="#184e63"/>
    <path id="Trazado_60116" data-name="Trazado 60116" d="M336.9,153.259h0a4.3,4.3,0,0,1-4.295-4.3v-3.038h8.59v3.038a4.3,4.3,0,0,1-4.295,4.3" transform="translate(-140.449 -61.62)" fill="#184e63"/>
    <path id="Trazado_60117" data-name="Trazado 60117" d="M339.008,22.916a1.228,1.228,0,0,1-1.228-1.228V14.2a1.228,1.228,0,0,1,2.457,0v7.489a1.228,1.228,0,0,1-1.228,1.228" transform="translate(-142.633 -5.477)" fill="#184e63"/>
    <path id="Trazado_60118" data-name="Trazado 60118" d="M361.259,28.839a1.229,1.229,0,0,1-1.054-1.857l3.83-6.435a1.228,1.228,0,1,1,2.111,1.257l-3.83,6.435a1.228,1.228,0,0,1-1.057.6" transform="translate(-152.029 -8.423)" fill="#184e63"/>
    <path id="Trazado_60119" data-name="Trazado 60119" d="M377.747,46.741a1.228,1.228,0,0,1-.587-2.308l6.582-3.572a1.228,1.228,0,1,1,1.172,2.159l-6.582,3.572a1.222,1.222,0,0,1-.585.149" transform="translate(-158.991 -17.192)" fill="#184e63"/>
    <path id="Trazado_60120" data-name="Trazado 60120" d="M391.313,71.663h-.05l-7.483-.3a1.228,1.228,0,1,1,.1-2.455l7.483.3a1.228,1.228,0,0,1-.048,2.455" transform="translate(-161.56 -29.098)" fill="#184e63"/>
    <path id="Trazado_60121" data-name="Trazado 60121" d="M384.075,97.479a1.222,1.222,0,0,1-.668-.2L377.129,93.2a1.228,1.228,0,0,1,1.339-2.06l6.279,4.082a1.229,1.229,0,0,1-.671,2.258" transform="translate(-159.013 -38.401)" fill="#184e63"/>
    <path id="Trazado_60122" data-name="Trazado 60122" d="M364.657,115.961a1.228,1.228,0,0,1-1.1-.685l-3.308-6.719a1.228,1.228,0,1,1,2.2-1.085l3.308,6.719a1.228,1.228,0,0,1-.56,1.644,1.21,1.21,0,0,1-.541.127" transform="translate(-152.067 -45.092)" fill="#184e63"/>
    <path id="Trazado_60123" data-name="Trazado 60123" d="M314.165,28.839a1.228,1.228,0,0,1-1.057-.6l-3.83-6.435a1.228,1.228,0,1,1,2.111-1.257l3.83,6.435a1.229,1.229,0,0,1-1.054,1.857" transform="translate(-130.525 -8.423)" fill="#184e63"/>
    <path id="Trazado_60124" data-name="Trazado 60124" d="M295.665,46.741a1.222,1.222,0,0,1-.585-.149L288.5,43.02a1.228,1.228,0,1,1,1.172-2.159l6.582,3.572a1.228,1.228,0,0,1-.587,2.308" transform="translate(-121.552 -17.191)" fill="#184e63"/>
    <path id="Trazado_60125" data-name="Trazado 60125" d="M281.44,71.663a1.228,1.228,0,0,1-.048-2.455l7.483-.3a1.228,1.228,0,1,1,.1,2.455l-7.483.3h-.05" transform="translate(-118.324 -29.098)" fill="#184e63"/>
    <path id="Trazado_60126" data-name="Trazado 60126" d="M289.558,97.479a1.229,1.229,0,0,1-.671-2.258l6.279-4.082a1.228,1.228,0,1,1,1.339,2.06l-6.278,4.082a1.222,1.222,0,0,1-.668.2" transform="translate(-121.752 -38.401)" fill="#184e63"/>
    <path id="Trazado_60127" data-name="Trazado 60127" d="M311.148,115.961a1.211,1.211,0,0,1-.542-.127,1.228,1.228,0,0,1-.56-1.644l3.308-6.719a1.228,1.228,0,1,1,2.2,1.085l-3.308,6.719a1.228,1.228,0,0,1-1.1.685" transform="translate(-130.869 -45.092)" fill="#184e63"/>
    <path id="Trazado_60128" data-name="Trazado 60128" d="M333.247,78.919a9.413,9.413,0,0,1-9.433-9.2c0-4.5,6.992-15.419,8.147-17.443v-.579l1.064-.011c.467,0,.693,0,2.235,2.433.552.871,1.719,2.665,2.947,4.891,1.91,3.464,4.216,8.132,4.216,10.709a9.191,9.191,0,0,1-9.176,9.2m.055-24.971c-2.944,4.559-7.6,12.584-7.6,15.766a7.548,7.548,0,0,0,15.1,0c0-3.461-5.532-12.835-7.493-15.766" transform="translate(-136.736 -21.823)" fill="#184e63"/>
    <rect id="Rectángulo_25382" data-name="Rectángulo 25382" width="1.733" height="34.664" transform="translate(195.225 38.13)" fill="#184e63"/>
    <rect id="Rectángulo_25383" data-name="Rectángulo 25383" width="7.564" height="1.657" transform="translate(196.376 50.707) rotate(-36.579)" fill="#184e63"/>
    <rect id="Rectángulo_25384" data-name="Rectángulo 25384" width="1.657" height="5.723" transform="matrix(0.616, -0.788, 0.788, 0.616, 191.265, 43.216)" fill="#184e63"/>
    <path id="Trazado_60129" data-name="Trazado 60129" d="M801.967,256.3a22.2,22.2,0,0,1-6.7-.994l-1.225-.424.489-1.2a22.153,22.153,0,0,1,10.42-10.815,59.67,59.67,0,0,1,10.01-3.122l.579,2.388a58.306,58.306,0,0,0-9.563,2.966,19.507,19.507,0,0,0-8.54,8.243,19.331,19.331,0,0,0,11.856-1.025l1.025,2.232a19.962,19.962,0,0,1-8.351,1.751" transform="translate(-335.297 -101.235)" fill="#184e63"/>
  </g>
</svg>
