<svg xmlns="http://www.w3.org/2000/svg" xmlns:xlink="http://www.w3.org/1999/xlink" width="762" height="421.474" viewBox="0 0 762 421.474">
  <defs>
    <clipPath id="clip-path">
      <path id="Trazado_60902" data-name="Trazado 60902" d="M54.881,0V15.9H0V41.946H54.881v15.9L90.495,28.921Z" transform="translate(0 0)" fill="#e7b42c"/>
    </clipPath>
    <linearGradient id="linear-gradient" x1="0.006" y1="0.743" x2="0.937" y2="0.374" gradientUnits="objectBoundingBox">
      <stop offset="0" stop-color="#e08051"/>
      <stop offset="0.04" stop-color="#e1874c"/>
      <stop offset="0.21" stop-color="#e49b3d"/>
      <stop offset="0.41" stop-color="#e6aa33"/>
      <stop offset="0.63" stop-color="#e7b22d"/>
      <stop offset="1" stop-color="#e7b52b"/>
    </linearGradient>
    <linearGradient id="linear-gradient-2" x1="0.682" y1="0.942" x2="0.219" y2="0.09" gradientUnits="objectBoundingBox">
      <stop offset="0" stop-color="#2d8bbd"/>
      <stop offset="1" stop-color="#5eacb3"/>
    </linearGradient>
    <linearGradient id="linear-gradient-3" x1="0.15" y1="0.868" x2="0.836" y2="0.145" gradientUnits="objectBoundingBox">
      <stop offset="0" stop-color="#e08051"/>
      <stop offset="0.08" stop-color="#dc775f"/>
      <stop offset="0.24" stop-color="#d76a73"/>
      <stop offset="0.41" stop-color="#d46181"/>
      <stop offset="0.63" stop-color="#d25c8a"/>
      <stop offset="0.99" stop-color="#d15a8c"/>
      <stop offset="1" stop-color="#d15a8c"/>
    </linearGradient>
    <clipPath id="clip-path-2">
      <path id="Trazado_60902-2" data-name="Trazado 60902" d="M17.739,0V7.281H0V19.212H17.739v7.281L29.251,13.247Z" transform="translate(0 0)" fill="#d25b8b"/>
    </clipPath>
  </defs>
  <g id="Grupo_25673" data-name="Grupo 25673" transform="translate(-250 -2560.965)">
    <path id="Trazado_64900" data-name="Trazado 64900" d="M294.778,8.211a1.389,1.389,0,0,1,1.02-.422,1.4,1.4,0,0,1,1.024.422,1.438,1.438,0,0,1,0,2.043,1.411,1.411,0,0,1-1.024.417,1.433,1.433,0,0,1-1.433-1.441A1.4,1.4,0,0,1,294.778,8.211Zm2.074,3.674v.949a2.1,2.1,0,0,1-.215.984,1.969,1.969,0,0,1-.558.672,6.162,6.162,0,0,1-.94.558,1.9,1.9,0,0,0-1.09,1.846,1.7,1.7,0,0,0,1.819,1.863,1.8,1.8,0,0,0,1.327-.5,1.756,1.756,0,0,0,.5-1.305,3.452,3.452,0,0,0-.105-.773l2.268.29a5.8,5.8,0,0,1,.044.659,3.507,3.507,0,0,1-1.107,2.681A4.059,4.059,0,0,1,295.9,20.85a4.179,4.179,0,0,1-2.944-1.059,3.665,3.665,0,0,1-1.151-2.834,4.182,4.182,0,0,1,.193-1.31,2.969,2.969,0,0,1,.527-.989,3.613,3.613,0,0,1,.708-.659,3.764,3.764,0,0,1,.813-.426,1.371,1.371,0,0,0,.58-.391.955.955,0,0,0,.185-.611v-.686Zm17.982,5.643-2.2.835-1.626-1.828a7.2,7.2,0,0,1-3.059.642,7.043,7.043,0,0,1-3.371-.8,5.823,5.823,0,0,1-2.347-2.29,6.8,6.8,0,0,1-.857-3.445,6.8,6.8,0,0,1,.857-3.45,5.808,5.808,0,0,1,2.342-2.281,7.6,7.6,0,0,1,6.75,0A5.808,5.808,0,0,1,313.67,7.2a6.8,6.8,0,0,1,.857,3.45,6.394,6.394,0,0,1-1.687,4.579Zm-10.828-6.882a4.247,4.247,0,0,0,1.107,3.107,4.133,4.133,0,0,0,5.678,0,4.247,4.247,0,0,0,1.107-3.107,4.02,4.02,0,0,0-1.116-2.988,4.17,4.17,0,0,0-5.66,0A4.02,4.02,0,0,0,304.007,10.646Zm18.729-2.681h2.531V17h-2.4l-.062-1.09a3.45,3.45,0,0,1-2.874,1.266,3.522,3.522,0,0,1-2.5-.813,3.014,3.014,0,0,1-.87-2.316V7.965h2.54V13.5a1.562,1.562,0,0,0,.453,1.239,1.718,1.718,0,0,0,1.173.4,2.038,2.038,0,0,0,1.437-.514,2.209,2.209,0,0,0,.567-1.674Zm6.442-1.354a1.421,1.421,0,0,1-1.037-.426,1.4,1.4,0,0,1-.431-1.033,1.382,1.382,0,0,1,.435-1.024,1.425,1.425,0,0,1,1.033-.426,1.463,1.463,0,0,1,1.45,1.45,1.463,1.463,0,0,1-1.45,1.459ZM327.887,17V7.965h2.549V17ZM339.928,4.344l-2,2.355h-1.556l2.3-3.234Zm1.626,8.007-.026.606h-6.7a2.339,2.339,0,0,0,.721,1.652,2.3,2.3,0,0,0,1.591.571,2.221,2.221,0,0,0,1.191-.312,1.918,1.918,0,0,0,.76-.91l2.32.343a3.945,3.945,0,0,1-1.582,2.118,4.7,4.7,0,0,1-2.672.756,4.891,4.891,0,0,1-3.52-1.244,4.538,4.538,0,0,1-1.305-3.45,4.565,4.565,0,0,1,1.31-3.45,4.746,4.746,0,0,1,3.437-1.261,4.536,4.536,0,0,1,3.243,1.151A4.517,4.517,0,0,1,341.554,12.351ZM337.1,9.564a2,2,0,0,0-2.2,1.74h4.148a1.9,1.9,0,0,0-.624-1.292A1.978,1.978,0,0,0,337.1,9.564Zm11.716-1.775a3.522,3.522,0,0,1,2.5.813,3.014,3.014,0,0,1,.87,2.316V17h-2.54V11.463a1.574,1.574,0,0,0-.453-1.248,1.705,1.705,0,0,0-1.165-.4,2.379,2.379,0,0,0-.756.114,1.942,1.942,0,0,0-.633.356,1.573,1.573,0,0,0-.453.681,3.15,3.15,0,0,0-.171,1.046V17h-2.531V7.965h2.531v1A3.481,3.481,0,0,1,348.813,7.789Zm14.317,4.562-.026.606h-6.7a2.339,2.339,0,0,0,.721,1.652,2.3,2.3,0,0,0,1.591.571,2.221,2.221,0,0,0,1.191-.312,1.918,1.918,0,0,0,.76-.91l2.32.343a3.945,3.945,0,0,1-1.582,2.118,4.7,4.7,0,0,1-2.672.756,4.891,4.891,0,0,1-3.52-1.244,4.538,4.538,0,0,1-1.305-3.45,4.565,4.565,0,0,1,1.31-3.45,4.746,4.746,0,0,1,3.437-1.261A4.536,4.536,0,0,1,361.9,8.923,4.517,4.517,0,0,1,363.131,12.351Zm-4.456-2.786a2,2,0,0,0-2.2,1.74h4.148A1.9,1.9,0,0,0,360,10.013,1.978,1.978,0,0,0,358.675,9.564Zm9.563,7.611a5.049,5.049,0,0,1-2.637-.633,2.675,2.675,0,0,1-1.292-1.881l2.118-.6a1.7,1.7,0,0,0,1.811,1.345,1.87,1.87,0,0,0,.923-.207.719.719,0,0,0,.36-.7.739.739,0,0,0-.149-.466,1.183,1.183,0,0,0-.461-.334,5.749,5.749,0,0,0-.615-.237q-.3-.1-.8-.233t-.835-.259a5.593,5.593,0,0,1-.8-.338,3.393,3.393,0,0,1-.659-.466,1.878,1.878,0,0,1-.492-.708,2.552,2.552,0,0,1-.171-.967,2.308,2.308,0,0,1,.98-2.021,4.379,4.379,0,0,1,2.562-.686,4.489,4.489,0,0,1,2.364.58,2.625,2.625,0,0,1,1.213,1.811l-1.96.439a1.535,1.535,0,0,0-1.608-1.143,1.761,1.761,0,0,0-.888.2.649.649,0,0,0-.352.6.685.685,0,0,0,.053.272.539.539,0,0,0,.185.22,2.692,2.692,0,0,0,.255.167,1.923,1.923,0,0,0,.36.145q.237.075.4.114l.461.119.47.123q.483.132.848.264a4.967,4.967,0,0,1,.778.369,2.792,2.792,0,0,1,.681.532,2.372,2.372,0,0,1,.444.747,2.759,2.759,0,0,1,.176,1.006,2.718,2.718,0,0,1-.3,1.31,2.276,2.276,0,0,1-.831.883,4.043,4.043,0,0,1-1.173.475A6.087,6.087,0,0,1,368.237,17.176Zm15.68-9.387a3.207,3.207,0,0,1,2.386.857,3.448,3.448,0,0,1,.848,2.527V17h-2.54V11.586a1.77,1.77,0,0,0-.448-1.349,1.684,1.684,0,0,0-1.2-.417,2.309,2.309,0,0,0-.708.105,2.024,2.024,0,0,0-.628.338,1.53,1.53,0,0,0-.47.681,3.129,3.129,0,0,0-.18,1.072V17H378.45V3.5h2.531V9.046A3.576,3.576,0,0,1,383.917,7.789Zm6.961-1.178a1.421,1.421,0,0,1-1.037-.426,1.4,1.4,0,0,1-.431-1.033,1.382,1.382,0,0,1,.435-1.024,1.425,1.425,0,0,1,1.033-.426,1.463,1.463,0,0,1,1.45,1.45,1.463,1.463,0,0,1-1.45,1.459ZM389.586,17V7.965h2.549V17Zm9.255.167a4.827,4.827,0,0,1-3.489-1.3A4.493,4.493,0,0,1,394,12.474a4.483,4.483,0,0,1,1.349-3.393,5.364,5.364,0,0,1,6.42-.422,3.885,3.885,0,0,1,1.512,2.452l-2.338.255a2,2,0,0,0-.756-1.187,2.3,2.3,0,0,0-1.371-.4,2.072,2.072,0,0,0-1.652.738,2.894,2.894,0,0,0-.633,1.951,2.9,2.9,0,0,0,.633,1.947,2.067,2.067,0,0,0,1.652.743,2.278,2.278,0,0,0,1.367-.4,2.05,2.05,0,0,0,.76-1.187l2.338.255a3.9,3.9,0,0,1-1.525,2.452A4.8,4.8,0,0,1,398.841,17.167Zm7.532-10.556a1.421,1.421,0,0,1-1.037-.426,1.4,1.4,0,0,1-.431-1.033,1.382,1.382,0,0,1,.435-1.024,1.425,1.425,0,0,1,1.033-.426,1.463,1.463,0,0,1,1.45,1.45,1.463,1.463,0,0,1-1.45,1.459ZM405.081,17V7.965h2.549V17Zm13.667-4.649-.026.606h-6.7a2.339,2.339,0,0,0,.721,1.652,2.3,2.3,0,0,0,1.591.571,2.221,2.221,0,0,0,1.191-.312,1.918,1.918,0,0,0,.76-.91l2.32.343a3.945,3.945,0,0,1-1.582,2.118,4.7,4.7,0,0,1-2.672.756,4.891,4.891,0,0,1-3.52-1.244,4.538,4.538,0,0,1-1.305-3.45,4.565,4.565,0,0,1,1.31-3.45,4.746,4.746,0,0,1,3.437-1.261,4.536,4.536,0,0,1,3.243,1.151A4.517,4.517,0,0,1,418.748,12.351Zm-4.456-2.786a2,2,0,0,0-2.2,1.74h4.148a1.9,1.9,0,0,0-.624-1.292A1.978,1.978,0,0,0,414.292,9.564ZM423.1,9.4a2.933,2.933,0,0,1,1.187-1.085,3.62,3.62,0,0,1,1.767-.453v2.259a3.423,3.423,0,0,0-2.162.545,2.379,2.379,0,0,0-.668,1.934V17h-2.549V7.965H423.1Zm8.6,7.778a5.681,5.681,0,0,1-2.558-.554A4.138,4.138,0,0,1,427.383,15a4.846,4.846,0,0,1-.637-2.522,4.42,4.42,0,0,1,1.371-3.428,5.731,5.731,0,0,1,7.163,0,4.42,4.42,0,0,1,1.371,3.428,4.444,4.444,0,0,1-1.371,3.441A5.088,5.088,0,0,1,431.694,17.176Zm-.026-2.013a2.319,2.319,0,0,0,1.789-.738,2.764,2.764,0,0,0,.681-1.951,2.764,2.764,0,0,0-.681-1.951,2.319,2.319,0,0,0-1.789-.738,2.234,2.234,0,0,0-1.736.743,2.789,2.789,0,0,0-.672,1.947,2.789,2.789,0,0,0,.672,1.947A2.234,2.234,0,0,0,431.668,15.163Zm12.2-7.374a3.522,3.522,0,0,1,2.5.813,3.014,3.014,0,0,1,.87,2.316V17h-2.54V11.463a1.574,1.574,0,0,0-.453-1.248,1.705,1.705,0,0,0-1.165-.4,2.379,2.379,0,0,0-.756.114,1.942,1.942,0,0,0-.633.356,1.573,1.573,0,0,0-.453.681,3.15,3.15,0,0,0-.171,1.046V17h-2.531V7.965h2.531v1A3.481,3.481,0,0,1,443.867,7.789Zm15.794,0a4.394,4.394,0,0,1,1.688.325,4.223,4.223,0,0,1,1.384.914,4.135,4.135,0,0,1,.936,1.49,5.531,5.531,0,0,1,.343,1.982,5.531,5.531,0,0,1-.343,1.982,4.135,4.135,0,0,1-.936,1.49,4.223,4.223,0,0,1-1.384.914,4.394,4.394,0,0,1-1.687.325,3.921,3.921,0,0,1-1.635-.334,2.562,2.562,0,0,1-1.134-.949v5.467h-2.531V7.965h2.4l.07,1.213a2.475,2.475,0,0,1,1.129-1.024A3.881,3.881,0,0,1,459.661,7.789Zm-.571,7.321A2.274,2.274,0,0,0,460.8,14.4a2.628,2.628,0,0,0,.681-1.9,2.628,2.628,0,0,0-.681-1.9,2.419,2.419,0,0,0-3.432.013,2.629,2.629,0,0,0-.686,1.89,2.629,2.629,0,0,0,.686,1.89A2.278,2.278,0,0,0,459.09,15.11Zm14.238-.562a8.453,8.453,0,0,0,.22,2.206V17h-2.364l-.2-.984a2.938,2.938,0,0,1-1.266.87,4.664,4.664,0,0,1-1.635.29,4.3,4.3,0,0,1-.844-.079,2.868,2.868,0,0,1-.76-.268,2.307,2.307,0,0,1-.628-.47,2.062,2.062,0,0,1-.422-.716,2.853,2.853,0,0,1-.158-.98,2.718,2.718,0,0,1,.167-.98,2.3,2.3,0,0,1,.439-.734,2.666,2.666,0,0,1,.712-.536,5.447,5.447,0,0,1,.9-.387,10.712,10.712,0,0,1,1.072-.281l1.485-.334a1.638,1.638,0,0,0,.672-.286.57.57,0,0,0,.2-.453.932.932,0,0,0-.444-.87,2.072,2.072,0,0,0-1.077-.264,1.549,1.549,0,0,0-1.767,1.38l-2.241-.4a3.034,3.034,0,0,1,1.31-2.061,5.2,5.2,0,0,1,2.839-.664q3.8,0,3.8,3.261Zm-4.456.914a2.036,2.036,0,0,0,1.564-.655,2.759,2.759,0,0,0,.606-1.938l-2.145.606a2.534,2.534,0,0,0-.9.369.758.758,0,0,0-.312.65.842.842,0,0,0,.334.716A1.382,1.382,0,0,0,468.872,15.462ZM478.215,9.4A2.933,2.933,0,0,1,479.4,8.312a3.62,3.62,0,0,1,1.767-.453v2.259a3.423,3.423,0,0,0-2.162.545,2.379,2.379,0,0,0-.668,1.934V17h-2.549V7.965h2.426Zm8.323,7.6a2.729,2.729,0,0,1-2.039-.734,2.854,2.854,0,0,1-.721-2.087V9.907H482V7.965h.571a1.491,1.491,0,0,0,1.125-.378,1.946,1.946,0,0,0,.36-1.345v-1.2h2.285V7.965h1.863V9.907h-1.863v4q0,1.169,1.046,1.169h.817V17Zm12.094-4.649-.026.606h-6.7a2.339,2.339,0,0,0,.721,1.652,2.3,2.3,0,0,0,1.591.571,2.221,2.221,0,0,0,1.191-.312,1.918,1.918,0,0,0,.76-.91l2.32.343a3.945,3.945,0,0,1-1.582,2.118,4.7,4.7,0,0,1-2.672.756,4.891,4.891,0,0,1-3.52-1.244,4.538,4.538,0,0,1-1.305-3.45,4.565,4.565,0,0,1,1.31-3.45,4.746,4.746,0,0,1,3.437-1.261A4.536,4.536,0,0,1,497.4,8.923,4.517,4.517,0,0,1,498.632,12.351Zm-4.456-2.786a2,2,0,0,0-2.2,1.74h4.148a1.9,1.9,0,0,0-.624-1.292A1.978,1.978,0,0,0,494.176,9.564ZM511.64,3.5h2.531V17h-2.4l-.062-1.178a2.58,2.58,0,0,1-1.147,1.024,3.861,3.861,0,0,1-1.692.365,4.394,4.394,0,0,1-1.687-.325,4.064,4.064,0,0,1-2.32-2.408,5.5,5.5,0,0,1-.343-1.978,5.137,5.137,0,0,1,.6-2.518A4.1,4.1,0,0,1,506.7,8.343a4.345,4.345,0,0,1,2.175-.554,3.957,3.957,0,0,1,1.639.33,2.559,2.559,0,0,1,1.129.936Zm-2.188,11.61a2.253,2.253,0,0,0,1.709-.721,2.638,2.638,0,0,0,.681-1.89,2.644,2.644,0,0,0-.686-1.894,2.251,2.251,0,0,0-1.705-.725,2.277,2.277,0,0,0-1.718.712,2.644,2.644,0,0,0-.681,1.907,2.631,2.631,0,0,0,.681,1.9A2.277,2.277,0,0,0,509.451,15.11Zm15.838-2.76-.026.606h-6.7a2.339,2.339,0,0,0,.721,1.652,2.3,2.3,0,0,0,1.591.571,2.221,2.221,0,0,0,1.191-.312,1.918,1.918,0,0,0,.76-.91l2.32.343a3.945,3.945,0,0,1-1.582,2.118,4.7,4.7,0,0,1-2.672.756,4.891,4.891,0,0,1-3.52-1.244,4.538,4.538,0,0,1-1.305-3.45,4.565,4.565,0,0,1,1.31-3.45,4.746,4.746,0,0,1,3.437-1.261,4.536,4.536,0,0,1,3.243,1.151A4.517,4.517,0,0,1,525.289,12.351Zm-4.456-2.786a2,2,0,0,0-2.2,1.74h4.148a1.9,1.9,0,0,0-.624-1.292A1.978,1.978,0,0,0,520.833,9.564Zm14.238,7.611a5.049,5.049,0,0,1-2.637-.633,2.675,2.675,0,0,1-1.292-1.881l2.118-.6a1.7,1.7,0,0,0,1.811,1.345,1.87,1.87,0,0,0,.923-.207.719.719,0,0,0,.36-.7.739.739,0,0,0-.149-.466,1.183,1.183,0,0,0-.461-.334,5.749,5.749,0,0,0-.615-.237q-.3-.1-.8-.233t-.835-.259a5.593,5.593,0,0,1-.8-.338,3.393,3.393,0,0,1-.659-.466,1.878,1.878,0,0,1-.492-.708,2.552,2.552,0,0,1-.171-.967,2.308,2.308,0,0,1,.98-2.021,4.379,4.379,0,0,1,2.562-.686,4.489,4.489,0,0,1,2.364.58,2.625,2.625,0,0,1,1.213,1.811l-1.96.439a1.535,1.535,0,0,0-1.608-1.143,1.761,1.761,0,0,0-.888.2.649.649,0,0,0-.352.6.685.685,0,0,0,.053.272.539.539,0,0,0,.185.22,2.692,2.692,0,0,0,.255.167,1.923,1.923,0,0,0,.36.145q.237.075.4.114l.461.119.47.123q.483.132.848.264a4.967,4.967,0,0,1,.778.369,2.792,2.792,0,0,1,.681.532,2.372,2.372,0,0,1,.444.747,2.759,2.759,0,0,1,.176,1.006,2.718,2.718,0,0,1-.3,1.31,2.276,2.276,0,0,1-.831.883,4.043,4.043,0,0,1-1.173.475A6.087,6.087,0,0,1,535.071,17.176Zm11.522-9.211h2.531V17h-2.4l-.062-1.09a3.45,3.45,0,0,1-2.874,1.266,3.522,3.522,0,0,1-2.5-.813,3.014,3.014,0,0,1-.87-2.316V7.965h2.54V13.5a1.562,1.562,0,0,0,.453,1.239,1.718,1.718,0,0,0,1.173.4,2.038,2.038,0,0,0,1.437-.514,2.209,2.209,0,0,0,.567-1.674Zm13.913,9.2a4.827,4.827,0,0,1-3.489-1.3,4.493,4.493,0,0,1-1.354-3.393,4.483,4.483,0,0,1,1.349-3.393,5.364,5.364,0,0,1,6.42-.422,3.885,3.885,0,0,1,1.512,2.452l-2.338.255a2,2,0,0,0-.756-1.187,2.3,2.3,0,0,0-1.371-.4,2.072,2.072,0,0,0-1.652.738,2.894,2.894,0,0,0-.633,1.951,2.9,2.9,0,0,0,.633,1.947,2.067,2.067,0,0,0,1.652.743,2.278,2.278,0,0,0,1.367-.4,2.05,2.05,0,0,0,.76-1.187l2.338.255a3.9,3.9,0,0,1-1.525,2.452A4.8,4.8,0,0,1,560.507,17.167Zm10.45.009a5.681,5.681,0,0,1-2.558-.554A4.138,4.138,0,0,1,566.646,15a4.846,4.846,0,0,1-.637-2.522,4.42,4.42,0,0,1,1.371-3.428,5.731,5.731,0,0,1,7.163,0,4.42,4.42,0,0,1,1.371,3.428,4.444,4.444,0,0,1-1.371,3.441A5.088,5.088,0,0,1,570.957,17.176Zm-.026-2.013a2.319,2.319,0,0,0,1.789-.738,2.764,2.764,0,0,0,.681-1.951,2.764,2.764,0,0,0-.681-1.951,2.319,2.319,0,0,0-1.789-.738,2.234,2.234,0,0,0-1.736.743,2.789,2.789,0,0,0-.672,1.947,2.789,2.789,0,0,0,.672,1.947A2.234,2.234,0,0,0,570.931,15.163Zm12.2-7.374a3.522,3.522,0,0,1,2.5.813,3.014,3.014,0,0,1,.87,2.316V17h-2.54V11.463a1.574,1.574,0,0,0-.453-1.248,1.705,1.705,0,0,0-1.165-.4,2.379,2.379,0,0,0-.756.114,1.942,1.942,0,0,0-.633.356,1.573,1.573,0,0,0-.453.681,3.15,3.15,0,0,0-.171,1.046V17h-2.531V7.965h2.531v1A3.481,3.481,0,0,1,583.13,7.789Zm9,9.387a5.049,5.049,0,0,1-2.637-.633,2.675,2.675,0,0,1-1.292-1.881l2.118-.6a1.7,1.7,0,0,0,1.811,1.345,1.87,1.87,0,0,0,.923-.207.719.719,0,0,0,.36-.7.739.739,0,0,0-.149-.466,1.183,1.183,0,0,0-.461-.334,5.749,5.749,0,0,0-.615-.237q-.3-.1-.8-.233t-.835-.259a5.593,5.593,0,0,1-.8-.338,3.393,3.393,0,0,1-.659-.466,1.878,1.878,0,0,1-.492-.708,2.552,2.552,0,0,1-.171-.967,2.308,2.308,0,0,1,.98-2.021,4.379,4.379,0,0,1,2.562-.686,4.489,4.489,0,0,1,2.364.58,2.625,2.625,0,0,1,1.213,1.811l-1.96.439a1.535,1.535,0,0,0-1.608-1.143,1.761,1.761,0,0,0-.888.2.649.649,0,0,0-.352.6.685.685,0,0,0,.053.272.539.539,0,0,0,.185.22,2.692,2.692,0,0,0,.255.167,1.923,1.923,0,0,0,.36.145q.237.075.4.114l.461.119.47.123q.483.132.848.264a4.967,4.967,0,0,1,.778.369,2.792,2.792,0,0,1,.681.532,2.372,2.372,0,0,1,.444.747,2.759,2.759,0,0,1,.176,1.006,2.718,2.718,0,0,1-.3,1.31,2.276,2.276,0,0,1-.831.883,4.043,4.043,0,0,1-1.173.475A6.087,6.087,0,0,1,592.13,17.176Zm8.9-.176a2.729,2.729,0,0,1-2.039-.734,2.854,2.854,0,0,1-.721-2.087V9.907H596.5V7.965h.571a1.491,1.491,0,0,0,1.125-.378,1.946,1.946,0,0,0,.36-1.345v-1.2h2.285V7.965H602.7V9.907H600.84v4q0,1.169,1.046,1.169h.817V17Zm6.056-7.6a2.933,2.933,0,0,1,1.187-1.085,3.62,3.62,0,0,1,1.767-.453v2.259a3.423,3.423,0,0,0-2.162.545,2.379,2.379,0,0,0-.668,1.934V17h-2.549V7.965h2.426Zm10.424-1.433h2.531V17h-2.4l-.062-1.09a3.45,3.45,0,0,1-2.874,1.266,3.522,3.522,0,0,1-2.5-.813,3.014,3.014,0,0,1-.87-2.316V7.965h2.54V13.5a1.562,1.562,0,0,0,.453,1.239,1.718,1.718,0,0,0,1.173.4,2.038,2.038,0,0,0,1.437-.514,2.209,2.209,0,0,0,.567-1.674Zm9.237,9.2a4.827,4.827,0,0,1-3.489-1.3,4.493,4.493,0,0,1-1.354-3.393,4.483,4.483,0,0,1,1.349-3.393,5.364,5.364,0,0,1,6.42-.422,3.885,3.885,0,0,1,1.512,2.452l-2.338.255a2,2,0,0,0-.756-1.187,2.3,2.3,0,0,0-1.371-.4,2.072,2.072,0,0,0-1.652.738,2.894,2.894,0,0,0-.633,1.951,2.9,2.9,0,0,0,.633,1.947,2.067,2.067,0,0,0,1.652.743,2.278,2.278,0,0,0,1.367-.4,2.05,2.05,0,0,0,.76-1.187l2.338.255a3.9,3.9,0,0,1-1.525,2.452A4.8,4.8,0,0,1,626.75,17.167Zm10.327,0a4.827,4.827,0,0,1-3.489-1.3,4.493,4.493,0,0,1-1.354-3.393,4.483,4.483,0,0,1,1.349-3.393A5.364,5.364,0,0,1,640,8.659a3.885,3.885,0,0,1,1.512,2.452l-2.338.255a2,2,0,0,0-.756-1.187,2.3,2.3,0,0,0-1.371-.4,2.072,2.072,0,0,0-1.652.738,2.894,2.894,0,0,0-.633,1.951,2.9,2.9,0,0,0,.633,1.947,2.067,2.067,0,0,0,1.652.743,2.278,2.278,0,0,0,1.367-.4,2.05,2.05,0,0,0,.76-1.187l2.338.255a3.9,3.9,0,0,1-1.525,2.452A4.8,4.8,0,0,1,637.077,17.167Zm7.532-10.556a1.421,1.421,0,0,1-1.037-.426,1.4,1.4,0,0,1-.431-1.033,1.382,1.382,0,0,1,.435-1.024,1.425,1.425,0,0,1,1.033-.426,1.463,1.463,0,0,1,1.45,1.45,1.463,1.463,0,0,1-1.45,1.459ZM643.317,17V7.965h2.549V17Zm8.6-10.266,2.3-3.234,1.248.879-2,2.355Zm.782,10.441a5.681,5.681,0,0,1-2.558-.554A4.138,4.138,0,0,1,648.384,15a4.846,4.846,0,0,1-.637-2.522,4.42,4.42,0,0,1,1.371-3.428,5.731,5.731,0,0,1,7.163,0,4.42,4.42,0,0,1,1.371,3.428,4.444,4.444,0,0,1-1.371,3.441A5.088,5.088,0,0,1,652.7,17.176Zm-.026-2.013a2.319,2.319,0,0,0,1.789-.738,2.764,2.764,0,0,0,.681-1.951,2.764,2.764,0,0,0-.681-1.951,2.319,2.319,0,0,0-1.789-.738,2.234,2.234,0,0,0-1.736.743,2.789,2.789,0,0,0-.672,1.947,2.789,2.789,0,0,0,.672,1.947A2.234,2.234,0,0,0,652.669,15.163Zm12.2-7.374a3.522,3.522,0,0,1,2.5.813,3.014,3.014,0,0,1,.87,2.316V17h-2.54V11.463a1.574,1.574,0,0,0-.453-1.248,1.705,1.705,0,0,0-1.165-.4,2.379,2.379,0,0,0-.756.114,1.942,1.942,0,0,0-.633.356,1.573,1.573,0,0,0-.453.681,3.15,3.15,0,0,0-.171,1.046V17h-2.531V7.965h2.531v1A3.481,3.481,0,0,1,664.868,7.789Zm8.147,5.291v-.949a2.1,2.1,0,0,1,.215-.984,1.969,1.969,0,0,1,.558-.672,6.162,6.162,0,0,1,.94-.558,1.9,1.9,0,0,0,1.09-1.846,1.826,1.826,0,0,0-.5-1.384A1.828,1.828,0,0,0,674,6.207a1.8,1.8,0,0,0-1.327.5,1.756,1.756,0,0,0-.5,1.305,3.452,3.452,0,0,0,.105.773l-2.268-.29a5.8,5.8,0,0,1-.044-.659,3.507,3.507,0,0,1,1.107-2.681,4.059,4.059,0,0,1,2.892-1.037,4.179,4.179,0,0,1,2.944,1.059,3.665,3.665,0,0,1,1.151,2.834,4.182,4.182,0,0,1-.193,1.31,2.969,2.969,0,0,1-.527.989,3.613,3.613,0,0,1-.708.659,3.764,3.764,0,0,1-.813.426,1.371,1.371,0,0,0-.58.391.955.955,0,0,0-.185.611v.686Zm2.065,3.674a1.36,1.36,0,0,1-1.011.422,1.4,1.4,0,0,1-1.024-.422,1.438,1.438,0,0,1,0-2.043,1.411,1.411,0,0,1,1.024-.417,1.442,1.442,0,0,1,1.011,2.461Z" transform="translate(154 2557.5)" fill="#00223d"/>
    <path id="Trazado_64897" data-name="Trazado 64897" d="M26.2,17.167a6.574,6.574,0,0,1-2.435-.444,5.879,5.879,0,0,1-1.956-1.248,5.567,5.567,0,0,1-1.3-2.008,7.263,7.263,0,0,1-.47-2.663,7.144,7.144,0,0,1,.475-2.65A5.556,5.556,0,0,1,23.765,4.9,6.633,6.633,0,0,1,26.2,4.458a6.287,6.287,0,0,1,3.292.87,5.421,5.421,0,0,1,2.175,2.417l-1.45.6a4.075,4.075,0,0,0-1.622-1.762,4.654,4.654,0,0,0-2.4-.62,4.921,4.921,0,0,0-1.8.325,4.317,4.317,0,0,0-1.459.932,4.206,4.206,0,0,0-.98,1.529A5.674,5.674,0,0,0,21.6,10.8a5.71,5.71,0,0,0,.356,2.061,4.2,4.2,0,0,0,.98,1.534,4.374,4.374,0,0,0,1.459.936,4.863,4.863,0,0,0,1.8.33,4.654,4.654,0,0,0,2.4-.62,4.085,4.085,0,0,0,1.622-1.753l1.45.589A5.394,5.394,0,0,1,29.5,16.3,6.305,6.305,0,0,1,26.2,17.167Zm11.408,0a4.554,4.554,0,0,1-2.215-.536,3.9,3.9,0,0,1-1.56-1.569,4.819,4.819,0,0,1-.576-2.386,4.4,4.4,0,0,1,1.226-3.256,4.6,4.6,0,0,1,6.253,0,4.41,4.41,0,0,1,1.222,3.256,4.413,4.413,0,0,1-1.226,3.265A4.232,4.232,0,0,1,37.608,17.167ZM37.6,15.9a2.654,2.654,0,0,0,2.043-.888,3.326,3.326,0,0,0,.813-2.338,3.314,3.314,0,0,0-.813-2.329A2.654,2.654,0,0,0,37.6,9.459a2.617,2.617,0,0,0-2.026.888,3.336,3.336,0,0,0-.8,2.329,3.348,3.348,0,0,0,.8,2.338A2.617,2.617,0,0,0,37.6,15.9ZM48.418,8.193a3.005,3.005,0,0,1,2.175.782,2.918,2.918,0,0,1,.813,2.206V17H49.886V11.524a2.043,2.043,0,0,0-.527-1.547,1.885,1.885,0,0,0-1.354-.5,2.09,2.09,0,0,0-1.538.593,2.407,2.407,0,0,0-.606,1.762V17H44.34V8.36h1.521V9.468A2.885,2.885,0,0,1,48.418,8.193ZM57.1,17a2.271,2.271,0,0,1-1.687-.62,2.344,2.344,0,0,1-.615-1.727V9.573H53.033V8.36h.65a1.249,1.249,0,0,0,.954-.3,1.492,1.492,0,0,0,.277-1.015V5.478h1.415V8.36h1.986V9.573H56.329V14.5a1.31,1.31,0,0,0,.33.954,1.154,1.154,0,0,0,.866.338h.791V17Zm10.863-4.491-.018.413H61.2a3.053,3.053,0,0,0,.826,2.21,2.713,2.713,0,0,0,1.969.769,2.59,2.59,0,0,0,1.433-.413,2.68,2.68,0,0,0,.984-1.143l1.371.29A3.9,3.9,0,0,1,66.3,16.49a4.028,4.028,0,0,1-2.294.677,4.174,4.174,0,0,1-3.111-1.2,4.479,4.479,0,0,1-1.187-3.287A4.458,4.458,0,0,1,60.9,9.4a4.122,4.122,0,0,1,3.063-1.2,3.9,3.9,0,0,1,2.9,1.107A4.376,4.376,0,0,1,67.965,12.509Zm-4-3.146a2.694,2.694,0,0,0-1.8.611,2.8,2.8,0,0,0-.91,1.78h5.177a2.567,2.567,0,0,0-.756-1.78A2.441,2.441,0,0,0,63.966,9.362ZM68.783,17,72.1,12.676,68.783,8.36h1.872l2.391,3.3,2.391-3.3h1.846l-3.331,4.315L77.282,17H75.427l-2.373-3.287L70.655,17Zm13.131,0a2.271,2.271,0,0,1-1.687-.62,2.344,2.344,0,0,1-.615-1.727V9.573H77.844V8.36h.65a1.249,1.249,0,0,0,.954-.3,1.492,1.492,0,0,0,.277-1.015V5.478H81.14V8.36h1.986V9.573H81.14V14.5a1.31,1.31,0,0,0,.33.954,1.154,1.154,0,0,0,.866.338h.791V17Zm6.943.167a4.554,4.554,0,0,1-2.215-.536,3.9,3.9,0,0,1-1.56-1.569,4.819,4.819,0,0,1-.576-2.386,4.4,4.4,0,0,1,1.226-3.256,4.6,4.6,0,0,1,6.253,0,4.41,4.41,0,0,1,1.222,3.256,4.413,4.413,0,0,1-1.226,3.265A4.232,4.232,0,0,1,88.857,17.167ZM88.848,15.9a2.654,2.654,0,0,0,2.043-.888,3.326,3.326,0,0,0,.813-2.338,3.314,3.314,0,0,0-.813-2.329,2.654,2.654,0,0,0-2.043-.888,2.617,2.617,0,0,0-2.026.888,3.336,3.336,0,0,0-.8,2.329,3.348,3.348,0,0,0,.8,2.338A2.617,2.617,0,0,0,88.848,15.9ZM5.66,41V28.625H7.233V41ZM14.8,32.193a3.005,3.005,0,0,1,2.175.782,2.918,2.918,0,0,1,.813,2.206V41H16.268V35.524a2.043,2.043,0,0,0-.527-1.547,1.885,1.885,0,0,0-1.354-.5,2.09,2.09,0,0,0-1.538.593,2.407,2.407,0,0,0-.606,1.762V41H10.722V32.36h1.521v1.107A2.885,2.885,0,0,1,14.8,32.193ZM23.484,41a2.271,2.271,0,0,1-1.687-.62,2.344,2.344,0,0,1-.615-1.727v-5.08H19.415V32.36h.65a1.249,1.249,0,0,0,.954-.3,1.492,1.492,0,0,0,.277-1.015V29.478H22.71V32.36H24.7v1.213H22.71V38.5a1.31,1.31,0,0,0,.33.954,1.154,1.154,0,0,0,.866.338H24.7V41Zm10.863-4.491-.018.413H27.58a3.053,3.053,0,0,0,.826,2.21,2.713,2.713,0,0,0,1.969.769,2.59,2.59,0,0,0,1.433-.413,2.68,2.68,0,0,0,.984-1.143l1.371.29a3.9,3.9,0,0,1-1.477,1.854,4.028,4.028,0,0,1-2.294.677,4.174,4.174,0,0,1-3.111-1.2,4.479,4.479,0,0,1-1.187-3.287A4.458,4.458,0,0,1,27.285,33.4a4.122,4.122,0,0,1,3.063-1.2,3.9,3.9,0,0,1,2.9,1.107A4.376,4.376,0,0,1,34.347,36.509Zm-4-3.146a2.694,2.694,0,0,0-1.8.611,2.8,2.8,0,0,0-.91,1.78h5.177a2.567,2.567,0,0,0-.756-1.78A2.441,2.441,0,0,0,30.348,33.362Zm7.866.519a2.612,2.612,0,0,1,1.072-1.16,3.229,3.229,0,0,1,1.661-.457V33.7a2.846,2.846,0,0,0-2.008.642,2.68,2.68,0,0,0-.69,2.048V41H36.729V32.36h1.485Zm8.6-1.687a3.005,3.005,0,0,1,2.175.782,2.918,2.918,0,0,1,.813,2.206V41H48.278V35.524a2.043,2.043,0,0,0-.527-1.547,1.885,1.885,0,0,0-1.354-.5,2.09,2.09,0,0,0-1.538.593,2.407,2.407,0,0,0-.606,1.762V41H42.732V32.36h1.521v1.107A2.885,2.885,0,0,1,46.81,32.193Zm7.919,8.974a2.94,2.94,0,0,1-1.894-.593,2.13,2.13,0,0,1-.743-1.771,2.517,2.517,0,0,1,.237-1.129,1.991,1.991,0,0,1,.7-.787,4.218,4.218,0,0,1,1.015-.488,9.384,9.384,0,0,1,1.314-.312l1.4-.229q.765-.141.765-.8a1.51,1.51,0,0,0-.541-1.288,2.2,2.2,0,0,0-1.367-.409,2.243,2.243,0,0,0-1.354.4,1.655,1.655,0,0,0-.642,1.213l-1.371-.29a2.639,2.639,0,0,1,1.081-1.85,4.039,4.039,0,0,1,2.355-.62,4.777,4.777,0,0,1,1.252.154,3.4,3.4,0,0,1,1.046.483,2.168,2.168,0,0,1,.747.932A3.466,3.466,0,0,1,59,35.2v3.568a1.46,1.46,0,0,0,.2.9.854.854,0,0,0,.681.233h.141V41h-.756a1.442,1.442,0,0,1-1.635-1.169h-.07A3.3,3.3,0,0,1,54.729,41.167Zm.352-1.23a2.305,2.305,0,0,0,1.854-.835,3.438,3.438,0,0,0,.7-2.285l-2.285.439a3.076,3.076,0,0,0-1.34.479,1.114,1.114,0,0,0-.435.945,1.1,1.1,0,0,0,.417.949A1.785,1.785,0,0,0,55.081,39.937Zm10.494,1.222a4.161,4.161,0,0,1-3.094-1.239,4.421,4.421,0,0,1-1.222-3.243,4.43,4.43,0,0,1,1.217-3.243,4.5,4.5,0,0,1,5.6-.483,3.815,3.815,0,0,1,1.455,2.1l-1.424.229a2.63,2.63,0,0,0-.976-1.345,2.656,2.656,0,0,0-1.564-.475,2.554,2.554,0,0,0-2,.888,3.835,3.835,0,0,0,0,4.654,2.56,2.56,0,0,0,2,.883,2.656,2.656,0,0,0,1.564-.475,2.63,2.63,0,0,0,.976-1.345l1.424.237a3.819,3.819,0,0,1-1.463,2.1A4.185,4.185,0,0,1,65.575,41.158Zm6.97-10.828A1.035,1.035,0,0,1,71.516,29.3a.975.975,0,0,1,.3-.721,1,1,0,0,1,.725-.3.987.987,0,0,1,.716.3.975.975,0,0,1,.3.721.989.989,0,0,1-.3.725A.979.979,0,0,1,72.544,30.33ZM71.771,41V32.36H73.3V41Zm8.262.167a4.554,4.554,0,0,1-2.215-.536,3.9,3.9,0,0,1-1.56-1.569,4.819,4.819,0,0,1-.576-2.386,4.4,4.4,0,0,1,1.226-3.256,4.6,4.6,0,0,1,6.253,0,4.41,4.41,0,0,1,1.222,3.256,4.413,4.413,0,0,1-1.226,3.265A4.232,4.232,0,0,1,80.033,41.167ZM80.024,39.9a2.654,2.654,0,0,0,2.043-.888,3.755,3.755,0,0,0,0-4.667,2.654,2.654,0,0,0-2.043-.888A2.617,2.617,0,0,0,78,34.347a3.788,3.788,0,0,0,0,4.667A2.617,2.617,0,0,0,80.024,39.9Zm10.819-7.708a3.005,3.005,0,0,1,2.175.782,2.918,2.918,0,0,1,.813,2.206V41H92.311V35.524a2.043,2.043,0,0,0-.527-1.547,1.885,1.885,0,0,0-1.354-.5,2.09,2.09,0,0,0-1.538.593,2.407,2.407,0,0,0-.606,1.762V41H86.765V32.36h1.521v1.107A2.885,2.885,0,0,1,90.843,32.193Zm7.919,8.974a2.94,2.94,0,0,1-1.894-.593,2.13,2.13,0,0,1-.743-1.771,2.517,2.517,0,0,1,.237-1.129,1.991,1.991,0,0,1,.7-.787,4.218,4.218,0,0,1,1.015-.488,9.384,9.384,0,0,1,1.314-.312l1.4-.229q.765-.141.765-.8a1.51,1.51,0,0,0-.541-1.288,2.2,2.2,0,0,0-1.367-.409,2.243,2.243,0,0,0-1.354.4,1.655,1.655,0,0,0-.642,1.213l-1.371-.29a2.639,2.639,0,0,1,1.081-1.85,4.039,4.039,0,0,1,2.355-.62,4.777,4.777,0,0,1,1.252.154,3.4,3.4,0,0,1,1.046.483,2.168,2.168,0,0,1,.747.932,3.466,3.466,0,0,1,.268,1.419v3.568a1.46,1.46,0,0,0,.2.9.854.854,0,0,0,.681.233h.141V41H103.3a1.442,1.442,0,0,1-1.635-1.169h-.07A3.3,3.3,0,0,1,98.762,41.167Zm.352-1.23a2.305,2.305,0,0,0,1.854-.835,3.438,3.438,0,0,0,.7-2.285l-2.285.439a3.076,3.076,0,0,0-1.34.479,1.114,1.114,0,0,0-.435.945,1.1,1.1,0,0,0,.417.949A1.785,1.785,0,0,0,99.114,39.937ZM106.2,41V27.5h1.538V41Z" transform="translate(385 2698.5)" fill="#00223d"/>
    <path id="Trazado_64896" data-name="Trazado 64896" d="M26.2,17.167a6.574,6.574,0,0,1-2.435-.444,5.879,5.879,0,0,1-1.956-1.248,5.567,5.567,0,0,1-1.3-2.008,7.263,7.263,0,0,1-.47-2.663,7.144,7.144,0,0,1,.475-2.65A5.556,5.556,0,0,1,23.765,4.9,6.633,6.633,0,0,1,26.2,4.458a6.287,6.287,0,0,1,3.292.87,5.421,5.421,0,0,1,2.175,2.417l-1.45.6a4.075,4.075,0,0,0-1.622-1.762,4.654,4.654,0,0,0-2.4-.62,4.921,4.921,0,0,0-1.8.325,4.317,4.317,0,0,0-1.459.932,4.206,4.206,0,0,0-.98,1.529A5.674,5.674,0,0,0,21.6,10.8a5.71,5.71,0,0,0,.356,2.061,4.2,4.2,0,0,0,.98,1.534,4.374,4.374,0,0,0,1.459.936,4.863,4.863,0,0,0,1.8.33,4.654,4.654,0,0,0,2.4-.62,4.085,4.085,0,0,0,1.622-1.753l1.45.589A5.394,5.394,0,0,1,29.5,16.3,6.305,6.305,0,0,1,26.2,17.167Zm11.408,0a4.554,4.554,0,0,1-2.215-.536,3.9,3.9,0,0,1-1.56-1.569,4.819,4.819,0,0,1-.576-2.386,4.4,4.4,0,0,1,1.226-3.256,4.6,4.6,0,0,1,6.253,0,4.41,4.41,0,0,1,1.222,3.256,4.413,4.413,0,0,1-1.226,3.265A4.232,4.232,0,0,1,37.608,17.167ZM37.6,15.9a2.654,2.654,0,0,0,2.043-.888,3.326,3.326,0,0,0,.813-2.338,3.314,3.314,0,0,0-.813-2.329A2.654,2.654,0,0,0,37.6,9.459a2.617,2.617,0,0,0-2.026.888,3.336,3.336,0,0,0-.8,2.329,3.348,3.348,0,0,0,.8,2.338A2.617,2.617,0,0,0,37.6,15.9ZM48.418,8.193a3.005,3.005,0,0,1,2.175.782,2.918,2.918,0,0,1,.813,2.206V17H49.886V11.524a2.043,2.043,0,0,0-.527-1.547,1.885,1.885,0,0,0-1.354-.5,2.09,2.09,0,0,0-1.538.593,2.407,2.407,0,0,0-.606,1.762V17H44.34V8.36h1.521V9.468A2.885,2.885,0,0,1,48.418,8.193ZM57.1,17a2.271,2.271,0,0,1-1.687-.62,2.344,2.344,0,0,1-.615-1.727V9.573H53.033V8.36h.65a1.249,1.249,0,0,0,.954-.3,1.492,1.492,0,0,0,.277-1.015V5.478h1.415V8.36h1.986V9.573H56.329V14.5a1.31,1.31,0,0,0,.33.954,1.154,1.154,0,0,0,.866.338h.791V17Zm10.863-4.491-.018.413H61.2a3.053,3.053,0,0,0,.826,2.21,2.713,2.713,0,0,0,1.969.769,2.59,2.59,0,0,0,1.433-.413,2.68,2.68,0,0,0,.984-1.143l1.371.29A3.9,3.9,0,0,1,66.3,16.49a4.028,4.028,0,0,1-2.294.677,4.174,4.174,0,0,1-3.111-1.2,4.479,4.479,0,0,1-1.187-3.287A4.458,4.458,0,0,1,60.9,9.4a4.122,4.122,0,0,1,3.063-1.2,3.9,3.9,0,0,1,2.9,1.107A4.376,4.376,0,0,1,67.965,12.509Zm-4-3.146a2.694,2.694,0,0,0-1.8.611,2.8,2.8,0,0,0-.91,1.78h5.177a2.567,2.567,0,0,0-.756-1.78A2.441,2.441,0,0,0,63.966,9.362ZM68.783,17,72.1,12.676,68.783,8.36h1.872l2.391,3.3,2.391-3.3h1.846l-3.331,4.315L77.282,17H75.427l-2.373-3.287L70.655,17Zm13.131,0a2.271,2.271,0,0,1-1.687-.62,2.344,2.344,0,0,1-.615-1.727V9.573H77.844V8.36h.65a1.249,1.249,0,0,0,.954-.3,1.492,1.492,0,0,0,.277-1.015V5.478H81.14V8.36h1.986V9.573H81.14V14.5a1.31,1.31,0,0,0,.33.954,1.154,1.154,0,0,0,.866.338h.791V17Zm6.943.167a4.554,4.554,0,0,1-2.215-.536,3.9,3.9,0,0,1-1.56-1.569,4.819,4.819,0,0,1-.576-2.386,4.4,4.4,0,0,1,1.226-3.256,4.6,4.6,0,0,1,6.253,0,4.41,4.41,0,0,1,1.222,3.256,4.413,4.413,0,0,1-1.226,3.265A4.232,4.232,0,0,1,88.857,17.167ZM88.848,15.9a2.654,2.654,0,0,0,2.043-.888,3.326,3.326,0,0,0,.813-2.338,3.314,3.314,0,0,0-.813-2.329,2.654,2.654,0,0,0-2.043-.888,2.617,2.617,0,0,0-2.026.888,3.336,3.336,0,0,0-.8,2.329,3.348,3.348,0,0,0,.8,2.338A2.617,2.617,0,0,0,88.848,15.9ZM30.889,28.625h1.564V41H30.792L24.121,30.989V41H22.574V28.625h1.644l6.671,9.967Zm6.926,12.542a2.94,2.94,0,0,1-1.894-.593,2.13,2.13,0,0,1-.743-1.771,2.517,2.517,0,0,1,.237-1.129,1.991,1.991,0,0,1,.7-.787,4.218,4.218,0,0,1,1.015-.488,9.384,9.384,0,0,1,1.314-.312l1.4-.229q.765-.141.765-.8a1.51,1.51,0,0,0-.541-1.288,2.2,2.2,0,0,0-1.367-.409,2.243,2.243,0,0,0-1.354.4,1.655,1.655,0,0,0-.642,1.213l-1.371-.29a2.639,2.639,0,0,1,1.081-1.85,4.039,4.039,0,0,1,2.355-.62,4.777,4.777,0,0,1,1.252.154,3.4,3.4,0,0,1,1.046.483,2.168,2.168,0,0,1,.747.932,3.466,3.466,0,0,1,.268,1.419v3.568a1.46,1.46,0,0,0,.2.9.854.854,0,0,0,.681.233h.141V41H42.35a1.442,1.442,0,0,1-1.635-1.169h-.07A3.3,3.3,0,0,1,37.814,41.167Zm.352-1.23a2.305,2.305,0,0,0,1.854-.835,3.438,3.438,0,0,0,.7-2.285l-2.285.439a3.076,3.076,0,0,0-1.34.479,1.114,1.114,0,0,0-.435.945,1.1,1.1,0,0,0,.417.949A1.785,1.785,0,0,0,38.166,39.937ZM48.66,41.158a4.161,4.161,0,0,1-3.094-1.239,4.421,4.421,0,0,1-1.222-3.243,4.43,4.43,0,0,1,1.217-3.243,4.5,4.5,0,0,1,5.6-.483,3.815,3.815,0,0,1,1.455,2.1l-1.424.229a2.63,2.63,0,0,0-.976-1.345,2.656,2.656,0,0,0-1.564-.475,2.554,2.554,0,0,0-2,.888,3.835,3.835,0,0,0,0,4.654,2.56,2.56,0,0,0,2,.883,2.656,2.656,0,0,0,1.564-.475,2.63,2.63,0,0,0,.976-1.345l1.424.237a3.819,3.819,0,0,1-1.463,2.1A4.185,4.185,0,0,1,48.66,41.158ZM55.63,30.33A1.035,1.035,0,0,1,54.6,29.3a.975.975,0,0,1,.3-.721,1,1,0,0,1,.725-.3.987.987,0,0,1,.716.3.975.975,0,0,1,.3.721.989.989,0,0,1-.3.725A.979.979,0,0,1,55.63,30.33ZM54.856,41V32.36h1.529V41Zm8.262.167a4.554,4.554,0,0,1-2.215-.536,3.9,3.9,0,0,1-1.56-1.569,4.819,4.819,0,0,1-.576-2.386,4.4,4.4,0,0,1,1.226-3.256,4.6,4.6,0,0,1,6.253,0,4.41,4.41,0,0,1,1.222,3.256,4.413,4.413,0,0,1-1.226,3.265A4.232,4.232,0,0,1,63.118,41.167ZM63.109,39.9a2.654,2.654,0,0,0,2.043-.888,3.755,3.755,0,0,0,0-4.667,2.654,2.654,0,0,0-2.043-.888,2.617,2.617,0,0,0-2.026.888,3.788,3.788,0,0,0,0,4.667A2.617,2.617,0,0,0,63.109,39.9Zm10.819-7.708a3.005,3.005,0,0,1,2.175.782,2.918,2.918,0,0,1,.813,2.206V41H75.4V35.524a2.043,2.043,0,0,0-.527-1.547,1.885,1.885,0,0,0-1.354-.5,2.09,2.09,0,0,0-1.538.593,2.407,2.407,0,0,0-.606,1.762V41H69.851V32.36h1.521v1.107A2.885,2.885,0,0,1,73.929,32.193Zm7.919,8.974a2.94,2.94,0,0,1-1.894-.593,2.13,2.13,0,0,1-.743-1.771,2.517,2.517,0,0,1,.237-1.129,1.991,1.991,0,0,1,.7-.787,4.218,4.218,0,0,1,1.015-.488,9.384,9.384,0,0,1,1.314-.312l1.4-.229q.765-.141.765-.8a1.51,1.51,0,0,0-.541-1.288,2.2,2.2,0,0,0-1.367-.409,2.243,2.243,0,0,0-1.354.4,1.655,1.655,0,0,0-.642,1.213l-1.371-.29a2.639,2.639,0,0,1,1.081-1.85,4.039,4.039,0,0,1,2.355-.62,4.777,4.777,0,0,1,1.252.154,3.4,3.4,0,0,1,1.046.483,2.168,2.168,0,0,1,.747.932,3.466,3.466,0,0,1,.268,1.419v3.568a1.46,1.46,0,0,0,.2.9A.854.854,0,0,0,87,39.9h.141V41h-.756a1.442,1.442,0,0,1-1.635-1.169h-.07A3.3,3.3,0,0,1,81.848,41.167Zm.352-1.23a2.305,2.305,0,0,0,1.854-.835,3.438,3.438,0,0,0,.7-2.285l-2.285.439a3.076,3.076,0,0,0-1.34.479,1.114,1.114,0,0,0-.435.945,1.1,1.1,0,0,0,.417.949A1.785,1.785,0,0,0,82.2,39.937ZM89.283,41V27.5h1.538V41Z" transform="translate(304 2850.5)" fill="#00223d"/>
    <g id="Grupo_24910" data-name="Grupo 24910" transform="translate(521 2676)">
      <g id="Grupo_24908" data-name="Grupo 24908" transform="translate(0 0)" clip-path="url(#clip-path)">
        <rect id="Rectángulo_25468" data-name="Rectángulo 25468" width="90.495" height="57.844" transform="translate(0 0)" fill="#e7b42c"/>
      </g>
    </g>
    <path id="Trazado_64898" data-name="Trazado 64898" d="M28.441,6.273H23.973v3.6H27.91v1.258H23.973v3.594h4.469V16h-5.9V5h5.9ZM33.2,16.148a3.641,3.641,0,0,1-2.07-.555,2.294,2.294,0,0,1-1.008-1.578l1.18-.336a1.645,1.645,0,0,0,.629,1.066,2.04,2.04,0,0,0,1.262.379,2.518,2.518,0,0,0,.738-.1,1.184,1.184,0,0,0,.566-.379,1.057,1.057,0,0,0,.164-1.016,1.356,1.356,0,0,0-.125-.254.774.774,0,0,0-.219-.211A2.884,2.884,0,0,0,34.051,13a2.726,2.726,0,0,0-.348-.145q-.23-.082-.371-.125t-.43-.125q-.289-.082-.445-.129a8.33,8.33,0,0,1-.8-.281,3.5,3.5,0,0,1-.648-.371,1.493,1.493,0,0,1-.5-.605,2.049,2.049,0,0,1-.168-.859,1.986,1.986,0,0,1,.375-1.227,2.11,2.11,0,0,1,.973-.723,3.888,3.888,0,0,1,1.363-.223,3.337,3.337,0,0,1,1.871.5,2.134,2.134,0,0,1,.934,1.5l-1.109.281A1.471,1.471,0,0,0,34.16,9.5a1.865,1.865,0,0,0-1.1-.324,1.9,1.9,0,0,0-1.031.27.906.906,0,0,0-.43.824.82.82,0,0,0,.113.426,1.352,1.352,0,0,0,.23.3,1.417,1.417,0,0,0,.422.23q.3.121.453.164t.563.145q.078.023.117.031.453.117.738.207a4.538,4.538,0,0,1,.664.281,2.208,2.208,0,0,1,.6.418,1.936,1.936,0,0,1,.375.594,2.1,2.1,0,0,1,.156.828,2.237,2.237,0,0,1-.23,1.035,1.8,1.8,0,0,1-.629.707,3.042,3.042,0,0,1-.895.387A4.262,4.262,0,0,1,33.2,16.148ZM40.605,16a2.019,2.019,0,0,1-1.5-.551,2.084,2.084,0,0,1-.547-1.535V9.4h-1.57V8.32h.578a1.11,1.11,0,0,0,.848-.27,1.326,1.326,0,0,0,.246-.9V5.758h1.258V8.32h1.766V9.4H39.918v4.375a1.164,1.164,0,0,0,.293.848,1.026,1.026,0,0,0,.77.3h.7V16Zm4.352-6.328a2.322,2.322,0,0,1,.953-1.031,2.87,2.87,0,0,1,1.477-.406V9.508a2.53,2.53,0,0,0-1.785.57,2.382,2.382,0,0,0-.613,1.82V16H43.637V8.32h1.32Zm5.7,6.477a2.613,2.613,0,0,1-1.684-.527,1.894,1.894,0,0,1-.66-1.574,2.237,2.237,0,0,1,.211-1,1.77,1.77,0,0,1,.625-.7,3.749,3.749,0,0,1,.9-.434,8.341,8.341,0,0,1,1.168-.277l1.242-.2q.68-.125.68-.711a1.342,1.342,0,0,0-.48-1.145,1.958,1.958,0,0,0-1.215-.363,1.994,1.994,0,0,0-1.2.352,1.471,1.471,0,0,0-.57,1.078l-1.219-.258a2.346,2.346,0,0,1,.961-1.645A3.59,3.59,0,0,1,51.5,8.188a4.247,4.247,0,0,1,1.113.137,3.025,3.025,0,0,1,.93.43,1.927,1.927,0,0,1,.664.828,3.081,3.081,0,0,1,.238,1.262v3.172a1.3,1.3,0,0,0,.176.8.759.759,0,0,0,.605.207h.125V16h-.672a1.281,1.281,0,0,1-1.453-1.039h-.062A2.935,2.935,0,0,1,50.652,16.148Zm.313-1.094a2.049,2.049,0,0,0,1.648-.742,3.056,3.056,0,0,0,.625-2.031l-2.031.391a2.734,2.734,0,0,0-1.191.426.99.99,0,0,0-.387.84.979.979,0,0,0,.371.844A1.586,1.586,0,0,0,50.965,15.055Zm8.7.945a2.019,2.019,0,0,1-1.5-.551,2.084,2.084,0,0,1-.547-1.535V9.4h-1.57V8.32h.578a1.11,1.11,0,0,0,.848-.27,1.326,1.326,0,0,0,.246-.9V5.758H58.98V8.32h1.766V9.4H58.98v4.375a1.164,1.164,0,0,0,.293.848,1.026,1.026,0,0,0,.77.3h.7V16Zm9.656-3.992-.016.367h-6a2.714,2.714,0,0,0,.734,1.965,2.411,2.411,0,0,0,1.75.684,2.3,2.3,0,0,0,1.273-.367,2.383,2.383,0,0,0,.875-1.016l1.219.258a3.464,3.464,0,0,1-1.312,1.648,3.581,3.581,0,0,1-2.039.6,3.71,3.71,0,0,1-2.766-1.07,3.982,3.982,0,0,1-1.055-2.922,3.962,3.962,0,0,1,1.059-2.914,3.664,3.664,0,0,1,2.723-1.07,3.467,3.467,0,0,1,2.582.984A3.889,3.889,0,0,1,69.324,12.008Zm-3.555-2.8a2.4,2.4,0,0,0-1.6.543,2.488,2.488,0,0,0-.809,1.582h4.6a2.282,2.282,0,0,0-.672-1.582A2.17,2.17,0,0,0,65.77,9.211ZM77,8.32h1.313v7.289a4.183,4.183,0,0,1-.992,2.992,4.131,4.131,0,0,1-6.477-1.3l1.117-.547a2.539,2.539,0,0,0,2.57,1.773,2.2,2.2,0,0,0,1.8-.75,3.192,3.192,0,0,0,.621-2.094V14.258a2.707,2.707,0,0,1-1.094,1.105,3.182,3.182,0,0,1-1.6.418A3.293,3.293,0,0,1,71.777,14.7a3.816,3.816,0,0,1-1.023-2.73,3.78,3.78,0,0,1,1.027-2.723,3.325,3.325,0,0,1,2.5-1.074,3.1,3.1,0,0,1,1.609.43,2.766,2.766,0,0,1,1.086,1.133Zm-2.437,6.313a2.323,2.323,0,0,0,1.77-.789,2.787,2.787,0,0,0,0-3.758,2.407,2.407,0,0,0-3.543-.023,2.669,2.669,0,0,0-.723,1.906,2.647,2.647,0,0,0,.73,1.895A2.341,2.341,0,0,0,74.566,14.633Zm7.188-8.117A.92.92,0,0,1,80.84,5.6a.867.867,0,0,1,.27-.641.886.886,0,0,1,.645-.266.877.877,0,0,1,.637.266.867.867,0,0,1,.27.641.88.88,0,0,1-.27.645A.871.871,0,0,1,81.754,6.516ZM81.066,16V8.32h1.359V16Zm5.883.148a2.613,2.613,0,0,1-1.684-.527,1.894,1.894,0,0,1-.66-1.574,2.237,2.237,0,0,1,.211-1,1.77,1.77,0,0,1,.625-.7,3.749,3.749,0,0,1,.9-.434,8.341,8.341,0,0,1,1.168-.277l1.242-.2q.68-.125.68-.711a1.342,1.342,0,0,0-.48-1.145,1.958,1.958,0,0,0-1.215-.363,1.994,1.994,0,0,0-1.2.352,1.471,1.471,0,0,0-.57,1.078l-1.219-.258a2.346,2.346,0,0,1,.961-1.645A3.59,3.59,0,0,1,87.8,8.188a4.247,4.247,0,0,1,1.113.137,3.025,3.025,0,0,1,.93.43,1.927,1.927,0,0,1,.664.828,3.081,3.081,0,0,1,.238,1.262v3.172a1.3,1.3,0,0,0,.176.8.759.759,0,0,0,.605.207h.125V16H90.98a1.281,1.281,0,0,1-1.453-1.039h-.062A2.935,2.935,0,0,1,86.949,16.148Zm.313-1.094a2.049,2.049,0,0,0,1.648-.742,3.056,3.056,0,0,0,.625-2.031l-2.031.391a2.734,2.734,0,0,0-1.191.426.99.99,0,0,0-.387.84.979.979,0,0,0,.371.844A1.586,1.586,0,0,0,87.262,15.055ZM22.352,29h1.391V40H22.266l-5.93-8.9V40H14.961V29h1.461l5.93,8.859Zm6.156,11.148a2.613,2.613,0,0,1-1.684-.527,1.894,1.894,0,0,1-.66-1.574,2.237,2.237,0,0,1,.211-1,1.77,1.77,0,0,1,.625-.7,3.749,3.749,0,0,1,.9-.434,8.342,8.342,0,0,1,1.168-.277l1.242-.2q.68-.125.68-.711a1.342,1.342,0,0,0-.48-1.145,1.958,1.958,0,0,0-1.215-.363,1.994,1.994,0,0,0-1.2.352,1.471,1.471,0,0,0-.57,1.078L26.3,34.383a2.346,2.346,0,0,1,.961-1.645,3.59,3.59,0,0,1,2.094-.551,4.247,4.247,0,0,1,1.113.137,3.025,3.025,0,0,1,.93.43,1.927,1.927,0,0,1,.664.828,3.081,3.081,0,0,1,.238,1.262v3.172a1.3,1.3,0,0,0,.176.8.759.759,0,0,0,.605.207h.125V40h-.672a1.281,1.281,0,0,1-1.453-1.039h-.062A2.935,2.935,0,0,1,28.508,40.148Zm.313-1.094a2.049,2.049,0,0,0,1.648-.742,3.056,3.056,0,0,0,.625-2.031l-2.031.391a2.734,2.734,0,0,0-1.191.426.99.99,0,0,0-.387.84.979.979,0,0,0,.371.844A1.586,1.586,0,0,0,28.82,39.055Zm9.328,1.086a3.7,3.7,0,0,1-2.75-1.1,4.375,4.375,0,0,1,0-5.766,4,4,0,0,1,4.977-.43,3.391,3.391,0,0,1,1.293,1.867l-1.266.2a2.337,2.337,0,0,0-.867-1.2,2.361,2.361,0,0,0-1.391-.422,2.27,2.27,0,0,0-1.777.789,3.409,3.409,0,0,0,0,4.137,2.275,2.275,0,0,0,1.777.785,2.361,2.361,0,0,0,1.391-.422,2.337,2.337,0,0,0,.867-1.2l1.266.211a3.4,3.4,0,0,1-1.3,1.863A3.72,3.72,0,0,1,38.148,40.141Zm6.2-9.625a.92.92,0,0,1-.914-.914.867.867,0,0,1,.27-.641.886.886,0,0,1,.645-.266.877.877,0,0,1,.637.266.867.867,0,0,1,.27.641.88.88,0,0,1-.27.645A.871.871,0,0,1,44.344,30.516ZM43.656,40V32.32h1.359V40ZM51,40.148a4.048,4.048,0,0,1-1.969-.477,3.47,3.47,0,0,1-1.387-1.395,4.284,4.284,0,0,1-.512-2.121,3.912,3.912,0,0,1,1.09-2.895,4.089,4.089,0,0,1,5.559,0,3.92,3.92,0,0,1,1.086,2.895,3.923,3.923,0,0,1-1.09,2.9A3.762,3.762,0,0,1,51,40.148Zm-.008-1.125a2.359,2.359,0,0,0,1.816-.789,3.338,3.338,0,0,0,0-4.148,2.359,2.359,0,0,0-1.816-.789,2.326,2.326,0,0,0-1.8.789,3.367,3.367,0,0,0,0,4.148A2.326,2.326,0,0,0,50.992,39.023Zm9.617-6.852a2.671,2.671,0,0,1,1.934.7,2.594,2.594,0,0,1,.723,1.961V40H61.914V35.133a1.816,1.816,0,0,0-.469-1.375,1.676,1.676,0,0,0-1.2-.445,1.858,1.858,0,0,0-1.367.527,2.14,2.14,0,0,0-.539,1.566V40H56.984V32.32h1.352V33.3A2.565,2.565,0,0,1,60.609,32.172Zm7.039,7.977a2.613,2.613,0,0,1-1.684-.527,1.894,1.894,0,0,1-.66-1.574,2.237,2.237,0,0,1,.211-1,1.77,1.77,0,0,1,.625-.7,3.749,3.749,0,0,1,.9-.434,8.342,8.342,0,0,1,1.168-.277l1.242-.2q.68-.125.68-.711a1.342,1.342,0,0,0-.48-1.145,1.958,1.958,0,0,0-1.215-.363,1.994,1.994,0,0,0-1.2.352,1.471,1.471,0,0,0-.57,1.078l-1.219-.258a2.346,2.346,0,0,1,.961-1.645,3.59,3.59,0,0,1,2.094-.551,4.247,4.247,0,0,1,1.113.137,3.025,3.025,0,0,1,.93.43,1.927,1.927,0,0,1,.664.828,3.081,3.081,0,0,1,.238,1.262v3.172a1.3,1.3,0,0,0,.176.8.759.759,0,0,0,.605.207h.125V40H71.68a1.281,1.281,0,0,1-1.453-1.039h-.062A2.935,2.935,0,0,1,67.648,40.148Zm.313-1.094a2.049,2.049,0,0,0,1.648-.742,3.056,3.056,0,0,0,.625-2.031l-2.031.391a2.734,2.734,0,0,0-1.191.426.99.99,0,0,0-.387.84.979.979,0,0,0,.371.844A1.586,1.586,0,0,0,67.961,39.055Zm6.3.945V28h1.367V40ZM88.2,28h1.352V40h-1.3l-.031-1.492a2.826,2.826,0,0,1-1.094,1.211,3.048,3.048,0,0,1-1.625.445,3.49,3.49,0,0,1-2.535-1.082,3.7,3.7,0,0,1-.773-1.27,4.644,4.644,0,0,1-.285-1.648,4.038,4.038,0,0,1,1.043-2.883A3.367,3.367,0,0,1,85.5,32.172a3.061,3.061,0,0,1,1.605.434,2.842,2.842,0,0,1,1.1,1.176ZM85.781,38.992a2.3,2.3,0,0,0,1.785-.809,3.171,3.171,0,0,0,0-4.035,2.3,2.3,0,0,0-1.781-.812,2.35,2.35,0,0,0-1.8.785,3.236,3.236,0,0,0,0,4.086A2.35,2.35,0,0,0,85.781,38.992Zm13.242-2.984-.016.367h-6a2.714,2.714,0,0,0,.734,1.965,2.411,2.411,0,0,0,1.75.684,2.3,2.3,0,0,0,1.273-.367,2.383,2.383,0,0,0,.875-1.016l1.219.258a3.464,3.464,0,0,1-1.312,1.648,3.581,3.581,0,0,1-2.039.6,3.71,3.71,0,0,1-2.766-1.07,3.982,3.982,0,0,1-1.055-2.922,3.962,3.962,0,0,1,1.059-2.914,3.664,3.664,0,0,1,2.723-1.07,3.467,3.467,0,0,1,2.582.984A3.889,3.889,0,0,1,99.023,36.008Zm-3.555-2.8a2.4,2.4,0,0,0-1.6.543,2.488,2.488,0,0,0-.809,1.582h4.6a2.282,2.282,0,0,0-.672-1.582A2.17,2.17,0,0,0,95.469,33.211ZM29.109,54.273H24.641v3.6h3.938v1.258H24.641v3.594h4.469V64h-5.9V53h5.9Zm5.516,9.867a3.7,3.7,0,0,1-2.75-1.1,4.375,4.375,0,0,1,0-5.766,4,4,0,0,1,4.977-.43,3.391,3.391,0,0,1,1.293,1.867l-1.266.2a2.337,2.337,0,0,0-.867-1.2,2.361,2.361,0,0,0-1.391-.422,2.27,2.27,0,0,0-1.777.789,3.409,3.409,0,0,0,0,4.137,2.275,2.275,0,0,0,1.777.785,2.361,2.361,0,0,0,1.391-.422,2.337,2.337,0,0,0,.867-1.2l1.266.211a3.4,3.4,0,0,1-1.3,1.863A3.72,3.72,0,0,1,34.625,64.141Zm8.742.008a4.048,4.048,0,0,1-1.969-.477,3.47,3.47,0,0,1-1.387-1.395,4.284,4.284,0,0,1-.512-2.121,3.912,3.912,0,0,1,1.09-2.895,4.089,4.089,0,0,1,5.559,0,4.405,4.405,0,0,1,0,5.8A3.762,3.762,0,0,1,43.367,64.148Zm-.008-1.125a2.359,2.359,0,0,0,1.816-.789,3.338,3.338,0,0,0,0-4.148,2.359,2.359,0,0,0-1.816-.789,2.326,2.326,0,0,0-1.8.789,3.367,3.367,0,0,0,0,4.148A2.326,2.326,0,0,0,43.359,63.023Zm9.617-6.852a2.671,2.671,0,0,1,1.934.7,2.594,2.594,0,0,1,.723,1.961V64H54.281V59.133a1.816,1.816,0,0,0-.469-1.375,1.676,1.676,0,0,0-1.2-.445,1.858,1.858,0,0,0-1.367.527,2.14,2.14,0,0,0-.539,1.566V64H49.352V56.32H50.7V57.3A2.565,2.565,0,0,1,52.977,56.172Zm8.5,7.977a4.048,4.048,0,0,1-1.969-.477,3.47,3.47,0,0,1-1.387-1.395,4.284,4.284,0,0,1-.512-2.121,3.912,3.912,0,0,1,1.09-2.895,4.089,4.089,0,0,1,5.559,0,4.405,4.405,0,0,1,0,5.8A3.762,3.762,0,0,1,61.477,64.148Zm-.008-1.125a2.359,2.359,0,0,0,1.816-.789,3.338,3.338,0,0,0,0-4.148,2.359,2.359,0,0,0-1.816-.789,2.326,2.326,0,0,0-1.8.789,3.367,3.367,0,0,0,0,4.148A2.326,2.326,0,0,0,61.469,63.023Zm13.844-6.852a2.476,2.476,0,0,1,1.789.652,2.42,2.42,0,0,1,.68,1.832V64H76.43V59.008a1.735,1.735,0,0,0-.422-1.266,1.436,1.436,0,0,0-1.07-.43,1.517,1.517,0,0,0-1.172.484,2.083,2.083,0,0,0-.445,1.453V64H71.945V59.063a1.815,1.815,0,0,0-.426-1.309,1.448,1.448,0,0,0-1.09-.441,1.5,1.5,0,0,0-1.168.5,2.155,2.155,0,0,0-.449,1.488V64H67.461V56.32h1.352v.992a2.333,2.333,0,0,1,.879-.844,2.506,2.506,0,0,1,1.223-.3,2.609,2.609,0,0,1,1.313.324,2.018,2.018,0,0,1,.852.934A2.39,2.39,0,0,1,74,56.5,2.637,2.637,0,0,1,75.313,56.172Zm5.258-1.18,1.961-2.547.719.523L81.5,54.992ZM80.4,64V56.32h1.359V64Zm5.883.148a2.613,2.613,0,0,1-1.684-.527,1.894,1.894,0,0,1-.66-1.574,2.237,2.237,0,0,1,.211-1,1.77,1.77,0,0,1,.625-.7,3.749,3.749,0,0,1,.9-.434,8.342,8.342,0,0,1,1.168-.277l1.242-.2q.68-.125.68-.711a1.342,1.342,0,0,0-.48-1.145,1.958,1.958,0,0,0-1.215-.363,1.994,1.994,0,0,0-1.2.352,1.471,1.471,0,0,0-.57,1.078l-1.219-.258a2.346,2.346,0,0,1,.961-1.645,3.59,3.59,0,0,1,2.094-.551,4.247,4.247,0,0,1,1.113.137,3.025,3.025,0,0,1,.93.43,1.927,1.927,0,0,1,.664.828,3.081,3.081,0,0,1,.238,1.262v3.172a1.3,1.3,0,0,0,.176.8.759.759,0,0,0,.605.207h.125V64h-.672a1.281,1.281,0,0,1-1.453-1.039H88.8A2.935,2.935,0,0,1,86.281,64.148Zm.313-1.094a2.049,2.049,0,0,0,1.648-.742,3.056,3.056,0,0,0,.625-2.031l-2.031.391a2.734,2.734,0,0,0-1.191.426.99.99,0,0,0-.387.84.979.979,0,0,0,.371.844A1.586,1.586,0,0,0,86.594,63.055ZM34.57,88.148a5.844,5.844,0,0,1-2.164-.395,5.226,5.226,0,0,1-1.738-1.109,4.949,4.949,0,0,1-1.156-1.785,6.456,6.456,0,0,1-.418-2.367,6.35,6.35,0,0,1,.422-2.355,4.939,4.939,0,0,1,2.891-2.895,5.9,5.9,0,0,1,2.164-.391,5.589,5.589,0,0,1,2.926.773,4.819,4.819,0,0,1,1.934,2.148l-1.289.531A3.622,3.622,0,0,0,36.7,78.738a4.137,4.137,0,0,0-2.129-.551,4.374,4.374,0,0,0-1.6.289,3.838,3.838,0,0,0-1.3.828,3.739,3.739,0,0,0-.871,1.359,5.451,5.451,0,0,0,0,3.66,3.733,3.733,0,0,0,.871,1.363,3.888,3.888,0,0,0,1.3.832,4.323,4.323,0,0,0,1.6.293,4.137,4.137,0,0,0,2.129-.551A3.631,3.631,0,0,0,38.141,84.7l1.289.523a4.794,4.794,0,0,1-1.93,2.152A5.6,5.6,0,0,1,34.57,88.148Zm7.594-9.633a.92.92,0,0,1-.914-.914.867.867,0,0,1,.27-.641.886.886,0,0,1,.645-.266.877.877,0,0,1,.637.266.867.867,0,0,1,.27.641.88.88,0,0,1-.27.645A.871.871,0,0,1,42.164,78.516ZM41.477,88V80.32h1.359V88Zm5.43-6.328a2.322,2.322,0,0,1,.953-1.031,2.87,2.87,0,0,1,1.477-.406v1.273a2.53,2.53,0,0,0-1.785.57,2.382,2.382,0,0,0-.613,1.82V88H45.586V80.32h1.32Zm7.109,6.469a3.7,3.7,0,0,1-2.75-1.1,4.375,4.375,0,0,1,0-5.766,4,4,0,0,1,4.977-.43,3.391,3.391,0,0,1,1.293,1.867l-1.266.2a2.337,2.337,0,0,0-.867-1.2,2.361,2.361,0,0,0-1.391-.422,2.27,2.27,0,0,0-1.777.789,3.409,3.409,0,0,0,0,4.137,2.275,2.275,0,0,0,1.777.785,2.361,2.361,0,0,0,1.391-.422,2.337,2.337,0,0,0,.867-1.2l1.266.211a3.4,3.4,0,0,1-1.3,1.863A3.72,3.72,0,0,1,54.016,88.141ZM64.3,80.32h1.352V88h-1.3l-.031-1.016a2.4,2.4,0,0,1-.953.863,2.932,2.932,0,0,1-1.344.3,2.671,2.671,0,0,1-1.934-.7,2.594,2.594,0,0,1-.723-1.961V80.32h1.352v4.867a1.822,1.822,0,0,0,.473,1.375,1.673,1.673,0,0,0,1.207.453,1.837,1.837,0,0,0,1.363-.531,2.164,2.164,0,0,0,.535-1.57Zm4.1,7.68V76h1.367V88Zm5.891.148a2.613,2.613,0,0,1-1.684-.527,1.894,1.894,0,0,1-.66-1.574,2.237,2.237,0,0,1,.211-1,1.77,1.77,0,0,1,.625-.7,3.749,3.749,0,0,1,.9-.434,8.341,8.341,0,0,1,1.168-.277l1.242-.2q.68-.125.68-.711a1.342,1.342,0,0,0-.48-1.145,1.958,1.958,0,0,0-1.215-.363,1.994,1.994,0,0,0-1.2.352,1.471,1.471,0,0,0-.57,1.078l-1.219-.258a2.346,2.346,0,0,1,.961-1.645,3.59,3.59,0,0,1,2.094-.551,4.246,4.246,0,0,1,1.113.137,3.026,3.026,0,0,1,.93.43,1.927,1.927,0,0,1,.664.828,3.081,3.081,0,0,1,.238,1.262v3.172a1.3,1.3,0,0,0,.176.8.759.759,0,0,0,.605.207H79V88h-.672a1.281,1.281,0,0,1-1.453-1.039h-.062A2.935,2.935,0,0,1,74.3,88.148Zm.313-1.094a2.049,2.049,0,0,0,1.648-.742,3.056,3.056,0,0,0,.625-2.031l-2.031.391a2.734,2.734,0,0,0-1.191.426.99.99,0,0,0-.387.84.979.979,0,0,0,.371.844A1.586,1.586,0,0,0,74.609,87.055Zm7.617-5.383a2.322,2.322,0,0,1,.953-1.031,2.87,2.87,0,0,1,1.477-.406v1.273a2.53,2.53,0,0,0-1.785.57,2.382,2.382,0,0,0-.613,1.82V88H80.906V80.32h1.32Z" transform="translate(468 2826.5)" fill="#00223d"/>
    <path id="Trazado_64899" data-name="Trazado 64899" d="M32.972,17l-.923-2.619H26.714L25.791,17h-2.7L27.769,4.3h3.226L35.67,17Zm-5.484-4.825h3.788l-1.89-5.388Zm13.79,4.992a4.827,4.827,0,0,1-3.489-1.3,4.493,4.493,0,0,1-1.354-3.393,4.483,4.483,0,0,1,1.349-3.393,5.364,5.364,0,0,1,6.42-.422,3.885,3.885,0,0,1,1.512,2.452l-2.338.255a2,2,0,0,0-.756-1.187,2.3,2.3,0,0,0-1.371-.4,2.072,2.072,0,0,0-1.652.738,2.894,2.894,0,0,0-.633,1.951A2.9,2.9,0,0,0,39.6,14.42a2.067,2.067,0,0,0,1.652.743,2.278,2.278,0,0,0,1.367-.4,2.05,2.05,0,0,0,.76-1.187l2.338.255a3.9,3.9,0,0,1-1.525,2.452A4.8,4.8,0,0,1,41.277,17.167ZM50.884,17a2.729,2.729,0,0,1-2.039-.734,2.854,2.854,0,0,1-.721-2.087V9.907H46.349V7.965h.571a1.491,1.491,0,0,0,1.125-.378,1.946,1.946,0,0,0,.36-1.345v-1.2H50.69V7.965h1.863V9.907H50.69v4q0,1.169,1.046,1.169h.817V17Zm7.8.176a5.681,5.681,0,0,1-2.558-.554A4.138,4.138,0,0,1,54.377,15a4.846,4.846,0,0,1-.637-2.522,4.42,4.42,0,0,1,1.371-3.428,5.731,5.731,0,0,1,7.163,0,4.42,4.42,0,0,1,1.371,3.428,4.444,4.444,0,0,1-1.371,3.441A5.088,5.088,0,0,1,58.688,17.176Zm-.026-2.013a2.319,2.319,0,0,0,1.789-.738,2.764,2.764,0,0,0,.681-1.951,2.764,2.764,0,0,0-.681-1.951,2.319,2.319,0,0,0-1.789-.738,2.234,2.234,0,0,0-1.736.743,2.789,2.789,0,0,0-.672,1.947,2.789,2.789,0,0,0,.672,1.947A2.234,2.234,0,0,0,58.662,15.163ZM67.952,9.4a2.933,2.933,0,0,1,1.187-1.085,3.62,3.62,0,0,1,1.767-.453v2.259a3.423,3.423,0,0,0-2.162.545,2.379,2.379,0,0,0-.668,1.934V17H65.526V7.965h2.426Zm12.885,2.953-.026.606h-6.7a2.339,2.339,0,0,0,.721,1.652,2.3,2.3,0,0,0,1.591.571,2.221,2.221,0,0,0,1.191-.312,1.918,1.918,0,0,0,.76-.91l2.32.343a3.945,3.945,0,0,1-1.582,2.118,4.7,4.7,0,0,1-2.672.756,4.891,4.891,0,0,1-3.52-1.244,4.538,4.538,0,0,1-1.305-3.45,4.565,4.565,0,0,1,1.31-3.45,4.746,4.746,0,0,1,3.437-1.261,4.536,4.536,0,0,1,3.243,1.151A4.517,4.517,0,0,1,80.837,12.351ZM76.381,9.564a2,2,0,0,0-2.2,1.74h4.148a1.9,1.9,0,0,0-.624-1.292A1.978,1.978,0,0,0,76.381,9.564Zm9.563,7.611a5.049,5.049,0,0,1-2.637-.633,2.675,2.675,0,0,1-1.292-1.881l2.118-.6a1.7,1.7,0,0,0,1.811,1.345,1.87,1.87,0,0,0,.923-.207.719.719,0,0,0,.36-.7.739.739,0,0,0-.149-.466,1.183,1.183,0,0,0-.461-.334A5.749,5.749,0,0,0,86,13.467q-.3-.1-.8-.233t-.835-.259a5.593,5.593,0,0,1-.8-.338,3.393,3.393,0,0,1-.659-.466,1.878,1.878,0,0,1-.492-.708,2.552,2.552,0,0,1-.171-.967,2.308,2.308,0,0,1,.98-2.021,4.379,4.379,0,0,1,2.562-.686,4.489,4.489,0,0,1,2.364.58,2.625,2.625,0,0,1,1.213,1.811l-1.96.439a1.535,1.535,0,0,0-1.608-1.143,1.761,1.761,0,0,0-.888.2.649.649,0,0,0-.352.6.685.685,0,0,0,.053.272.539.539,0,0,0,.185.22,2.692,2.692,0,0,0,.255.167,1.923,1.923,0,0,0,.36.145q.237.075.4.114l.461.119.47.123q.483.132.848.264a4.967,4.967,0,0,1,.778.369,2.792,2.792,0,0,1,.681.532,2.372,2.372,0,0,1,.444.747,2.759,2.759,0,0,1,.176,1.006,2.718,2.718,0,0,1-.3,1.31,2.276,2.276,0,0,1-.831.883,4.043,4.043,0,0,1-1.173.475A6.087,6.087,0,0,1,85.943,17.176Z" transform="translate(791 2605.5)" fill="#00223d"/>
    <g id="Grupo_24911" data-name="Grupo 24911" transform="translate(-204 18)">
      <rect id="Rectángulo_25470" data-name="Rectángulo 25470" width="330" height="201" rx="8" transform="translate(886 2617)" fill="#e7b42b" opacity="0.359"/>
      <text id="Organización_de_las_Naciones_Unidas_para_el_Desarrollo_Industrial_ONUDI_._Programa_de_las_Naciones_Unidas_para_el_Medio_Ambiente_PNUMA_._Alianza_del_Pacífico" data-name="Organización de las Naciones Unidas para el Desarrollo Industrial (ONUDI).
Programa de las Naciones Unidas para el Medio Ambiente
(PNUMA).
Alianza del Pacífico" transform="translate(918 2632.5)" fill="#00223d" font-size="18" font-family="CerebriSans-Regular, Cerebri Sans"><tspan x="0" y="17">Organización de las Naciones </tspan><tspan x="0" y="41">Unidas para el Desarrollo Industrial </tspan><tspan x="0" y="65">(ONUDI).</tspan><tspan x="0" y="89">Programa de las Naciones Unidas </tspan><tspan x="0" y="113">para el Medio Ambiente</tspan><tspan x="0" y="137">(PNUMA).</tspan><tspan x="0" y="161">Alianza del Pacífico</tspan></text>
      <circle id="Elipse_954" data-name="Elipse 954" cx="4.353" cy="4.353" r="4.353" transform="translate(898.647 2638.647)" fill="#e4986f"/>
      <circle id="Elipse_955" data-name="Elipse 955" cx="4.353" cy="4.353" r="4.353" transform="translate(898.647 2713.647)" fill="#e4986f"/>
      <circle id="Elipse_956" data-name="Elipse 956" cx="4.353" cy="4.353" r="4.353" transform="translate(898.647 2783.647)" fill="#e4986f"/>
    </g>
    <g id="grafico2-cp2" transform="translate(249.97 2621)">
      <path id="Trazado_60903" data-name="Trazado 60903" d="M-43.94,34.69A108.9,108.9,0,0,1,6.34,46.87a55.575,55.575,0,1,1,64.48,0A108.9,108.9,0,0,1,121.1,34.69a110.671,110.671,0,0,1,21.21,2A109.79,109.79,0,0,0,148,1.63a108.77,108.77,0,0,0-32-77.4,108.77,108.77,0,0,0-77.4-32.06A108.75,108.75,0,0,0-38.8-75.77,108.73,108.73,0,0,0-70.88,1.63a109.51,109.51,0,0,0,5.73,35.1,110.6,110.6,0,0,1,21.21-2.04Z" transform="translate(153.4 107.83)" fill="url(#linear-gradient)"/>
      <path id="Trazado_60904" data-name="Trazado 60904" d="M198.5,66.75A109.61,109.61,0,0,0,69,47.83L96,94.59a55.57,55.57,0,1,1-30.44,49.56,108.69,108.69,0,0,1-26.94,71.92c1.64,1.87,3.34,3.7,5.12,5.48A109.453,109.453,0,1,0,198.51,66.74Z" transform="translate(153.4 107.83)" fill="url(#linear-gradient-2)"/>
      <path id="Trazado_60905" data-name="Trazado 60905" d="M11.63,144.09v.06a55.64,55.64,0,0,1-55.58,55.57,55.64,55.64,0,0,1-55.58-55.57A55.64,55.64,0,0,1-43.94,88.57a55.16,55.16,0,0,1,25.13,6l27-46.76a108.93,108.93,0,0,0-52.1-13.14,108.71,108.71,0,0,0-77.4,32.06,108.71,108.71,0,0,0-32.06,77.4,108.73,108.73,0,0,0,32.06,77.4,108.75,108.75,0,0,0,77.4,32.06,108.77,108.77,0,0,0,77.4-32.06,108.77,108.77,0,0,0,32.06-77.4v-.06Z" transform="translate(153.4 107.83)" fill="url(#linear-gradient-3)"/>
    </g>
    <g id="Grupo_24912" data-name="Grupo 24912" transform="translate(-67 14)">
      <rect id="Rectángulo_25471" data-name="Rectángulo 25471" width="330" height="113" rx="8" transform="translate(749 2840)" fill="#d15b8b" opacity="0.359"/>
      <text id="Sector_público_Sector_privado_Academia_Sociedad_civl" data-name="Sector público
Sector privado
Academia
Sociedad civl" transform="translate(782 2845.5)" fill="#00223d" font-size="18" font-family="CerebriSans-Regular, Cerebri Sans"><tspan x="0" y="17">Sector público</tspan><tspan x="0" y="41">Sector privado</tspan><tspan x="0" y="65">Academia</tspan><tspan x="0" y="89">Sociedad civl</tspan></text>
      <circle id="Elipse_957" data-name="Elipse 957" cx="4.353" cy="4.353" r="4.353" transform="translate(761.647 2852.647)" fill="#e4986f"/>
      <circle id="Elipse_958" data-name="Elipse 958" cx="4.353" cy="4.353" r="4.353" transform="translate(761.647 2877.647)" fill="#e4986f"/>
      <circle id="Elipse_959" data-name="Elipse 959" cx="4.353" cy="4.353" r="4.353" transform="translate(761.647 2901.647)" fill="#e4986f"/>
      <circle id="Elipse_960" data-name="Elipse 960" cx="4.353" cy="4.353" r="4.353" transform="translate(761.647 2926.647)" fill="#e4986f"/>
    </g>
    <g id="Grupo_24913" data-name="Grupo 24913" transform="matrix(0.017, 1, -1, 0.017, 865.215, 2824.654)">
      <g id="Grupo_24908-2" data-name="Grupo 24908" transform="translate(0 0)" clip-path="url(#clip-path-2)">
        <rect id="Rectángulo_25468-2" data-name="Rectángulo 25468" width="29.251" height="26.494" transform="translate(0 0)" fill="#d25b8b"/>
      </g>
    </g>
  </g>
</svg>
