<svg xmlns="http://www.w3.org/2000/svg" xmlns:xlink="http://www.w3.org/1999/xlink" width="128" height="128" viewBox="0 0 128 128">
  <defs>
    <clipPath id="clip-path">
      <rect id="Rectángulo_25433" data-name="Rectángulo 25433" width="75.785" height="75.785" fill="none"/>
    </clipPath>
  </defs>
  <g id="Grupo_25683" data-name="Grupo 25683" transform="translate(-269 -8751)">
    <g id="Elipse_944" data-name="Elipse 944" transform="translate(269 8751)" fill="#fff" stroke="#e4986f" stroke-width="4">
      <circle cx="64" cy="64" r="64" stroke="none"/>
      <circle cx="64" cy="64" r="62" fill="none"/>
    </g>
    <g id="Grupo_24889" data-name="Grupo 24889" transform="translate(295 8777)">
      <g id="Grupo_24888" data-name="Grupo 24888" transform="translate(0)" clip-path="url(#clip-path)">
        <path id="Trazado_60749" data-name="Trazado 60749" d="M78.954,41.924H69.163a4.889,4.889,0,0,1,.012-9.779h11A12.228,12.228,0,0,1,92.4,44.368V55.149a12.594,12.594,0,0,0,3.447,8.972,4.9,4.9,0,0,1,1.308,4.62,4.821,4.821,0,0,1-.893,1.87,17.043,17.043,0,0,0-11.282-5.3l-2.359-.159V55.369l.257-.135a3.946,3.946,0,0,0,0-7.065l-.257-.135V45.59a3.662,3.662,0,0,0-3.667-3.667" transform="translate(-42.284 -21.143)" fill="#656d78"/>
        <path id="Trazado_60750" data-name="Trazado 60750" d="M170.494,60.716a9.779,9.779,0,1,1-9.779,9.779,9.776,9.776,0,0,1,9.779-9.779" transform="translate(-105.709 -39.936)" fill="#e6e9ed"/>
        <path id="Trazado_60751" data-name="Trazado 60751" d="M23.129,82.336v4.889l-1.809.66c-.049.11-.086.232-.135.342l.807,1.736-3.46,3.459L16.8,92.616c-.11.049-.232.086-.342.135l-.66,1.809H10.906l-.66-1.809c-.111-.049-.232-.086-.342-.135l-1.736.807L4.709,89.964l.806-1.736c-.049-.11-.086-.232-.134-.342l-1.809-.66V82.336l1.809-.66c.049-.11.086-.232.134-.342L4.709,79.6l3.459-3.459,1.736.807c.11-.049.232-.086.342-.135L10.906,75h4.889l.66,1.809c.11.049.232.086.342.135l1.736-.807,3.46,3.459-.807,1.736c.049.11.086.232.135.342ZM18.24,84.781a4.889,4.889,0,1,0-4.889,4.889,4.888,4.888,0,0,0,4.889-4.889" transform="translate(-2.349 -49.332)" fill="#fcd770"/>
        <path id="Trazado_60752" data-name="Trazado 60752" d="M74.638,149.353V137.129H55.08v17.113H51.291a8.435,8.435,0,0,1-8.434-8.434,17.134,17.134,0,0,1,15.976-17.076l2.359-.159a3.667,3.667,0,0,0,7.334,0l2.359.159a17.114,17.114,0,0,1,15.976,17.076,8.43,8.43,0,0,1-8.434,8.434H74.638Z" transform="translate(-28.189 -84.568)" fill="#ff826e"/>
        <path id="Trazado_60753" data-name="Trazado 60753" d="M98.128,153.574V165.8l-1.43-1.43a3.457,3.457,0,0,0-5.9,2.444v.416a3.464,3.464,0,0,0,3.46,3.459h3.875v4.889H78.571v-4.889h3.875a3.464,3.464,0,0,0,3.459-3.459v-.416a3.457,3.457,0,0,0-5.9-2.444l-1.43,1.43V153.574Z" transform="translate(-51.68 -101.012)" fill="#e6e9ed"/>
        <path id="Trazado_60754" data-name="Trazado 60754" d="M121.619,184.589v4.889h-3.875a3.464,3.464,0,0,1-3.46-3.459V185.6a3.457,3.457,0,0,1,5.9-2.444Z" transform="translate(-75.17 -119.804)" fill="#f0d0b4"/>
        <path id="Trazado_60755" data-name="Trazado 60755" d="M85.906,185.6v.415a3.464,3.464,0,0,1-3.459,3.46H78.572V184.59l1.43-1.43a3.459,3.459,0,0,1,5.9,2.445" transform="translate(-51.68 -119.805)" fill="#f0d0b4"/>
        <path id="Trazado_60756" data-name="Trazado 60756" d="M87.319,74.162v9.779a3.667,3.667,0,0,1-7.334,0V79.051h-.721A4.173,4.173,0,0,1,75.1,74.883V71.717l-1.724-.574a2.838,2.838,0,0,1-1.944-2.689,2.753,2.753,0,0,1,.11-.782l1.479-5.2a6,6,0,0,1,.843-1.76h9.791a3.662,3.662,0,0,1,3.667,3.667v2.445l.257.134a3.946,3.946,0,0,1,0,7.065Z" transform="translate(-46.981 -39.936)" fill="#f0d0b4"/>
        <rect id="Rectángulo_25430" data-name="Rectángulo 25430" width="2.445" height="6.112" transform="translate(50.116 56.228)"/>
        <path id="Trazado_60757" data-name="Trazado 60757" d="M56.609,146.067H48.945a9.67,9.67,0,0,1-9.659-9.658,18.384,18.384,0,0,1,17.115-18.3l1.22-.081v-3.746h2.445v6.033l-3.5.234A15.931,15.931,0,0,0,41.73,136.409a7.222,7.222,0,0,0,7.215,7.213h7.664a2.237,2.237,0,0,0,2.234-2.235v-.419a2.234,2.234,0,0,0-3.815-1.581l-2.056,2.054-5.13-2.565-1.9.949-1.094-2.187,2.991-1.5,4.648,2.324.809-.808a4.679,4.679,0,0,1,7.989,3.309v.419a4.686,4.686,0,0,1-4.679,4.679" transform="translate(-25.84 -75.171)"/>
        <rect id="Rectángulo_25431" data-name="Rectángulo 25431" width="2.445" height="6.112" transform="translate(20.78 56.228)"/>
        <path id="Trazado_60758" data-name="Trazado 60758" d="M111.312,108.481h-7.664a4.685,4.685,0,0,1-4.679-4.679v-.419a4.679,4.679,0,0,1,7.988-3.309l.809.808,4.648-2.324,2.992,1.5-1.094,2.187-1.9-.949-5.131,2.565-2.055-2.054a2.234,2.234,0,0,0-3.815,1.581v.419a2.238,2.238,0,0,0,2.235,2.235h7.664a7.222,7.222,0,0,0,7.214-7.213,15.931,15.931,0,0,0-14.833-15.856l-3.5-.234V71.055l.933-.466a2.732,2.732,0,0,0,0-4.888l-.933-.472v-3.2a2.448,2.448,0,0,0-2.445-2.445H92.857V57.143h4.889a4.894,4.894,0,0,1,4.889,4.889v1.714a5.178,5.178,0,0,1,0,8.8v7.9l1.22.081a18.384,18.384,0,0,1,17.115,18.3,9.67,9.67,0,0,1-9.659,9.658" transform="translate(-61.076 -37.586)"/>
        <path id="Trazado_60759" data-name="Trazado 60759" d="M76.921,78.913a5.4,5.4,0,0,1-5.4-5.4v-2.28l-.889-.3a4.057,4.057,0,0,1-2.62-4.971l1.48-5.186a7.127,7.127,0,0,1,1.021-2.138l2,1.406a4.679,4.679,0,0,0-.671,1.4l-1.48,5.185a1.612,1.612,0,0,0,1.042,1.979l2.561.855v4.042a2.95,2.95,0,0,0,2.952,2.951H81.3v2.445Z" transform="translate(-44.633 -38.575)"/>
        <path id="Trazado_60760" data-name="Trazado 60760" d="M94.877,69.013l-1.924-1.506a3.558,3.558,0,0,0,.665-1.384,3.663,3.663,0,0,0-.98-3.479A13.691,13.691,0,0,1,88.829,52.8V42.017a11.013,11.013,0,0,0-11-11h-11a3.667,3.667,0,1,0,0,7.334h6.111a1.222,1.222,0,1,0,0-2.445H70.494V33.461h2.444a3.667,3.667,0,1,1,0,7.334H66.827a6.112,6.112,0,1,1,0-12.223h11A13.461,13.461,0,0,1,91.273,42.017V52.8a11.427,11.427,0,0,0,3.088,8.11A6.137,6.137,0,0,1,96,66.667a5.983,5.983,0,0,1-1.123,2.345" transform="translate(-39.935 -18.793)"/>
        <path id="Trazado_60761" data-name="Trazado 60761" d="M97,168.335H94.557V152.445H77.444v15.891H75V150H97Z" transform="translate(-49.331 -98.662)"/>
        <path id="Trazado_60762" data-name="Trazado 60762" d="M97,209.684H75v-6.112h2.445v3.667H94.557v-3.667H97Z" transform="translate(-49.331 -133.898)"/>
        <path id="Trazado_60763" data-name="Trazado 60763" d="M97.746,133.461a4.894,4.894,0,0,1-4.889-4.889H95.3a2.445,2.445,0,0,0,4.89,0h2.444a4.894,4.894,0,0,1-4.889,4.889" transform="translate(-61.076 -84.568)"/>
        <path id="Trazado_60764" data-name="Trazado 60764" d="M14.3,93.431H7.7l-.586-1.615-1.555.728L.886,87.876l.728-1.558L0,85.731v-6.6l1.615-.586L.886,76.986l4.671-4.668,1.555.728L7.7,71.429h6.6l.586,1.616,1.555-.728,4.671,4.668-.728,1.557L22,79.128v6.6l-1.615.586.728,1.558-4.671,4.668-1.555-.728ZM9.413,90.986h3.175l.556-1.529.52-.2c.094-.037.19-.073.281-.115l.511-.228,1.472.688,2.246-2.246-.686-1.465L18,84.644l.547-.26,1.007-.367V80.842l-1.524-.553-.545-1.321.686-1.465-2.246-2.246-1.472.688-.511-.228c-.091-.042-.187-.077-.281-.115l-.52-.2-.556-1.53H9.413L8.856,75.4l-.519.2c-.094.037-.19.073-.282.115l-.511.228-1.472-.688L3.827,77.5l.685,1.465L3.985,80.25l-1.541.592v3.175l1.523.554.546,1.322-.685,1.465L6.073,89.6l1.472-.688.511.228c.092.042.188.078.282.115l.519.2Z" transform="translate(0.001 -46.982)"/>
        <path id="Trazado_60765" data-name="Trazado 60765" d="M20.4,97.938a6.112,6.112,0,1,1,6.111-6.112A6.119,6.119,0,0,1,20.4,97.938m0-9.779a3.667,3.667,0,1,0,3.667,3.667A3.671,3.671,0,0,0,20.4,88.16" transform="translate(-9.397 -56.379)"/>
        <path id="Trazado_60766" data-name="Trazado 60766" d="M168.144,79.145a11,11,0,1,1,11-11,11.013,11.013,0,0,1-11,11m0-19.557a8.556,8.556,0,1,0,8.556,8.556,8.567,8.567,0,0,0-8.556-8.556" transform="translate(-103.36 -37.586)"/>
        <rect id="Rectángulo_25432" data-name="Rectángulo 25432" width="12.223" height="2.445" transform="translate(30.559 56.228)"/>
        <path id="Trazado_60767" data-name="Trazado 60767" d="M175.784,89.545l-3.309-3.309,1.728-1.728,1.581,1.58,6.47-6.47,1.728,1.728Z" transform="translate(-113.445 -52.368)"/>
        <path id="Trazado_60768" data-name="Trazado 60768" d="M169.225,144.3l-1.86-1.588A32.78,32.78,0,0,0,173.7,131.1l2.338.716a35.261,35.261,0,0,1-6.811,12.49" transform="translate(-110.083 -86.228)"/>
        <path id="Trazado_60769" data-name="Trazado 60769" d="M34.549,141.778a36.085,36.085,0,0,1-4.722-9.957l2.34-.7a33.667,33.667,0,0,0,4.4,9.284Z" transform="translate(-19.619 -86.242)"/>
        <path id="Trazado_60770" data-name="Trazado 60770" d="M34.661,21.214l-2.285-.869C37.08,7.986,47.6,0,59.188,0c10.346,0,19.728,6.164,25.1,16.49l-2.168,1.127C77.175,8.117,68.6,2.445,59.188,2.445,48.628,2.445,39,9.812,34.661,21.214" transform="translate(-21.295)"/>
        <path id="Trazado_60771" data-name="Trazado 60771" d="M30.1,49.909l-1.454-7.272,2.4-.479.99,4.951L38.2,46.08l.4,2.412Z" transform="translate(-18.839 -27.729)"/>
        <path id="Trazado_60772" data-name="Trazado 60772" d="M177.978,135.655l-1.99-4.976-4.978,1.991-.907-2.27,7.246-2.9,2.9,7.247Z" transform="translate(-111.884 -83.863)"/>
      </g>
    </g>
  </g>
</svg>
