<svg xmlns="http://www.w3.org/2000/svg" xmlns:xlink="http://www.w3.org/1999/xlink" width="128" height="128" viewBox="0 0 128 128">
  <defs>
    <clipPath id="clip-path">
      <rect id="Rect치ngulo_25435" data-name="Rect치ngulo 25435" width="75.785" height="75.785" fill="none"/>
    </clipPath>
  </defs>
  <g id="Grupo_25684" data-name="Grupo 25684" transform="translate(-269 -8945)">
    <g id="Elipse_946" data-name="Elipse 946" transform="translate(269 8945)" fill="#fff" stroke="#e4986f" stroke-width="4">
      <circle cx="64" cy="64" r="64" stroke="none"/>
      <circle cx="64" cy="64" r="62" fill="none"/>
    </g>
    <g id="Grupo_24891" data-name="Grupo 24891" transform="translate(295 8971)">
      <g id="Grupo_24890" data-name="Grupo 24890" transform="translate(0)" clip-path="url(#clip-path)">
        <path id="Trazado_60773" data-name="Trazado 60773" d="M82.143,196.431H101.7a8.779,8.779,0,0,1-8.655,7.334H90.8a8.779,8.779,0,0,1-8.654-7.334" transform="translate(-54.029 -129.201)" fill="#aab2bd"/>
        <path id="Trazado_60774" data-name="Trazado 60774" d="M30.463,95.591A13.446,13.446,0,1,1,17.017,82.145,13.446,13.446,0,0,1,30.463,95.591" transform="translate(-2.349 -54.03)" fill="#e6e9ed"/>
        <path id="Trazado_60775" data-name="Trazado 60775" d="M166.177,95.591a13.446,13.446,0,1,1-13.445-13.446,13.446,13.446,0,0,1,13.445,13.446" transform="translate(-91.615 -54.03)" fill="#e6e9ed"/>
        <path id="Trazado_60776" data-name="Trazado 60776" d="M98.32,17.019A13.446,13.446,0,1,1,84.875,3.573,13.446,13.446,0,0,1,98.32,17.019" transform="translate(-46.982 -2.35)" fill="#e6e9ed"/>
        <path id="Trazado_60777" data-name="Trazado 60777" d="M97,182.145a2.452,2.452,0,0,1,2.445,2.445A2.462,2.462,0,0,1,97,187.034H77.445A2.452,2.452,0,0,1,75,184.59a2.462,2.462,0,0,1,2.445-2.445H97Z" transform="translate(-49.331 -119.805)" fill="#ccd1d9"/>
        <path id="Trazado_60778" data-name="Trazado 60778" d="M81.844,129.8v17.113H72.065a11.816,11.816,0,0,0-3.46-8.349l-1.785-1.785a12.9,12.9,0,0,0,2.164-2.078,13.5,13.5,0,0,0,2.86-6.124,5.081,5.081,0,0,0,5.11,4.889,4.888,4.888,0,0,0,4.889-4.889Z" transform="translate(-43.951 -84.569)" fill="#ffeaa7"/>
        <path id="Trazado_60779" data-name="Trazado 60779" d="M120.921,131.324a13.4,13.4,0,0,0,2.652,5.183,12.894,12.894,0,0,0,2.163,2.078l-1.785,1.785a11.817,11.817,0,0,0-3.459,8.349h-9.779V131.6a3.667,3.667,0,1,0,7.334,0c0-.061-.012-.122-.012-.183a4.575,4.575,0,0,0,1.235.183,4.922,4.922,0,0,0,1.65-.281" transform="translate(-72.822 -86.378)" fill="#ffeaa7"/>
        <path id="Trazado_60780" data-name="Trazado 60780" d="M141.706,49.587a4.876,4.876,0,0,0-3.826-4.119,4.681,4.681,0,0,0-.415-3.716,13.273,13.273,0,0,0,1.21-1.271A13.481,13.481,0,0,0,140.5,26.216a25.063,25.063,0,0,1,13.311,19.337,12.805,12.805,0,0,0-2.273-.2,13.375,13.375,0,0,0-9.8,4.254Z" transform="translate(-90.416 -17.243)" fill="#ffeaa7"/>
        <path id="Trazado_60781" data-name="Trazado 60781" d="M51.346,40.481a13.569,13.569,0,0,0,2.8,2.555,4.4,4.4,0,0,0-.99-.122,4.883,4.883,0,0,0-3.887,7.848,13.416,13.416,0,0,0-10.781-5.4,12.812,12.812,0,0,0-2.274.2A25.063,25.063,0,0,1,49.525,26.216a13.479,13.479,0,0,0,1.821,14.265" transform="translate(-23.82 -17.243)" fill="#ffeaa7"/>
        <path id="Trazado_60782" data-name="Trazado 60782" d="M169.017,132.348a13.437,13.437,0,0,1-18.567,2.078,12.9,12.9,0,0,1-2.163-2.078,10.986,10.986,0,0,1,20.731,0" transform="translate(-97.534 -82.219)" fill="#b4dd7f"/>
        <path id="Trazado_60783" data-name="Trazado 60783" d="M33.3,132.348a12.894,12.894,0,0,1-2.163,2.078,13.437,13.437,0,0,1-18.567-2.078,10.986,10.986,0,0,1,20.731,0" transform="translate(-8.269 -82.219)" fill="#b4dd7f"/>
        <path id="Trazado_60784" data-name="Trazado 60784" d="M90.794,46.43a11,11,0,0,1,10.365,7.347,13.145,13.145,0,0,1-1.21,1.271,13.452,13.452,0,0,1-16.722,1.283,13.588,13.588,0,0,1-2.8-2.555A11,11,0,0,1,90.794,46.43" transform="translate(-52.901 -30.539)" fill="#ff826e"/>
        <path id="Trazado_60785" data-name="Trazado 60785" d="M98.3,79.47l-.024-.025a4.876,4.876,0,0,0-3.826-4.119,4.684,4.684,0,0,0-.415-3.716,13.453,13.453,0,0,1-16.722,1.283,4.379,4.379,0,0,0-.99-.123,4.883,4.883,0,0,0-3.887,7.848l.11.147a13.521,13.521,0,0,1,2.335,10.341A5.081,5.081,0,0,0,79.984,96a4.888,4.888,0,0,0,4.889-4.889v1.222a3.667,3.667,0,1,0,7.334,0c0-.061-.012-.122-.012-.183a4.571,4.571,0,0,0,1.235.183,4.921,4.921,0,0,0,1.65-.281,13.492,13.492,0,0,1,.746-8.874,12.912,12.912,0,0,1,2.469-3.7" transform="translate(-46.981 -47.101)" fill="#ecc19c"/>
        <path id="Trazado_60786" data-name="Trazado 60786" d="M169.175,96.431a4.889,4.889,0,1,1-4.889,4.889,4.888,4.888,0,0,1,4.889-4.889" transform="translate(-108.058 -63.427)" fill="#f0d0b4"/>
        <path id="Trazado_60787" data-name="Trazado 60787" d="M101.317,17.859a4.889,4.889,0,1,1-4.889,4.889,4.888,4.888,0,0,1,4.889-4.889" transform="translate(-63.425 -11.747)" fill="#f0d0b4"/>
        <path id="Trazado_60788" data-name="Trazado 60788" d="M33.461,96.431a4.889,4.889,0,1,1-4.889,4.889,4.888,4.888,0,0,1,4.889-4.889" transform="translate(-18.793 -63.427)" fill="#f0d0b4"/>
        <path id="Trazado_60789" data-name="Trazado 60789" d="M98.969,26.509A6.112,6.112,0,1,1,105.08,20.4a6.119,6.119,0,0,1-6.112,6.112m0-9.779a3.667,3.667,0,1,0,3.667,3.667,3.671,3.671,0,0,0-3.667-3.667" transform="translate(-61.076 -9.397)"/>
        <path id="Trazado_60790" data-name="Trazado 60790" d="M97.793,51.83a9.764,9.764,0,0,0-18.423,0l-2.3-.814a12.208,12.208,0,0,1,23.033,0Z" transform="translate(-50.689 -28.19)"/>
        <path id="Trazado_60791" data-name="Trazado 60791" d="M31.112,105.08a6.112,6.112,0,1,1,6.112-6.112,6.119,6.119,0,0,1-6.112,6.112m0-9.779a3.667,3.667,0,1,0,3.667,3.667A3.671,3.671,0,0,0,31.112,95.3" transform="translate(-16.444 -61.076)"/>
        <path id="Trazado_60792" data-name="Trazado 60792" d="M29.936,130.4a9.764,9.764,0,0,0-18.423,0l-2.305-.814a12.208,12.208,0,0,1,23.033,0Z" transform="translate(-6.057 -79.869)"/>
        <path id="Trazado_60793" data-name="Trazado 60793" d="M166.827,105.08a6.112,6.112,0,1,1,6.111-6.112,6.119,6.119,0,0,1-6.111,6.112m0-9.779a3.667,3.667,0,1,0,3.667,3.667,3.671,3.671,0,0,0-3.667-3.667" transform="translate(-105.709 -61.076)"/>
        <path id="Trazado_60794" data-name="Trazado 60794" d="M165.65,130.4a9.764,9.764,0,0,0-18.423,0l-2.305-.814a12.208,12.208,0,0,1,23.033,0Z" transform="translate(-95.322 -79.869)"/>
        <path id="Trazado_60795" data-name="Trazado 60795" d="M94.653,185.906H75.1a3.667,3.667,0,1,1,0-7.334H94.653a3.667,3.667,0,0,1,0,7.334M75.1,181.017a1.222,1.222,0,0,0,0,2.445H94.653a1.222,1.222,0,0,0,0-2.445Z" transform="translate(-46.981 -117.455)"/>
        <path id="Trazado_60796" data-name="Trazado 60796" d="M90.726,204.6H88.484a9.968,9.968,0,0,1-9.863-8.356l2.411-.4a7.531,7.531,0,0,0,7.452,6.312h2.242a7.531,7.531,0,0,0,7.452-6.312l2.411.4a9.968,9.968,0,0,1-9.863,8.356" transform="translate(-51.713 -128.815)"/>
        <path id="Trazado_60797" data-name="Trazado 60797" d="M71.617,161H69.172a10.514,10.514,0,0,0-3.1-7.482l-1.792-1.792L66.01,150l1.792,1.791A12.946,12.946,0,0,1,71.617,161" transform="translate(-42.28 -98.66)"/>
        <path id="Trazado_60798" data-name="Trazado 60798" d="M35.1,43.567l-2.428-.277A26.231,26.231,0,0,1,46.667,22.97L47.8,25.138A23.8,23.8,0,0,0,35.1,43.567" transform="translate(-21.492 -15.108)"/>
        <path id="Trazado_60799" data-name="Trazado 60799" d="M157.266,43.567a23.8,23.8,0,0,0-12.693-18.429L145.7,22.97a26.231,26.231,0,0,1,13.991,20.32Z" transform="translate(-95.092 -15.108)"/>
        <path id="Trazado_60800" data-name="Trazado 60800" d="M82.525,29.336A14.668,14.668,0,1,1,97.193,14.668,14.684,14.684,0,0,1,82.525,29.336m0-26.891A12.223,12.223,0,1,0,94.748,14.668,12.238,12.238,0,0,0,82.525,2.445" transform="translate(-44.633)"/>
        <path id="Trazado_60801" data-name="Trazado 60801" d="M14.668,107.908A14.668,14.668,0,1,1,29.336,93.24a14.684,14.684,0,0,1-14.668,14.668m0-26.891A12.223,12.223,0,1,0,26.892,93.24,12.238,12.238,0,0,0,14.668,81.017" transform="translate(0 -51.68)"/>
        <path id="Trazado_60802" data-name="Trazado 60802" d="M150.383,107.908A14.668,14.668,0,1,1,165.051,93.24a14.684,14.684,0,0,1-14.668,14.668m0-26.891A12.223,12.223,0,1,0,162.606,93.24a12.238,12.238,0,0,0-12.223-12.223" transform="translate(-89.266 -51.68)"/>
        <path id="Trazado_60803" data-name="Trazado 60803" d="M138.159,161h-2.445a12.944,12.944,0,0,1,3.815-9.211L141.321,150l1.728,1.728-1.791,1.792a10.515,10.515,0,0,0-3.1,7.482" transform="translate(-89.265 -98.66)"/>
        <path id="Trazado_60804" data-name="Trazado 60804" d="M138.355,78.462a3.669,3.669,0,0,0-2.871-3.087L134.2,75.1l.357-1.258a3.485,3.485,0,0,0-.3-2.783l2.135-1.193a6.115,6.115,0,0,1,.773,2.978c0,.166-.008.333-.024.5a6.124,6.124,0,0,1,3.636,4.783Z" transform="translate(-88.272 -45.957)"/>
        <path id="Trazado_60805" data-name="Trazado 60805" d="M73.969,83.652a6.112,6.112,0,0,1,0-12.223,5.808,5.808,0,0,1,1.261.148l-.53,2.387a3.309,3.309,0,0,0-.731-.091,3.667,3.667,0,1,0,3.553,4.583l2.368.609a6.109,6.109,0,0,1-5.921,4.588" transform="translate(-44.633 -46.982)"/>
        <path id="Trazado_60806" data-name="Trazado 60806" d="M120.786,105.195l-2.368-.609a6.113,6.113,0,0,1,8.91-3.8l-1.2,2.13a3.669,3.669,0,0,0-5.343,2.283" transform="translate(-77.889 -65.775)"/>
        <path id="Trazado_60807" data-name="Trazado 60807" d="M92.812,133.61a4.886,4.886,0,0,1-3.985-2.059,6.1,6.1,0,0,1-4.572,2.059,6.31,6.31,0,0,1-6.334-6.112h2.445a3.882,3.882,0,0,0,3.889,3.667,3.671,3.671,0,0,0,3.667-3.667h2.444v1.222a2.445,2.445,0,0,0,4.89,0h0a.44.44,0,0,1-.016-.13l-.067-1.652,1.6.421a3.343,3.343,0,0,0,2.168-.076l.826,2.3a6.071,6.071,0,0,1-2.219.355,4.9,4.9,0,0,1-4.735,3.669" transform="translate(-51.253 -83.493)"/>
        <rect id="Rect치ngulo_25434" data-name="Rect치ngulo 25434" width="2.445" height="34.226" transform="translate(36.67 28.114)"/>
      </g>
    </g>
  </g>
</svg>
