<svg xmlns="http://www.w3.org/2000/svg" width="40" height="43.968" viewBox="0 0 40 43.968">
  <g id="Grupo_9955" data-name="Grupo 9955" transform="translate(-727.231 707.753)">
    <path id="Trazado_9457" data-name="Trazado 9457" d="M969.531-663.708h4.06l-6.259-6.589v4.38A2.213,2.213,0,0,0,969.531-663.708Z" transform="translate(-219.482 -34.24)" fill="#fff"/>
    <path id="Trazado_9458" data-name="Trazado 9458" d="M754.146-664.5a.919.919,0,0,1-.917-.916.919.919,0,0,1,.917-.916h11.638a12.786,12.786,0,0,1,8.357-3.153c.238,0,.458.028.733.037V-676.6h-5.315a4.04,4.04,0,0,1-4.032-4.041v-5.764H751.653a3.1,3.1,0,0,0-3.079,3.125v27.968a3.07,3.07,0,0,0,3.079,3.088v.009H762.42a12.216,12.216,0,0,1-.9-4.655,12.334,12.334,0,0,1,.348-2.951h-7.725a.919.919,0,0,1-.917-.917.919.919,0,0,1,.917-.917h8.321a14.583,14.583,0,0,1,1.613-2.841Zm0-6.424h9.283a.919.919,0,0,1,.917.917.919.919,0,0,1-.917.916h-9.283a.919.919,0,0,1-.917-.916A.919.919,0,0,1,754.146-670.922Z" transform="translate(-19.51 -19.511)" fill="#fff"/>
    <path id="Trazado_9459" data-name="Trazado 9459" d="M931.573-467.761A10.773,10.773,0,0,0,920.8-456.993a10.779,10.779,0,0,0,10.768,10.768,10.778,10.778,0,0,0,10.767-10.768A10.773,10.773,0,0,0,931.573-467.761Zm6.021,11.822-5.37,5.764a.923.923,0,0,1-.669.293.923.923,0,0,1-.669-.293l-5.361-5.764a.913.913,0,0,1,.046-1.292.925.925,0,0,1,1.3.046l3.794,4.06v-10.007a.919.919,0,0,1,.917-.916.919.919,0,0,1,.917.916v10.007l3.766-4.06a.913.913,0,0,1,1.292-.046A.913.913,0,0,1,937.593-455.939Z" transform="translate(-176.951 -219.383)" fill="#e4986f"/>
    <path id="Trazado_9460" data-name="Trazado 9460" d="M757.2-688.72v-8.321a.963.963,0,0,0-.266-.632l-9.329-9.8a.93.93,0,0,0-.669-.284H732.143a4.928,4.928,0,0,0-4.912,4.958v27.968a4.9,4.9,0,0,0,4.912,4.921h11.675a12.6,12.6,0,0,0,10.795,6.121,12.626,12.626,0,0,0,12.619-12.6A12.639,12.639,0,0,0,757.2-688.72Zm-9.347-15.817,6.259,6.589h-4.06a2.213,2.213,0,0,1-2.2-2.208Zm-4.893,23.368h-8.321a.919.919,0,0,0-.917.917.919.919,0,0,0,.917.916h7.725a12.335,12.335,0,0,0-.348,2.951,12.215,12.215,0,0,0,.9,4.655H732.143v-.009a3.07,3.07,0,0,1-3.079-3.088V-702.8a3.1,3.1,0,0,1,3.079-3.125h13.874v5.764a4.04,4.04,0,0,0,4.032,4.041h5.315v7.157c-.275-.009-.495-.037-.733-.037a12.787,12.787,0,0,0-8.357,3.153H734.635a.919.919,0,0,0-.917.916.919.919,0,0,0,.917.916h9.934A14.575,14.575,0,0,0,742.956-681.169Zm11.666,15.56a10.779,10.779,0,0,1-10.768-10.768,10.773,10.773,0,0,1,10.768-10.768,10.773,10.773,0,0,1,10.767,10.768A10.778,10.778,0,0,1,754.622-665.608Z" fill="#404040"/>
    <path id="Trazado_9461" data-name="Trazado 9461" d="M803.7-504.237h9.283a.919.919,0,0,0,.916-.916.919.919,0,0,0-.916-.916H803.7a.919.919,0,0,0-.917.916A.919.919,0,0,0,803.7-504.237Z" transform="translate(-69.062 -184.363)" fill="#3e145e"/>
    <path id="Trazado_9462" data-name="Trazado 9462" d="M983.882-417.678l-3.766,4.06v-10.007a.919.919,0,0,0-.916-.916.919.919,0,0,0-.917.916v10.007l-3.794-4.06a.925.925,0,0,0-1.3-.046.913.913,0,0,0-.046,1.292l5.361,5.764a.923.923,0,0,0,.669.293.922.922,0,0,0,.669-.293l5.37-5.764a.913.913,0,0,0-.037-1.292A.914.914,0,0,0,983.882-417.678Z" transform="translate(-224.569 -258.89)" fill="#404040"/>
  </g>
</svg>
